<?xml version="1.0" encoding="UTF-8" standalone="no"?>
<!DOCTYPE svg PUBLIC "-//W3C//DTD SVG 20010904//EN"
              "http://www.w3.org/TR/2001/REC-SVG-20010904/DTD/svg10.dtd">

<svg xmlns="http://www.w3.org/2000/svg"
     width="9.72222in" height="9.72222in"
     viewBox="0 0 700 700">
  <path id="Selection"
        fill="none" stroke="black" stroke-width="1"
        d="M 700.00,0.00
           C 700.00,0.00 700.00,700.00 700.00,700.00
             700.00,700.00 0.00,700.00 0.00,700.00
             0.00,700.00 0.00,0.00 0.00,0.00
             0.00,0.00 700.00,0.00 700.00,0.00 Z
           M 454.18,302.85
           C 451.18,304.89 449.69,308.67 445.96,311.57
             442.38,314.36 438.53,314.20 435.56,318.11
             432.43,322.24 433.97,327.11 429.77,330.15
             425.70,333.10 421.42,330.75 417.00,331.83
             412.26,332.98 408.79,336.41 405.00,337.49
             405.00,337.49 381.00,338.00 381.00,338.00
             378.75,338.00 376.14,337.88 374.00,338.58
             371.02,339.55 368.48,342.33 365.11,341.21
             360.77,339.76 359.84,333.84 360.78,330.00
             362.39,323.40 370.79,313.71 376.00,309.47
             376.00,309.47 426.00,277.41 426.00,277.41
             431.49,273.80 430.25,273.78 434.17,270.37
             434.17,270.37 449.00,259.97 449.00,259.97
             455.57,256.20 458.42,259.13 465.00,259.97
             465.00,259.97 493.00,261.00 493.00,261.00
             496.19,260.99 500.09,261.29 502.77,259.26
             507.38,255.78 506.20,249.82 500.98,247.74
             498.80,246.87 495.37,247.00 493.00,247.14
             493.00,247.14 466.00,247.14 466.00,247.14
             466.00,247.14 458.00,247.14 458.00,247.14
             458.00,247.14 445.00,245.21 445.00,245.21
             445.00,245.21 432.00,246.00 432.00,246.00
             432.00,246.00 404.00,246.00 404.00,246.00
             391.23,246.02 392.15,248.40 382.00,254.95
             382.00,254.95 355.00,273.39 355.00,273.39
             355.00,273.39 300.00,310.51 300.00,310.51
             300.00,310.51 277.00,325.92 277.00,325.92
             270.84,329.67 254.73,342.46 249.00,343.88
             243.42,345.26 243.57,340.14 232.00,340.00
             227.06,339.94 219.48,339.57 215.00,341.34
             210.89,342.96 209.34,345.24 206.00,347.04
             203.05,348.61 195.16,349.63 196.20,360.00
             196.49,362.93 197.41,365.30 199.41,367.49
             201.28,369.53 205.23,371.46 203.26,374.79
             201.97,376.97 198.21,378.25 196.00,379.32
             191.94,381.27 187.79,384.03 184.00,386.50
             184.00,386.50 130.00,419.36 130.00,419.36
             125.25,421.85 118.68,425.74 119.20,431.98
             119.34,433.64 119.88,435.02 121.31,435.98
             123.43,437.39 130.27,437.03 133.00,437.00
             133.00,437.00 144.00,436.32 144.00,436.32
             144.00,436.32 163.00,437.81 163.00,437.81
             168.95,437.31 172.01,434.95 177.00,432.32
             177.00,432.32 205.00,416.32 205.00,416.32
             205.00,416.32 222.00,408.46 222.00,408.46
             222.00,408.46 230.00,405.66 230.00,405.66
             230.00,405.66 258.00,393.33 258.00,393.33
             258.00,393.33 269.00,390.96 269.00,390.96
             277.11,388.54 276.91,386.62 289.00,383.89
             303.80,380.55 303.05,389.18 316.00,391.54
             316.00,391.54 334.00,393.17 334.00,393.17
             334.00,393.17 351.00,398.76 351.00,398.76
             351.00,398.76 373.00,401.17 373.00,401.17
             373.00,401.17 385.00,403.63 385.00,403.63
             389.89,404.38 392.18,403.22 395.00,403.63
             398.83,404.02 400.71,406.38 406.00,406.90
             419.63,408.23 420.24,406.65 431.72,405.99
             431.72,405.99 443.00,406.98 443.00,406.98
             448.72,406.85 449.40,405.59 453.00,405.47
             456.91,404.87 459.46,406.49 465.00,405.47
             468.84,405.15 475.58,402.45 479.00,400.59
             481.20,399.40 484.71,396.37 487.00,396.33
             490.88,396.26 492.13,401.21 501.00,399.67
             507.15,398.61 511.89,394.38 518.00,393.17
             534.24,389.97 526.34,391.05 539.00,385.93
             539.00,385.93 548.00,382.68 548.00,382.68
             548.00,382.68 556.00,378.23 556.00,378.23
             556.00,378.23 564.00,374.88 564.00,374.88
             564.00,374.88 575.00,368.86 575.00,368.86
             581.93,365.39 591.89,359.44 589.56,350.00
             586.92,339.33 576.81,343.68 567.00,335.00
             573.04,333.77 580.35,331.57 580.35,324.00
             580.35,322.08 579.63,319.92 578.30,318.51
             574.91,314.90 568.30,316.80 562.00,313.93
             552.90,309.78 550.11,297.81 538.00,300.53
             535.83,301.02 533.96,302.00 532.00,303.00
             525.06,290.07 516.53,292.00 504.00,292.00
             499.63,292.00 493.92,291.49 490.00,293.45
             485.75,295.58 480.76,301.59 476.00,305.00
             472.00,298.26 459.30,299.39 454.18,302.85 Z
           M 435.04,283.26
           C 438.63,284.74 456.07,285.52 460.00,284.61
             468.22,282.70 468.54,274.43 462.89,271.85
             459.74,270.42 442.13,270.87 438.00,271.33
             426.68,274.16 430.20,281.27 435.04,283.26 Z" />
</svg>
