<?xml version="1.0" encoding="UTF-8" standalone="no"?>
<!DOCTYPE svg PUBLIC "-//W3C//DTD SVG 20010904//EN"
              "http://www.w3.org/TR/2001/REC-SVG-20010904/DTD/svg10.dtd">

<svg xmlns="http://www.w3.org/2000/svg"
     width="9.72222in" height="9.72222in"
     viewBox="0 0 700 700">
  <path id="Selection"
        fill="none" stroke="black" stroke-width="1"
        d="M 700.00,0.00
           C 700.00,0.00 700.00,700.00 700.00,700.00
             700.00,700.00 0.00,700.00 0.00,700.00
             0.00,700.00 0.00,0.00 0.00,0.00
             0.00,0.00 700.00,0.00 700.00,0.00 Z
           M 580.73,323.00
           C 580.47,320.87 579.50,319.04 577.77,317.74
             573.37,314.41 567.63,317.69 561.00,313.91
             555.16,310.59 552.60,304.62 547.99,301.93
             541.55,298.19 536.51,301.85 533.01,300.66
             529.49,299.45 528.02,295.38 522.99,293.23
             518.61,291.35 505.34,291.94 500.00,292.00
             495.26,292.06 491.15,292.59 487.28,295.65
             485.06,297.41 482.53,300.96 480.00,301.91
             477.14,302.97 475.00,301.01 471.00,300.33
             467.93,299.80 457.71,300.73 455.10,302.17
             451.35,304.25 450.37,308.63 446.82,311.49
             443.03,314.54 439.16,313.46 435.70,318.11
             432.71,322.13 433.72,326.46 430.57,329.30
             426.66,332.84 421.35,331.30 417.00,332.50
             417.00,332.50 406.00,337.45 406.00,337.45
             406.00,337.45 387.00,337.99 387.00,337.99
             379.60,338.14 377.38,336.25 370.00,338.69
             367.87,339.40 364.60,341.04 362.67,339.30
             360.46,337.43 361.49,334.04 362.67,332.00
             364.80,328.64 370.87,323.25 374.00,320.58
             381.90,313.86 390.94,309.77 400.00,304.96
             400.00,304.96 420.00,293.50 420.00,293.50
             420.00,293.50 431.00,288.12 431.00,288.12
             431.00,288.12 445.72,280.08 445.72,280.08
             449.01,277.83 451.88,274.41 456.28,275.18
             459.11,275.68 461.39,277.65 470.00,278.86
             470.00,278.86 494.00,278.86 494.00,278.86
             496.63,279.00 500.50,279.22 502.81,277.83
             506.70,275.43 506.79,269.62 502.81,266.74
             497.59,262.88 484.49,266.38 478.00,265.88
             471.24,265.37 468.29,260.61 463.00,258.28
             459.07,256.54 455.15,257.14 451.00,256.96
             442.87,256.61 434.37,253.67 429.00,262.00
             424.99,260.68 417.17,259.16 413.00,259.37
             413.00,259.37 401.00,260.73 401.00,260.73
             395.32,260.43 392.26,256.82 385.00,258.78
             372.87,262.07 358.90,274.77 349.00,282.25
             349.00,282.25 320.00,304.38 320.00,304.38
             320.00,304.38 288.00,325.22 288.00,325.22
             288.00,325.22 274.00,334.03 274.00,334.03
             270.60,336.50 261.89,342.78 258.00,343.51
             253.03,344.45 250.42,338.85 240.00,339.76
             240.00,339.76 225.00,339.76 225.00,339.76
             213.08,340.02 216.15,341.21 207.00,346.61
             201.09,350.11 193.85,352.12 196.57,362.00
             198.30,368.26 203.64,369.45 205.85,371.07
             207.41,372.21 208.73,373.63 207.83,375.69
             206.85,377.93 203.08,379.44 201.00,380.47
             201.00,380.47 189.00,387.50 189.00,387.50
             189.00,387.50 163.00,403.42 163.00,403.42
             163.00,403.42 139.00,418.22 139.00,418.22
             133.46,421.16 122.10,425.13 121.15,432.00
             119.52,443.74 135.20,439.01 142.00,439.00
             142.00,439.00 154.00,439.00 154.00,439.00
             154.00,439.00 165.00,439.68 165.00,439.68
             167.15,439.51 172.05,438.76 174.00,438.01
             174.00,438.01 209.00,417.74 209.00,417.74
             209.00,417.74 220.00,413.80 220.00,413.80
             220.00,413.80 229.00,409.34 229.00,409.34
             229.00,409.34 239.00,405.93 239.00,405.93
             239.00,405.93 248.00,401.51 248.00,401.51
             248.00,401.51 260.00,397.90 260.00,397.90
             260.00,397.90 270.00,393.78 270.00,393.78
             270.00,393.78 283.00,391.49 283.00,391.49
             289.54,390.02 298.03,384.72 303.00,384.43
             308.79,384.10 311.30,389.34 318.00,391.47
             318.00,391.47 334.00,393.90 334.00,393.90
             342.29,395.88 345.74,398.57 355.00,399.71
             355.00,399.71 373.00,401.46 373.00,401.46
             373.00,401.46 386.00,404.52 386.00,404.52
             390.91,405.06 392.54,403.18 396.00,403.88
             400.88,404.85 400.47,407.98 415.00,407.84
             415.00,407.84 426.00,407.84 426.00,407.84
             426.00,407.84 432.72,406.11 432.72,406.11
             435.61,405.86 438.49,407.57 442.00,407.79
             446.42,408.06 448.81,406.28 452.00,405.65
             457.93,405.18 460.11,408.64 470.00,405.65
             470.00,405.65 487.00,396.58 487.00,396.58
             489.50,396.32 491.38,398.51 494.00,399.54
             496.21,400.16 499.70,400.07 502.00,399.54
             507.65,398.69 512.38,395.00 517.00,393.63
             517.00,393.63 530.00,390.76 530.00,390.76
             530.00,390.76 539.00,386.46 539.00,386.46
             539.00,386.46 548.00,383.13 548.00,383.13
             548.00,383.13 558.00,377.98 558.00,377.98
             558.00,377.98 566.00,374.63 566.00,374.63
             566.00,374.63 573.00,370.51 573.00,370.51
             581.59,365.75 593.25,360.43 589.35,348.00
             585.99,337.30 578.40,343.88 569.00,336.00
             574.60,333.58 581.65,330.45 580.73,323.00 Z" />
</svg>
