<?xml version="1.0" encoding="UTF-8" standalone="no"?>
<!DOCTYPE svg PUBLIC "-//W3C//DTD SVG 20010904//EN"
              "http://www.w3.org/TR/2001/REC-SVG-20010904/DTD/svg10.dtd">

<svg xmlns="http://www.w3.org/2000/svg"
     width="9.72222in" height="9.72222in"
     viewBox="0 0 700 700">
  <path id="Selection"
        fill="none" stroke="black" stroke-width="1"
        d="M 700.00,0.00
           C 700.00,0.00 700.00,700.00 700.00,700.00
             700.00,700.00 0.00,700.00 0.00,700.00
             0.00,700.00 0.00,0.00 0.00,0.00
             0.00,0.00 700.00,0.00 700.00,0.00 Z
           M 406.00,142.00
           C 401.73,142.01 395.83,142.13 392.00,144.16
             387.73,146.43 384.96,151.24 382.00,154.96
             382.00,154.96 365.90,175.00 365.90,175.00
             365.90,175.00 339.19,209.07 339.19,209.07
             324.15,229.10 307.79,250.52 287.00,264.96
             287.00,264.96 262.00,279.85 262.00,279.85
             257.15,282.60 248.89,287.71 244.00,289.45
             233.37,293.25 222.00,292.55 211.00,294.13
             194.41,296.51 177.87,300.97 161.00,301.00
             156.20,301.01 146.20,300.65 142.00,301.68
             138.18,302.63 135.36,304.56 136.33,308.98
             137.72,315.32 145.97,314.99 151.00,315.00
             151.00,315.00 186.00,315.00 186.00,315.00
             186.00,315.00 221.00,312.56 221.00,312.56
             221.00,312.56 235.00,309.36 235.00,309.36
             238.47,308.96 249.04,311.95 251.98,313.85
             254.32,315.37 256.73,317.83 254.54,320.58
             251.96,323.83 243.97,324.22 240.00,324.92
             240.00,324.92 215.00,331.75 215.00,331.75
             215.00,331.75 207.00,336.55 207.00,336.55
             200.70,340.38 195.22,344.49 197.57,353.00
             198.99,358.14 202.94,359.99 207.00,362.74
             209.60,364.51 212.08,366.54 215.00,367.78
             215.00,367.78 239.00,373.84 239.00,373.84
             242.86,374.86 253.18,375.54 254.83,379.34
             255.89,381.77 253.74,383.98 251.94,385.30
             249.17,387.33 239.40,391.07 236.00,390.75
             233.56,390.52 227.82,387.39 215.00,386.04
             215.00,386.04 206.00,386.04 206.00,386.04
             206.00,386.04 180.00,384.00 180.00,384.00
             180.00,384.00 150.00,384.00 150.00,384.00
             147.11,384.00 142.75,383.81 140.19,385.31
             136.33,387.63 135.83,394.06 140.19,396.35
             143.65,398.21 161.23,398.95 166.00,399.00
             166.00,399.00 176.00,400.04 176.00,400.04
             176.00,400.04 186.00,400.04 186.00,400.04
             186.00,400.04 217.00,405.74 217.00,405.74
             230.95,408.34 235.18,406.53 250.00,412.75
             250.00,412.75 267.00,422.00 267.00,422.00
             292.45,436.66 298.73,442.38 318.91,464.28
             318.91,464.28 339.74,491.00 339.74,491.00
             339.74,491.00 357.35,513.00 357.35,513.00
             357.35,513.00 374.00,535.00 374.00,535.00
             374.00,535.00 382.68,545.00 382.68,545.00
             389.90,553.74 389.98,556.84 403.00,557.00
             403.00,557.00 425.00,557.00 425.00,557.00
             425.00,557.00 440.00,557.83 440.00,557.83
             440.00,557.83 453.00,555.18 453.00,555.18
             453.00,555.18 461.00,555.98 461.00,555.98
             461.00,555.98 480.00,555.98 480.00,555.98
             483.49,555.99 487.69,556.26 490.61,553.99
             495.16,550.46 493.76,544.46 487.98,542.04
             483.09,540.40 478.04,541.94 473.00,542.04
             473.00,542.04 455.00,542.04 455.00,542.04
             455.00,542.04 448.58,542.04 448.58,542.04
             441.54,540.24 432.11,526.71 427.42,521.00
             427.42,521.00 375.09,453.00 375.09,453.00
             371.71,448.25 363.59,435.06 361.35,430.00
             359.80,426.51 358.51,422.54 360.75,419.05
             364.61,413.05 371.02,414.43 377.00,413.57
             382.30,412.81 384.34,412.07 390.00,412.00
             390.00,412.00 411.00,413.00 411.00,413.00
             411.00,413.00 423.00,413.00 423.00,413.00
             423.00,413.00 434.00,413.92 434.00,413.92
             434.00,413.92 443.00,413.04 443.00,413.04
             443.00,413.04 476.00,410.83 476.00,410.83
             487.79,409.65 487.14,408.17 502.00,408.00
             514.58,407.85 517.16,405.42 528.00,401.82
             528.00,401.82 541.00,398.90 541.00,398.90
             541.00,398.90 554.00,392.61 554.00,392.61
             569.60,385.99 592.95,368.86 592.97,350.00
             593.00,330.48 571.65,315.10 556.00,307.25
             539.30,298.87 546.61,303.04 532.00,298.25
             526.89,296.58 524.74,294.61 519.00,293.46
             519.00,293.46 494.00,290.87 494.00,290.87
             494.00,290.87 479.00,288.28 479.00,288.28
             479.00,288.28 449.00,285.91 449.00,285.91
             449.00,285.91 435.00,285.00 435.00,285.00
             435.00,285.00 422.00,286.00 422.00,286.00
             422.00,286.00 377.00,285.44 377.00,285.44
             371.78,284.85 365.62,286.53 361.92,281.77
             358.50,277.54 359.86,272.44 361.92,268.00
             366.38,258.80 372.37,250.57 377.81,242.00
             384.45,231.54 392.72,222.53 400.54,213.00
             400.54,213.00 416.23,192.00 416.23,192.00
             416.23,192.00 429.83,176.00 429.83,176.00
             437.98,166.48 440.79,157.07 455.00,156.99
             455.00,156.99 469.00,156.99 469.00,156.99
             475.09,157.07 482.14,159.19 487.98,156.99
             495.02,154.30 495.16,146.67 488.95,143.65
             483.89,141.19 476.71,142.99 471.00,143.13
             471.00,143.13 460.00,143.13 460.00,143.13
             460.00,143.13 450.00,143.13 450.00,143.13
             446.97,142.98 443.77,141.39 439.00,141.19
             439.00,141.19 434.00,141.19 434.00,141.19
             425.39,142.52 414.87,141.99 406.00,142.00 Z" />
</svg>
