<?xml version="1.0" encoding="UTF-8" standalone="no"?>
<!DOCTYPE svg PUBLIC "-//W3C//DTD SVG 20010904//EN"
              "http://www.w3.org/TR/2001/REC-SVG-20010904/DTD/svg10.dtd">

<svg xmlns="http://www.w3.org/2000/svg"
     width="9.72222in" height="9.72222in"
     viewBox="0 0 700 700">
  <path id="Selection"
        fill="none" stroke="black" stroke-width="1"
        d="M 700.00,0.00
           C 700.00,0.00 700.00,700.00 700.00,700.00
             700.00,700.00 0.00,700.00 0.00,700.00
             0.00,700.00 0.00,0.00 0.00,0.00
             0.00,0.00 700.00,0.00 700.00,0.00 Z
           M 405.00,166.32
           C 392.92,165.42 389.20,172.08 381.92,180.00
             381.92,180.00 366.84,196.01 366.84,196.01
             366.84,196.01 348.17,216.00 348.17,216.00
             348.17,216.00 320.91,245.83 320.91,245.83
             310.94,255.50 293.38,268.29 281.00,274.64
             274.80,277.82 250.26,287.75 244.00,288.45
             244.00,288.45 219.00,285.96 219.00,285.96
             219.00,285.96 210.00,285.96 210.00,285.96
             210.00,285.96 178.00,283.00 178.00,283.00
             178.00,283.00 158.00,283.00 158.00,283.00
             154.87,283.02 139.37,284.03 137.42,285.29
             134.62,287.09 132.17,293.66 138.06,296.28
             141.57,297.84 148.15,297.80 152.00,298.17
             152.00,298.17 187.00,300.00 187.00,300.00
             187.00,300.00 202.00,301.00 202.00,301.00
             217.66,301.02 225.78,299.90 240.00,308.27
             243.51,310.33 257.60,314.83 252.58,320.57
             249.44,324.16 240.44,323.91 236.00,324.01
             223.88,324.31 219.25,327.56 209.00,332.73
             201.16,336.69 194.09,341.89 198.15,351.98
             200.44,357.70 204.16,357.47 209.00,359.70
             209.00,359.70 221.00,366.04 221.00,366.04
             225.97,367.83 231.78,367.86 237.00,368.58
             241.82,369.24 250.33,369.84 253.36,374.22
             256.03,378.09 252.30,383.12 246.00,381.00
             243.35,380.10 241.27,378.28 236.00,376.75
             236.00,376.75 219.00,372.45 219.00,372.45
             219.00,372.45 206.00,369.96 206.00,369.96
             195.19,366.83 188.92,363.14 177.00,363.00
             177.00,363.00 151.00,363.00 151.00,363.00
             148.06,363.00 143.74,362.82 141.19,364.31
             136.95,366.73 137.50,372.05 141.19,374.64
             144.61,376.98 149.96,377.18 154.00,378.00
             154.00,378.00 168.00,381.50 168.00,381.50
             168.00,381.50 181.00,384.01 181.00,384.01
             181.00,384.01 195.00,388.56 195.00,388.56
             195.00,388.56 207.00,391.70 207.00,391.70
             207.00,391.70 218.00,396.31 218.00,396.31
             218.00,396.31 229.00,399.95 229.00,399.95
             229.00,399.95 239.00,405.74 239.00,405.74
             239.00,405.74 247.00,408.68 247.00,408.68
             250.52,410.23 260.65,416.39 264.00,418.72
             280.22,430.00 291.28,438.36 304.91,453.00
             325.88,475.52 342.28,501.55 360.77,526.00
             360.77,526.00 378.58,550.00 378.58,550.00
             381.20,553.64 385.43,560.50 389.09,562.72
             392.97,565.07 397.64,564.99 402.00,564.96
             402.00,564.96 415.00,564.96 415.00,564.96
             415.00,564.96 423.00,564.08 423.00,564.08
             423.00,564.08 433.00,564.99 433.00,564.99
             444.71,565.25 444.71,562.41 452.00,562.04
             452.00,562.04 475.00,563.00 475.00,563.00
             477.85,562.98 481.25,563.09 483.77,561.55
             487.84,559.06 487.84,552.94 483.77,550.45
             480.17,548.25 467.69,548.96 463.00,548.95
             457.90,549.05 446.74,550.88 443.00,548.95
             436.25,545.35 426.56,529.77 421.35,523.00
             421.35,523.00 412.50,511.00 412.50,511.00
             412.50,511.00 403.77,500.00 403.77,500.00
             403.77,500.00 397.25,490.00 397.25,490.00
             397.25,490.00 371.69,453.00 371.69,453.00
             369.23,448.90 369.16,447.98 367.33,444.00
             367.33,444.00 362.53,435.00 362.53,435.00
             359.08,427.14 357.88,415.06 367.02,410.57
             370.47,408.87 380.91,408.02 385.00,408.00
             385.00,408.00 408.00,408.00 408.00,408.00
             408.00,408.00 423.00,409.00 423.00,409.00
             423.00,409.00 444.00,409.00 444.00,409.00
             444.00,409.00 459.00,408.00 459.00,408.00
             459.00,408.00 501.00,405.72 501.00,405.72
             501.00,405.72 516.00,401.81 516.00,401.81
             516.00,401.81 529.00,399.79 529.00,399.79
             538.16,397.85 554.02,391.66 562.00,386.81
             569.39,382.32 577.07,378.00 582.47,371.00
             585.46,367.12 585.77,364.83 587.95,361.00
             590.66,356.23 592.65,354.92 592.96,349.00
             593.39,340.73 589.94,336.21 584.91,330.00
             578.68,322.32 569.96,314.25 561.00,309.90
             561.00,309.90 551.00,305.63 551.00,305.63
             535.14,297.78 542.54,302.34 530.00,298.25
             525.09,296.65 521.37,294.28 516.00,293.32
             516.00,293.32 496.00,291.58 496.00,291.58
             496.00,291.58 474.00,288.16 474.00,288.16
             474.00,288.16 444.00,285.91 444.00,285.91
             444.00,285.91 436.00,285.04 436.00,285.04
             436.00,285.04 421.00,286.00 421.00,286.00
             421.00,286.00 389.00,286.00 389.00,286.00
             389.00,286.00 376.00,285.08 376.00,285.08
             376.00,285.08 367.00,285.75 367.00,285.75
             364.53,285.47 361.40,284.18 360.28,281.79
             358.82,278.67 361.47,275.31 363.32,273.00
             363.32,273.00 378.30,254.00 378.30,254.00
             378.30,254.00 397.91,233.00 397.91,233.00
             397.91,233.00 428.91,200.00 428.91,200.00
             434.19,194.33 443.54,182.97 451.00,180.56
             453.06,179.89 455.82,180.00 458.00,180.00
             458.00,180.00 478.00,180.00 478.00,180.00
             482.72,180.01 489.80,181.18 493.92,179.30
             499.94,176.57 499.48,169.36 493.92,166.85
             490.36,165.26 480.34,166.30 475.92,166.22
             475.92,166.22 456.00,166.91 456.00,166.91
             448.95,166.34 449.11,164.06 436.00,165.28
             428.62,166.35 412.42,166.88 405.00,166.32 Z" />
</svg>
