<?xml version="1.0" encoding="UTF-8" standalone="no"?>
<!DOCTYPE svg PUBLIC "-//W3C//DTD SVG 20010904//EN"
              "http://www.w3.org/TR/2001/REC-SVG-20010904/DTD/svg10.dtd">

<svg xmlns="http://www.w3.org/2000/svg"
     width="9.72222in" height="9.72222in"
     viewBox="0 0 700 700">
  <path id="Selection"
        fill="none" stroke="black" stroke-width="1"
        d="M 700.00,0.00
           C 700.00,0.00 700.00,700.00 700.00,700.00
             700.00,700.00 0.00,700.00 0.00,700.00
             0.00,700.00 0.00,0.00 0.00,0.00
             0.00,0.00 700.00,0.00 700.00,0.00 Z
           M 390.00,266.42
           C 390.00,266.42 430.00,234.35 430.00,234.35
             435.64,230.01 449.39,219.61 456.00,218.05
             456.00,218.05 466.00,218.05 466.00,218.05
             466.00,218.05 493.00,218.82 493.00,218.82
             496.34,218.48 500.11,217.42 501.39,213.94
             503.21,208.97 499.39,205.72 495.00,204.85
             495.00,204.85 469.00,204.85 469.00,204.85
             469.00,204.85 457.00,206.09 457.00,206.09
             452.91,205.65 452.61,203.85 444.00,204.02
             444.00,204.02 417.00,206.00 417.00,206.00
             417.00,206.00 404.00,206.00 404.00,206.00
             401.04,206.00 397.82,205.87 395.00,206.88
             390.64,208.43 386.59,212.63 383.00,215.54
             383.00,215.54 368.00,226.91 368.00,226.91
             346.79,244.08 322.46,267.65 298.00,279.00
             289.44,282.98 279.90,288.65 270.00,287.81
             270.00,287.81 245.00,281.50 245.00,281.50
             245.00,281.50 222.00,277.29 222.00,277.29
             222.00,277.29 205.00,275.54 205.00,275.54
             205.00,275.54 190.00,270.34 190.00,270.34
             190.00,270.34 164.00,268.00 164.00,268.00
             159.30,267.95 140.28,267.57 137.04,268.65
             130.87,270.71 130.35,278.42 136.06,281.43
             136.06,281.43 152.00,285.72 152.00,285.72
             170.11,291.09 166.03,288.63 181.00,291.46
             181.00,291.46 202.00,296.58 202.00,296.58
             212.82,298.53 218.16,298.26 229.00,302.00
             238.31,305.22 238.64,307.59 246.00,313.14
             247.99,314.64 251.80,317.08 251.80,319.90
             251.80,325.47 242.02,323.34 239.00,323.34
             239.00,323.34 234.00,323.85 234.00,323.85
             224.71,324.92 205.50,329.70 199.70,337.21
             197.65,339.86 197.29,342.80 197.00,346.00
             187.53,345.00 186.26,340.15 174.00,340.00
             174.00,340.00 170.00,340.00 170.00,340.00
             170.00,340.00 157.00,339.00 157.00,339.00
             157.00,339.00 153.00,339.00 153.00,339.00
             148.07,339.01 138.26,339.16 137.77,346.01
             137.62,348.20 138.82,350.16 140.28,351.67
             146.31,357.95 158.01,359.42 166.00,361.48
             171.37,362.86 172.44,363.94 177.00,365.81
             177.00,365.81 187.00,369.18 187.00,369.18
             187.00,369.18 199.00,374.83 199.00,374.83
             199.00,374.83 216.00,382.27 216.00,382.27
             216.00,382.27 235.00,392.96 235.00,392.96
             235.00,392.96 243.00,398.73 243.00,398.73
             243.00,398.73 251.00,403.23 251.00,403.23
             275.82,419.13 302.18,443.93 320.49,467.00
             320.49,467.00 333.48,485.00 333.48,485.00
             333.48,485.00 354.27,513.00 354.27,513.00
             354.27,513.00 375.09,541.00 375.09,541.00
             378.22,545.36 382.33,552.26 387.01,554.86
             390.89,557.02 395.70,556.99 400.00,557.00
             400.00,557.00 431.00,557.00 431.00,557.00
             431.00,557.00 444.00,555.94 444.00,555.94
             444.00,555.94 469.00,555.94 469.00,555.94
             471.89,555.98 475.33,556.16 477.72,554.26
             481.58,551.21 481.83,543.54 471.00,543.04
             471.00,543.04 457.00,543.95 457.00,543.95
             457.00,543.95 448.00,543.09 448.00,543.09
             445.40,542.89 443.51,543.14 441.00,542.07
             431.02,537.80 419.92,520.10 414.06,511.00
             414.06,511.00 402.15,495.00 402.15,495.00
             402.15,495.00 389.65,477.00 389.65,477.00
             382.14,466.90 380.98,466.71 374.68,455.00
             369.29,444.97 362.92,435.14 360.13,424.00
             358.66,418.15 357.02,414.48 360.99,409.09
             366.20,402.02 375.94,401.22 384.00,400.99
             384.00,400.99 399.00,400.00 399.00,400.00
             399.00,400.00 426.00,401.96 426.00,401.96
             426.00,401.96 436.00,401.18 436.00,401.18
             436.00,401.18 455.00,402.82 455.00,402.82
             455.00,402.82 467.00,402.00 467.00,402.00
             467.00,402.00 500.00,399.17 500.00,399.17
             510.86,398.13 519.29,397.64 530.00,394.57
             530.00,394.57 552.00,385.59 552.00,385.59
             552.00,385.59 564.00,381.60 564.00,381.60
             566.77,380.28 579.80,370.83 581.73,368.79
             581.73,368.79 587.21,361.00 587.21,361.00
             590.60,356.79 593.90,353.96 593.74,348.00
             593.56,341.37 589.19,336.67 585.05,332.00
             576.11,321.92 567.44,315.17 555.00,309.72
             555.00,309.72 534.00,301.48 534.00,301.48
             534.00,301.48 516.00,298.10 516.00,298.10
             516.00,298.10 500.00,293.32 500.00,293.32
             500.00,293.32 475.00,291.72 475.00,291.72
             475.00,291.72 455.00,288.43 455.00,288.43
             455.00,288.43 425.00,286.00 425.00,286.00
             412.91,285.88 405.85,289.15 395.00,290.61
             388.23,291.67 383.51,290.21 379.00,290.61
             371.21,291.04 371.03,292.99 363.00,290.00
             367.44,281.80 382.19,272.22 390.00,266.42 Z" />
</svg>
