<?xml version="1.0" encoding="UTF-8" standalone="no"?>
<!DOCTYPE svg PUBLIC "-//W3C//DTD SVG 20010904//EN"
              "http://www.w3.org/TR/2001/REC-SVG-20010904/DTD/svg10.dtd">

<svg xmlns="http://www.w3.org/2000/svg"
     width="9.72222in" height="9.72222in"
     viewBox="0 0 700 700">
  <path id="Selection"
        fill="none" stroke="black" stroke-width="1"
        d="M 700.00,0.00
           C 700.00,0.00 700.00,700.00 700.00,700.00
             700.00,700.00 0.00,700.00 0.00,700.00
             0.00,700.00 0.00,0.00 0.00,0.00
             0.00,0.00 700.00,0.00 700.00,0.00 Z
           M 430.00,279.57
           C 430.00,279.57 448.00,273.53 448.00,273.53
             450.49,272.57 455.58,269.40 457.42,269.25
             459.61,269.08 461.77,270.91 469.00,271.00
             469.00,271.00 493.00,271.00 493.00,271.00
             496.19,270.99 500.09,271.29 502.77,269.26
             507.41,265.76 507.36,257.21 496.00,257.00
             496.00,257.00 464.00,257.00 464.00,257.00
             464.00,257.00 448.00,255.03 448.00,255.03
             448.00,255.03 430.00,257.00 430.00,257.00
             430.00,257.00 415.00,257.82 415.00,257.82
             415.00,257.82 406.00,257.01 406.00,257.01
             393.47,256.73 385.79,262.01 375.00,267.40
             375.00,267.40 335.00,286.59 335.00,286.59
             329.41,289.07 319.92,295.41 314.00,295.15
             310.34,294.99 306.45,291.88 303.00,290.35
             299.31,288.71 294.97,287.94 291.00,287.25
             291.00,287.25 278.00,285.17 278.00,285.17
             278.00,285.17 258.00,283.54 258.00,283.54
             251.07,282.29 247.53,279.85 242.00,278.30
             242.00,278.30 226.00,275.66 226.00,275.66
             226.00,275.66 213.00,270.90 213.00,270.90
             213.00,270.90 203.00,268.61 203.00,268.61
             196.44,266.81 195.90,264.95 191.00,262.98
             187.03,261.38 171.30,258.06 167.00,258.00
             167.00,258.00 160.00,258.00 160.00,258.00
             160.00,258.00 138.00,256.19 138.00,256.19
             124.65,257.32 127.96,270.06 136.00,273.64
             136.00,273.64 149.00,277.09 149.00,277.09
             149.00,277.09 160.00,281.48 160.00,281.48
             160.00,281.48 171.00,284.95 171.00,284.95
             171.00,284.95 179.00,288.79 179.00,288.79
             179.00,288.79 190.00,292.09 190.00,292.09
             190.00,292.09 200.00,296.41 200.00,296.41
             200.00,296.41 218.00,302.14 218.00,302.14
             225.28,305.32 237.85,309.06 243.96,313.64
             244.93,314.37 245.81,315.15 246.57,316.10
             253.03,324.18 243.52,324.99 238.00,325.00
             238.00,325.00 227.00,325.00 227.00,325.00
             222.65,325.05 218.78,325.37 215.04,327.88
             215.04,327.88 208.83,333.09 208.83,333.09
             204.18,335.00 202.03,327.44 194.00,323.95
             177.70,316.88 171.45,320.08 155.00,317.73
             150.38,317.07 142.19,315.70 139.18,320.39
             136.70,324.24 139.09,330.66 142.22,333.44
             145.96,336.77 151.41,337.24 156.00,338.75
             156.00,338.75 169.00,344.84 169.00,344.84
             169.00,344.84 209.00,366.31 209.00,366.31
             209.00,366.31 220.00,373.65 220.00,373.65
             220.00,373.65 237.00,380.85 237.00,380.85
             237.00,380.85 247.00,389.37 247.00,389.37
             247.00,389.37 255.00,394.53 255.00,394.53
             255.00,394.53 266.00,403.92 266.00,403.92
             266.00,403.92 282.72,417.42 282.72,417.42
             309.89,439.97 339.14,480.38 362.25,508.00
             367.01,513.70 382.05,533.10 387.00,535.91
             390.31,537.80 393.31,537.95 397.00,538.00
             397.00,538.00 416.00,538.00 416.00,538.00
             416.00,538.00 427.00,538.91 427.00,538.91
             435.68,539.40 437.32,535.71 441.17,534.51
             442.89,533.97 455.81,533.45 458.00,533.60
             462.28,533.89 470.26,536.94 472.92,531.78
             473.52,530.61 473.52,529.39 472.92,528.22
             471.05,524.59 466.31,525.11 463.00,525.59
             463.00,525.59 441.00,526.65 441.00,526.65
             437.47,525.92 430.02,518.50 427.09,515.72
             419.08,508.12 406.31,489.41 399.26,480.00
             383.47,458.93 380.10,457.94 366.69,433.00
             361.11,422.62 353.29,406.38 363.33,396.22
             367.23,392.27 370.95,392.38 376.00,391.72
             376.00,391.72 410.00,391.00 410.00,391.00
             410.00,391.00 436.00,392.96 436.00,392.96
             436.00,392.96 446.00,392.96 446.00,392.96
             449.87,392.65 451.72,391.85 456.00,392.09
             456.00,392.09 470.00,394.25 470.00,394.25
             470.00,394.25 479.00,394.25 479.00,394.25
             484.67,394.83 486.10,397.89 494.00,399.19
             500.50,400.61 505.56,399.03 512.00,399.19
             515.91,398.98 522.61,399.51 526.00,397.83
             529.31,396.18 531.52,392.86 535.00,391.60
             539.58,389.94 544.83,393.10 551.00,389.84
             556.39,386.98 557.62,381.83 562.04,378.43
             567.43,374.30 573.13,377.66 578.98,375.27
             584.30,373.09 584.01,368.62 585.65,365.00
             588.25,359.23 595.22,355.15 593.45,347.00
             592.21,341.25 587.03,336.78 583.00,332.84
             570.03,320.14 569.65,320.93 554.00,313.24
             541.83,307.26 543.35,309.54 533.00,306.11
             523.91,303.10 521.80,300.13 511.00,300.00
             494.00,299.80 493.72,296.76 478.00,293.80
             478.00,293.80 452.00,292.00 452.00,292.00
             452.00,292.00 437.00,291.02 437.00,291.02
             422.07,291.62 424.66,294.14 408.00,291.02
             412.55,281.61 421.37,282.66 430.00,279.57 Z" />
</svg>
