<?xml version="1.0" encoding="UTF-8" standalone="no"?>
<!DOCTYPE svg PUBLIC "-//W3C//DTD SVG 20010904//EN"
              "http://www.w3.org/TR/2001/REC-SVG-20010904/DTD/svg10.dtd">

<svg xmlns="http://www.w3.org/2000/svg"
     width="9.72222in" height="9.72222in"
     viewBox="0 0 700 700">
  <path id="Selection"
        fill="none" stroke="black" stroke-width="1"
        d="M 700.00,0.00
           C 700.00,0.00 700.00,700.00 700.00,700.00
             700.00,700.00 0.00,700.00 0.00,700.00
             0.00,700.00 0.00,0.00 0.00,0.00
             0.00,0.00 700.00,0.00 700.00,0.00 Z
           M 127.60,264.78
           C 129.82,267.71 142.10,272.96 146.00,274.55
             146.00,274.55 173.00,287.66 173.00,287.66
             173.00,287.66 182.00,290.73 182.00,290.73
             182.00,290.73 192.00,296.10 192.00,296.10
             192.00,296.10 200.00,299.37 200.00,299.37
             200.00,299.37 209.00,304.51 209.00,304.51
             209.00,304.51 219.00,309.08 219.00,309.08
             219.00,309.08 235.98,316.70 235.98,316.70
             237.53,317.79 239.80,319.79 239.80,321.86
             239.80,325.63 230.86,327.90 223.00,322.51
             223.00,322.51 215.00,316.36 215.00,316.36
             208.40,311.90 203.64,310.54 197.00,307.19
             193.40,305.38 189.69,302.40 186.00,301.40
             179.73,299.70 173.36,300.35 167.00,299.91
             167.00,299.91 160.00,299.09 160.00,299.09
             152.59,298.55 135.35,294.15 137.15,306.98
             137.73,311.14 140.57,312.62 144.00,314.40
             144.00,314.40 162.00,323.34 162.00,323.34
             162.00,323.34 176.00,331.56 176.00,331.56
             176.00,331.56 184.00,337.23 184.00,337.23
             184.00,337.23 194.70,342.70 194.70,342.70
             197.14,344.81 197.18,347.22 199.43,349.87
             201.45,352.26 206.18,354.92 209.00,356.55
             219.18,362.45 223.60,358.55 232.00,363.48
             237.99,367.00 242.62,372.22 248.00,376.49
             248.00,376.49 275.00,397.87 275.00,397.87
             301.21,420.13 313.73,430.13 337.60,456.28
             337.60,456.28 366.84,488.00 366.84,488.00
             371.89,493.66 378.99,502.92 386.00,505.78
             390.91,507.78 404.08,506.93 410.00,507.00
             410.00,507.00 422.00,507.99 422.00,507.99
             433.83,508.25 432.19,505.02 438.00,504.17
             438.00,504.17 459.04,504.95 459.04,504.95
             461.25,505.02 464.80,505.11 466.68,503.83
             469.84,501.67 468.26,498.11 464.94,496.91
             461.75,495.42 454.93,496.95 451.00,496.91
             451.00,496.91 447.00,496.91 447.00,496.91
             443.90,497.04 436.87,498.69 435.09,497.93
             433.06,497.08 429.67,492.77 427.96,491.00
             427.96,491.00 413.95,477.00 413.95,477.00
             402.63,464.32 376.52,435.34 368.45,422.00
             362.59,412.30 353.12,395.61 361.71,385.10
             367.32,378.24 377.71,377.01 386.00,377.00
             394.60,376.99 398.32,376.63 407.00,378.26
             418.52,380.42 414.99,382.15 429.00,382.00
             434.46,381.93 441.09,380.50 445.96,383.74
             450.66,386.86 450.28,390.66 453.30,393.72
             456.33,396.81 459.97,396.95 464.00,397.00
             464.00,397.00 482.00,397.97 482.00,397.97
             485.99,399.19 489.15,403.34 495.00,404.80
             495.00,404.80 512.00,404.80 512.00,404.80
             516.13,404.95 522.35,404.35 526.00,402.43
             529.29,400.70 532.03,397.54 535.00,396.76
             538.19,395.93 543.92,398.52 549.96,394.91
             555.47,391.62 556.40,385.26 564.00,381.99
             571.38,378.82 582.75,380.95 583.42,370.00
             583.56,367.73 582.99,366.32 584.06,364.00
             586.12,359.51 591.23,357.78 591.89,351.00
             592.71,342.56 586.87,337.46 581.00,332.43
             574.21,326.61 566.38,320.93 558.00,317.62
             558.00,317.62 549.00,314.42 549.00,314.42
             549.00,314.42 539.00,309.61 539.00,309.61
             539.00,309.61 525.00,306.23 525.00,306.23
             519.67,304.59 514.91,301.52 509.00,301.21
             504.23,300.97 501.50,303.49 497.00,302.71
             493.27,302.07 489.31,298.70 486.00,296.76
             482.23,294.55 477.33,292.92 473.00,292.30
             464.59,291.09 462.07,293.82 457.00,293.82
             453.67,293.82 450.43,291.95 439.00,292.14
             439.00,292.14 430.00,292.14 430.00,292.14
             430.00,292.14 413.00,292.14 413.00,292.14
             413.00,292.14 400.00,293.11 400.00,293.11
             400.00,293.11 391.00,293.11 391.00,293.11
             366.65,292.76 357.99,301.00 345.00,302.52
             340.73,303.02 336.28,301.60 332.00,301.17
             332.00,301.17 311.00,298.83 311.00,298.83
             311.00,298.83 294.00,293.46 294.00,293.46
             294.00,293.46 277.00,291.48 277.00,291.48
             277.00,291.48 260.00,285.75 260.00,285.75
             260.00,285.75 247.00,283.37 247.00,283.37
             247.00,283.37 236.00,278.55 236.00,278.55
             236.00,278.55 223.00,275.05 223.00,275.05
             223.00,275.05 214.00,270.95 214.00,270.95
             214.00,270.95 203.00,267.46 203.00,267.46
             203.00,267.46 196.00,263.52 196.00,263.52
             196.00,263.52 189.00,260.56 189.00,260.56
             184.85,258.68 181.40,255.61 177.00,254.30
             168.82,251.88 160.33,253.56 152.00,253.34
             145.96,253.03 135.77,252.54 130.06,253.34
             125.51,255.53 124.61,260.84 127.60,264.78 Z" />
</svg>
