<?xml version="1.0" encoding="UTF-8" standalone="no"?>
<!DOCTYPE svg PUBLIC "-//W3C//DTD SVG 20010904//EN"
              "http://www.w3.org/TR/2001/REC-SVG-20010904/DTD/svg10.dtd">

<svg xmlns="http://www.w3.org/2000/svg"
     width="9.72222in" height="9.72222in"
     viewBox="0 0 700 700">
  <path id="Selection"
        fill="none" stroke="black" stroke-width="1"
        d="M 700.00,0.00
           C 700.00,0.00 700.00,700.00 700.00,700.00
             700.00,700.00 0.00,700.00 0.00,700.00
             0.00,700.00 0.00,0.00 0.00,0.00
             0.00,0.00 700.00,0.00 700.00,0.00 Z
           M 591.72,350.00
           C 592.30,340.84 582.48,333.40 576.00,328.43
             566.17,320.88 557.14,318.29 546.00,314.04
             546.00,314.04 533.00,308.59 533.00,308.59
             533.00,308.59 523.00,306.51 523.00,306.51
             523.00,306.51 509.00,301.54 509.00,301.54
             503.35,300.40 499.27,303.41 494.00,302.43
             487.12,301.16 480.72,294.60 469.00,292.62
             461.98,291.43 460.37,293.67 456.00,294.30
             451.04,295.02 449.75,292.04 442.00,292.03
             442.00,292.03 430.00,293.16 430.00,293.16
             430.00,293.16 414.00,292.00 414.00,292.00
             404.51,292.05 402.49,293.92 398.00,294.19
             393.98,294.43 390.94,292.44 384.00,293.17
             384.00,293.17 366.00,297.58 366.00,297.58
             366.00,297.58 348.00,300.91 348.00,300.91
             343.21,302.28 336.85,305.18 332.00,305.66
             326.23,306.23 322.24,303.36 317.00,301.93
             317.00,301.93 299.00,298.98 299.00,298.98
             299.00,298.98 286.00,294.35 286.00,294.35
             286.00,294.35 267.00,291.32 267.00,291.32
             267.00,291.32 254.00,286.24 254.00,286.24
             254.00,286.24 242.00,283.39 242.00,283.39
             242.00,283.39 232.00,278.63 232.00,278.63
             226.30,276.37 223.71,277.20 217.00,274.02
             217.00,274.02 188.00,260.49 188.00,260.49
             179.81,256.36 178.38,253.25 168.00,253.01
             168.00,253.01 155.00,253.96 155.00,253.96
             155.00,253.96 141.00,253.00 141.00,253.00
             138.21,252.97 130.44,252.71 128.23,253.74
             123.87,255.77 123.98,262.99 129.30,267.01
             129.30,267.01 160.00,281.94 160.00,281.94
             166.17,284.35 172.86,286.06 175.00,292.92
             175.00,292.92 156.00,292.92 156.00,292.92
             152.58,292.50 147.27,291.31 144.00,291.64
             139.64,292.06 136.04,294.15 136.16,298.99
             136.32,305.16 147.02,310.36 152.00,312.69
             161.13,316.96 176.68,326.33 185.00,332.14
             187.14,333.64 195.11,338.12 195.98,339.41
             197.77,342.10 196.16,346.30 200.39,350.45
             203.22,353.22 213.00,358.96 217.00,359.67
             223.93,360.91 231.42,358.77 238.99,362.68
             243.66,365.10 246.32,369.88 250.17,373.38
             250.17,373.38 268.00,387.01 268.00,387.01
             300.54,412.18 325.82,435.68 354.42,465.16
             354.42,465.16 373.93,484.72 373.93,484.72
             376.91,487.59 380.21,491.23 384.00,492.92
             387.40,494.43 394.23,495.11 398.00,494.96
             398.00,494.96 409.00,494.04 409.00,494.04
             409.00,494.04 422.00,495.92 422.00,495.92
             422.00,495.92 431.00,495.92 431.00,495.92
             431.00,495.92 446.00,497.00 446.00,497.00
             450.09,497.01 463.98,497.47 466.96,496.26
             470.90,494.66 472.90,490.09 471.26,486.11
             469.46,481.74 464.11,481.12 460.00,481.01
             453.39,480.85 435.66,483.51 431.00,481.62
             424.79,479.10 416.78,470.78 412.00,466.00
             412.00,466.00 389.83,442.00 389.83,442.00
             389.83,442.00 380.18,432.00 380.18,432.00
             372.42,423.18 361.76,407.56 359.45,396.00
             358.22,389.86 358.17,382.99 363.33,378.51
             369.10,373.49 386.40,372.92 394.00,373.00
             394.00,373.00 411.00,374.46 411.00,374.46
             411.00,374.46 419.00,376.49 419.00,376.49
             419.00,376.49 429.00,377.85 429.00,377.85
             429.00,377.85 437.00,381.64 437.00,381.64
             437.00,381.64 444.96,384.17 444.96,384.17
             449.89,386.86 449.81,391.54 452.65,394.58
             456.02,398.20 461.47,397.99 466.00,398.07
             466.00,398.07 481.42,398.07 481.42,398.07
             484.92,399.15 487.36,403.10 492.00,404.99
             497.75,407.35 504.04,406.07 510.00,406.00
             514.60,405.96 520.90,406.59 525.00,404.55
             529.07,402.51 531.22,398.91 535.00,398.02
             537.78,397.37 544.73,399.01 548.99,396.83
             554.36,394.07 555.51,388.21 560.10,384.85
             564.64,381.53 568.94,382.40 574.00,381.10
             583.58,378.64 585.47,369.81 580.00,366.00
             584.24,358.54 591.21,358.14 591.72,350.00 Z" />
</svg>
