<?xml version="1.0" encoding="UTF-8" standalone="no"?>
<!DOCTYPE svg PUBLIC "-//W3C//DTD SVG 20010904//EN"
              "http://www.w3.org/TR/2001/REC-SVG-20010904/DTD/svg10.dtd">

<svg xmlns="http://www.w3.org/2000/svg"
     width="9.72222in" height="9.72222in"
     viewBox="0 0 700 700">
  <path id="Selection"
        fill="none" stroke="black" stroke-width="1"
        d="M 700.00,0.00
           C 700.00,0.00 700.00,700.00 700.00,700.00
             700.00,700.00 0.00,700.00 0.00,700.00
             0.00,700.00 0.00,0.00 0.00,0.00
             0.00,0.00 700.00,0.00 700.00,0.00 Z
           M 590.89,351.00
           C 592.04,340.50 583.51,334.30 576.00,328.46
             570.71,324.36 569.33,324.84 564.00,322.19
             564.00,322.19 555.00,317.47 555.00,317.47
             555.00,317.47 544.00,313.57 544.00,313.57
             544.00,313.57 534.00,309.10 534.00,309.10
             534.00,309.10 523.00,306.78 523.00,306.78
             517.51,305.07 512.68,301.31 507.00,300.33
             498.60,298.87 497.33,302.83 491.92,301.76
             483.27,300.05 474.41,292.22 464.00,292.05
             457.99,291.96 456.38,294.23 453.00,294.23
             450.12,294.23 448.29,292.47 444.00,292.11
             437.98,291.59 435.35,293.85 432.58,293.92
             429.51,293.99 428.69,292.04 420.00,292.00
             403.55,291.92 403.34,294.75 397.00,295.19
             394.18,295.38 391.75,294.41 389.00,294.19
             383.12,293.71 374.25,297.26 368.00,298.38
             360.40,299.76 351.15,299.38 344.00,301.75
             336.53,304.22 335.35,307.36 326.00,307.91
             314.34,308.59 308.90,302.80 299.00,300.67
             299.00,300.67 284.00,298.22 284.00,298.22
             284.00,298.22 272.00,293.68 272.00,293.68
             272.00,293.68 258.00,291.20 258.00,291.20
             258.00,291.20 247.00,286.10 247.00,286.10
             247.00,286.10 238.00,283.64 238.00,283.64
             238.00,283.64 228.00,279.20 228.00,279.20
             228.00,279.20 218.00,275.91 218.00,275.91
             218.00,275.91 186.00,260.51 186.00,260.51
             181.80,258.46 178.54,255.63 174.00,254.14
             165.10,251.69 160.35,253.82 152.00,254.14
             152.00,254.14 133.00,253.00 133.00,253.00
             130.74,253.01 127.35,252.86 125.43,254.17
             120.86,257.32 123.74,263.76 127.06,266.61
             134.29,272.81 149.06,274.43 162.00,286.01
             154.39,288.24 151.05,285.78 143.00,286.01
             138.68,286.14 133.40,287.33 134.71,293.00
             136.59,301.15 146.58,304.29 153.00,307.64
             153.00,307.64 166.00,314.60 166.00,314.60
             166.00,314.60 178.00,322.58 178.00,322.58
             181.19,324.43 193.77,332.11 195.65,334.32
             199.15,338.45 195.40,345.34 200.57,350.32
             201.79,351.50 205.34,353.34 207.00,354.37
             219.18,361.94 220.29,359.84 234.00,360.00
             247.10,360.16 247.31,365.82 256.09,373.11
             256.09,373.11 284.00,393.74 284.00,393.74
             284.00,393.74 307.00,412.83 307.00,412.83
             307.00,412.83 322.00,425.28 322.00,425.28
             322.00,425.28 354.42,454.74 354.42,454.74
             362.54,461.97 376.50,477.75 386.00,481.52
             392.81,484.22 396.45,482.46 403.00,482.09
             403.00,482.09 423.00,484.63 423.00,484.63
             423.00,484.63 440.00,483.00 440.00,483.00
             440.00,483.00 461.00,483.81 461.00,483.81
             473.05,482.79 472.71,473.56 466.94,470.14
             461.88,467.13 455.59,468.97 450.00,469.00
             442.12,469.04 443.07,469.43 436.00,470.63
             431.97,471.31 430.12,469.19 427.00,467.03
             417.39,460.39 418.56,461.56 410.00,453.00
             394.51,437.51 380.95,427.65 368.49,409.00
             362.62,400.22 358.47,395.32 359.04,384.00
             359.28,379.27 361.54,370.58 366.05,368.37
             369.27,366.72 374.49,367.91 378.00,368.37
             386.59,369.67 395.36,371.99 404.00,372.00
             409.23,372.01 427.02,372.71 430.86,375.14
             434.47,377.42 433.83,380.52 437.22,383.11
             440.52,385.63 443.97,384.71 447.79,388.28
             450.86,391.15 451.88,395.78 456.04,397.40
             456.04,397.40 475.00,398.71 475.00,398.71
             477.31,398.89 480.43,397.82 482.25,398.71
             484.50,399.36 486.22,402.12 489.09,404.01
             492.89,406.52 496.59,406.94 501.00,407.00
             506.58,407.06 519.26,407.60 523.96,405.66
             528.64,403.73 530.08,399.90 534.00,398.64
             537.94,397.36 543.12,400.77 548.98,397.15
             554.75,393.58 554.20,387.94 560.96,384.14
             566.84,380.84 580.13,385.64 581.76,375.00
             582.53,369.94 580.25,367.13 576.00,365.00
             580.36,357.07 589.71,361.81 590.89,351.00 Z" />
</svg>
