<?xml version="1.0" encoding="UTF-8" standalone="no"?>
<!DOCTYPE svg PUBLIC "-//W3C//DTD SVG 20010904//EN"
              "http://www.w3.org/TR/2001/REC-SVG-20010904/DTD/svg10.dtd">

<svg xmlns="http://www.w3.org/2000/svg"
     width="9.72222in" height="9.72222in"
     viewBox="0 0 700 700">
  <path id="Selection #1"
        fill="none" stroke="black" stroke-width="1"
        d="M 700.00,0.00
           C 700.00,0.00 700.00,700.00 700.00,700.00
             700.00,700.00 0.00,700.00 0.00,700.00
             0.00,700.00 0.00,0.00 0.00,0.00
             0.00,0.00 700.00,0.00 700.00,0.00 Z
           M 587.58,356.72
           C 589.06,355.16 589.98,353.07 590.47,351.00
             592.79,341.25 583.89,334.80 577.00,329.73
             567.40,322.68 555.95,318.68 545.00,314.24
             545.00,314.24 533.00,308.78 533.00,308.78
             533.00,308.78 523.00,306.56 523.00,306.56
             515.79,304.41 512.92,301.13 505.00,299.94
             496.00,298.58 494.95,302.95 490.00,302.09
             485.68,301.34 477.82,294.23 468.00,292.46
             459.53,290.93 456.90,293.59 453.00,293.59
             449.70,293.59 447.78,291.68 441.00,292.04
             436.35,292.29 434.90,293.79 432.00,293.47
             427.51,292.96 429.52,290.86 417.00,291.00
             413.89,291.04 406.89,291.76 404.00,292.56
             404.00,292.56 397.00,295.08 397.00,295.08
             393.62,295.40 391.36,292.88 386.00,293.33
             386.00,293.33 367.00,298.54 367.00,298.54
             367.00,298.54 340.00,301.62 340.00,301.62
             330.54,304.54 327.31,310.80 316.00,309.08
             294.99,305.88 301.08,304.78 289.00,301.49
             289.00,301.49 273.00,298.09 273.00,298.09
             273.00,298.09 261.00,293.87 261.00,293.87
             261.00,293.87 250.00,290.94 250.00,290.94
             250.00,290.94 240.00,286.45 240.00,286.45
             240.00,286.45 230.00,283.09 230.00,283.09
             230.00,283.09 221.00,279.17 221.00,279.17
             221.00,279.17 211.00,275.56 211.00,275.56
             211.00,275.56 183.00,260.74 183.00,260.74
             174.30,256.23 174.39,254.05 164.00,254.00
             164.00,254.00 147.00,254.91 147.00,254.91
             147.00,254.91 133.00,254.00 133.00,254.00
             127.61,254.01 118.49,254.69 121.74,262.91
             124.47,269.80 136.11,272.64 142.00,275.68
             144.38,276.91 145.98,278.31 148.00,280.00
             143.18,282.44 133.23,285.47 137.18,292.90
             139.37,297.01 145.04,298.70 149.00,300.51
             153.83,302.72 161.42,307.53 166.00,310.50
             172.19,314.52 191.88,325.74 195.65,330.30
             198.96,334.31 195.81,340.73 197.89,345.98
             199.64,350.38 202.23,350.54 205.72,352.67
             205.72,352.67 211.04,356.67 211.04,356.67
             216.39,360.33 221.81,360.07 228.00,359.82
             233.80,359.93 241.52,357.93 247.00,359.82
             252.74,361.45 255.83,367.01 260.01,370.90
             260.01,370.90 280.00,385.34 280.00,385.34
             280.00,385.34 308.00,406.50 308.00,406.50
             308.00,406.50 325.00,419.43 325.00,419.43
             325.00,419.43 358.04,447.50 358.04,447.50
             363.00,451.46 379.94,466.27 384.00,467.85
             387.76,469.32 392.95,469.02 397.00,468.80
             397.00,468.80 407.00,468.80 407.00,468.80
             407.00,468.80 423.00,469.96 423.00,469.96
             428.60,469.72 430.57,467.96 433.42,468.10
             433.42,468.10 441.00,469.91 441.00,469.91
             441.00,469.91 456.00,469.91 456.00,469.91
             458.67,470.00 462.52,470.21 464.81,468.83
             468.65,466.58 468.55,461.77 464.81,459.57
             460.37,457.00 453.98,458.94 449.00,459.06
             449.00,459.06 439.00,459.06 439.00,459.06
             436.01,459.50 434.28,460.76 432.58,460.39
             430.24,459.89 419.74,450.21 417.00,448.00
             417.00,448.00 375.30,411.09 375.30,411.09
             372.18,407.71 363.06,395.69 360.71,392.00
             359.52,389.49 357.53,385.15 360.71,382.91
             363.60,380.52 370.70,383.70 374.00,384.83
             374.00,384.83 389.00,390.75 389.00,390.75
             395.69,392.49 401.23,391.92 408.00,392.00
             408.00,392.00 418.00,392.96 418.00,392.96
             418.00,392.96 433.00,392.96 433.00,392.96
             433.00,392.96 448.00,392.33 448.00,392.33
             452.85,393.15 454.91,395.60 459.00,396.99
             463.04,398.35 469.62,398.02 474.00,398.00
             476.59,397.98 479.63,397.64 481.96,398.88
             484.86,400.42 486.28,403.54 490.04,405.55
             493.31,407.30 499.30,408.12 503.00,407.91
             503.00,407.91 523.99,405.99 523.99,405.99
             530.08,403.47 529.84,398.40 537.00,397.98
             540.75,397.75 545.49,398.69 548.91,396.83
             553.63,394.26 554.12,388.62 560.02,385.01
             566.66,380.93 582.75,386.17 580.76,373.00
             580.40,370.62 579.47,369.06 577.77,367.37
             577.77,367.37 571.00,362.00 571.00,362.00
             578.99,359.00 583.63,360.90 587.58,356.72 Z
           M 431.75,375.25
           C 439.25,367.75 414.00,364.55 415.50,365.25
             416.25,359.00 387.76,360.64 387.50,362.00
             386.86,363.22 412.32,373.25 413.50,371.00
             415.05,373.54 434.11,379.10 431.75,375.25 Z" />
</svg>
