<?xml version="1.0" encoding="UTF-8" standalone="no"?>
<!DOCTYPE svg PUBLIC "-//W3C//DTD SVG 20010904//EN"
              "http://www.w3.org/TR/2001/REC-SVG-20010904/DTD/svg10.dtd">

<svg xmlns="http://www.w3.org/2000/svg"
     width="9.72222in" height="9.72222in"
     viewBox="0 0 700 700">
  <path id="Selection"
        fill="none" stroke="black" stroke-width="1"
        d="M 700.00,0.00
           C 700.00,0.00 700.00,700.00 700.00,700.00
             700.00,700.00 0.00,700.00 0.00,700.00
             0.00,700.00 0.00,0.00 0.00,0.00
             0.00,0.00 700.00,0.00 700.00,0.00 Z
           M 586.61,356.57
           C 588.74,354.55 589.63,351.85 589.90,349.00
             590.75,339.78 584.91,335.43 578.00,330.66
             567.73,323.56 570.75,326.23 561.00,321.68
             561.00,321.68 552.00,317.09 552.00,317.09
             552.00,317.09 544.00,314.22 544.00,314.22
             544.00,314.22 534.00,309.11 534.00,309.11
             534.00,309.11 522.00,306.25 522.00,306.25
             522.00,306.25 509.00,300.77 509.00,300.77
             505.74,299.77 500.35,298.67 497.01,299.39
             492.79,300.31 491.31,303.18 487.96,302.45
             485.57,301.93 480.39,297.74 478.00,296.23
             473.63,293.47 467.19,291.79 462.00,292.18
             462.00,292.18 453.00,293.51 453.00,293.51
             449.45,293.47 447.85,291.87 442.00,292.02
             436.79,292.16 436.14,293.73 433.72,293.65
             430.31,293.54 430.15,291.05 420.00,291.00
             414.65,290.98 409.25,291.17 404.00,292.33
             404.00,292.33 396.00,294.85 396.00,294.85
             392.48,295.00 390.49,292.37 384.00,293.47
             384.00,293.47 366.00,298.54 366.00,298.54
             353.80,300.72 347.37,299.59 334.00,303.59
             328.47,305.24 313.38,311.96 309.00,311.39
             309.00,311.39 301.00,309.16 301.00,309.16
             301.00,309.16 289.00,306.56 289.00,306.56
             289.00,306.56 277.00,302.04 277.00,302.04
             277.00,302.04 261.00,298.25 261.00,298.25
             261.00,298.25 252.00,294.46 252.00,294.46
             252.00,294.46 241.00,290.91 241.00,290.91
             241.00,290.91 232.00,286.63 232.00,286.63
             232.00,286.63 222.00,283.19 222.00,283.19
             222.00,283.19 207.00,276.66 207.00,276.66
             197.48,272.50 176.22,257.72 167.00,255.76
             160.73,254.04 154.30,255.92 148.00,255.76
             148.00,255.76 132.00,255.11 132.00,255.11
             132.00,255.11 128.00,255.11 128.00,255.11
             126.85,255.03 125.12,255.03 124.02,255.11
             117.53,257.01 118.91,263.76 122.42,267.68
             122.42,267.68 128.98,273.18 128.98,273.18
             130.24,274.32 131.56,275.65 132.57,277.00
             136.03,281.62 134.49,284.16 139.13,288.54
             143.75,292.89 151.58,297.34 157.00,300.79
             157.00,300.79 188.00,320.78 188.00,320.78
             188.00,320.78 195.88,325.63 195.88,325.63
             203.20,331.75 192.91,336.69 197.57,345.96
             199.68,350.15 202.47,350.37 206.00,352.68
             209.76,355.14 211.35,357.50 216.00,359.01
             221.75,360.87 233.83,358.92 241.00,359.01
             246.23,359.06 252.51,359.91 256.99,362.81
             261.34,365.65 263.28,370.02 272.00,375.13
             289.53,385.39 306.59,397.28 323.00,409.29
             323.00,409.29 354.00,432.86 354.00,432.86
             369.15,443.74 376.28,455.22 396.00,455.00
             396.00,455.00 406.00,454.37 406.00,454.37
             406.00,454.37 420.00,456.00 420.00,456.00
             420.00,456.00 432.00,454.98 432.00,454.98
             432.00,454.98 440.00,456.91 440.00,456.91
             440.00,456.91 456.00,456.91 456.00,456.91
             460.18,456.98 465.71,456.93 467.16,451.96
             468.09,448.73 465.84,445.91 462.96,444.74
             460.18,443.61 447.71,443.95 444.00,444.00
             438.17,444.08 436.77,444.63 432.00,448.00
             427.34,442.07 422.10,440.19 416.00,436.16
             416.00,436.16 393.00,419.03 393.00,419.03
             387.32,414.76 382.20,412.72 379.00,406.00
             388.47,406.85 392.60,410.95 401.00,412.96
             407.91,414.61 417.66,413.92 425.00,414.00
             425.00,414.00 441.00,414.83 441.00,414.83
             441.00,414.83 446.00,414.83 446.00,414.83
             459.54,411.87 449.24,401.62 442.96,397.87
             434.57,392.87 431.57,394.02 426.00,391.79
             426.00,391.79 417.00,387.62 417.00,387.62
             417.00,387.62 408.00,384.65 408.00,384.65
             408.00,384.65 398.00,379.59 398.00,379.59
             398.00,379.59 388.00,375.69 388.00,375.69
             383.85,373.80 373.95,370.23 371.23,367.61
             369.47,365.92 367.55,362.96 369.64,360.74
             371.63,358.62 375.48,359.56 378.00,359.85
             378.00,359.85 396.00,361.64 396.00,361.64
             400.33,361.21 402.52,360.51 407.00,361.64
             407.00,361.64 419.00,366.61 419.00,366.61
             423.36,367.56 426.98,366.10 430.85,369.43
             435.64,373.55 432.68,377.67 435.74,381.78
             438.29,385.21 442.46,385.22 445.91,387.70
             449.27,390.11 450.82,393.61 454.17,396.20
             457.99,399.14 466.18,400.60 471.00,401.00
             471.00,401.00 471.00,403.00 471.00,403.00
             468.15,403.01 464.55,402.72 462.18,404.60
             459.14,407.01 459.56,410.70 463.13,412.13
             466.01,413.52 478.08,412.04 482.00,412.13
             482.00,412.13 497.00,412.69 497.00,412.69
             502.71,411.98 505.17,409.31 510.00,408.33
             510.00,408.33 522.99,406.30 522.99,406.30
             528.19,404.44 530.02,399.77 534.00,398.48
             537.63,397.31 542.85,400.77 548.82,396.91
             552.58,394.48 554.06,389.71 558.09,386.42
             566.38,379.65 576.39,386.71 579.92,377.95
             580.90,375.69 580.75,373.28 579.92,371.04
             579.11,369.19 578.31,368.20 576.78,366.95
             576.78,366.95 570.00,362.00 570.00,362.00
             576.52,359.24 583.12,359.88 586.61,356.57 Z" />
</svg>
