<?xml version="1.0" encoding="UTF-8" standalone="no"?>
<!DOCTYPE svg PUBLIC "-//W3C//DTD SVG 20010904//EN"
              "http://www.w3.org/TR/2001/REC-SVG-20010904/DTD/svg10.dtd">

<svg xmlns="http://www.w3.org/2000/svg"
     width="9.72222in" height="9.72222in"
     viewBox="0 0 700 700">
  <path id="Selection"
        fill="none" stroke="black" stroke-width="1"
        d="M 700.00,0.00
           C 700.00,0.00 700.00,700.00 700.00,700.00
             700.00,700.00 0.00,700.00 0.00,700.00
             0.00,700.00 0.00,0.00 0.00,0.00
             0.00,0.00 700.00,0.00 700.00,0.00 Z
           M 585.50,356.30
           C 591.46,350.89 590.94,341.99 585.50,336.32
             583.49,334.07 579.71,331.85 577.00,330.28
             577.00,330.28 560.00,321.77 560.00,321.77
             560.00,321.77 552.00,317.47 552.00,317.47
             552.00,317.47 544.00,314.54 544.00,314.54
             544.00,314.54 533.00,309.10 533.00,309.10
             533.00,309.10 520.00,306.02 520.00,306.02
             520.00,306.02 507.00,300.72 507.00,300.72
             503.35,299.63 498.71,298.36 495.00,299.74
             491.19,301.15 490.06,304.15 486.83,303.06
             483.55,301.95 477.68,295.14 471.00,293.63
             465.03,292.09 459.69,293.71 454.00,293.63
             454.00,293.63 444.00,292.04 444.00,292.04
             438.00,291.74 436.07,293.16 433.00,293.12
             430.01,293.07 423.37,290.80 418.00,291.18
             418.00,291.18 404.00,292.39 404.00,292.39
             404.00,292.39 396.42,294.87 396.42,294.87
             394.41,295.09 389.14,293.33 383.00,294.21
             383.00,294.21 368.00,298.54 368.00,298.54
             368.00,298.54 349.00,300.59 349.00,300.59
             337.54,302.38 337.83,303.98 329.00,306.10
             329.00,306.10 317.00,308.25 317.00,308.25
             310.97,310.31 308.56,314.65 302.00,313.88
             302.00,313.88 285.00,308.66 285.00,308.66
             285.00,308.66 272.00,305.76 272.00,305.76
             272.00,305.76 262.00,301.72 262.00,301.72
             262.00,301.72 249.00,297.91 249.00,297.91
             249.00,297.91 240.00,293.63 240.00,293.63
             240.00,293.63 232.00,290.94 232.00,290.94
             232.00,290.94 223.00,286.34 223.00,286.34
             223.00,286.34 211.00,282.18 211.00,282.18
             211.00,282.18 173.00,260.98 173.00,260.98
             162.72,257.65 160.36,259.89 151.00,260.00
             151.00,260.00 143.00,260.00 143.00,260.00
             143.00,260.00 127.00,259.04 127.00,259.04
             119.85,259.46 119.40,266.39 122.59,270.79
             123.76,272.40 126.70,274.44 128.42,275.51
             128.42,275.51 143.00,283.09 143.00,283.09
             143.00,283.09 154.00,290.26 154.00,290.26
             154.00,290.26 189.00,311.74 189.00,311.74
             189.00,311.74 206.63,322.68 206.63,322.68
             210.47,327.06 203.91,329.26 201.18,331.21
             195.63,335.19 193.91,343.69 199.23,348.58
             201.56,350.73 204.19,351.15 206.70,352.67
             210.56,355.00 212.07,358.54 218.00,359.66
             222.21,360.46 225.85,359.17 230.00,359.04
             230.00,359.04 240.00,359.91 240.00,359.91
             251.25,360.54 252.81,353.79 259.00,355.26
             264.34,356.53 274.56,366.14 280.00,369.41
             280.00,369.41 315.00,393.56 315.00,393.56
             315.00,393.56 328.00,401.73 328.00,401.73
             328.00,401.73 350.00,417.90 350.00,417.90
             355.04,421.70 374.44,436.49 379.00,438.32
             382.75,439.82 387.98,440.08 392.00,439.99
             392.00,439.99 401.00,439.04 401.00,439.04
             401.00,439.04 417.00,439.04 417.00,439.04
             417.00,439.04 427.00,438.02 427.00,438.02
             430.14,438.28 432.23,440.47 436.00,441.44
             439.21,442.28 448.21,442.01 452.00,442.00
             455.99,441.99 459.25,442.14 463.00,440.44
             467.11,438.59 470.32,435.04 474.00,433.72
             476.68,432.77 482.01,432.97 485.00,433.00
             491.16,433.08 502.07,436.50 505.23,428.94
             505.87,427.41 505.83,424.73 506.00,423.00
             496.12,417.97 495.94,420.82 487.00,420.82
             487.00,420.82 480.00,420.09 480.00,420.09
             477.07,419.93 467.87,421.03 465.00,421.76
             461.75,422.59 457.25,424.79 454.00,424.17
             450.76,423.55 446.83,419.98 444.00,418.09
             439.28,414.93 434.17,412.20 429.00,409.86
             429.00,409.86 402.00,395.13 402.00,395.13
             391.82,389.77 382.89,385.88 374.00,378.27
             370.71,375.46 363.93,369.78 362.19,366.00
             361.09,363.61 361.21,360.65 364.15,359.78
             366.28,359.15 372.26,361.31 375.00,361.85
             375.00,361.85 392.00,361.85 392.00,361.85
             396.67,361.99 403.65,361.37 408.00,362.63
             408.00,362.63 419.00,367.29 419.00,367.29
             423.73,368.51 427.56,367.31 430.77,369.74
             435.30,373.16 432.82,377.88 435.74,381.66
             438.35,385.04 442.39,384.86 445.96,387.51
             450.05,390.55 451.30,394.68 455.09,396.84
             458.77,398.93 467.85,399.47 472.00,398.66
             475.62,397.95 477.18,396.18 479.27,396.69
             482.68,397.53 484.60,402.82 490.00,405.43
             494.36,407.53 500.23,406.95 505.00,407.00
             505.00,407.00 516.00,407.68 516.00,407.68
             523.84,407.05 528.57,404.25 532.00,396.93
             537.54,398.60 543.61,400.45 548.82,396.93
             552.61,394.23 554.25,389.57 560.00,385.99
             568.01,381.01 583.41,385.93 579.57,372.02
             579.02,370.02 578.26,368.99 576.77,367.59
             576.77,367.59 570.00,362.00 570.00,362.00
             574.52,359.89 583.13,358.32 585.50,356.30 Z" />
</svg>
