<?xml version="1.0" encoding="UTF-8" standalone="no"?>
<!DOCTYPE svg PUBLIC "-//W3C//DTD SVG 20010904//EN"
              "http://www.w3.org/TR/2001/REC-SVG-20010904/DTD/svg10.dtd">

<svg xmlns="http://www.w3.org/2000/svg"
     width="9.72222in" height="9.72222in"
     viewBox="0 0 700 700">
  <path id="Selection"
        fill="none" stroke="black" stroke-width="1"
        d="M 700.00,0.00
           C 700.00,0.00 700.00,700.00 700.00,700.00
             700.00,700.00 0.00,700.00 0.00,700.00
             0.00,700.00 0.00,0.00 0.00,0.00
             0.00,0.00 700.00,0.00 700.00,0.00 Z
           M 392.00,280.23
           C 392.00,280.23 419.00,260.86 419.00,260.86
             421.85,259.15 429.67,253.06 432.00,252.90
             433.99,252.77 436.02,254.27 439.00,254.89
             439.00,254.89 448.00,254.89 448.00,254.89
             453.43,255.07 460.00,257.23 464.77,253.91
             469.79,250.43 468.18,242.57 459.00,242.18
             459.00,242.18 440.00,242.18 440.00,242.18
             440.00,242.18 432.00,243.95 432.00,243.95
             432.00,243.95 423.00,242.34 423.00,242.34
             423.00,242.34 404.00,244.74 404.00,244.74
             404.00,244.74 393.00,244.74 393.00,244.74
             390.26,244.69 385.53,245.23 383.00,246.11
             376.01,248.53 360.73,262.26 353.00,267.48
             353.00,267.48 332.00,283.58 332.00,283.58
             332.00,283.58 285.00,316.19 285.00,316.19
             285.00,316.19 266.01,328.53 266.01,328.53
             262.11,331.50 258.24,336.14 254.00,337.86
             246.17,341.02 236.26,340.09 228.00,340.00
             224.29,339.97 218.34,339.66 215.00,341.01
             211.47,342.43 209.20,345.18 206.00,347.09
             201.92,349.53 198.93,349.74 197.03,355.00
             193.83,363.86 202.76,367.20 193.96,374.47
             193.96,374.47 151.00,402.12 151.00,402.12
             148.11,404.12 140.21,409.04 138.31,411.21
             135.15,414.81 136.52,417.75 133.35,421.82
             132.08,423.44 130.60,424.49 128.98,425.71
             126.79,427.36 124.23,429.00 122.51,431.17
             119.03,435.58 117.85,442.73 125.00,443.92
             125.00,443.92 131.00,443.92 131.00,443.92
             131.00,443.92 145.00,443.00 145.00,443.00
             145.00,443.00 149.00,443.00 149.00,443.00
             149.00,443.00 162.00,443.90 162.00,443.90
             173.64,443.10 193.85,429.18 205.00,423.78
             205.00,423.78 220.00,416.71 220.00,416.71
             220.00,416.71 230.00,413.65 230.00,413.65
             230.00,413.65 239.00,409.20 239.00,409.20
             239.00,409.20 250.00,405.49 250.00,405.49
             250.00,405.49 259.00,401.36 259.00,401.36
             259.00,401.36 272.00,398.56 272.00,398.56
             272.00,398.56 286.00,393.29 286.00,393.29
             286.00,393.29 299.00,390.56 299.00,390.56
             302.74,389.47 307.12,387.27 311.00,387.50
             315.06,387.73 320.12,390.57 324.00,391.90
             324.00,391.90 348.00,398.50 348.00,398.50
             348.00,398.50 372.00,401.46 372.00,401.46
             372.00,401.46 386.00,404.89 386.00,404.89
             391.29,405.16 393.09,403.04 395.42,403.31
             397.97,403.61 399.92,406.28 404.00,407.43
             407.04,408.29 419.15,408.05 423.00,408.00
             430.26,407.90 429.76,406.56 433.00,406.17
             436.41,405.76 438.99,407.83 443.00,407.82
             446.80,407.80 448.94,406.12 452.00,406.12
             455.59,405.71 460.07,408.14 468.00,406.12
             473.13,405.14 477.50,402.31 482.00,399.70
             484.60,398.19 486.84,396.27 490.00,397.06
             492.30,397.63 493.61,399.46 498.00,399.89
             507.99,400.86 511.39,395.21 519.00,393.37
             519.00,393.37 531.00,390.78 531.00,390.78
             535.19,389.40 536.47,388.05 540.00,386.40
             540.00,386.40 549.00,383.13 549.00,383.13
             549.00,383.13 558.00,378.51 558.00,378.51
             563.00,376.04 565.34,376.31 571.00,372.77
             579.58,367.41 590.77,361.78 589.90,350.00
             589.66,346.70 588.68,343.73 585.87,341.74
             584.17,340.53 573.39,338.88 570.00,338.00
             573.91,333.12 583.10,329.75 580.94,322.02
             578.31,312.62 566.73,318.80 559.02,313.35
             553.59,309.51 552.86,304.68 548.82,302.31
             544.05,299.52 536.40,302.23 533.04,300.81
             529.33,299.24 528.30,295.01 523.00,293.03
             519.47,291.72 515.63,292.27 512.00,291.48
             505.92,290.16 502.63,286.75 496.00,286.19
             496.00,286.19 471.00,287.00 471.00,287.00
             468.89,287.00 457.00,285.27 455.25,286.50
             454.85,287.82 455.90,291.12 455.25,293.13
             457.89,294.34 471.99,295.03 474.91,295.39
             474.91,295.39 481.00,297.00 481.00,297.00
             481.00,297.00 481.00,302.00 481.00,302.00
             479.06,301.02 477.13,299.92 475.00,299.41
             470.29,298.29 458.05,299.95 454.18,302.85
             450.96,305.27 449.58,308.81 445.96,311.49
             442.76,313.87 438.33,314.10 435.72,317.34
             432.65,321.17 434.09,326.29 430.69,329.57
             427.61,332.53 422.95,331.77 419.00,332.68
             412.33,334.21 409.73,337.61 403.00,337.96
             394.40,338.41 395.39,336.32 380.00,339.09
             377.26,339.71 371.74,340.71 369.36,339.09
             366.69,337.04 368.47,334.04 370.23,332.22
             373.01,329.34 380.12,326.88 384.00,325.06
             384.00,325.06 397.00,319.56 397.00,319.56
             397.00,319.56 405.00,315.59 405.00,315.59
             405.00,315.59 415.00,312.05 415.00,312.05
             415.00,312.05 423.00,308.26 423.00,308.26
             430.93,305.09 431.33,307.26 441.00,301.70
             444.55,299.66 453.80,294.36 455.00,290.25
             457.11,283.07 442.54,283.83 438.00,284.09
             438.00,284.09 416.00,285.82 416.00,285.82
             410.29,285.42 404.71,285.32 399.00,286.33
             390.49,287.83 386.00,294.37 377.00,293.00
             380.92,286.05 385.82,284.55 392.00,280.23 Z" />
</svg>
