<?xml version="1.0" encoding="UTF-8" standalone="no"?>
<!DOCTYPE svg PUBLIC "-//W3C//DTD SVG 20010904//EN"
              "http://www.w3.org/TR/2001/REC-SVG-20010904/DTD/svg10.dtd">

<svg xmlns="http://www.w3.org/2000/svg"
     width="9.72222in" height="9.72222in"
     viewBox="0 0 700 700">
  <path id="Selection"
        fill="none" stroke="black" stroke-width="1"
        d="M 700.00,0.00
           C 700.00,0.00 700.00,700.00 700.00,700.00
             700.00,700.00 0.00,700.00 0.00,700.00
             0.00,700.00 0.00,0.00 0.00,0.00
             0.00,0.00 700.00,0.00 700.00,0.00 Z
           M 589.57,348.96
           C 591.98,340.07 583.84,334.18 577.00,330.98
             577.00,330.98 551.00,317.78 551.00,317.78
             551.00,317.78 541.00,313.68 541.00,313.68
             541.00,313.68 532.00,309.13 532.00,309.13
             529.11,308.05 526.01,307.66 523.00,307.07
             515.20,305.52 508.15,299.95 499.00,299.39
             496.60,299.24 494.39,299.73 492.38,301.07
             490.34,302.43 489.35,304.65 487.47,304.32
             486.06,304.08 481.63,300.03 480.00,298.90
             473.97,294.74 469.40,292.75 462.00,293.04
             462.00,293.04 453.00,293.78 453.00,293.78
             449.11,293.48 446.82,291.71 441.00,292.10
             437.50,292.33 435.58,293.40 432.00,293.20
             432.00,293.20 419.00,292.00 419.00,292.00
             412.17,291.99 408.82,291.67 402.00,293.23
             402.00,293.23 396.00,294.53 396.00,294.53
             392.06,294.96 390.08,293.38 384.00,294.53
             384.00,294.53 374.00,297.12 374.00,297.12
             367.61,298.79 361.55,299.47 355.00,300.07
             340.07,301.46 339.62,304.46 331.00,306.33
             331.00,306.33 311.00,308.80 311.00,308.80
             303.16,311.26 301.80,318.28 292.00,316.33
             283.30,314.60 279.04,311.17 274.00,309.62
             274.00,309.62 261.00,306.64 261.00,306.64
             261.00,306.64 251.00,302.20 251.00,302.20
             251.00,302.20 240.00,298.41 240.00,298.41
             240.00,298.41 231.00,293.88 231.00,293.88
             231.00,293.88 223.00,291.08 223.00,291.08
             223.00,291.08 205.00,282.68 205.00,282.68
             205.00,282.68 179.00,267.70 179.00,267.70
             172.44,264.10 170.81,262.10 163.00,262.00
             163.00,262.00 147.00,263.00 147.00,263.00
             147.00,263.00 141.00,263.00 141.00,263.00
             135.17,262.99 120.93,259.21 119.36,267.04
             117.77,274.94 132.50,280.83 138.00,284.10
             138.00,284.10 185.00,313.31 185.00,313.31
             185.00,313.31 202.80,323.63 202.80,323.63
             207.23,327.73 201.56,329.24 198.65,333.10
             194.90,338.07 195.03,345.46 200.11,349.49
             202.38,351.30 204.66,351.58 207.00,352.93
             207.00,352.93 214.00,357.83 214.00,357.83
             217.82,359.73 228.59,360.27 233.00,359.91
             240.95,359.26 242.84,354.96 247.00,354.82
             249.68,354.72 253.67,357.37 256.00,358.73
             256.00,358.73 269.00,367.46 269.00,367.46
             269.00,367.46 286.00,378.10 286.00,378.10
             286.00,378.10 301.17,388.95 301.17,388.95
             301.17,388.95 355.00,425.43 355.00,425.43
             355.00,425.43 377.00,440.30 377.00,440.30
             387.20,447.49 391.98,452.98 405.00,453.00
             405.00,453.00 432.00,453.00 432.00,453.00
             432.00,453.00 446.00,453.98 446.00,453.98
             452.47,453.85 453.43,452.31 458.00,451.97
             458.00,451.97 495.00,451.97 495.00,451.97
             499.56,451.93 506.97,450.47 505.16,444.01
             503.99,439.86 499.90,438.27 496.00,438.04
             496.00,438.04 484.00,438.98 484.00,438.98
             484.00,438.98 470.00,438.98 470.00,438.98
             459.90,439.12 458.18,442.27 454.72,441.74
             451.24,441.21 447.81,437.59 445.00,435.63
             445.00,435.63 432.00,428.00 432.00,428.00
             432.00,428.00 453.00,429.00 453.00,429.00
             456.17,428.96 460.14,428.83 462.89,427.07
             467.12,424.36 468.00,418.94 463.77,415.74
             461.50,414.02 458.71,414.04 456.00,414.00
             447.29,413.88 432.73,412.06 429.00,422.00
             429.00,422.00 397.00,403.15 397.00,403.15
             383.56,395.48 373.10,389.15 364.16,376.00
             361.28,371.66 356.94,362.38 364.16,359.36
             367.36,357.98 370.90,360.55 374.00,361.65
             377.08,362.18 378.08,361.68 381.00,361.65
             381.00,361.65 394.00,361.65 394.00,361.65
             397.66,361.90 401.41,360.83 405.00,361.65
             411.21,363.29 412.44,367.55 420.00,367.95
             423.48,368.14 427.85,367.08 430.69,369.55
             434.26,372.65 432.42,378.42 436.43,382.61
             439.19,385.50 442.43,385.39 445.96,388.30
             449.32,391.08 450.71,394.46 453.21,396.49
             456.93,399.51 462.46,399.06 467.00,399.00
             472.66,398.92 473.53,398.52 478.00,395.00
             480.79,398.20 487.33,404.68 491.00,406.41
             496.43,409.02 516.21,408.45 522.00,406.41
             527.52,404.42 529.46,400.64 533.00,399.31
             536.74,397.90 543.86,400.58 548.96,397.26
             553.43,394.36 554.62,389.36 560.01,386.00
             567.22,381.51 573.61,384.61 577.49,380.57
             580.88,377.04 579.96,370.84 576.58,367.64
             574.82,365.97 572.20,364.96 570.00,364.00
             575.89,356.43 587.12,357.98 589.57,348.96 Z" />
</svg>
