<?xml version="1.0" encoding="UTF-8" standalone="no"?>
<!DOCTYPE svg PUBLIC "-//W3C//DTD SVG 20010904//EN"
              "http://www.w3.org/TR/2001/REC-SVG-20010904/DTD/svg10.dtd">

<svg xmlns="http://www.w3.org/2000/svg"
     width="9.72222in" height="9.72222in"
     viewBox="0 0 700 700">
  <path id="Selection"
        fill="none" stroke="black" stroke-width="1"
        d="M 700.00,0.00
           C 700.00,0.00 700.00,700.00 700.00,700.00
             700.00,700.00 0.00,700.00 0.00,700.00
             0.00,700.00 0.00,0.00 0.00,0.00
             0.00,0.00 700.00,0.00 700.00,0.00 Z
           M 437.01,402.11
           C 431.21,402.73 430.89,406.36 427.70,405.44
             425.04,404.67 420.66,399.08 415.00,396.04
             415.00,396.04 404.00,391.69 404.00,391.69
             404.00,391.69 382.00,380.27 382.00,380.27
             382.00,380.27 371.00,373.40 371.00,373.40
             368.41,372.14 365.41,371.58 363.23,369.57
             360.47,367.03 360.01,364.12 362.45,361.14
             364.87,358.19 368.36,357.50 371.99,357.82
             371.99,357.82 395.00,359.94 395.00,359.94
             400.46,360.06 404.79,358.52 410.00,360.92
             414.50,363.00 415.75,365.86 419.95,366.60
             423.94,367.30 428.57,364.90 431.26,367.60
             433.90,370.26 432.15,375.27 434.57,379.91
             437.22,385.00 441.75,384.73 445.68,388.39
             449.15,391.63 451.16,397.34 456.01,399.83
             463.42,403.61 474.04,396.22 478.00,397.45
             480.50,398.22 483.77,401.89 486.00,403.61
             489.70,406.46 493.35,407.76 498.00,407.74
             498.00,407.74 506.00,407.74 506.00,407.74
             511.69,407.15 515.65,409.00 522.00,406.30
             526.82,404.25 528.93,399.90 533.00,398.88
             536.13,398.10 544.30,400.63 549.91,396.99
             554.60,393.95 555.26,388.98 560.04,385.72
             566.47,381.35 574.43,384.85 577.83,379.61
             579.65,376.80 579.11,371.87 577.27,369.21
             575.64,366.86 572.51,365.59 573.34,363.03
             574.27,360.14 579.52,358.99 582.00,357.76
             588.46,354.56 591.88,349.13 588.99,342.00
             586.00,334.60 580.15,333.30 574.00,329.97
             574.00,329.97 552.00,317.90 552.00,317.90
             552.00,317.90 541.00,313.60 541.00,313.60
             541.00,313.60 532.00,309.10 532.00,309.10
             532.00,309.10 519.00,305.90 519.00,305.90
             512.36,303.63 504.12,299.21 497.00,299.13
             490.74,299.06 490.04,302.99 486.91,302.99
             484.73,302.98 479.13,298.54 477.00,297.18
             471.67,293.79 468.32,292.79 462.00,293.04
             462.00,293.04 452.42,294.01 452.42,294.01
             449.39,293.78 446.66,291.88 441.00,292.06
             441.00,292.06 432.00,293.51 432.00,293.51
             432.00,293.51 419.00,292.00 419.00,292.00
             406.72,291.86 397.18,294.98 395.58,295.00
             395.58,295.00 390.00,294.19 390.00,294.19
             384.07,293.69 374.53,297.50 368.00,298.56
             368.00,298.56 345.00,301.67 345.00,301.67
             345.00,301.67 330.00,306.54 330.00,306.54
             330.00,306.54 308.00,309.31 308.00,309.31
             300.60,310.79 296.28,315.88 291.00,315.59
             286.63,315.36 284.55,311.74 279.00,309.48
             272.80,306.96 271.02,309.28 263.00,305.11
             263.00,305.11 214.00,283.68 214.00,283.68
             205.88,279.32 186.89,265.76 179.00,264.34
             174.39,263.51 169.62,265.37 165.00,265.83
             165.00,265.83 142.00,267.09 142.00,267.09
             137.22,267.02 121.64,264.74 118.57,267.09
             117.07,268.37 117.09,270.27 117.34,272.01
             117.66,274.20 118.64,276.55 120.13,278.20
             120.13,278.20 144.00,291.69 144.00,291.69
             144.00,291.69 183.00,316.68 183.00,316.68
             186.47,318.87 196.42,323.88 197.94,327.05
             200.04,331.44 195.43,335.15 196.20,342.00
             197.01,349.22 201.04,349.73 206.00,352.83
             212.05,356.61 212.56,359.59 221.00,359.96
             224.01,360.09 227.23,359.98 230.00,358.69
             233.46,357.07 235.81,353.75 240.00,354.48
             242.78,354.97 247.53,358.64 250.00,360.34
             250.00,360.34 270.17,374.95 270.17,374.95
             270.17,374.95 347.00,433.21 347.00,433.21
             347.00,433.21 377.00,457.01 377.00,457.01
             387.46,465.18 389.17,469.98 403.00,470.00
             403.00,470.00 430.00,470.00 430.00,470.00
             430.00,470.00 446.00,470.98 446.00,470.98
             452.88,470.81 453.23,468.86 457.00,468.32
             457.00,468.32 467.00,468.95 467.00,468.95
             467.00,468.95 486.00,468.95 486.00,468.95
             490.20,469.57 494.91,470.88 498.89,468.95
             503.18,466.33 503.63,461.27 498.89,459.07
             494.24,457.07 485.55,458.99 480.00,459.07
             470.19,459.02 464.14,456.94 455.00,461.00
             452.16,456.57 440.83,450.27 436.00,447.14
             436.00,447.14 410.00,427.43 410.00,427.43
             402.34,421.92 393.59,417.54 389.00,409.00
             397.26,407.40 404.82,413.02 413.00,413.83
             423.32,414.85 424.99,410.77 429.00,410.33
             429.00,410.33 442.00,412.00 442.00,412.00
             445.41,412.01 455.00,412.58 457.52,410.83
             458.99,409.80 459.32,408.52 460.00,407.00
             454.43,404.56 443.03,401.46 437.01,402.11 Z" />
</svg>
