<?xml version="1.0" encoding="UTF-8" standalone="no"?>
<!DOCTYPE svg PUBLIC "-//W3C//DTD SVG 20010904//EN"
              "http://www.w3.org/TR/2001/REC-SVG-20010904/DTD/svg10.dtd">

<svg xmlns="http://www.w3.org/2000/svg"
     width="9.72222in" height="9.72222in"
     viewBox="0 0 700 700">
  <path id="Selection"
        fill="none" stroke="black" stroke-width="1"
        d="M 700.00,0.00
           C 700.00,0.00 700.00,700.00 700.00,700.00
             700.00,700.00 0.00,700.00 0.00,700.00
             0.00,700.00 0.00,0.00 0.00,0.00
             0.00,0.00 700.00,0.00 700.00,0.00 Z
           M 462.00,293.01
           C 462.00,293.01 453.00,293.70 453.00,293.70
             449.05,293.43 448.64,291.83 441.00,292.02
             435.35,292.15 434.19,293.68 430.00,293.23
             425.78,292.78 425.42,292.07 420.00,292.00
             405.89,291.84 400.96,294.60 397.00,294.65
             393.55,294.69 391.06,293.14 387.00,293.38
             381.51,293.69 374.73,296.81 369.00,298.11
             369.00,298.11 349.00,300.43 349.00,300.43
             339.44,301.80 336.85,304.37 329.00,306.39
             329.00,306.39 313.00,308.67 313.00,308.67
             309.09,309.50 303.64,311.93 300.00,311.58
             300.00,311.58 274.00,302.09 274.00,302.09
             274.00,302.09 261.00,298.90 261.00,298.90
             261.00,298.90 250.00,293.61 250.00,293.61
             250.00,293.61 241.00,290.91 241.00,290.91
             241.00,290.91 231.00,286.04 231.00,286.04
             224.96,283.44 224.30,284.58 217.00,280.69
             217.00,280.69 193.00,267.50 193.00,267.50
             186.15,263.59 184.49,261.00 176.00,260.32
             176.00,260.32 159.00,261.77 159.00,261.77
             159.00,261.77 135.00,261.77 135.00,261.77
             130.90,262.72 129.30,265.22 126.00,267.28
             121.73,269.96 112.39,269.86 113.42,276.99
             114.27,282.83 129.79,288.48 135.00,291.42
             135.00,291.42 173.00,315.31 173.00,315.31
             173.00,315.31 194.89,329.76 194.89,329.76
             202.88,336.52 191.49,344.62 201.21,351.65
             205.90,355.05 214.08,360.70 220.00,359.64
             225.94,358.59 227.88,353.55 233.00,354.49
             235.88,355.01 241.40,359.54 244.00,361.42
             244.00,361.42 267.00,378.42 267.00,378.42
             267.00,378.42 318.00,419.17 318.00,419.17
             318.00,419.17 359.84,457.42 359.84,457.42
             359.84,457.42 381.00,476.28 381.00,476.28
             384.77,479.55 388.25,483.15 393.00,485.01
             397.24,486.68 403.45,486.99 408.00,486.76
             408.00,486.76 432.00,486.76 432.00,486.76
             432.00,486.76 447.00,487.98 447.00,487.98
             453.52,487.82 453.98,486.04 458.00,485.84
             458.00,485.84 483.00,485.84 483.00,485.84
             488.11,486.06 495.34,488.04 499.57,484.28
             503.05,481.18 502.09,475.37 495.98,474.11
             495.98,474.11 465.00,474.11 465.00,474.11
             465.00,474.11 455.58,474.73 455.58,474.73
             448.78,473.54 433.47,460.26 428.00,455.58
             428.00,455.58 384.00,416.42 384.00,416.42
             379.12,412.14 365.13,397.62 364.23,391.42
             363.98,389.68 364.51,388.59 365.00,387.00
             365.00,387.00 383.00,395.37 383.00,395.37
             388.16,397.04 392.86,396.67 398.00,397.23
             408.71,398.20 410.73,400.47 422.00,397.23
             424.15,396.67 425.71,396.08 428.00,396.02
             433.01,395.90 436.92,398.23 438.00,389.00
             449.94,392.76 448.12,397.57 459.00,399.37
             462.08,400.09 464.98,400.10 468.00,399.37
             470.62,398.42 473.33,396.34 476.00,397.14
             476.00,397.14 488.00,405.55 488.00,405.55
             493.20,408.10 499.44,407.06 505.00,407.00
             510.15,406.95 517.39,407.63 522.00,405.43
             527.57,402.78 528.89,397.95 535.00,398.80
             540.21,399.53 543.74,400.71 548.91,397.70
             554.44,394.49 554.62,389.09 559.11,385.65
             565.32,380.88 574.03,385.10 577.83,378.78
             581.00,373.49 576.19,367.58 577.19,364.19
             578.03,361.37 581.76,359.89 584.00,358.35
             589.52,354.56 592.68,349.68 589.72,343.00
             586.04,334.67 579.00,333.04 572.00,328.80
             572.00,328.80 550.00,317.31 550.00,317.31
             550.00,317.31 542.00,314.28 542.00,314.28
             542.00,314.28 532.00,309.13 532.00,309.13
             526.17,306.95 523.39,308.02 516.00,304.77
             508.39,301.42 493.23,294.21 488.00,304.00
             475.81,299.26 478.11,292.65 462.00,293.01 Z
           M 407.00,360.52
           C 407.00,360.52 418.00,363.96 418.00,363.96
             422.40,365.22 427.04,364.77 429.94,366.31
             434.57,368.78 433.76,372.60 434.28,377.00
             434.90,382.10 436.38,387.38 429.98,389.44
             424.43,391.22 418.52,386.13 414.00,383.45
             407.99,379.90 392.12,374.77 385.00,372.88
             381.50,371.96 372.04,369.67 369.74,367.21
             365.98,363.19 370.53,360.52 374.00,359.48
             380.03,358.60 401.27,359.30 407.00,360.52 Z" />
</svg>
