<?xml version="1.0" encoding="UTF-8" standalone="no"?>
<!DOCTYPE svg PUBLIC "-//W3C//DTD SVG 20010904//EN"
              "http://www.w3.org/TR/2001/REC-SVG-20010904/DTD/svg10.dtd">

<svg xmlns="http://www.w3.org/2000/svg"
     width="9.72222in" height="9.72222in"
     viewBox="0 0 700 700">
  <path id="Selection"
        fill="none" stroke="black" stroke-width="1"
        d="M 700.00,0.00
           C 700.00,0.00 700.00,700.00 700.00,700.00
             700.00,700.00 0.00,700.00 0.00,700.00
             0.00,700.00 0.00,0.00 0.00,0.00
             0.00,0.00 700.00,0.00 700.00,0.00 Z
           M 429.30,373.22
           C 431.44,375.87 431.26,378.61 434.27,381.39
             437.09,383.99 441.29,385.00 444.47,388.34
             447.75,391.77 448.96,396.74 455.00,398.98
             458.13,400.13 462.81,400.32 465.91,398.98
             469.33,397.53 470.24,394.90 473.18,395.44
             477.94,396.30 482.33,404.40 491.00,406.32
             497.26,407.96 501.72,406.18 507.00,406.32
             511.72,406.17 513.98,407.86 519.99,405.39
             525.68,403.04 527.40,398.61 531.04,397.85
             534.92,397.02 540.04,402.31 547.98,397.85
             554.35,394.30 553.94,388.41 559.10,385.01
             564.19,381.65 569.65,384.26 574.89,380.91
             580.92,377.06 578.00,371.36 578.60,368.00
             579.99,360.23 592.09,359.57 590.89,347.00
             590.32,341.03 585.73,336.81 581.00,333.70
             581.00,333.70 554.00,318.86 554.00,318.86
             554.00,318.86 532.00,308.62 532.00,308.62
             532.00,308.62 521.00,306.17 521.00,306.17
             513.21,303.47 508.99,300.58 500.00,299.43
             497.44,298.93 493.50,298.79 491.04,299.43
             488.68,300.31 487.29,302.02 484.83,301.44
             480.96,300.52 477.51,294.92 469.00,293.26
             460.83,291.19 458.65,293.88 453.00,293.26
             453.00,293.26 445.00,292.09 445.00,292.09
             438.07,291.54 435.73,292.97 432.00,293.01
             432.00,293.01 425.00,292.09 425.00,292.09
             425.00,292.09 414.00,292.09 414.00,292.09
             414.00,292.09 395.00,294.40 395.00,294.40
             390.39,293.84 389.89,292.43 384.00,293.46
             384.00,293.46 366.00,298.54 366.00,298.54
             366.00,298.54 342.00,301.66 342.00,301.66
             342.00,301.66 328.00,306.24 328.00,306.24
             328.00,306.24 314.00,308.43 314.00,308.43
             309.74,309.15 305.33,310.53 301.00,309.61
             294.78,308.29 292.13,303.87 284.00,301.44
             284.00,301.44 269.00,298.56 269.00,298.56
             269.00,298.56 259.00,294.45 259.00,294.45
             259.00,294.45 248.00,290.89 248.00,290.89
             248.00,290.89 238.00,286.31 238.00,286.31
             238.00,286.31 228.00,282.94 228.00,282.94
             228.00,282.94 214.00,276.74 214.00,276.74
             204.11,271.92 183.26,258.94 174.00,257.17
             174.00,257.17 163.00,257.17 163.00,257.17
             163.00,257.17 150.00,257.83 150.00,257.83
             150.00,257.83 135.00,255.10 135.00,255.10
             131.78,254.97 128.10,255.55 127.00,259.11
             125.59,263.66 130.44,267.80 132.87,271.00
             133.89,272.33 135.75,274.57 134.26,276.38
             132.95,277.68 129.63,276.89 128.00,276.38
             122.08,275.18 110.34,270.64 112.23,282.00
             113.56,290.02 129.46,293.87 136.00,297.76
             136.00,297.76 173.00,320.40 173.00,320.40
             181.16,325.32 194.07,332.96 200.00,340.00
             195.25,345.62 197.77,351.20 204.00,354.21
             207.00,355.66 212.72,357.89 216.00,357.53
             219.67,357.13 222.78,354.71 227.00,355.90
             232.83,357.55 251.79,373.06 258.00,377.55
             294.62,404.03 326.16,436.16 358.00,468.00
             358.00,468.00 377.00,487.00 377.00,487.00
             386.80,496.80 388.65,501.98 403.00,502.00
             403.00,502.00 427.00,502.00 427.00,502.00
             427.00,502.00 445.00,503.97 445.00,503.97
             452.45,503.96 453.92,501.00 460.00,501.47
             460.00,501.47 480.00,502.00 480.00,502.00
             485.75,502.07 504.19,505.83 501.53,494.04
             500.63,490.09 496.60,488.72 493.00,488.34
             493.00,488.34 465.00,489.00 465.00,489.00
             465.00,489.00 454.72,489.62 454.72,489.62
             447.60,487.85 435.36,475.63 429.84,470.41
             429.84,470.41 402.00,443.04 402.00,443.04
             392.87,434.30 383.48,426.07 375.77,416.00
             370.46,409.08 363.27,399.50 361.13,391.00
             359.89,386.07 358.42,373.81 366.02,373.03
             369.71,372.65 372.65,377.56 379.00,379.75
             384.87,381.78 398.61,383.03 405.00,383.00
             409.57,382.98 418.19,382.00 415.64,375.00
             414.84,372.80 412.58,370.68 411.00,369.00
             416.70,367.63 425.32,368.27 429.30,373.22 Z" />
</svg>
