<?xml version="1.0" encoding="UTF-8" standalone="no"?>
<!DOCTYPE svg PUBLIC "-//W3C//DTD SVG 20010904//EN"
              "http://www.w3.org/TR/2001/REC-SVG-20010904/DTD/svg10.dtd">

<svg xmlns="http://www.w3.org/2000/svg"
     width="9.72222in" height="9.72222in"
     viewBox="0 0 700 700">
  <path id="Selection"
        fill="none" stroke="black" stroke-width="1"
        d="M 700.00,0.00
           C 700.00,0.00 700.00,700.00 700.00,700.00
             700.00,700.00 0.00,700.00 0.00,700.00
             0.00,700.00 0.00,0.00 0.00,0.00
             0.00,0.00 700.00,0.00 700.00,0.00 Z
           M 549.89,395.72
           C 554.59,391.56 554.20,386.68 558.21,383.74
             562.64,380.49 569.07,383.32 573.89,380.69
             579.26,377.75 577.07,372.56 579.31,368.00
             582.09,362.37 596.80,354.71 590.35,343.00
             586.57,336.12 581.28,333.68 575.00,329.83
             575.00,329.83 568.00,325.35 568.00,325.35
             568.00,325.35 560.00,321.60 560.00,321.60
             560.00,321.60 553.00,317.52 553.00,317.52
             553.00,317.52 543.00,313.60 543.00,313.60
             539.54,311.97 536.79,309.80 533.00,308.62
             533.00,308.62 521.00,305.88 521.00,305.88
             512.05,302.61 505.21,298.46 495.00,299.04
             488.55,299.41 487.58,302.57 484.00,301.72
             479.63,300.68 476.15,293.91 468.00,293.32
             468.00,293.32 453.00,293.32 453.00,293.32
             448.54,293.01 449.42,291.79 441.00,292.02
             441.00,292.02 432.00,293.16 432.00,293.16
             432.00,293.16 425.00,292.09 425.00,292.09
             425.00,292.09 416.00,292.09 416.00,292.09
             404.04,292.02 403.06,294.14 398.00,294.59
             393.11,295.02 391.44,292.63 385.00,293.63
             385.00,293.63 367.00,298.54 367.00,298.54
             367.00,298.54 342.00,301.77 342.00,301.77
             342.00,301.77 330.00,305.96 330.00,305.96
             326.01,307.10 311.74,309.23 308.00,308.46
             301.00,307.01 299.58,302.78 293.00,300.78
             293.00,300.78 278.00,297.96 278.00,297.96
             278.00,297.96 265.00,293.59 265.00,293.59
             265.00,293.59 255.00,291.04 255.00,291.04
             255.00,291.04 243.00,285.55 243.00,285.55
             243.00,285.55 233.00,282.54 233.00,282.54
             233.00,282.54 223.00,278.06 223.00,278.06
             223.00,278.06 215.00,275.25 215.00,275.25
             206.05,271.17 183.65,257.04 176.00,255.39
             170.35,254.17 164.65,255.86 159.00,255.99
             159.00,255.99 134.00,254.00 134.00,254.00
             126.32,254.14 121.54,259.42 127.24,265.90
             132.21,271.55 140.00,272.56 145.98,275.82
             148.05,276.95 151.21,278.90 150.01,281.73
             148.58,285.12 143.68,283.94 141.00,283.35
             134.38,281.89 124.43,278.64 118.00,278.72
             112.48,278.79 109.37,281.17 110.54,287.00
             112.73,297.83 125.33,298.57 135.00,303.26
             135.00,303.26 165.00,321.58 165.00,321.58
             165.00,321.58 193.96,339.33 193.96,339.33
             200.70,345.26 197.94,349.47 202.23,351.96
             204.52,353.30 207.26,352.36 210.00,352.68
             213.06,353.05 217.21,354.90 220.00,356.26
             230.07,361.17 247.60,374.65 257.00,381.89
             257.00,381.89 276.00,397.69 276.00,397.69
             291.51,410.31 306.25,423.34 319.91,438.00
             319.91,438.00 345.72,466.96 345.72,466.96
             345.72,466.96 374.84,498.04 374.84,498.04
             386.08,510.08 388.36,516.97 406.00,517.13
             406.00,517.13 437.00,517.13 437.00,517.13
             437.00,517.13 446.00,517.13 446.00,517.13
             453.02,516.95 455.02,513.94 459.00,513.15
             459.00,513.15 472.00,514.00 472.00,514.00
             472.00,514.00 488.00,514.00 488.00,514.00
             491.93,513.99 498.63,514.29 499.22,508.91
             499.41,507.16 498.71,505.58 497.56,504.30
             493.58,499.92 486.30,501.97 481.00,502.14
             481.00,502.14 464.42,502.14 464.42,502.14
             459.09,503.00 457.71,505.75 452.00,503.00
             442.93,498.63 432.78,486.38 425.91,479.00
             425.91,479.00 412.04,465.00 412.04,465.00
             412.04,465.00 397.83,449.00 397.83,449.00
             397.83,449.00 387.00,437.72 387.00,437.72
             377.81,427.71 363.04,408.43 360.62,395.00
             359.22,387.29 359.14,378.76 366.04,373.65
             374.08,367.69 391.15,368.89 401.00,369.00
             407.62,369.08 422.07,372.51 428.00,375.33
             428.00,375.33 436.00,380.32 436.00,380.32
             438.47,381.78 441.61,382.46 443.57,384.43
             447.11,387.97 445.86,393.57 451.11,397.27
             456.54,401.10 465.65,401.06 467.00,393.00
             476.88,394.88 479.59,401.36 488.00,404.78
             490.85,405.93 493.00,405.96 496.00,406.00
             502.52,406.08 514.41,406.96 520.00,404.16
             520.00,404.16 534.00,394.00 534.00,394.00
             536.69,400.98 545.09,399.99 549.89,395.72 Z" />
</svg>
