<?xml version="1.0" encoding="UTF-8" standalone="no"?>
<!DOCTYPE svg PUBLIC "-//W3C//DTD SVG 20010904//EN"
              "http://www.w3.org/TR/2001/REC-SVG-20010904/DTD/svg10.dtd">

<svg xmlns="http://www.w3.org/2000/svg"
     width="9.72222in" height="9.72222in"
     viewBox="0 0 700 700">
  <path id="Selection"
        fill="none" stroke="black" stroke-width="1"
        d="M 700.00,0.00
           C 700.00,0.00 700.00,700.00 700.00,700.00
             700.00,700.00 0.00,700.00 0.00,700.00
             0.00,700.00 0.00,0.00 0.00,0.00
             0.00,0.00 700.00,0.00 700.00,0.00 Z
           M 183.00,297.13
           C 183.00,297.13 174.00,292.12 174.00,292.12
             166.25,288.89 153.45,287.01 145.00,287.00
             145.00,287.00 121.00,285.00 121.00,285.00
             118.24,284.97 113.58,284.73 111.23,286.17
             106.16,289.28 108.77,295.51 112.13,298.79
             115.97,302.53 121.24,304.03 126.00,306.17
             126.00,306.17 146.00,316.09 146.00,316.09
             146.00,316.09 155.00,321.86 155.00,321.86
             155.00,321.86 186.00,339.81 186.00,339.81
             186.00,339.81 202.00,350.19 202.00,350.19
             202.00,350.19 225.00,363.44 225.00,363.44
             225.00,363.44 246.00,378.38 246.00,378.38
             246.00,378.38 262.00,391.69 262.00,391.69
             262.00,391.69 294.96,419.07 294.96,419.07
             294.96,419.07 311.04,436.00 311.04,436.00
             311.04,436.00 322.56,448.00 322.56,448.00
             322.56,448.00 340.32,470.00 340.32,470.00
             340.32,470.00 367.58,501.00 367.58,501.00
             373.01,507.37 386.22,523.80 393.00,526.96
             399.93,530.18 416.73,528.91 425.00,529.00
             425.00,529.00 444.00,530.92 444.00,530.92
             450.59,530.89 453.43,527.68 458.00,527.30
             458.00,527.30 486.00,528.91 486.00,528.91
             491.14,529.20 498.10,527.97 499.34,521.98
             500.39,516.88 496.53,513.62 492.00,512.53
             487.82,511.53 485.04,512.64 481.00,513.14
             481.00,513.14 466.00,513.14 466.00,513.14
             461.19,513.06 456.39,514.72 452.00,513.14
             441.79,510.63 428.44,492.19 420.93,484.00
             408.25,470.19 378.82,438.00 370.21,423.00
             370.21,423.00 361.83,406.00 361.83,406.00
             358.82,397.36 358.01,383.36 367.02,378.09
             372.11,375.10 383.05,375.05 389.00,374.76
             389.00,374.76 399.04,374.76 399.04,374.76
             410.25,374.85 421.39,377.27 432.00,380.66
             435.05,381.63 441.61,383.10 443.94,384.44
             450.28,388.08 446.57,394.55 453.10,397.09
             459.99,399.78 461.51,391.82 468.00,393.32
             472.28,394.30 479.69,401.12 488.00,403.95
             494.25,405.99 500.61,404.03 507.00,403.95
             513.25,403.97 517.31,403.99 523.00,400.78
             527.06,398.49 530.01,394.50 532.91,394.05
             535.38,393.66 537.04,395.89 539.09,396.83
             542.40,398.35 545.92,397.37 548.67,395.15
             555.37,389.75 550.41,384.37 557.06,380.20
             563.24,376.24 566.10,382.41 571.98,380.20
             577.06,378.38 577.01,373.08 579.36,369.00
             583.68,361.53 591.04,360.57 591.89,350.00
             592.08,347.65 591.89,345.13 590.83,343.00
             586.41,334.18 568.70,325.72 560.00,321.22
             560.00,321.22 544.00,313.97 544.00,313.97
             544.00,313.97 534.00,308.96 534.00,308.96
             534.00,308.96 522.00,306.23 522.00,306.23
             513.28,303.55 510.46,301.06 500.00,299.59
             497.33,299.02 494.60,298.80 492.00,299.59
             488.99,300.81 486.89,303.43 484.00,302.67
             480.80,301.83 477.66,296.37 471.00,294.00
             464.43,291.60 456.24,294.14 453.42,294.00
             449.79,293.88 448.57,291.66 441.00,292.04
             441.00,292.04 432.00,293.51 432.00,293.51
             428.23,293.54 424.19,291.39 414.00,292.09
             414.00,292.09 396.00,295.11 396.00,295.11
             392.39,295.20 390.67,293.29 384.00,294.46
             384.00,294.46 365.00,298.70 365.00,298.70
             365.00,298.70 343.00,301.21 343.00,301.21
             335.55,302.79 328.68,306.65 321.00,306.96
             309.14,307.44 310.72,302.34 296.00,299.28
             296.00,299.28 287.00,297.43 287.00,297.43
             287.00,297.43 276.00,293.76 276.00,293.76
             276.00,293.76 263.00,291.38 263.00,291.38
             263.00,291.38 250.00,286.09 250.00,286.09
             250.00,286.09 240.00,283.40 240.00,283.40
             240.00,283.40 229.00,278.46 229.00,278.46
             229.00,278.46 218.00,274.91 218.00,274.91
             218.00,274.91 178.00,255.17 178.00,255.17
             171.55,253.32 158.24,254.01 151.00,254.00
             151.00,254.00 138.00,253.04 138.00,253.04
             135.11,252.91 129.61,252.72 127.15,254.17
             122.00,257.22 124.02,263.84 128.11,266.90
             133.66,271.05 140.68,272.60 147.00,275.07
             152.56,277.24 171.11,287.84 175.00,292.00
             179.97,291.91 184.61,294.69 189.00,296.78
             196.06,300.14 211.01,306.68 216.00,312.00
             204.91,310.26 192.73,302.65 183.00,297.13 Z" />
</svg>
