<?xml version="1.0" encoding="UTF-8" standalone="no"?>
<!DOCTYPE svg PUBLIC "-//W3C//DTD SVG 20010904//EN"
              "http://www.w3.org/TR/2001/REC-SVG-20010904/DTD/svg10.dtd">

<svg xmlns="http://www.w3.org/2000/svg"
     width="9.72222in" height="9.72222in"
     viewBox="0 0 700 700">
  <path id="Selection"
        fill="none" stroke="black" stroke-width="1"
        d="M 700.00,0.00
           C 700.00,0.00 700.00,700.00 700.00,700.00
             700.00,700.00 0.00,700.00 0.00,700.00
             0.00,700.00 0.00,0.00 0.00,0.00
             0.00,0.00 700.00,0.00 700.00,0.00 Z
           M 124.43,264.47
           C 126.95,267.16 134.38,270.09 138.00,271.69
             138.00,271.69 148.00,275.51 148.00,275.51
             148.00,275.51 157.00,280.22 157.00,280.22
             157.00,280.22 172.00,287.68 172.00,287.68
             172.00,287.68 181.00,291.37 181.00,291.37
             181.00,291.37 189.00,295.68 189.00,295.68
             189.00,295.68 206.00,303.67 206.00,303.67
             206.00,303.67 215.00,307.32 215.00,307.32
             215.00,307.32 223.00,311.54 223.00,311.54
             223.00,311.54 236.00,315.92 236.00,315.92
             237.91,316.85 240.80,318.54 240.80,321.00
             240.80,323.78 237.37,325.44 235.00,325.68
             230.73,326.12 223.86,322.59 220.00,320.78
             220.00,320.78 206.00,315.18 206.00,315.18
             206.00,315.18 176.00,300.55 176.00,300.55
             166.31,296.55 165.16,293.15 153.00,293.00
             153.00,293.00 135.00,293.00 135.00,293.00
             129.22,292.99 117.78,291.08 113.02,292.43
             108.71,293.65 106.43,297.78 108.35,301.96
             111.24,308.24 128.21,313.32 135.00,317.34
             135.00,317.34 214.00,362.31 214.00,362.31
             214.00,362.31 241.91,379.88 241.91,379.88
             241.91,379.88 256.00,391.50 256.00,391.50
             279.65,409.81 297.76,426.78 317.83,449.00
             317.83,449.00 349.95,489.00 349.95,489.00
             349.95,489.00 375.12,520.00 375.12,520.00
             379.73,525.97 387.80,536.94 395.00,539.20
             397.89,540.10 401.01,540.00 404.00,540.00
             404.00,540.00 441.00,540.00 441.00,540.00
             452.18,539.95 452.76,536.85 458.00,536.84
             458.00,536.84 464.00,536.84 464.00,536.84
             464.00,536.84 474.00,536.84 474.00,536.84
             474.00,536.84 484.00,537.91 484.00,537.91
             489.19,538.20 497.73,536.12 495.92,529.02
             494.88,524.91 490.80,523.38 487.00,523.10
             487.00,523.10 476.00,523.98 476.00,523.98
             476.00,523.98 465.00,523.98 465.00,523.98
             456.90,524.15 456.26,527.49 452.00,526.21
             445.30,524.19 432.42,507.77 427.74,502.00
             411.25,481.66 388.70,457.08 374.65,436.00
             368.40,426.63 370.87,430.16 366.51,421.00
             362.34,412.23 360.12,410.62 360.00,400.00
             359.96,395.86 359.75,390.78 362.09,387.18
             367.88,378.26 390.32,378.89 400.00,379.00
             407.03,379.09 409.49,380.51 416.00,381.56
             423.66,382.80 431.52,383.32 439.00,385.57
             439.00,385.57 450.00,389.78 450.00,389.78
             450.00,389.78 467.00,393.66 467.00,393.66
             472.25,395.59 475.85,399.50 486.00,401.77
             493.25,403.02 502.37,402.09 510.00,401.77
             514.74,401.94 519.79,401.37 524.00,399.03
             524.00,399.03 533.00,393.19 533.00,393.19
             537.93,391.34 540.03,396.04 544.96,394.24
             551.16,391.99 547.03,387.72 555.01,382.62
             564.73,376.40 567.52,377.92 572.00,375.92
             576.29,374.00 578.03,371.27 581.17,368.16
             586.62,362.77 593.45,356.72 592.58,348.00
             591.71,339.26 580.56,333.11 574.00,328.59
             565.12,322.47 553.87,318.29 544.00,314.05
             544.00,314.05 533.00,308.90 533.00,308.90
             533.00,308.90 520.00,306.23 520.00,306.23
             511.20,303.59 506.09,299.47 496.00,300.04
             488.80,300.46 487.87,304.67 484.00,303.67
             481.99,303.15 478.08,299.24 476.00,297.80
             472.49,295.36 467.28,293.48 463.00,293.21
             463.00,293.21 453.00,293.94 453.00,293.94
             448.94,293.61 447.10,291.68 441.00,292.10
             441.00,292.10 432.00,293.52 432.00,293.52
             432.00,293.52 424.00,292.09 424.00,292.09
             424.00,292.09 413.00,292.09 413.00,292.09
             401.58,292.02 401.59,294.11 397.00,294.44
             393.22,294.72 391.11,292.60 384.00,293.09
             384.00,293.09 362.00,298.33 362.00,298.33
             362.00,298.33 339.00,301.31 339.00,301.31
             332.73,302.56 328.59,306.34 321.96,304.66
             321.96,304.66 313.00,301.21 313.00,301.21
             313.00,301.21 302.00,298.23 302.00,298.23
             302.00,298.23 290.00,294.42 290.00,294.42
             290.00,294.42 269.00,290.62 269.00,290.62
             269.00,290.62 257.00,286.44 257.00,286.44
             257.00,286.44 245.00,283.23 245.00,283.23
             245.00,283.23 235.00,279.09 235.00,279.09
             235.00,279.09 224.00,275.71 224.00,275.71
             224.00,275.71 190.00,260.69 190.00,260.69
             190.00,260.69 178.00,254.80 178.00,254.80
             170.09,252.41 164.49,253.91 157.00,254.00
             157.00,254.00 129.00,252.34 129.00,252.34
             123.26,254.07 119.72,259.45 124.43,264.47 Z" />
</svg>
