<?xml version="1.0" encoding="UTF-8" standalone="no"?>
<!DOCTYPE svg PUBLIC "-//W3C//DTD SVG 20010904//EN"
              "http://www.w3.org/TR/2001/REC-SVG-20010904/DTD/svg10.dtd">

<svg xmlns="http://www.w3.org/2000/svg"
     width="9.72222in" height="9.72222in"
     viewBox="0 0 700 700">
  <path id="Selection"
        fill="none" stroke="black" stroke-width="1"
        d="M 700.00,0.00
           C 700.00,0.00 700.00,700.00 700.00,700.00
             700.00,700.00 0.00,700.00 0.00,700.00
             0.00,700.00 0.00,0.00 0.00,0.00
             0.00,0.00 700.00,0.00 700.00,0.00 Z
           M 417.00,278.00
           C 417.00,278.00 398.00,278.00 398.00,278.00
             386.27,278.06 384.25,280.02 374.00,283.41
             369.11,285.03 366.88,285.32 362.00,287.89
             362.00,287.89 342.00,298.30 342.00,298.30
             340.14,298.92 337.94,299.05 336.00,298.89
             336.00,298.89 315.00,293.27 315.00,293.27
             315.00,293.27 295.00,290.72 295.00,290.72
             295.00,290.72 275.00,285.46 275.00,285.46
             275.00,285.46 256.00,283.40 256.00,283.40
             256.00,283.40 243.00,278.91 243.00,278.91
             243.00,278.91 227.00,275.51 227.00,275.51
             227.00,275.51 217.00,271.89 217.00,271.89
             217.00,271.89 206.00,269.24 206.00,269.24
             200.09,267.65 197.42,265.30 192.00,263.23
             192.00,263.23 181.00,259.49 181.00,259.49
             174.40,256.56 171.02,253.72 163.00,254.32
             163.00,254.32 151.00,254.96 151.00,254.96
             151.00,254.96 126.00,253.09 126.00,253.09
             121.03,253.52 116.10,256.15 117.33,262.00
             118.95,269.64 136.33,273.63 143.00,275.49
             143.00,275.49 166.00,284.34 166.00,284.34
             166.00,284.34 176.00,289.04 176.00,289.04
             176.00,289.04 187.00,291.95 187.00,291.95
             187.00,291.95 198.00,296.56 198.00,296.56
             198.00,296.56 212.00,300.20 212.00,300.20
             212.00,300.20 234.00,309.91 234.00,309.91
             238.28,311.45 244.98,312.01 247.96,313.84
             256.13,318.86 249.16,324.48 239.00,323.91
             231.25,323.47 222.53,321.63 215.00,324.72
             209.34,327.05 207.91,332.99 203.00,333.48
             199.30,333.84 185.74,325.81 181.00,324.09
             181.00,324.09 161.00,316.23 161.00,316.23
             161.00,316.23 138.00,316.23 138.00,316.23
             138.00,316.23 113.00,314.71 113.00,314.71
             108.81,315.24 105.20,317.20 105.41,322.00
             105.63,326.76 110.24,328.94 114.00,330.69
             114.00,330.69 126.00,335.64 126.00,335.64
             126.00,335.64 134.00,337.95 134.00,337.95
             134.00,337.95 143.00,342.22 143.00,342.22
             143.00,342.22 152.00,346.27 152.00,346.27
             152.00,346.27 161.00,351.31 161.00,351.31
             184.24,362.39 207.85,373.22 230.00,386.45
             230.00,386.45 246.00,397.26 246.00,397.26
             246.00,397.26 258.00,404.49 258.00,404.49
             266.22,410.46 276.56,419.87 284.00,426.96
             284.00,426.96 298.91,441.00 298.91,441.00
             318.77,462.31 335.36,486.27 352.92,509.42
             352.92,509.42 363.92,525.00 363.92,525.00
             363.92,525.00 375.28,540.00 375.28,540.00
             379.40,545.86 384.54,553.85 391.00,557.17
             399.69,561.63 405.98,559.01 415.00,559.00
             415.00,559.00 439.00,560.00 439.00,560.00
             439.00,560.00 450.00,558.94 450.00,558.94
             450.00,558.94 480.00,558.94 480.00,558.94
             483.07,558.98 486.24,559.14 488.87,557.26
             493.87,553.70 493.27,547.05 487.95,544.17
             485.57,542.89 482.62,543.01 480.00,542.94
             480.00,542.94 457.00,542.94 457.00,542.94
             453.56,543.04 449.11,543.90 446.00,542.94
             437.93,540.01 427.20,522.32 421.26,515.00
             421.26,515.00 405.80,494.00 405.80,494.00
             405.80,494.00 393.65,478.00 393.65,478.00
             393.65,478.00 384.44,465.00 384.44,465.00
             376.10,453.29 363.95,433.92 360.65,420.00
             358.88,412.49 357.56,404.18 364.19,398.42
             367.61,395.44 373.60,394.65 378.00,393.65
             383.44,392.42 385.38,392.03 391.00,392.00
             391.00,392.00 396.00,392.00 396.00,392.00
             396.00,392.00 418.00,394.71 418.00,394.71
             418.00,394.71 446.00,397.08 446.00,397.08
             446.00,397.08 461.00,397.08 461.00,397.08
             461.00,397.08 482.00,398.96 482.00,398.96
             482.00,398.96 496.00,398.00 496.00,398.00
             496.00,398.00 511.00,397.00 511.00,397.00
             519.64,396.96 537.89,393.32 546.00,390.45
             546.00,390.45 560.00,383.47 560.00,383.47
             568.49,379.29 580.52,371.92 586.78,364.91
             588.96,362.47 590.05,359.99 591.26,357.00
             596.69,343.69 585.71,335.19 576.00,327.90
             572.26,325.09 560.38,318.66 556.00,316.92
             556.00,316.92 547.00,313.93 547.00,313.93
             547.00,313.93 536.00,308.93 536.00,308.93
             536.00,308.93 523.00,305.95 523.00,305.95
             514.07,303.08 503.85,296.25 494.00,299.89
             491.27,300.90 488.39,303.27 486.00,305.00
             481.74,290.08 473.74,293.28 461.00,291.00
             461.00,291.00 461.00,289.00 461.00,289.00
             466.27,286.02 465.30,281.22 459.96,279.89
             456.92,279.14 454.83,280.33 452.00,280.51
             447.03,280.82 438.27,278.10 434.84,283.26
             433.20,285.73 434.50,287.11 436.00,289.00
             436.00,289.00 432.00,289.00 432.00,289.00
             430.24,279.77 425.69,278.04 417.00,278.00 Z" />
</svg>
