<?xml version="1.0" encoding="UTF-8" standalone="no"?>
<!DOCTYPE svg PUBLIC "-//W3C//DTD SVG 20010904//EN"
              "http://www.w3.org/TR/2001/REC-SVG-20010904/DTD/svg10.dtd">

<svg xmlns="http://www.w3.org/2000/svg"
     width="9.72222in" height="9.72222in"
     viewBox="0 0 700 700">
  <path id="Selection"
        fill="none" stroke="black" stroke-width="1"
        d="M 700.00,0.00
           C 700.00,0.00 700.00,700.00 700.00,700.00
             700.00,700.00 0.00,700.00 0.00,700.00
             0.00,700.00 0.00,0.00 0.00,0.00
             0.00,0.00 700.00,0.00 700.00,0.00 Z
           M 385.00,278.55
           C 385.00,278.55 420.00,255.28 420.00,255.28
             423.08,253.56 431.88,248.75 435.00,248.36
             435.00,248.36 457.00,249.00 457.00,249.00
             460.63,249.00 464.89,249.14 467.22,245.77
             469.62,242.32 467.54,238.22 463.95,236.69
             460.10,235.15 450.93,236.52 446.42,236.69
             438.72,236.03 438.78,236.98 435.42,236.69
             432.33,236.99 430.68,235.31 425.00,235.04
             418.69,234.73 416.59,235.53 411.00,235.96
             411.00,235.96 396.00,235.96 396.00,235.96
             378.96,236.03 376.37,241.01 363.00,250.11
             363.00,250.11 354.00,255.59 354.00,255.59
             354.00,255.59 319.00,277.79 319.00,277.79
             314.65,280.22 310.51,284.56 306.00,285.99
             306.00,285.99 284.00,285.00 284.00,285.00
             284.00,285.00 274.00,284.09 274.00,284.09
             264.81,283.46 259.57,283.71 250.00,281.91
             250.00,281.91 235.00,278.28 235.00,278.28
             235.00,278.28 211.00,275.10 211.00,275.10
             211.00,275.10 197.00,270.89 197.00,270.89
             197.00,270.89 184.00,268.22 184.00,268.22
             177.76,266.37 176.58,263.95 167.00,262.63
             159.75,261.29 157.04,262.82 153.00,262.63
             153.00,262.63 140.00,261.90 140.00,261.90
             133.47,261.97 125.16,259.84 119.00,261.90
             115.17,263.02 112.40,265.66 113.33,269.99
             114.91,277.35 134.32,281.17 141.00,281.95
             151.51,283.18 153.68,284.57 163.00,286.76
             163.00,286.76 179.00,289.65 179.00,289.65
             179.00,289.65 193.00,293.96 193.00,293.96
             193.00,293.96 223.00,300.02 223.00,300.02
             223.00,300.02 239.00,307.55 239.00,307.55
             242.29,308.86 248.38,310.40 250.85,312.51
             256.14,317.00 252.45,322.06 246.00,322.66
             246.00,322.66 237.00,322.66 237.00,322.66
             231.91,322.84 218.26,324.44 214.00,326.41
             211.00,327.80 207.80,330.24 205.00,332.05
             205.00,332.05 199.34,335.68 199.34,335.68
             193.34,340.96 198.43,348.73 192.85,350.08
             190.98,350.53 186.03,348.86 184.00,348.29
             184.00,348.29 174.00,345.56 174.00,345.56
             174.00,345.56 164.00,341.51 164.00,341.51
             154.66,338.78 152.75,341.12 145.00,340.95
             145.00,340.95 121.00,339.00 121.00,339.00
             121.00,339.00 117.00,339.00 117.00,339.00
             111.34,339.07 104.60,339.56 105.13,346.99
             105.28,349.13 105.81,350.59 107.43,352.04
             112.12,356.23 126.61,359.16 133.00,360.45
             142.85,362.43 142.30,363.58 150.00,366.30
             150.00,366.30 163.00,370.09 163.00,370.09
             163.00,370.09 171.00,373.91 171.00,373.91
             171.00,373.91 183.00,377.62 183.00,377.62
             183.00,377.62 192.00,381.69 192.00,381.69
             192.00,381.69 203.00,385.51 203.00,385.51
             203.00,385.51 211.00,389.56 211.00,389.56
             211.00,389.56 220.00,392.95 220.00,392.95
             220.00,392.95 228.00,397.19 228.00,397.19
             228.00,397.19 237.00,401.32 237.00,401.32
             253.63,410.07 261.44,416.93 276.00,427.78
             276.00,427.78 302.71,450.09 302.71,450.09
             317.34,465.60 329.35,483.74 341.74,501.00
             341.74,501.00 358.36,523.00 358.36,523.00
             358.36,523.00 366.58,535.00 366.58,535.00
             366.58,535.00 378.58,551.00 378.58,551.00
             381.40,554.90 384.69,560.04 389.04,562.31
             392.60,564.17 396.13,563.99 400.00,564.14
             400.00,564.14 428.00,564.14 428.00,564.14
             428.00,564.14 437.00,564.14 437.00,564.14
             437.00,564.14 447.00,562.27 447.00,562.27
             447.00,562.27 464.00,562.27 464.00,562.27
             469.27,562.39 475.86,564.15 480.98,562.27
             486.88,559.76 487.39,553.22 481.94,550.31
             478.45,548.46 468.30,548.95 464.00,549.05
             458.98,549.06 446.80,551.43 442.83,549.05
             434.89,544.47 426.26,529.50 420.26,522.00
             420.26,522.00 374.57,458.00 374.57,458.00
             368.83,449.03 359.75,433.72 359.09,423.00
             358.38,411.41 364.05,408.12 374.00,405.52
             378.17,404.44 382.65,402.61 387.00,402.46
             387.00,402.46 409.00,404.00 409.00,404.00
             409.00,404.00 441.00,404.00 441.00,404.00
             441.00,404.00 457.00,405.00 457.00,405.00
             457.00,405.00 482.00,405.00 482.00,405.00
             489.41,404.99 520.67,400.12 528.00,398.11
             528.00,398.11 537.00,394.80 537.00,394.80
             537.00,394.80 550.00,391.20 550.00,391.20
             558.14,389.23 575.13,379.16 580.67,372.91
             583.26,370.00 584.48,367.21 586.46,364.00
             589.92,358.38 593.58,355.20 592.89,348.00
             592.12,340.04 580.09,328.60 574.00,323.89
             569.28,320.24 553.28,310.91 548.00,308.96
             548.00,308.96 538.00,306.45 538.00,306.45
             527.12,302.62 530.83,301.89 517.00,299.73
             512.14,298.97 506.62,296.56 502.00,297.21
             497.31,297.88 492.97,301.52 489.00,304.00
             488.68,289.85 481.31,292.02 470.00,292.00
             458.09,291.98 459.64,290.10 452.00,289.01
             452.00,289.01 441.00,289.01 441.00,289.01
             441.00,289.01 431.00,287.08 431.00,287.08
             431.00,287.08 415.00,287.08 415.00,287.08
             397.82,287.03 386.99,293.73 369.00,293.00
             370.37,284.55 378.36,282.49 385.00,278.55 Z" />
</svg>
