<?xml version="1.0" encoding="UTF-8" standalone="no"?>
<!DOCTYPE svg PUBLIC "-//W3C//DTD SVG 20010904//EN"
              "http://www.w3.org/TR/2001/REC-SVG-20010904/DTD/svg10.dtd">

<svg xmlns="http://www.w3.org/2000/svg"
     width="9.72222in" height="9.72222in"
     viewBox="0 0 700 700">
  <path id="Selection"
        fill="none" stroke="black" stroke-width="1"
        d="M 700.00,0.00
           C 700.00,0.00 700.00,700.00 700.00,700.00
             700.00,700.00 0.00,700.00 0.00,700.00
             0.00,700.00 0.00,0.00 0.00,0.00
             0.00,0.00 700.00,0.00 700.00,0.00 Z
           M 481.00,291.00
           C 463.25,290.92 469.49,287.15 457.00,286.97
             457.00,286.97 442.00,286.97 442.00,286.97
             442.00,286.97 422.00,285.04 422.00,285.04
             422.00,285.04 390.00,286.91 390.00,286.91
             390.00,286.91 375.00,285.89 375.00,285.89
             375.00,285.89 365.77,285.89 365.77,285.89
             362.75,285.39 360.99,283.11 361.84,280.00
             362.67,277.01 366.81,273.21 369.00,271.00
             369.00,271.00 385.00,255.00 385.00,255.00
             385.00,255.00 413.84,226.85 413.84,226.85
             419.39,221.38 426.50,214.43 434.00,211.81
             438.91,210.09 451.43,210.93 457.00,211.00
             460.52,211.04 465.89,211.45 468.77,209.26
             473.16,205.93 471.82,199.75 466.95,197.86
             461.81,195.62 449.76,197.86 444.00,197.86
             444.00,197.86 425.00,196.51 425.00,196.51
             425.00,196.51 407.00,197.97 407.00,197.97
             399.64,197.73 389.95,195.97 383.00,199.45
             378.85,201.54 364.68,215.66 360.00,219.84
             360.00,219.84 340.17,237.41 340.17,237.41
             322.25,254.11 318.22,259.79 296.00,271.79
             296.00,271.79 289.00,275.74 289.00,275.74
             289.00,275.74 279.00,278.95 279.00,278.95
             266.89,283.22 265.96,284.98 252.00,285.00
             252.00,285.00 215.00,283.00 215.00,283.00
             215.00,283.00 200.00,281.72 200.00,281.72
             189.28,280.31 178.84,277.02 168.00,277.00
             168.00,277.00 152.00,277.00 152.00,277.00
             152.00,277.00 139.00,276.00 139.00,276.00
             139.00,276.00 123.00,276.00 123.00,276.00
             117.45,276.03 107.92,276.79 109.66,284.96
             111.28,292.58 126.70,292.00 133.00,292.87
             133.00,292.87 157.00,296.72 157.00,296.72
             157.00,296.72 186.00,299.00 186.00,299.00
             186.00,299.00 207.00,300.00 207.00,300.00
             211.60,300.06 222.64,301.32 227.00,302.56
             227.00,302.56 239.00,306.56 239.00,306.56
             243.26,308.35 261.96,314.15 251.88,321.15
             248.99,323.15 237.44,323.54 233.00,324.28
             222.27,326.08 213.92,329.54 205.00,335.72
             199.94,339.22 194.70,341.65 195.42,349.00
             196.15,356.47 200.73,356.76 206.00,359.54
             209.34,361.30 212.49,364.06 216.00,365.32
             216.00,365.32 237.00,368.75 237.00,368.75
             239.89,369.45 252.57,371.96 250.09,376.72
             248.70,379.38 244.52,379.30 242.00,379.20
             233.83,378.84 229.14,378.82 221.00,376.73
             221.00,376.73 198.00,371.43 198.00,371.43
             198.00,371.43 183.00,369.92 183.00,369.92
             183.00,369.92 167.00,366.30 167.00,366.30
             167.00,366.30 132.00,363.97 132.00,363.97
             125.90,363.93 116.13,362.36 111.02,363.97
             105.75,365.57 103.72,369.95 106.31,374.95
             109.04,380.19 115.79,380.88 121.00,381.75
             121.00,381.75 161.00,387.37 161.00,387.37
             161.00,387.37 190.00,393.50 190.00,393.50
             190.00,393.50 205.00,398.25 205.00,398.25
             205.00,398.25 219.00,400.82 219.00,400.82
             219.00,400.82 228.00,404.69 228.00,404.69
             228.00,404.69 239.00,408.67 239.00,408.67
             254.25,415.56 279.04,430.42 292.00,440.81
             309.77,455.05 320.28,469.31 333.80,487.00
             333.80,487.00 364.00,526.00 364.00,526.00
             364.00,526.00 376.53,542.00 376.53,542.00
             379.47,545.90 382.63,551.01 387.04,553.31
             390.60,555.17 394.13,554.99 398.00,555.00
             398.00,555.00 431.00,555.00 431.00,555.00
             440.59,554.88 440.10,552.34 445.17,552.07
             445.17,552.07 464.00,552.07 464.00,552.07
             467.92,552.53 472.29,553.31 475.85,551.02
             480.02,548.34 479.93,542.41 473.98,540.26
             470.50,539.02 457.37,540.27 452.57,540.26
             448.84,540.22 443.35,541.83 441.00,541.03
             438.29,540.12 434.07,536.05 432.01,533.99
             424.79,526.76 419.48,518.20 413.51,510.00
             413.51,510.00 400.89,494.00 400.89,494.00
             400.89,494.00 389.66,478.00 389.66,478.00
             382.01,467.90 380.22,466.52 373.05,455.00
             369.86,449.88 362.55,435.54 360.81,430.00
             360.02,426.42 359.01,422.59 360.81,419.02
             364.72,409.80 385.06,409.01 394.00,409.00
             394.00,409.00 411.00,409.00 411.00,409.00
             411.00,409.00 427.00,410.00 427.00,410.00
             427.00,410.00 449.00,410.00 449.00,410.00
             449.00,410.00 461.00,409.08 461.00,409.08
             461.00,409.08 471.00,409.99 471.00,409.99
             471.00,409.99 508.00,406.54 508.00,406.54
             517.35,404.78 519.26,402.56 526.00,400.76
             526.00,400.76 542.00,397.25 542.00,397.25
             545.66,396.04 547.65,394.72 551.00,393.11
             563.51,387.08 569.95,384.81 579.91,374.00
             583.90,369.66 592.31,357.76 592.89,352.00
             593.70,343.99 587.14,334.67 581.91,329.00
             575.32,321.86 563.85,313.06 555.00,309.03
             555.00,309.03 547.00,306.10 547.00,306.10
             535.57,300.97 541.65,302.01 528.00,299.39
             518.49,297.56 512.12,292.00 505.00,293.55
             501.21,294.37 498.11,296.83 495.00,299.00
             491.48,291.37 489.00,291.04 481.00,291.00 Z" />
</svg>
