<?xml version="1.0" encoding="UTF-8" standalone="no"?>
<!DOCTYPE svg PUBLIC "-//W3C//DTD SVG 20010904//EN"
              "http://www.w3.org/TR/2001/REC-SVG-20010904/DTD/svg10.dtd">

<svg xmlns="http://www.w3.org/2000/svg"
     width="9.72222in" height="9.72222in"
     viewBox="0 0 700 700">
  <path id="Selection"
        fill="none" stroke="black" stroke-width="1"
        d="M 700.00,0.00
           C 700.00,0.00 700.00,700.00 700.00,700.00
             700.00,700.00 0.00,700.00 0.00,700.00
             0.00,700.00 0.00,0.00 0.00,0.00
             0.00,0.00 700.00,0.00 700.00,0.00 Z
           M 458.00,241.00
           C 460.65,240.96 463.56,240.98 465.76,239.26
             470.87,235.27 466.74,228.53 459.00,228.47
             459.00,228.47 451.00,229.00 451.00,229.00
             451.00,229.00 444.00,229.00 444.00,229.00
             437.59,229.08 436.03,230.32 433.00,230.38
             433.00,230.38 423.00,229.08 423.00,229.08
             423.00,229.08 408.00,230.91 408.00,230.91
             401.61,231.35 400.20,230.39 395.00,230.09
             383.31,229.43 377.21,235.86 369.00,242.87
             369.00,242.87 351.00,257.73 351.00,257.73
             351.00,257.73 303.00,297.11 303.00,297.11
             303.00,297.11 273.00,319.26 273.00,319.26
             273.00,319.26 261.00,327.38 261.00,327.38
             261.00,327.38 252.00,335.78 252.00,335.78
             243.52,342.81 236.36,339.03 227.00,339.03
             216.56,339.03 215.05,341.06 207.00,346.14
             204.32,347.83 201.55,348.63 199.43,351.14
             194.95,356.46 198.40,363.31 196.81,366.83
             195.59,369.52 187.70,374.98 185.00,376.82
             185.00,376.82 151.00,397.57 151.00,397.57
             146.25,400.19 135.21,403.16 136.37,409.99
             137.31,415.53 142.86,414.63 148.00,421.00
             140.47,424.50 129.91,426.81 124.39,432.62
             121.91,435.23 119.64,440.18 122.60,443.30
             124.50,445.31 128.37,445.86 131.00,445.96
             131.00,445.96 141.00,445.05 141.00,445.05
             141.00,445.05 154.00,445.05 154.00,445.05
             154.00,445.05 166.00,445.81 166.00,445.81
             172.15,445.30 175.80,442.54 181.00,439.78
             181.00,439.78 209.00,424.21 209.00,424.21
             209.00,424.21 217.00,421.53 217.00,421.53
             217.00,421.53 227.00,416.71 227.00,416.71
             227.00,416.71 237.00,413.68 237.00,413.68
             237.00,413.68 248.00,408.81 248.00,408.81
             248.00,408.81 259.00,405.68 259.00,405.68
             259.00,405.68 269.00,401.59 269.00,401.59
             269.00,401.59 286.00,398.33 286.00,398.33
             292.74,396.57 292.51,394.52 301.00,392.81
             305.37,391.93 318.34,389.31 322.00,390.01
             322.00,390.01 344.00,398.33 344.00,398.33
             344.00,398.33 371.00,401.18 371.00,401.18
             371.00,401.18 384.00,404.53 384.00,404.53
             390.40,405.61 392.59,402.99 396.00,403.33
             398.47,403.57 401.20,405.75 404.00,406.74
             407.70,408.05 411.15,407.99 415.00,407.86
             415.00,407.86 426.00,407.86 426.00,407.86
             428.86,407.20 430.61,405.86 433.00,405.79
             433.00,405.79 442.00,407.78 442.00,407.78
             446.54,408.12 448.91,406.02 452.00,405.79
             452.00,405.79 461.00,406.96 461.00,406.96
             469.53,407.33 474.51,403.91 482.00,400.57
             485.39,399.05 488.12,396.99 492.00,397.58
             494.93,398.02 497.16,399.75 501.00,399.73
             508.84,399.68 512.44,395.24 519.00,393.52
             519.00,393.52 531.00,390.78 531.00,390.78
             531.00,390.78 543.00,385.31 543.00,385.31
             543.00,385.31 551.00,382.54 551.00,382.54
             551.00,382.54 560.00,378.09 560.00,378.09
             560.00,378.09 569.00,374.47 569.00,374.47
             574.72,371.55 586.80,362.62 589.69,357.00
             592.06,352.39 591.23,344.82 586.87,341.59
             584.08,339.53 574.89,338.70 571.00,338.00
             574.71,333.35 583.49,329.18 581.07,322.02
             578.37,314.06 567.01,317.62 561.01,314.55
             555.46,311.70 553.65,305.77 548.96,302.74
             543.98,299.51 537.01,301.90 534.09,301.12
             530.99,300.29 529.34,296.93 525.99,294.72
             522.42,292.39 518.13,292.05 514.00,292.00
             508.74,291.94 495.32,291.42 491.01,293.15
             485.45,295.38 484.73,299.85 480.00,300.98
             480.00,300.98 461.00,302.22 461.00,302.22
             455.34,303.23 454.97,306.56 448.00,306.96
             448.00,306.96 432.00,306.00 432.00,306.00
             432.00,306.00 411.00,307.00 411.00,307.00
             402.12,307.04 394.78,306.85 386.00,309.16
             386.00,309.16 370.00,315.41 370.00,315.41
             366.95,316.52 360.07,319.20 358.35,314.84
             357.50,312.68 358.90,309.85 359.95,308.00
             359.95,308.00 371.12,292.00 371.12,292.00
             377.11,284.34 403.34,261.54 412.00,254.67
             418.94,249.16 426.97,243.47 433.00,237.00
             438.66,242.95 450.26,241.10 458.00,241.00 Z" />
</svg>
