<?xml version="1.0" encoding="UTF-8" standalone="no"?>
<!DOCTYPE svg PUBLIC "-//W3C//DTD SVG 20010904//EN"
              "http://www.w3.org/TR/2001/REC-SVG-20010904/DTD/svg10.dtd">

<svg xmlns="http://www.w3.org/2000/svg"
     width="9.72222in" height="9.72222in"
     viewBox="0 0 700 700">
  <path id="Selection"
        fill="none" stroke="black" stroke-width="1"
        d="M 700.00,0.00
           C 700.00,0.00 700.00,700.00 700.00,700.00
             700.00,700.00 0.00,700.00 0.00,700.00
             0.00,700.00 0.00,0.00 0.00,0.00
             0.00,0.00 700.00,0.00 700.00,0.00 Z
           M 399.00,166.00
           C 394.22,166.01 388.33,166.21 384.00,168.45
             379.74,170.66 374.97,177.07 371.66,180.83
             371.66,180.83 351.69,204.00 351.69,204.00
             326.04,235.21 308.90,256.24 272.00,274.63
             272.00,274.63 251.00,283.78 251.00,283.78
             251.00,283.78 237.00,286.45 237.00,286.45
             237.00,286.45 222.00,289.92 222.00,289.92
             211.61,291.74 194.81,291.98 184.00,292.00
             184.00,292.00 144.00,295.91 144.00,295.91
             144.00,295.91 137.00,295.05 137.00,295.05
             137.00,295.05 119.00,295.05 119.00,295.05
             112.41,295.09 107.05,297.14 108.15,304.98
             109.01,311.08 114.13,310.97 119.00,311.00
             119.00,311.00 137.00,311.00 137.00,311.00
             137.00,311.00 149.00,310.17 149.00,310.17
             149.00,310.17 163.00,311.91 163.00,311.91
             163.00,311.91 176.00,311.91 176.00,311.91
             176.00,311.91 199.00,310.00 199.00,310.00
             199.00,310.00 238.00,308.09 238.00,308.09
             243.14,308.51 256.91,314.84 251.39,321.57
             248.74,324.79 240.93,324.74 237.00,325.46
             237.00,325.46 214.00,332.21 214.00,332.21
             210.78,333.69 207.96,335.86 205.00,337.77
             200.23,340.85 196.04,342.48 195.42,349.00
             194.73,356.26 200.09,358.70 205.00,362.09
             207.87,364.07 209.72,365.62 213.00,367.10
             213.00,367.10 240.00,374.71 240.00,374.71
             245.35,375.84 258.41,377.17 249.85,385.79
             242.28,393.42 226.78,390.88 217.00,389.72
             217.00,389.72 170.00,386.00 170.00,386.00
             170.00,386.00 155.00,387.00 155.00,387.00
             155.00,387.00 121.00,387.00 121.00,387.00
             117.54,387.01 113.09,386.78 110.15,388.85
             105.26,392.30 107.13,399.94 112.06,402.35
             116.73,404.64 121.16,403.35 126.00,403.04
             126.00,403.04 145.00,403.04 145.00,403.04
             145.00,403.04 166.00,405.96 166.00,405.96
             166.00,405.96 174.00,405.96 174.00,405.96
             174.00,405.96 194.00,407.96 194.00,407.96
             194.00,407.96 207.00,407.96 207.00,407.96
             222.03,408.18 230.80,410.69 245.00,414.26
             249.20,415.31 251.69,415.24 256.00,416.93
             256.00,416.93 278.00,427.97 278.00,427.97
             285.81,432.23 292.76,435.58 300.00,441.04
             312.19,450.24 322.66,461.69 332.83,473.00
             332.83,473.00 369.28,516.00 369.28,516.00
             378.38,526.36 381.32,532.98 396.00,533.00
             396.00,533.00 415.00,533.00 415.00,533.00
             415.00,533.00 429.17,533.70 429.17,533.70
             436.32,533.22 439.08,530.59 443.00,530.38
             443.00,530.38 454.00,531.91 454.00,531.91
             454.00,531.91 465.00,531.91 465.00,531.91
             469.45,531.94 477.03,530.44 475.16,524.05
             473.77,519.35 468.02,519.02 464.00,519.01
             464.00,519.01 441.00,521.12 441.00,521.12
             439.10,520.93 437.56,519.97 436.00,518.94
             424.01,510.98 411.19,492.55 402.00,481.09
             402.00,481.09 373.80,447.00 373.80,447.00
             373.80,447.00 361.95,429.00 361.95,429.00
             360.17,425.86 358.87,422.45 360.89,419.06
             363.90,414.03 369.10,414.86 374.00,414.78
             374.00,414.78 398.00,413.00 398.00,413.00
             398.00,413.00 435.00,413.00 435.00,413.00
             435.00,413.00 448.00,412.08 448.00,412.08
             448.00,412.08 459.00,413.00 459.00,413.00
             480.50,413.25 476.19,411.79 495.00,408.46
             495.00,408.46 516.00,405.63 516.00,405.63
             516.00,405.63 526.00,401.90 526.00,401.90
             526.00,401.90 541.00,398.23 541.00,398.23
             541.00,398.23 550.00,393.63 550.00,393.63
             550.00,393.63 558.99,389.68 558.99,389.68
             570.14,383.60 580.31,374.93 586.86,364.00
             589.37,359.81 592.46,356.02 592.89,351.00
             593.43,344.68 590.39,340.14 587.19,335.00
             580.77,324.71 571.61,316.28 561.00,310.40
             561.00,310.40 550.00,305.23 550.00,305.23
             537.51,298.29 541.73,301.97 531.00,298.48
             531.00,298.48 517.00,293.47 517.00,293.47
             517.00,293.47 500.00,291.56 500.00,291.56
             500.00,291.56 490.00,289.02 490.00,289.02
             482.23,287.01 474.98,285.92 467.00,285.17
             467.00,285.17 452.00,286.00 452.00,286.00
             452.00,286.00 430.00,284.89 430.00,284.89
             430.00,284.89 374.00,284.89 374.00,284.89
             372.02,285.00 368.88,285.05 367.01,284.89
             351.30,281.36 366.36,262.64 370.64,256.00
             380.85,240.15 385.00,237.93 395.66,224.96
             395.66,224.96 425.28,189.28 425.28,189.28
             428.07,186.50 436.44,179.14 440.00,178.14
             442.35,177.48 444.68,178.45 447.00,178.81
             451.92,179.57 457.02,179.93 462.00,179.99
             466.93,180.05 477.00,180.02 474.92,172.04
             473.94,168.27 469.55,166.48 466.00,166.27
             466.00,166.27 450.00,167.47 450.00,167.47
             447.41,167.95 444.58,169.21 442.00,168.82
             439.02,168.36 435.81,165.38 427.00,165.16
             427.00,165.16 421.00,165.16 421.00,165.16
             413.70,166.33 406.36,165.99 399.00,166.00 Z" />
</svg>
