<?xml version="1.0" encoding="UTF-8" standalone="no"?>
<!DOCTYPE svg PUBLIC "-//W3C//DTD SVG 20010904//EN"
              "http://www.w3.org/TR/2001/REC-SVG-20010904/DTD/svg10.dtd">

<svg xmlns="http://www.w3.org/2000/svg"
     width="9.72222in" height="9.72222in"
     viewBox="0 0 700 700">
  <path id="Selection"
        fill="none" stroke="black" stroke-width="1"
        d="M 700.00,0.00
           C 700.00,0.00 700.00,700.00 700.00,700.00
             700.00,700.00 0.00,700.00 0.00,700.00
             0.00,700.00 0.00,0.00 0.00,0.00
             0.00,0.00 700.00,0.00 700.00,0.00 Z
           M 385.00,147.65
           C 380.31,150.92 377.83,155.54 374.52,160.00
             374.52,160.00 360.87,178.00 360.87,178.00
             340.73,204.48 315.02,240.97 289.00,260.53
             277.82,268.92 251.63,285.01 239.00,290.56
             239.00,290.56 225.00,295.21 225.00,295.21
             225.00,295.21 217.00,298.53 217.00,298.53
             217.00,298.53 198.00,302.50 198.00,302.50
             198.00,302.50 181.00,307.39 181.00,307.39
             181.00,307.39 168.00,309.51 168.00,309.51
             168.00,309.51 154.00,312.99 154.00,312.99
             154.00,312.99 134.00,315.83 134.00,315.83
             127.67,316.47 113.98,316.62 109.13,320.00
             104.69,323.10 103.31,330.74 108.15,334.15
             110.78,336.00 114.88,336.08 118.00,335.96
             118.00,335.96 140.00,334.04 140.00,334.04
             140.00,334.04 154.00,334.04 154.00,334.04
             163.06,333.89 168.63,331.55 177.00,330.08
             177.00,330.08 204.00,326.35 204.00,326.35
             211.67,324.59 220.23,321.38 228.00,321.04
             228.00,321.04 246.99,320.31 246.99,320.31
             248.92,320.78 252.31,322.53 251.44,325.06
             250.39,328.10 241.92,329.18 239.00,330.03
             239.00,330.03 217.00,334.52 217.00,334.52
             212.48,335.89 210.18,338.23 206.00,340.05
             199.93,342.70 194.03,344.36 195.38,353.00
             196.24,358.52 200.82,361.31 205.00,364.27
             212.01,369.23 228.36,374.59 237.00,375.90
             237.00,375.90 245.00,375.90 245.00,375.90
             249.39,376.48 256.00,379.39 253.04,384.90
             251.10,388.50 244.68,390.55 241.00,392.00
             230.00,396.30 214.81,398.86 203.00,399.00
             203.00,399.00 179.00,401.00 179.00,401.00
             179.00,401.00 170.00,401.00 170.00,401.00
             157.55,401.94 145.26,403.10 133.00,405.55
             126.91,406.77 113.32,406.71 110.18,412.19
             104.67,421.77 117.66,423.89 124.00,423.24
             124.00,423.24 161.00,423.24 161.00,423.24
             161.00,423.24 191.00,418.27 191.00,418.27
             202.80,416.53 215.08,416.14 227.00,416.00
             227.00,416.00 246.00,414.09 246.00,414.09
             246.00,414.09 257.00,415.13 257.00,415.13
             257.00,415.13 266.00,415.13 266.00,415.13
             272.58,416.25 276.16,418.60 282.00,420.99
             290.34,424.38 298.32,427.71 306.00,432.56
             318.64,440.52 329.46,451.43 340.17,461.72
             340.17,461.72 363.00,482.00 363.00,482.00
             368.60,487.17 379.27,499.09 386.00,501.20
             388.89,502.10 392.01,502.00 395.00,502.00
             395.00,502.00 425.00,502.00 425.00,502.00
             425.00,502.00 447.00,498.51 447.00,498.51
             447.00,498.51 461.00,499.74 461.00,499.74
             464.07,499.60 469.40,498.03 468.97,494.03
             468.60,490.54 463.90,489.26 461.00,489.31
             455.19,488.88 444.90,491.85 437.00,489.31
             432.09,488.03 419.54,477.06 415.58,473.13
             415.58,473.13 385.42,443.80 385.42,443.80
             385.42,443.80 366.04,424.00 366.04,424.00
             363.78,421.56 360.13,417.90 362.78,414.43
             365.69,410.63 374.48,412.63 379.00,412.24
             379.00,412.24 389.00,411.18 389.00,411.18
             389.00,411.18 409.00,413.00 409.00,413.00
             409.00,413.00 428.00,413.00 428.00,413.00
             428.00,413.00 444.00,411.04 444.00,411.04
             444.00,411.04 460.00,411.82 460.00,411.82
             464.79,411.22 466.65,409.37 470.00,408.25
             472.70,407.79 478.01,408.00 481.00,408.25
             484.00,408.00 487.20,408.22 489.96,406.83
             492.37,405.62 493.93,403.36 496.17,402.97
             499.03,402.48 503.13,405.79 510.00,404.79
             510.00,404.79 520.00,401.51 520.00,401.51
             520.00,401.51 533.00,399.21 533.00,399.21
             537.51,397.91 540.07,395.80 544.00,394.03
             552.15,390.36 548.95,393.63 560.00,386.91
             572.75,379.16 579.06,374.68 587.51,362.00
             591.15,356.55 593.60,353.97 592.89,347.00
             592.44,342.48 589.55,338.79 587.27,335.00
             582.07,326.35 571.83,316.06 563.00,311.18
             563.00,311.18 555.00,307.69 555.00,307.69
             555.00,307.69 543.00,302.05 543.00,302.05
             543.00,302.05 528.00,298.62 528.00,298.62
             528.00,298.62 516.00,294.29 516.00,294.29
             516.00,294.29 474.00,289.00 474.00,289.00
             474.00,289.00 424.00,289.00 424.00,289.00
             424.00,289.00 407.00,290.00 407.00,290.00
             407.00,290.00 384.00,289.00 384.00,289.00
             377.34,288.92 365.85,287.64 361.70,281.90
             358.90,278.02 359.68,273.36 360.67,269.00
             362.43,261.24 372.10,244.98 376.69,238.00
             376.69,238.00 389.51,221.00 389.51,221.00
             389.51,221.00 407.42,197.00 407.42,197.00
             407.42,197.00 419.60,180.00 419.60,180.00
             423.98,174.45 433.86,161.21 440.00,158.63
             443.17,157.43 445.71,158.55 448.91,158.63
             448.91,158.63 457.01,158.63 457.01,158.63
             457.01,158.63 466.00,158.63 466.00,158.63
             468.50,159.02 472.72,159.16 474.98,158.63
             479.81,156.34 481.27,151.13 476.77,147.85
             473.99,145.82 469.33,145.94 466.00,146.01
             466.00,146.01 458.00,146.82 458.00,146.82
             458.00,146.82 443.42,146.08 443.42,146.08
             439.47,145.82 435.48,143.73 429.00,144.09
             429.00,144.09 418.00,144.96 418.00,144.96
             418.00,144.96 404.00,144.96 404.00,144.96
             400.05,144.64 399.40,144.07 395.00,144.30
             391.24,144.91 388.23,145.40 385.00,147.65 Z" />
</svg>
