<?xml version="1.0" encoding="UTF-8" standalone="no"?>
<!DOCTYPE svg PUBLIC "-//W3C//DTD SVG 20010904//EN"
              "http://www.w3.org/TR/2001/REC-SVG-20010904/DTD/svg10.dtd">

<svg xmlns="http://www.w3.org/2000/svg"
     width="9.72222in" height="9.72222in"
     viewBox="0 0 700 700">
  <path id="Selection"
        fill="none" stroke="black" stroke-width="1"
        d="M 700.00,0.00
           C 700.00,0.00 700.00,700.00 700.00,700.00
             700.00,700.00 0.00,700.00 0.00,700.00
             0.00,700.00 0.00,0.00 0.00,0.00
             0.00,0.00 700.00,0.00 700.00,0.00 Z
           M 499.00,400.59
           C 505.17,402.04 517.99,399.96 524.00,397.90
             524.00,397.90 534.00,393.74 534.00,393.74
             534.00,393.74 545.00,390.91 545.00,390.91
             545.00,390.91 554.00,386.37 554.00,386.37
             563.87,381.52 566.71,381.15 576.00,373.54
             584.43,366.62 596.76,355.05 591.78,343.00
             590.55,340.03 587.83,336.60 585.87,334.00
             577.26,322.61 570.40,315.94 557.00,310.35
             557.00,310.35 543.00,305.94 543.00,305.94
             527.71,300.16 499.31,294.03 483.00,294.00
             483.00,294.00 432.00,294.00 432.00,294.00
             432.00,294.00 415.00,295.00 415.00,295.00
             415.00,295.00 396.00,296.00 396.00,296.00
             387.78,296.09 369.48,295.19 363.39,289.44
             358.05,284.41 358.40,276.45 360.34,270.00
             364.29,256.92 371.17,245.02 379.15,234.00
             379.15,234.00 425.28,170.00 425.28,170.00
             429.56,164.12 437.30,152.30 444.00,149.74
             446.28,148.87 449.55,149.00 452.00,149.04
             452.00,149.04 466.00,149.04 466.00,149.04
             466.00,149.04 473.00,149.91 473.00,149.91
             476.37,150.10 481.06,149.62 483.69,147.30
             486.82,144.53 486.33,139.34 482.77,137.17
             480.50,135.78 476.63,136.00 474.00,136.13
             474.00,136.13 457.00,136.13 457.00,136.13
             457.00,136.13 447.00,136.13 447.00,136.13
             442.06,135.74 438.73,133.78 433.00,134.18
             433.00,134.18 398.00,135.00 398.00,135.00
             384.51,135.17 382.80,142.31 375.71,152.00
             375.71,152.00 361.14,172.00 361.14,172.00
             361.14,172.00 340.43,200.00 340.43,200.00
             323.40,223.83 306.17,248.34 283.00,266.72
             268.32,278.35 252.61,289.79 236.00,298.51
             236.00,298.51 228.00,302.12 228.00,302.12
             228.00,302.12 219.00,306.80 219.00,306.80
             219.00,306.80 207.00,311.17 207.00,311.17
             207.00,311.17 180.00,322.71 180.00,322.71
             180.00,322.71 170.00,325.81 170.00,325.81
             170.00,325.81 161.00,329.98 161.00,329.98
             161.00,329.98 146.00,334.88 146.00,334.88
             146.00,334.88 134.00,338.34 134.00,338.34
             126.31,340.01 120.47,340.01 113.00,343.63
             108.39,345.87 103.29,350.06 105.60,355.89
             106.91,359.19 110.76,360.44 114.00,360.81
             114.00,360.81 138.00,359.00 138.00,359.00
             144.49,358.97 155.07,359.54 161.00,358.10
             170.63,355.76 186.78,348.51 196.00,348.00
             195.36,352.06 195.11,357.20 197.17,360.95
             198.94,364.16 202.93,366.10 206.00,367.95
             218.22,375.30 220.59,374.66 234.00,376.42
             238.45,377.01 254.82,374.83 252.34,383.00
             251.25,386.60 247.13,388.31 244.00,389.72
             244.00,389.72 221.00,399.42 221.00,399.42
             212.85,402.67 202.52,402.88 194.00,404.66
             194.00,404.66 175.00,410.34 175.00,410.34
             175.00,410.34 161.00,412.66 161.00,412.66
             161.00,412.66 145.00,416.57 145.00,416.57
             145.00,416.57 130.00,418.89 130.00,418.89
             125.74,419.86 118.51,421.68 115.30,424.64
             111.06,428.53 111.62,434.84 117.04,437.10
             123.23,440.11 138.41,437.01 146.00,437.10
             146.00,437.10 161.00,437.10 161.00,437.10
             170.60,436.88 171.68,434.67 180.00,432.03
             180.00,432.03 195.00,428.71 195.00,428.71
             195.00,428.71 208.00,424.48 208.00,424.48
             208.00,424.48 229.00,421.57 229.00,421.57
             229.00,421.57 255.00,416.28 255.00,416.28
             255.00,416.28 280.00,414.91 280.00,414.91
             280.00,414.91 300.00,412.13 300.00,412.13
             307.59,412.42 313.60,418.35 320.00,421.74
             320.00,421.74 345.00,437.31 345.00,437.31
             345.00,437.31 362.00,448.20 362.00,448.20
             374.53,456.61 378.90,462.97 395.00,463.00
             395.00,463.00 410.00,463.00 410.00,463.00
             410.00,463.00 424.00,463.96 424.00,463.96
             431.71,463.70 434.53,460.57 449.00,462.28
             454.40,462.92 466.09,465.02 468.16,457.96
             469.24,454.25 466.17,451.68 462.98,450.88
             458.55,449.22 449.41,450.99 444.00,450.88
             444.00,450.88 440.00,450.88 440.00,450.88
             429.58,451.09 428.75,448.52 420.00,443.31
             420.00,443.31 408.00,436.11 408.00,436.11
             408.00,436.11 386.00,420.86 386.00,420.86
             381.68,418.44 376.62,416.35 373.08,412.82
             371.87,411.61 369.78,409.46 370.91,407.60
             372.24,405.42 376.96,406.29 379.00,406.58
             379.00,406.58 402.00,409.93 402.00,409.93
             402.00,409.93 428.00,411.91 428.00,411.91
             428.00,411.91 442.00,409.30 442.00,409.30
             442.00,409.30 462.00,408.01 462.00,408.01
             466.48,407.90 482.80,407.44 485.79,405.26
             488.43,403.34 489.74,399.90 491.00,397.00
             493.37,398.23 496.45,399.99 499.00,400.59 Z" />
</svg>
