<?xml version="1.0" encoding="UTF-8" standalone="no"?>
<!DOCTYPE svg PUBLIC "-//W3C//DTD SVG 20010904//EN"
              "http://www.w3.org/TR/2001/REC-SVG-20010904/DTD/svg10.dtd">

<svg xmlns="http://www.w3.org/2000/svg"
     width="9.72222in" height="9.72222in"
     viewBox="0 0 700 700">
  <path id="Selection"
        fill="none" stroke="black" stroke-width="1"
        d="M 700.00,0.00
           C 700.00,0.00 700.00,700.00 700.00,700.00
             700.00,700.00 0.00,700.00 0.00,700.00
             0.00,700.00 0.00,0.00 0.00,0.00
             0.00,0.00 700.00,0.00 700.00,0.00 Z
           M 495.00,399.44
           C 505.72,402.24 511.92,396.11 520.00,393.62
             520.00,393.62 532.00,391.40 532.00,391.40
             537.70,389.87 540.55,387.38 545.00,385.61
             545.00,385.61 553.00,383.19 553.00,383.19
             557.85,381.40 570.84,374.69 575.00,371.62
             587.63,362.30 597.67,354.82 590.30,338.00
             588.03,332.81 579.85,326.66 575.00,323.73
             575.00,323.73 549.00,309.47 549.00,309.47
             549.00,309.47 540.00,307.12 540.00,307.12
             526.85,303.99 523.80,301.02 509.00,301.00
             509.00,301.00 470.00,301.00 470.00,301.00
             470.00,301.00 458.00,301.96 458.00,301.96
             458.00,301.96 446.00,301.96 446.00,301.96
             446.00,301.96 395.00,307.49 395.00,307.49
             391.49,307.71 383.48,306.74 380.00,305.85
             374.67,304.47 367.09,303.65 363.22,299.78
             357.38,293.93 359.01,286.15 360.65,279.00
             363.72,265.62 376.76,244.34 384.85,233.00
             384.85,233.00 399.50,214.00 399.50,214.00
             399.50,214.00 409.28,200.00 409.28,200.00
             409.28,200.00 423.25,182.00 423.25,182.00
             429.03,174.17 436.83,160.93 445.00,156.16
             449.18,153.72 465.28,154.97 471.00,155.00
             477.06,155.03 484.82,157.53 489.57,152.58
             494.12,147.85 490.80,140.30 481.00,140.02
             481.00,140.02 465.00,140.96 465.00,140.96
             465.00,140.96 457.00,140.22 457.00,140.22
             457.00,140.22 450.00,140.22 450.00,140.22
             445.02,139.73 445.16,137.78 435.00,138.01
             435.00,138.01 426.00,138.95 426.00,138.95
             426.00,138.95 412.00,138.95 412.00,138.95
             412.00,138.95 400.00,138.18 400.00,138.18
             385.87,139.26 378.29,154.79 370.63,165.00
             370.63,165.00 338.73,208.00 338.73,208.00
             338.73,208.00 312.84,242.00 312.84,242.00
             297.47,259.23 281.46,276.62 262.99,290.63
             230.16,315.52 195.42,330.91 159.00,349.25
             159.00,349.25 133.00,361.41 133.00,361.41
             133.00,361.41 116.00,367.24 116.00,367.24
             111.47,369.27 105.02,373.01 106.33,378.96
             107.55,384.47 113.64,383.99 118.00,384.00
             118.00,384.00 123.00,384.00 123.00,384.00
             123.00,384.00 138.00,382.84 138.00,382.84
             138.00,382.84 160.00,382.84 160.00,382.84
             160.00,382.84 180.00,375.54 180.00,375.54
             180.00,375.54 195.00,368.57 195.00,368.57
             196.86,367.64 199.97,365.71 202.00,365.73
             207.51,365.77 208.68,373.10 217.00,375.29
             217.00,375.29 252.00,377.00 252.00,377.00
             247.37,388.81 242.42,386.55 233.00,389.76
             233.00,389.76 224.00,393.82 224.00,393.82
             224.00,393.82 207.00,400.91 207.00,400.91
             207.00,400.91 196.00,403.67 196.00,403.67
             196.00,403.67 186.00,407.54 186.00,407.54
             186.00,407.54 175.00,410.60 175.00,410.60
             175.00,410.60 164.00,415.83 164.00,415.83
             164.00,415.83 144.00,423.64 144.00,423.64
             136.23,426.18 118.45,427.93 116.68,438.00
             115.82,442.86 119.79,445.53 124.00,446.35
             124.00,446.35 149.00,445.00 149.00,445.00
             153.43,444.99 165.41,445.32 169.00,444.47
             172.63,443.61 175.58,441.48 179.00,440.09
             179.00,440.09 190.00,436.54 190.00,436.54
             190.00,436.54 204.00,430.59 204.00,430.59
             204.00,430.59 214.00,428.05 214.00,428.05
             214.00,428.05 224.00,424.34 224.00,424.34
             224.00,424.34 238.00,421.57 238.00,421.57
             238.00,421.57 253.00,416.52 253.00,416.52
             253.00,416.52 269.00,414.56 269.00,414.56
             269.00,414.56 294.00,408.46 294.00,408.46
             294.00,408.46 312.00,406.71 312.00,406.71
             320.53,405.39 329.54,400.30 337.00,400.13
             342.97,399.99 346.13,403.04 351.00,405.76
             351.00,405.76 359.00,409.39 359.00,409.39
             359.00,409.39 367.00,413.68 367.00,413.68
             376.30,417.98 390.76,419.95 401.00,419.89
             407.88,420.03 418.75,422.51 424.96,419.89
             429.44,417.80 431.42,413.13 435.00,410.00
             429.07,422.01 446.73,419.52 453.00,419.57
             455.35,419.83 458.69,420.31 460.89,419.57
             467.17,416.81 464.12,411.69 460.00,409.00
             472.15,405.49 479.89,408.40 486.00,395.00
             488.80,396.55 491.94,398.65 495.00,399.44 Z" />
</svg>
