<?xml version="1.0" encoding="UTF-8" standalone="no"?>
<!DOCTYPE svg PUBLIC "-//W3C//DTD SVG 20010904//EN"
              "http://www.w3.org/TR/2001/REC-SVG-20010904/DTD/svg10.dtd">

<svg xmlns="http://www.w3.org/2000/svg"
     width="9.72222in" height="9.72222in"
     viewBox="0 0 700 700">
  <path id="Selection"
        fill="none" stroke="black" stroke-width="1"
        d="M 700.00,0.00
           C 700.00,0.00 700.00,700.00 700.00,700.00
             700.00,700.00 0.00,700.00 0.00,700.00
             0.00,700.00 0.00,0.00 0.00,0.00
             0.00,0.00 700.00,0.00 700.00,0.00 Z
           M 548.63,310.02
           C 548.65,300.62 537.44,307.23 533.00,305.53
             529.51,304.20 526.43,300.76 521.00,298.71
             516.96,297.19 496.88,295.88 492.00,296.02
             481.82,296.29 473.41,303.12 464.00,305.96
             464.00,305.96 451.00,308.91 451.00,308.91
             451.00,308.91 435.00,314.71 435.00,314.71
             426.32,317.04 403.09,320.10 394.00,320.00
             394.00,320.00 384.00,319.09 384.00,319.09
             376.94,318.57 366.34,318.64 362.09,311.90
             359.76,308.21 359.96,303.21 360.00,299.00
             360.12,288.44 362.29,286.70 366.63,278.00
             371.63,267.96 368.15,273.25 375.06,262.99
             375.06,262.99 394.04,237.42 394.04,237.42
             394.04,237.42 421.50,205.00 421.50,205.00
             427.77,196.90 442.18,177.67 450.96,173.82
             455.72,171.74 458.31,174.45 463.00,174.95
             463.00,174.95 484.00,174.95 484.00,174.95
             486.77,175.00 490.43,175.21 492.89,173.83
             497.16,171.42 498.00,166.03 493.77,163.09
             491.17,161.28 487.09,160.92 484.00,161.09
             484.00,161.09 477.00,161.98 477.00,161.98
             477.00,161.98 461.00,161.98 461.00,161.98
             452.60,162.15 450.89,159.39 443.00,159.04
             443.00,159.04 424.00,160.00 424.00,160.00
             424.00,160.00 402.00,160.00 402.00,160.00
             399.15,160.00 395.67,159.87 393.00,160.89
             387.66,162.93 377.24,176.11 373.14,181.00
             373.14,181.00 360.00,198.00 360.00,198.00
             360.00,198.00 338.51,223.99 338.51,223.99
             338.51,223.99 319.56,248.00 319.56,248.00
             312.30,256.60 290.18,279.55 282.00,286.71
             282.00,286.71 259.00,305.00 259.00,305.00
             259.00,305.00 241.00,319.96 241.00,319.96
             241.00,319.96 229.00,327.53 229.00,327.53
             229.00,327.53 194.00,348.72 194.00,348.72
             194.00,348.72 157.00,370.01 157.00,370.01
             157.00,370.01 133.00,383.64 133.00,383.64
             125.47,387.22 111.14,389.09 108.04,398.01
             106.22,403.29 109.06,406.15 114.00,407.31
             118.63,408.40 130.68,406.01 137.00,406.09
             137.00,406.09 141.00,406.09 141.00,406.09
             141.00,406.09 151.00,406.09 151.00,406.09
             165.35,405.73 162.34,404.25 174.00,399.45
             174.00,399.45 205.00,384.32 205.00,384.32
             205.00,384.32 215.00,380.40 215.00,380.40
             220.11,378.32 233.83,370.78 238.75,374.75
             242.45,377.74 238.75,380.97 235.98,382.64
             231.33,385.45 225.98,386.49 221.00,388.46
             221.00,388.46 210.00,394.05 210.00,394.05
             210.00,394.05 159.00,418.22 159.00,418.22
             159.00,418.22 132.00,430.26 132.00,430.26
             129.14,431.66 125.45,433.44 123.60,436.10
             118.70,443.15 125.89,446.82 132.00,446.98
             132.00,446.98 156.00,445.10 156.00,445.10
             156.00,445.10 170.00,445.99 170.00,445.99
             178.52,445.78 180.88,442.82 188.00,439.49
             188.00,439.49 219.00,425.26 219.00,425.26
             219.00,425.26 230.00,421.77 230.00,421.77
             230.00,421.77 242.00,416.77 242.00,416.77
             242.00,416.77 253.00,414.11 253.00,414.11
             253.00,414.11 266.00,408.93 266.00,408.93
             266.00,408.93 285.00,405.71 285.00,405.71
             285.00,405.71 296.00,402.29 296.00,402.29
             296.00,402.29 310.00,398.79 310.00,398.79
             310.00,398.79 323.00,393.53 323.00,393.53
             329.71,392.07 336.21,396.64 343.00,398.34
             343.00,398.34 367.00,401.30 367.00,401.30
             367.00,401.30 382.00,404.73 382.00,404.73
             390.46,406.30 391.54,404.11 396.00,404.73
             396.00,404.73 413.00,407.83 413.00,407.83
             420.59,408.54 424.58,406.27 431.00,405.87
             434.88,405.63 436.84,407.37 444.00,406.96
             452.55,406.46 446.73,404.18 460.00,404.91
             465.21,405.19 471.49,403.54 476.00,400.93
             478.31,399.59 481.64,396.41 484.00,396.04
             486.73,395.61 489.46,398.02 492.00,399.24
             494.90,400.11 497.99,400.16 501.00,399.24
             501.00,399.24 515.00,394.04 515.00,394.04
             515.00,394.04 530.00,390.78 530.00,390.78
             530.00,390.78 540.00,386.34 540.00,386.34
             540.00,386.34 550.00,382.91 550.00,382.91
             550.00,382.91 573.00,370.94 573.00,370.94
             579.71,366.69 592.01,359.89 592.70,351.00
             592.85,348.96 592.25,346.94 591.70,345.00
             589.26,336.37 587.87,335.97 581.17,330.58
             578.34,328.30 576.20,326.07 573.00,324.13
             573.00,324.13 559.00,318.49 559.00,318.49
             559.00,318.49 548.00,313.00 548.00,313.00
             548.27,311.92 548.63,311.26 548.63,310.02 Z" />
</svg>
