<?xml version="1.0" encoding="UTF-8" standalone="no"?>
<!DOCTYPE svg PUBLIC "-//W3C//DTD SVG 20010904//EN"
              "http://www.w3.org/TR/2001/REC-SVG-20010904/DTD/svg10.dtd">

<svg xmlns="http://www.w3.org/2000/svg"
     width="9.72222in" height="9.72222in"
     viewBox="0 0 700 700">
  <path id="Selection"
        fill="none" stroke="black" stroke-width="1"
        d="M 700.00,0.00
           C 700.00,0.00 700.00,700.00 700.00,700.00
             700.00,700.00 0.00,700.00 0.00,700.00
             0.00,700.00 0.00,0.00 0.00,0.00
             0.00,0.00 700.00,0.00 700.00,0.00 Z
           M 508.00,294.00
           C 501.90,293.97 491.37,293.26 486.00,295.53
             481.72,297.33 470.56,305.24 467.04,305.28
             463.68,305.31 462.45,302.08 457.99,301.38
             445.77,299.47 451.58,311.41 442.00,315.94
             429.88,321.67 407.51,324.38 394.00,324.65
             394.00,324.65 383.00,324.04 383.00,324.04
             373.52,323.64 363.94,324.42 360.64,313.00
             359.93,310.57 359.96,307.53 360.01,305.00
             360.29,292.68 366.69,282.04 373.33,272.00
             386.05,252.79 401.58,237.17 416.72,220.00
             423.50,212.30 438.89,193.00 446.00,187.94
             454.82,181.65 456.88,185.88 466.00,186.04
             466.00,186.04 480.00,186.04 480.00,186.04
             480.00,186.04 488.00,186.92 488.00,186.92
             493.62,186.89 500.76,183.91 499.34,177.02
             498.10,171.03 491.14,169.80 486.00,170.09
             486.00,170.09 459.00,171.34 459.00,171.34
             454.68,170.99 451.83,168.37 445.00,168.04
             445.00,168.04 426.00,169.00 426.00,169.00
             426.00,169.00 405.00,169.00 405.00,169.00
             401.99,169.00 398.91,168.90 396.00,169.80
             387.52,172.45 378.96,184.71 373.27,191.42
             373.27,191.42 354.83,213.00 354.83,213.00
             354.83,213.00 339.32,230.00 339.32,230.00
             339.32,230.00 320.82,253.00 320.82,253.00
             320.82,253.00 310.04,264.00 310.04,264.00
             310.04,264.00 300.00,274.99 300.00,274.99
             284.01,290.80 245.84,321.52 227.00,334.26
             227.00,334.26 188.00,358.14 188.00,358.14
             188.00,358.14 157.00,376.20 157.00,376.20
             144.05,384.07 142.91,387.04 127.00,393.09
             120.18,395.68 107.13,398.51 109.35,408.96
             110.19,412.87 113.50,413.76 117.00,413.96
             117.00,413.96 140.00,412.00 140.00,412.00
             140.00,412.00 145.00,412.00 145.00,412.00
             145.00,412.00 164.00,409.29 164.00,409.29
             167.64,408.84 170.56,409.37 174.00,407.70
             174.00,407.70 181.00,403.33 181.00,403.33
             181.00,403.33 202.00,391.75 202.00,391.75
             207.41,389.05 210.82,386.55 217.00,388.00
             217.00,388.00 185.00,404.19 185.00,404.19
             185.00,404.19 174.00,408.67 174.00,408.67
             174.00,408.67 164.00,415.28 164.00,415.28
             164.00,415.28 144.00,425.13 144.00,425.13
             137.91,427.75 120.84,432.36 123.98,441.89
             124.98,444.91 128.10,446.20 131.00,446.66
             131.00,446.66 152.00,445.16 152.00,445.16
             158.09,444.99 169.38,446.38 174.00,445.16
             174.00,445.16 217.00,424.60 217.00,424.60
             217.00,424.60 227.00,421.46 227.00,421.46
             227.00,421.46 238.00,416.86 238.00,416.86
             238.00,416.86 249.00,413.46 249.00,413.46
             249.00,413.46 260.00,408.92 260.00,408.92
             260.00,408.92 272.00,406.09 272.00,406.09
             272.00,406.09 288.00,401.51 288.00,401.51
             288.00,401.51 299.00,399.51 299.00,399.51
             306.27,397.46 308.07,393.52 314.00,392.34
             326.02,389.94 337.74,397.17 349.00,398.99
             349.00,398.99 372.00,401.29 372.00,401.29
             377.70,402.03 383.19,404.27 389.00,403.90
             391.68,403.74 394.31,402.80 397.00,403.29
             401.44,404.09 402.72,406.88 413.00,406.91
             413.00,406.91 425.00,406.91 425.00,406.91
             425.00,406.91 432.00,405.84 432.00,405.84
             435.70,405.88 438.94,407.93 444.00,407.47
             444.00,407.47 454.00,405.10 454.00,405.10
             457.89,405.02 462.12,407.20 469.00,405.10
             477.02,402.21 481.07,397.29 484.00,396.89
             487.40,396.43 488.59,399.59 495.00,399.96
             504.73,400.51 508.66,396.50 517.00,393.90
             517.00,393.90 531.00,390.90 531.00,390.90
             531.00,390.90 541.00,386.17 541.00,386.17
             541.00,386.17 551.00,382.33 551.00,382.33
             551.00,382.33 560.00,377.49 560.00,377.49
             568.31,373.47 586.74,364.14 590.83,356.00
             591.89,353.87 592.08,351.34 591.89,349.00
             591.00,337.91 583.18,336.10 578.36,328.17
             576.24,324.69 576.44,320.23 571.96,318.73
             566.28,316.57 563.49,323.02 557.06,318.73
             551.23,315.07 554.38,311.32 550.99,306.03
             547.03,299.89 538.70,299.08 535.00,306.03
             522.98,300.10 523.71,294.08 508.00,294.00 Z" />
</svg>
