<?xml version="1.0" encoding="UTF-8" standalone="no"?>
<!DOCTYPE svg PUBLIC "-//W3C//DTD SVG 20010904//EN"
              "http://www.w3.org/TR/2001/REC-SVG-20010904/DTD/svg10.dtd">

<svg xmlns="http://www.w3.org/2000/svg"
     width="9.72222in" height="9.72222in"
     viewBox="0 0 700 700">
  <path id="Selection"
        fill="none" stroke="black" stroke-width="1"
        d="M 700.00,0.00
           C 700.00,0.00 700.00,700.00 700.00,700.00
             700.00,700.00 0.00,700.00 0.00,700.00
             0.00,700.00 0.00,0.00 0.00,0.00
             0.00,0.00 700.00,0.00 700.00,0.00 Z
           M 451.21,302.09
           C 445.45,305.96 447.78,313.18 441.89,316.87
             441.89,316.87 436.00,319.42 436.00,319.42
             432.15,321.36 430.68,323.18 426.00,324.91
             412.85,329.78 397.82,330.16 384.00,330.00
             370.31,329.84 359.43,325.64 360.04,310.00
             360.51,298.05 367.98,286.49 374.71,277.00
             374.71,277.00 379.38,270.00 379.38,270.00
             379.38,270.00 423.00,223.00 423.00,223.00
             431.19,214.81 438.30,205.11 448.00,198.60
             457.25,192.38 458.31,195.67 468.00,196.19
             468.00,196.19 478.00,196.19 478.00,196.19
             478.00,196.19 490.00,196.96 490.00,196.96
             494.15,196.77 500.87,194.73 499.16,189.11
             497.02,182.10 485.30,184.97 480.00,185.05
             480.00,185.05 467.00,185.05 467.00,185.05
             464.54,185.28 461.13,186.36 459.00,185.95
             454.74,185.15 452.50,180.56 443.00,181.09
             443.00,181.09 423.00,183.00 423.00,183.00
             423.00,183.00 405.00,182.32 405.00,182.32
             401.82,182.09 394.82,183.04 392.00,184.45
             386.76,187.08 371.29,204.63 366.59,209.96
             366.59,209.96 348.17,229.00 348.17,229.00
             348.17,229.00 319.91,261.00 319.91,261.00
             319.91,261.00 290.00,289.84 290.00,289.84
             290.00,289.84 276.00,301.32 276.00,301.32
             276.00,301.32 247.00,324.58 247.00,324.58
             247.00,324.58 228.00,338.55 228.00,338.55
             225.12,340.27 213.88,346.02 211.00,346.86
             207.44,347.90 205.20,347.01 203.31,348.11
             200.37,349.81 201.18,354.20 194.91,359.62
             194.91,359.62 167.00,376.58 167.00,376.58
             167.00,376.58 130.00,398.57 130.00,398.57
             124.11,401.09 114.35,402.73 111.89,409.02
             109.64,414.75 111.42,419.59 118.00,419.87
             126.26,420.22 134.05,416.52 142.00,415.33
             145.13,414.86 152.96,415.79 150.83,420.80
             148.53,426.23 135.99,425.38 129.29,430.80
             123.06,435.84 121.81,443.71 130.02,445.61
             134.49,446.65 141.26,444.63 146.00,444.16
             146.00,444.16 156.00,444.16 156.00,444.16
             162.48,444.08 167.39,445.84 174.00,444.16
             183.68,442.10 203.70,428.92 214.00,424.35
             214.00,424.35 233.00,416.60 233.00,416.60
             233.00,416.60 242.00,413.94 242.00,413.94
             242.00,413.94 273.00,402.44 273.00,402.44
             273.00,402.44 291.00,399.08 291.00,399.08
             297.77,397.13 301.73,392.03 308.00,390.72
             311.14,390.06 315.74,391.28 319.00,391.72
             340.92,394.67 329.75,393.68 347.00,398.25
             347.00,398.25 372.00,401.30 372.00,401.30
             372.00,401.30 385.00,404.53 385.00,404.53
             390.67,405.49 392.33,403.57 396.00,403.87
             397.98,404.04 405.89,407.60 417.00,407.96
             423.34,408.16 426.17,406.45 431.00,406.09
             435.43,405.76 437.61,407.71 442.00,407.87
             446.74,408.04 449.59,406.13 453.00,405.89
             453.00,405.89 461.00,406.82 461.00,406.82
             466.45,407.23 470.50,405.52 475.00,402.65
             477.31,401.18 481.36,398.04 484.00,397.78
             488.00,397.38 490.03,401.19 497.09,400.48
             506.50,399.54 508.98,397.07 517.00,394.24
             517.00,394.24 530.00,391.23 530.00,391.23
             534.92,389.69 536.89,387.69 541.00,385.95
             541.00,385.95 550.00,382.69 550.00,382.69
             550.00,382.69 574.00,369.71 574.00,369.71
             580.00,366.13 586.67,362.23 590.30,356.00
             596.81,344.80 582.79,336.74 580.14,332.02
             577.41,327.17 580.67,322.72 574.89,318.85
             569.79,315.44 563.64,318.58 559.10,315.40
             555.32,312.75 554.18,307.66 551.21,304.17
             546.96,299.59 537.75,298.04 534.00,304.17
             526.00,301.27 525.98,296.95 519.00,294.48
             512.44,292.17 510.75,294.23 505.00,293.82
             498.67,293.37 493.27,291.82 487.00,294.53
             480.97,297.13 477.84,301.73 468.00,306.00
             465.42,299.23 456.79,298.33 451.21,302.09 Z" />
</svg>
