<?xml version="1.0" encoding="UTF-8" standalone="no"?>
<!DOCTYPE svg PUBLIC "-//W3C//DTD SVG 20010904//EN"
              "http://www.w3.org/TR/2001/REC-SVG-20010904/DTD/svg10.dtd">

<svg xmlns="http://www.w3.org/2000/svg"
     width="9.72222in" height="9.72222in"
     viewBox="0 0 700 700">
  <path id="Selection"
        fill="none" stroke="black" stroke-width="1"
        d="M 700.00,0.00
           C 700.00,0.00 700.00,700.00 700.00,700.00
             700.00,700.00 0.00,700.00 0.00,700.00
             0.00,700.00 0.00,0.00 0.00,0.00
             0.00,0.00 700.00,0.00 700.00,0.00 Z
           M 414.02,326.00
           C 419.58,315.62 402.73,315.61 397.00,316.28
             391.74,316.91 382.59,317.13 378.00,318.88
             373.21,320.71 369.37,325.72 366.02,325.68
             357.41,325.58 360.34,309.77 361.98,305.00
             364.31,298.21 370.85,289.79 375.08,284.00
             375.08,284.00 380.21,277.00 380.21,277.00
             380.21,277.00 422.72,235.42 422.72,235.42
             429.74,228.54 444.24,213.79 453.00,210.89
             457.57,209.05 462.19,210.94 467.00,210.89
             467.00,210.89 489.00,210.89 489.00,210.89
             492.08,211.00 496.06,211.20 498.77,209.55
             503.18,206.85 502.93,199.97 497.94,197.31
             492.55,194.44 482.96,196.87 477.00,196.49
             464.95,195.72 461.18,197.35 458.00,197.17
             454.14,196.96 450.97,194.40 446.00,194.34
             446.00,194.34 431.00,196.00 431.00,196.00
             431.00,196.00 407.00,196.00 407.00,196.00
             400.36,196.01 393.60,196.66 388.09,200.80
             388.09,200.80 377.00,211.83 377.00,211.83
             377.00,211.83 345.58,242.84 345.58,242.84
             316.69,272.62 289.26,297.82 256.00,322.74
             256.00,322.74 234.00,339.30 234.00,339.30
             231.45,340.94 228.13,343.01 225.09,343.37
             221.99,343.75 219.42,342.23 216.00,342.14
             213.24,342.07 203.34,345.10 201.23,346.73
             194.38,352.02 202.17,357.53 195.87,363.68
             192.52,366.95 175.97,376.73 171.00,379.81
             171.00,379.81 136.00,401.69 136.00,401.69
             136.00,401.69 120.00,409.22 120.00,409.22
             117.07,410.65 113.88,411.76 112.46,415.05
             112.08,416.39 111.97,418.55 112.46,419.94
             114.18,427.30 126.94,422.64 132.00,422.38
             134.11,422.27 135.01,422.56 137.00,423.00
             135.08,426.91 127.94,435.38 128.81,438.85
             130.18,444.34 144.72,441.05 149.00,441.00
             149.00,441.00 170.00,441.82 170.00,441.82
             180.55,441.02 187.18,436.58 196.00,431.79
             196.00,431.79 225.00,417.17 225.00,417.17
             225.00,417.17 236.00,413.46 236.00,413.46
             236.00,413.46 246.00,408.92 246.00,408.92
             246.00,408.92 257.00,405.45 257.00,405.45
             257.00,405.45 267.00,400.94 267.00,400.94
             267.00,400.94 282.00,398.23 282.00,398.23
             288.24,396.30 297.21,390.03 303.00,389.21
             308.06,388.51 312.18,390.65 317.00,391.54
             317.00,391.54 334.00,393.93 334.00,393.93
             343.15,396.39 343.42,398.31 355.00,399.72
             355.00,399.72 372.00,401.46 372.00,401.46
             372.00,401.46 386.00,404.90 386.00,404.90
             391.24,405.26 393.37,403.69 396.28,404.09
             399.22,404.48 402.85,407.07 416.00,407.91
             422.52,408.33 425.88,406.60 431.00,406.38
             431.00,406.38 442.00,407.92 442.00,407.92
             446.55,407.92 448.72,406.36 452.00,406.04
             454.98,405.76 457.99,406.74 461.00,406.91
             472.38,407.56 478.49,399.29 484.00,398.26
             489.10,397.31 490.01,402.14 500.00,400.19
             507.78,398.67 510.42,395.95 517.00,393.90
             517.00,393.90 530.00,390.91 530.00,390.91
             530.00,390.91 540.00,386.17 540.00,386.17
             540.00,386.17 549.00,382.83 549.00,382.83
             549.00,382.83 563.00,375.80 563.00,375.80
             563.00,375.80 572.00,370.45 572.00,370.45
             580.10,365.63 591.85,360.19 590.89,349.00
             590.04,338.99 581.90,338.74 579.40,332.98
             577.51,328.62 581.04,322.69 575.77,318.85
             571.71,315.89 564.05,317.96 558.33,312.61
             558.33,312.61 551.79,304.11 551.79,304.11
             547.08,299.57 536.75,297.35 533.00,304.11
             533.00,304.11 521.91,294.57 521.91,294.57
             517.89,292.51 511.51,293.01 507.00,293.00
             500.44,292.99 494.31,291.32 488.00,293.99
             480.40,297.21 479.82,302.23 470.00,306.00
             468.55,297.59 457.68,298.38 452.09,302.01
             448.31,304.46 447.25,308.08 442.96,311.61
             439.74,314.27 435.91,315.32 433.43,318.21
             430.68,321.41 431.48,324.14 429.41,326.73
             425.55,331.53 415.59,331.74 410.00,331.00
             411.41,329.43 413.01,327.88 414.02,326.00 Z" />
</svg>
