<?xml version="1.0" encoding="UTF-8" standalone="no"?>
<!DOCTYPE svg PUBLIC "-//W3C//DTD SVG 20010904//EN"
              "http://www.w3.org/TR/2001/REC-SVG-20010904/DTD/svg10.dtd">

<svg xmlns="http://www.w3.org/2000/svg"
     width="9.72222in" height="9.72222in"
     viewBox="0 0 700 700">
  <path id="Selection"
        fill="none" stroke="black" stroke-width="1"
        d="M 700.00,0.00
           C 700.00,0.00 700.00,700.00 700.00,700.00
             700.00,700.00 0.00,700.00 0.00,700.00
             0.00,700.00 0.00,0.00 0.00,0.00
             0.00,0.00 700.00,0.00 700.00,0.00 Z
           M 453.00,301.92
           C 450.60,303.17 446.40,306.64 444.05,306.85
             439.74,307.23 439.79,301.61 434.00,301.32
             434.00,301.32 425.49,302.22 425.49,302.22
             425.49,302.22 414.00,301.00 414.00,301.00
             414.00,301.00 390.00,302.04 390.00,302.04
             380.36,302.48 378.78,306.06 371.00,309.68
             369.27,310.54 365.50,312.32 364.41,309.68
             363.30,306.93 367.68,301.02 369.32,299.00
             375.93,290.88 383.09,283.29 391.00,276.42
             391.00,276.42 428.00,242.92 428.00,242.92
             434.70,236.95 445.33,228.14 454.00,225.89
             457.30,224.75 462.96,225.98 467.00,225.89
             467.00,225.89 490.00,225.89 490.00,225.89
             493.14,225.99 497.12,226.29 499.72,224.26
             503.76,221.11 503.22,215.08 498.79,212.57
             493.60,209.63 485.78,211.93 480.00,211.75
             480.00,211.75 469.00,211.75 469.00,211.75
             469.00,211.75 458.00,212.33 458.00,212.33
             454.27,212.00 451.03,209.40 446.00,209.34
             446.00,209.34 429.00,211.00 429.00,211.00
             429.00,211.00 409.00,211.00 409.00,211.00
             402.95,211.01 396.52,211.71 391.00,214.40
             386.83,216.43 384.49,219.39 381.00,222.26
             381.00,222.26 359.00,241.83 359.00,241.83
             359.00,241.83 321.00,276.72 321.00,276.72
             321.00,276.72 295.05,297.90 295.05,297.90
             295.05,297.90 267.00,320.58 267.00,320.58
             267.00,320.58 243.00,338.29 243.00,338.29
             240.43,340.14 234.92,344.73 232.04,345.21
             227.87,345.90 227.02,341.80 222.00,340.43
             214.76,338.45 211.62,341.89 206.00,345.20
             206.00,345.20 201.11,347.84 201.11,347.84
             191.58,354.67 202.60,363.21 195.77,369.10
             195.77,369.10 171.00,385.22 171.00,385.22
             171.00,385.22 153.00,396.54 153.00,396.54
             153.00,396.54 136.00,407.41 136.00,407.41
             130.06,410.68 115.10,415.32 113.45,422.04
             111.58,429.65 120.80,429.46 124.00,430.42
             128.43,431.73 130.02,434.67 134.00,436.30
             137.97,437.92 144.53,437.01 149.00,437.09
             149.00,437.09 162.00,437.09 162.00,437.09
             167.49,437.76 168.94,439.28 176.00,438.96
             182.51,438.67 184.60,436.27 190.00,433.31
             190.00,433.31 217.00,417.99 217.00,417.99
             217.00,417.99 229.00,413.66 229.00,413.66
             229.00,413.66 239.00,408.96 239.00,408.96
             239.00,408.96 247.00,406.65 247.00,406.65
             247.00,406.65 257.00,401.81 257.00,401.81
             257.00,401.81 269.00,398.14 269.00,398.14
             269.00,398.14 278.00,394.59 278.00,394.59
             278.00,394.59 288.00,391.88 288.00,391.88
             291.58,390.50 295.47,387.61 299.00,386.88
             304.85,385.68 308.38,390.27 318.00,391.70
             318.00,391.70 335.00,393.92 335.00,393.92
             335.00,393.92 350.00,398.91 350.00,398.91
             350.00,398.91 373.00,401.46 373.00,401.46
             373.00,401.46 386.00,404.69 386.00,404.69
             390.74,405.25 392.60,403.64 396.00,403.85
             396.96,403.91 408.33,407.19 416.00,407.83
             421.99,408.33 428.16,406.03 432.00,406.12
             432.00,406.12 441.00,407.79 441.00,407.79
             445.39,408.07 448.13,406.42 452.00,406.02
             452.00,406.02 463.00,406.62 463.00,406.62
             472.17,406.04 480.33,398.35 484.72,397.46
             488.09,396.78 488.63,399.60 495.00,399.96
             505.22,400.53 507.60,396.36 516.00,393.77
             516.00,393.77 529.00,390.75 529.00,390.75
             529.00,390.75 539.00,385.88 539.00,385.88
             539.00,385.88 548.00,382.65 548.00,382.65
             548.00,382.65 556.00,378.37 556.00,378.37
             556.00,378.37 571.00,370.70 571.00,370.70
             578.31,366.26 588.62,362.61 590.43,353.00
             591.41,347.81 588.14,343.08 583.91,340.40
             581.58,338.91 578.27,337.85 577.29,334.95
             576.06,331.27 581.67,325.85 578.05,320.14
             574.33,314.28 566.67,317.83 560.01,313.30
             554.56,309.60 553.25,303.99 547.99,301.16
             545.25,299.69 541.05,299.09 538.01,299.75
             535.91,300.21 533.57,301.76 531.72,301.31
             528.33,300.48 526.26,295.67 520.96,293.56
             515.54,291.40 504.17,291.93 498.00,292.00
             483.51,292.18 483.76,299.23 473.00,305.00
             469.08,297.66 459.49,298.52 453.00,301.92 Z
           M 433.98,313.42
           C 435.43,315.61 434.27,327.62 432.98,329.87
             431.82,331.88 430.09,332.76 428.00,333.52
             428.00,333.52 418.00,335.52 418.00,335.52
             418.00,335.52 403.00,339.85 403.00,339.85
             403.00,339.85 377.00,339.85 377.00,339.85
             373.52,339.95 364.87,338.74 367.17,333.14
             368.57,329.71 378.44,327.87 382.00,326.86
             382.00,326.86 406.00,318.86 406.00,318.86
             406.00,318.86 425.00,310.65 425.00,310.65
             428.12,310.31 432.02,310.44 433.98,313.42 Z" />
</svg>
