<?xml version="1.0" encoding="UTF-8" standalone="no"?>
<!DOCTYPE svg PUBLIC "-//W3C//DTD SVG 20010904//EN"
              "http://www.w3.org/TR/2001/REC-SVG-20010904/DTD/svg10.dtd">

<svg xmlns="http://www.w3.org/2000/svg"
     width="9.72222in" height="9.72222in"
     viewBox="0 0 700 700">
  <path id="Selection"
        fill="none" stroke="black" stroke-width="1"
        d="M 700.00,0.00
           C 700.00,0.00 700.00,700.00 700.00,700.00
             700.00,700.00 0.00,700.00 0.00,700.00
             0.00,700.00 0.00,0.00 0.00,0.00
             0.00,0.00 700.00,0.00 700.00,0.00 Z
           M 412.91,269.67
           C 412.91,269.67 444.00,246.58 444.00,246.58
             446.15,245.27 454.17,240.55 456.28,240.18
             456.28,240.18 466.00,241.00 466.00,241.00
             466.00,241.00 492.00,241.68 492.00,241.68
             495.06,241.90 499.96,241.36 501.82,238.57
             504.76,234.19 501.53,229.46 496.98,228.39
             492.94,227.44 489.00,228.64 485.00,228.96
             485.00,228.96 467.00,228.96 467.00,228.96
             467.00,228.96 457.00,229.68 457.00,229.68
             452.97,229.10 452.48,226.71 444.00,227.04
             444.00,227.04 428.00,229.00 428.00,229.00
             428.00,229.00 404.00,229.00 404.00,229.00
             399.33,229.01 396.46,228.95 392.00,230.76
             385.01,233.60 363.99,251.85 357.00,257.58
             357.00,257.58 339.00,271.28 339.00,271.28
             339.00,271.28 317.00,289.54 317.00,289.54
             317.00,289.54 300.00,302.03 300.00,302.03
             300.00,302.03 261.00,330.98 261.00,330.98
             257.45,333.43 242.85,344.17 240.00,344.85
             234.98,346.06 234.12,340.95 226.00,339.47
             218.21,338.05 213.04,341.83 207.00,345.91
             200.86,350.06 195.20,350.80 196.20,361.00
             196.64,365.50 199.10,368.37 197.58,371.91
             196.03,375.52 186.70,379.92 183.00,382.42
             183.00,382.42 159.00,397.53 159.00,397.53
             159.00,397.53 138.00,410.85 138.00,410.85
             133.36,413.50 121.43,418.75 119.18,423.04
             118.28,424.74 117.90,427.04 118.61,428.87
             120.84,434.61 131.02,432.01 136.00,432.00
             136.00,432.00 155.00,432.00 155.00,432.00
             155.00,432.00 179.00,434.47 179.00,434.47
             188.29,432.48 202.30,422.00 211.01,417.09
             211.01,417.09 227.00,409.09 227.00,409.09
             227.00,409.09 237.00,405.66 237.00,405.66
             237.00,405.66 256.00,397.56 256.00,397.56
             256.00,397.56 264.00,393.47 264.00,393.47
             264.00,393.47 276.00,390.53 276.00,390.53
             282.63,388.33 285.24,384.03 290.00,383.32
             294.66,382.62 304.78,388.10 310.00,389.51
             310.00,389.51 335.00,393.36 335.00,393.36
             335.00,393.36 353.00,399.19 353.00,399.19
             353.00,399.19 374.00,401.30 374.00,401.30
             380.03,402.19 383.37,404.21 390.00,403.91
             403.35,403.32 398.25,407.10 419.00,407.00
             419.00,407.00 432.00,405.81 432.00,405.81
             435.58,405.92 437.04,407.33 444.00,406.96
             444.00,406.96 454.00,405.19 454.00,405.19
             454.00,405.19 461.00,405.91 461.00,405.91
             471.61,406.50 481.93,397.85 485.00,396.96
             488.36,395.98 489.95,398.39 493.00,399.52
             495.26,400.17 498.67,400.09 501.00,399.52
             501.00,399.52 516.00,393.78 516.00,393.78
             516.00,393.78 529.00,390.76 529.00,390.76
             529.00,390.76 538.00,386.46 538.00,386.46
             538.00,386.46 547.00,383.40 547.00,383.40
             547.00,383.40 569.00,371.96 569.00,371.96
             575.40,368.09 583.79,365.65 587.77,358.99
             591.97,351.96 589.91,344.23 582.00,341.26
             579.35,340.27 573.26,339.84 572.20,336.83
             571.26,334.18 574.97,332.86 576.59,331.32
             579.39,328.64 580.66,323.73 578.68,320.21
             575.42,314.41 568.15,317.33 561.00,313.56
             554.50,310.14 553.20,304.44 547.00,301.65
             539.58,298.31 536.14,302.82 532.00,301.03
             529.55,299.96 526.71,296.39 524.00,294.56
             520.52,292.21 517.04,292.05 513.00,292.00
             507.39,291.94 493.51,291.20 489.00,293.45
             483.52,296.20 479.58,302.79 476.00,303.40
             473.84,303.76 471.06,301.67 469.00,300.93
             464.67,299.12 460.18,298.44 456.04,300.93
             452.47,303.22 449.86,307.59 446.00,310.73
             442.55,313.52 437.81,314.34 435.23,318.19
             431.61,323.58 434.29,329.48 431.11,332.14
             429.06,333.85 422.07,332.55 419.01,333.31
             414.89,334.35 413.91,337.35 409.96,339.02
             406.03,340.63 402.05,339.20 398.00,339.02
             398.00,339.02 377.00,340.92 377.00,340.92
             372.17,341.71 367.48,342.93 363.34,339.35
             352.49,329.96 372.15,324.43 377.42,321.00
             386.34,315.20 391.17,312.29 401.00,308.01
             401.00,308.01 412.00,303.72 412.00,303.72
             416.03,301.71 422.47,296.49 426.00,295.75
             426.00,295.75 441.00,297.00 441.00,297.00
             443.66,296.97 458.29,295.91 459.85,294.98
             463.21,292.98 463.21,289.02 459.85,287.02
             457.81,285.81 454.34,286.00 452.00,286.05
             452.00,286.05 437.00,286.05 437.00,286.05
             437.00,286.05 429.00,287.61 429.00,287.61
             424.74,287.69 420.90,284.88 415.00,285.32
             406.79,285.94 399.17,289.31 391.00,289.00
             394.59,279.92 405.32,275.10 412.91,269.67 Z" />
</svg>
