<?xml version="1.0" encoding="UTF-8" standalone="no"?>
<!DOCTYPE svg PUBLIC "-//W3C//DTD SVG 20010904//EN"
              "http://www.w3.org/TR/2001/REC-SVG-20010904/DTD/svg10.dtd">

<svg xmlns="http://www.w3.org/2000/svg"
     width="9.72222in" height="9.72222in"
     viewBox="0 0 700 700">
  <path id="Selection"
        fill="none" stroke="black" stroke-width="1"
        d="M 700.00,0.00
           C 700.00,0.00 700.00,700.00 700.00,700.00
             700.00,700.00 0.00,700.00 0.00,700.00
             0.00,700.00 0.00,0.00 0.00,0.00
             0.00,0.00 700.00,0.00 700.00,0.00 Z
           M 451.00,227.37
           C 451.00,227.37 459.00,227.96 459.00,227.96
             462.01,227.85 467.04,227.15 468.16,223.78
             470.37,217.10 460.88,217.01 457.00,217.00
             457.00,217.00 444.00,217.00 444.00,217.00
             444.00,217.00 435.42,217.82 435.42,217.82
             432.17,217.70 430.69,215.33 424.00,215.04
             424.00,215.04 406.00,217.16 406.00,217.16
             399.28,217.14 392.48,214.81 386.00,217.16
             378.93,220.10 371.55,228.74 366.00,233.91
             366.00,233.91 329.00,267.72 329.00,267.72
             329.00,267.72 292.00,299.34 292.00,299.34
             292.00,299.34 257.04,325.37 257.04,325.37
             257.04,325.37 246.83,334.41 246.83,334.41
             233.55,345.46 226.19,335.58 214.00,341.07
             210.47,342.66 200.23,348.73 198.65,352.04
             196.00,357.60 198.85,360.90 195.65,364.68
             193.44,367.28 187.08,370.53 184.00,372.59
             173.95,379.30 163.82,386.06 153.00,391.47
             145.92,395.01 136.00,397.08 135.61,406.98
             135.43,411.55 139.14,412.80 143.00,412.94
             151.33,413.24 152.74,409.08 164.00,411.00
             160.75,417.54 157.06,417.55 151.00,420.31
             145.94,422.62 130.15,429.74 126.77,432.79
             120.61,438.33 121.67,446.32 132.00,446.74
             132.00,446.74 142.00,446.00 142.00,446.00
             142.00,446.00 167.00,446.00 167.00,446.00
             176.10,445.88 176.59,443.16 184.00,439.37
             184.00,439.37 214.00,424.35 214.00,424.35
             214.00,424.35 223.00,421.53 223.00,421.53
             223.00,421.53 234.00,416.47 234.00,416.47
             234.00,416.47 244.00,413.90 244.00,413.90
             244.00,413.90 255.00,408.64 255.00,408.64
             255.00,408.64 270.00,405.96 270.00,405.96
             270.00,405.96 282.00,401.25 282.00,401.25
             282.00,401.25 298.00,398.64 298.00,398.64
             308.06,396.38 307.45,392.71 326.00,391.32
             336.01,390.57 339.28,396.06 347.00,398.37
             347.00,398.37 372.00,401.17 372.00,401.17
             372.00,401.17 385.00,403.82 385.00,403.82
             390.51,404.35 393.09,402.54 397.00,403.09
             400.69,403.60 409.39,408.55 421.00,407.96
             426.56,407.67 428.32,405.69 432.00,405.65
             435.78,405.61 439.15,408.00 444.00,407.44
             444.00,407.44 453.00,405.41 453.00,405.41
             456.40,405.41 458.34,407.36 464.00,406.82
             473.17,405.95 482.03,399.80 491.00,397.83
             495.17,396.91 496.95,398.57 501.00,398.89
             508.08,399.45 510.86,396.22 517.00,394.10
             517.00,394.10 531.00,390.78 531.00,390.78
             531.00,390.78 543.00,385.59 543.00,385.59
             556.86,380.89 571.22,375.30 581.99,365.02
             587.78,359.49 592.20,355.77 590.85,347.00
             589.34,337.17 580.33,341.88 576.00,334.00
             583.55,330.21 583.80,321.38 577.94,318.17
             573.14,315.55 566.73,318.88 560.02,314.30
             554.42,310.48 554.04,305.57 549.90,302.74
             547.01,300.76 543.34,300.96 540.00,300.85
             538.05,301.04 534.91,301.43 533.17,300.85
             530.17,299.43 528.44,295.44 524.00,293.74
             521.22,292.67 514.27,293.01 511.00,293.00
             511.00,293.00 498.00,292.19 498.00,292.19
             488.62,292.98 486.33,298.06 482.00,299.70
             479.46,300.67 468.23,300.99 465.00,301.00
             460.87,301.01 456.73,300.74 453.39,303.65
             450.95,305.77 450.13,308.92 446.90,311.57
             443.38,314.45 440.15,313.98 437.27,316.51
             434.23,319.19 434.60,322.60 430.87,324.69
             427.18,326.74 412.91,325.99 408.00,326.00
             394.46,326.02 389.63,329.63 377.00,331.24
             373.57,331.43 369.39,332.44 366.05,331.24
             361.84,330.15 361.34,326.72 360.17,323.00
             356.86,312.39 357.76,306.63 363.45,297.00
             374.53,278.26 382.43,271.42 398.00,256.91
             398.00,256.91 410.00,245.09 410.00,245.09
             415.41,240.05 429.03,230.43 432.00,225.00
             442.64,227.77 440.99,226.75 451.00,227.37 Z" />
</svg>
