<?xml version="1.0" encoding="UTF-8" standalone="no"?>
<!DOCTYPE svg PUBLIC "-//W3C//DTD SVG 20010904//EN"
              "http://www.w3.org/TR/2001/REC-SVG-20010904/DTD/svg10.dtd">

<svg xmlns="http://www.w3.org/2000/svg"
     width="9.72222in" height="9.72222in"
     viewBox="0 0 700 700">
  <path id="Selection"
        fill="none" stroke="black" stroke-width="1"
        d="M 700.00,0.00
           C 700.00,0.00 700.00,700.00 700.00,700.00
             700.00,700.00 0.00,700.00 0.00,700.00
             0.00,700.00 0.00,0.00 0.00,0.00
             0.00,0.00 700.00,0.00 700.00,0.00 Z
           M 164.00,415.14
           C 164.00,415.14 130.04,431.63 130.04,431.63
             122.18,437.69 122.99,447.81 137.00,446.82
             137.00,446.82 148.00,446.00 148.00,446.00
             148.00,446.00 158.00,446.00 158.00,446.00
             163.64,446.07 169.46,447.05 175.00,445.36
             178.77,444.20 182.26,441.23 186.00,439.52
             186.00,439.52 193.00,436.48 193.00,436.48
             193.00,436.48 200.00,432.40 200.00,432.40
             200.00,432.40 210.00,428.48 210.00,428.48
             210.00,428.48 216.00,425.12 216.00,425.12
             216.00,425.12 230.00,421.07 230.00,421.07
             230.00,421.07 240.00,416.46 240.00,416.46
             240.00,416.46 252.00,413.45 252.00,413.45
             252.00,413.45 264.00,408.53 264.00,408.53
             264.00,408.53 280.00,406.32 280.00,406.32
             280.00,406.32 293.00,401.60 293.00,401.60
             293.00,401.60 307.00,399.56 307.00,399.56
             316.48,398.02 323.08,392.61 333.00,393.04
             341.67,393.42 343.11,397.37 352.00,399.19
             352.00,399.19 369.00,401.62 369.00,401.62
             369.00,401.62 383.00,404.81 383.00,404.81
             383.00,404.81 397.00,404.81 397.00,404.81
             397.00,404.81 404.00,406.48 404.00,406.48
             404.00,406.48 419.00,407.92 419.00,407.92
             419.00,407.92 432.00,406.18 432.00,406.18
             436.19,406.17 440.27,407.65 446.00,406.79
             446.00,406.79 455.00,404.34 455.00,404.34
             458.83,404.19 462.06,407.05 470.00,405.67
             470.00,405.67 496.00,396.89 496.00,396.89
             496.00,396.89 507.00,397.40 507.00,397.40
             507.00,397.40 518.00,393.77 518.00,393.77
             518.00,393.77 531.00,390.78 531.00,390.78
             531.00,390.78 543.00,385.91 543.00,385.91
             543.00,385.91 554.00,382.40 554.00,382.40
             554.00,382.40 561.00,378.89 561.00,378.89
             572.32,373.55 576.92,371.78 585.91,362.00
             590.76,356.72 594.81,348.93 589.35,342.47
             586.69,339.31 582.45,338.07 581.82,334.90
             581.34,332.49 584.92,326.08 581.26,321.23
             576.79,315.29 566.25,318.67 561.04,315.26
             556.21,312.10 555.12,306.09 549.96,302.85
             543.94,299.08 536.08,302.41 533.59,301.52
             530.44,300.40 529.11,296.20 523.99,294.15
             519.60,292.39 505.40,292.94 500.00,293.00
             496.24,293.05 493.40,293.19 490.00,295.08
             486.84,296.84 484.51,299.77 481.00,300.72
             481.00,300.72 464.00,302.00 464.00,302.00
             460.70,302.02 456.94,301.60 454.11,303.60
             449.64,306.76 450.39,311.68 444.96,314.86
             444.96,314.86 431.00,321.43 431.00,321.43
             431.00,321.43 416.00,323.52 416.00,323.52
             407.00,325.46 407.66,326.98 397.00,327.00
             397.00,327.00 388.00,327.00 388.00,327.00
             376.72,326.98 359.17,324.15 358.12,310.00
             357.90,307.00 358.62,303.87 359.43,301.00
             360.41,297.52 361.62,294.19 363.32,291.00
             372.64,273.49 383.52,263.06 396.96,249.00
             396.96,249.00 420.00,225.29 420.00,225.29
             422.83,222.80 429.47,216.89 433.00,216.21
             435.45,215.74 440.06,217.38 443.00,217.84
             443.00,217.84 459.00,217.84 459.00,217.84
             462.40,217.96 466.74,217.82 469.35,215.30
             473.16,211.62 472.20,204.88 465.96,202.65
             460.81,201.09 455.24,202.37 450.00,202.65
             450.00,202.65 441.00,202.65 441.00,202.65
             441.00,202.65 427.00,202.65 427.00,202.65
             427.00,202.65 409.00,204.99 409.00,204.99
             400.07,205.20 392.84,202.66 384.00,206.65
             379.93,208.49 375.25,213.76 372.00,217.00
             372.00,217.00 351.84,236.58 351.84,236.58
             351.84,236.58 320.83,267.58 320.83,267.58
             320.83,267.58 276.00,306.50 276.00,306.50
             276.00,306.50 251.00,325.46 251.00,325.46
             246.80,328.93 242.56,334.11 238.00,336.59
             231.42,340.16 226.77,338.35 220.00,339.44
             214.14,340.38 206.76,344.12 202.05,347.68
             195.56,352.59 198.34,357.25 195.40,360.44
             195.40,360.44 186.00,366.14 186.00,366.14
             186.00,366.14 155.00,385.11 155.00,385.11
             148.93,387.96 138.06,391.57 136.32,399.00
             135.08,404.27 138.07,407.00 143.00,407.68
             143.00,407.68 166.00,406.00 166.00,406.00
             166.00,406.00 175.00,406.00 175.00,406.00
             173.30,411.17 168.59,412.60 164.00,415.14 Z" />
</svg>
