<?xml version="1.0" encoding="UTF-8" standalone="no"?>
<!DOCTYPE svg PUBLIC "-//W3C//DTD SVG 20010904//EN"
              "http://www.w3.org/TR/2001/REC-SVG-20010904/DTD/svg10.dtd">

<svg xmlns="http://www.w3.org/2000/svg"
     width="9.72222in" height="9.72222in"
     viewBox="0 0 700 700">
  <path id="Selection"
        fill="none" stroke="black" stroke-width="1"
        d="M 700.00,0.00
           C 700.00,0.00 700.00,700.00 700.00,700.00
             700.00,700.00 0.00,700.00 0.00,700.00
             0.00,700.00 0.00,0.00 0.00,0.00
             0.00,0.00 700.00,0.00 700.00,0.00 Z
           M 217.00,390.82
           C 217.00,390.82 190.00,403.53 190.00,403.53
             190.00,403.53 181.00,408.59 181.00,408.59
             181.00,408.59 170.00,412.49 170.00,412.49
             170.00,412.49 149.00,423.46 149.00,423.46
             149.00,423.46 137.00,427.98 137.00,427.98
             123.77,434.42 122.80,444.19 132.00,446.47
             133.64,446.87 135.32,446.95 137.00,446.99
             137.00,446.99 159.00,446.13 159.00,446.13
             159.00,446.13 168.00,446.13 168.00,446.13
             179.94,445.76 178.86,443.10 187.00,439.60
             187.00,439.60 193.96,436.73 193.96,436.73
             193.96,436.73 202.04,432.09 202.04,432.09
             202.04,432.09 212.00,428.80 212.00,428.80
             212.00,428.80 221.00,424.55 221.00,424.55
             221.00,424.55 233.00,421.53 233.00,421.53
             233.00,421.53 244.00,416.77 244.00,416.77
             244.00,416.77 257.00,414.07 257.00,414.07
             257.00,414.07 271.00,409.04 271.00,409.04
             271.00,409.04 290.00,406.55 290.00,406.55
             290.00,406.55 305.00,401.51 305.00,401.51
             305.00,401.51 326.00,398.72 326.00,398.72
             326.00,398.72 337.00,396.44 337.00,396.44
             343.56,395.49 347.89,397.96 354.00,399.52
             354.00,399.52 371.00,402.89 371.00,402.89
             376.40,404.25 381.31,406.31 387.00,406.63
             387.00,406.63 397.00,406.04 397.00,406.04
             397.00,406.04 416.00,408.00 416.00,408.00
             416.00,408.00 431.00,407.03 431.00,407.03
             431.00,407.03 442.00,407.97 442.00,407.97
             449.23,407.97 452.21,405.47 456.00,405.39
             456.00,405.39 466.00,406.96 466.00,406.96
             472.47,407.24 478.29,405.67 484.00,402.68
             486.88,401.17 493.93,396.70 496.58,396.11
             500.48,395.23 504.18,397.86 509.00,397.47
             513.27,397.12 517.86,394.96 522.00,393.72
             522.00,393.72 535.00,390.64 535.00,390.64
             535.00,390.64 546.00,385.63 546.00,385.63
             546.00,385.63 555.00,382.68 555.00,382.68
             562.55,379.81 571.60,374.17 578.00,369.25
             582.85,365.53 589.86,359.08 591.44,353.00
             594.11,342.77 586.33,340.14 584.11,335.00
             582.62,331.54 585.19,326.92 581.30,322.39
             576.65,316.97 567.03,319.47 561.04,315.77
             555.58,312.41 555.46,307.45 549.96,304.01
             544.15,300.37 537.77,303.09 534.00,301.70
             530.64,300.45 528.18,296.60 523.00,294.85
             519.06,293.52 504.00,293.94 499.00,294.00
             487.12,294.16 487.48,300.02 480.00,301.70
             474.93,302.84 461.16,300.71 456.02,303.31
             449.33,306.69 451.35,313.01 443.98,315.98
             436.87,318.86 429.41,316.38 422.00,317.17
             413.59,318.07 407.86,321.86 396.00,322.00
             385.17,322.12 365.16,322.25 359.45,311.00
             354.52,301.27 364.44,283.38 369.45,275.00
             378.87,259.24 393.51,244.63 405.83,231.00
             412.76,223.34 425.65,208.25 433.72,202.48
             436.77,200.29 438.57,201.76 442.00,201.87
             442.00,201.87 449.00,201.34 449.00,201.34
             449.00,201.34 460.00,202.29 460.00,202.29
             462.78,202.31 468.37,202.00 468.26,198.06
             468.18,195.34 465.18,194.47 462.98,194.19
             462.98,194.19 448.00,194.83 448.00,194.83
             448.00,194.83 436.58,194.83 436.58,194.83
             434.23,194.05 432.00,191.76 427.00,191.19
             427.00,191.19 403.00,192.00 403.00,192.00
             398.06,191.97 390.44,191.52 386.00,193.39
             380.61,195.65 377.71,199.90 373.91,204.00
             373.91,204.00 355.00,224.00 355.00,224.00
             355.00,224.00 320.83,260.83 320.83,260.83
             308.00,273.66 279.44,299.19 265.00,310.13
             265.00,310.13 229.00,336.96 229.00,336.96
             221.57,340.40 221.16,337.03 207.00,344.34
             200.23,347.83 197.88,348.79 197.00,357.00
             185.87,358.75 183.56,363.20 175.00,368.12
             175.00,368.12 161.00,376.21 161.00,376.21
             154.60,379.72 146.95,382.53 141.04,386.90
             134.26,391.92 135.49,399.63 144.00,400.81
             149.41,401.56 165.76,399.76 172.00,399.17
             177.85,398.61 181.40,399.96 187.00,397.09
             187.00,397.09 194.00,392.98 194.00,392.98
             194.00,392.98 214.00,383.12 214.00,383.12
             224.40,377.05 224.88,370.74 241.00,375.00
             235.34,385.51 226.21,385.11 217.00,390.82 Z" />
</svg>
