<?xml version="1.0" encoding="UTF-8" standalone="no"?>
<!DOCTYPE svg PUBLIC "-//W3C//DTD SVG 20010904//EN"
              "http://www.w3.org/TR/2001/REC-SVG-20010904/DTD/svg10.dtd">

<svg xmlns="http://www.w3.org/2000/svg"
     width="9.72222in" height="9.72222in"
     viewBox="0 0 700 700">
  <path id="Selection"
        fill="none" stroke="black" stroke-width="1"
        d="M 700.00,0.00
           C 700.00,0.00 700.00,700.00 700.00,700.00
             700.00,700.00 0.00,700.00 0.00,700.00
             0.00,700.00 0.00,0.00 0.00,0.00
             0.00,0.00 700.00,0.00 700.00,0.00 Z
           M 421.00,161.00
           C 421.00,161.00 401.00,161.00 401.00,161.00
             396.65,160.97 392.04,160.68 388.00,162.57
             381.55,165.58 371.98,179.84 366.73,186.00
             366.73,186.00 338.00,222.00 338.00,222.00
             338.00,222.00 304.83,261.00 304.83,261.00
             294.38,272.55 281.94,282.48 270.00,292.41
             270.00,292.41 257.00,303.10 257.00,303.10
             257.00,303.10 247.17,310.04 247.17,310.04
             247.17,310.04 239.00,316.90 239.00,316.90
             231.92,321.62 223.83,323.04 218.00,326.36
             218.00,326.36 210.00,331.91 210.00,331.91
             196.06,341.34 197.06,338.42 190.00,342.18
             190.00,342.18 174.00,351.91 174.00,351.91
             174.00,351.91 156.00,360.24 156.00,360.24
             147.95,363.50 136.91,363.05 138.11,374.98
             138.65,380.32 142.11,381.73 147.00,381.95
             152.08,382.19 156.98,380.65 162.00,380.08
             162.00,380.08 172.00,380.08 172.00,380.08
             178.35,379.92 190.69,377.38 196.00,374.04
             196.00,374.04 205.80,365.94 205.80,365.94
             209.61,364.35 210.62,370.38 218.00,373.39
             223.41,375.60 231.12,374.97 237.00,375.00
             242.50,375.03 242.81,375.31 248.00,376.00
             247.84,378.64 247.84,380.59 246.26,382.90
             242.72,388.06 229.05,392.74 223.00,394.74
             223.00,394.74 209.00,400.53 209.00,400.53
             209.00,400.53 199.00,402.90 199.00,402.90
             199.00,402.90 188.00,407.69 188.00,407.69
             188.00,407.69 176.00,411.13 176.00,411.13
             176.00,411.13 166.00,415.76 166.00,415.76
             166.00,415.76 151.00,420.72 151.00,420.72
             138.40,426.01 130.75,424.43 130.06,433.00
             129.24,443.14 135.21,442.09 143.00,442.00
             143.00,442.00 171.00,440.00 171.00,440.00
             187.62,439.80 190.52,434.94 198.00,432.13
             198.00,432.13 210.00,429.09 210.00,429.09
             210.00,429.09 220.00,425.10 220.00,425.10
             226.58,422.82 230.24,423.52 236.00,422.33
             236.00,422.33 255.00,416.32 255.00,416.32
             255.00,416.32 283.00,412.77 283.00,412.77
             283.00,412.77 303.00,408.52 303.00,408.52
             307.95,406.83 310.80,403.47 315.00,403.42
             318.03,403.38 324.13,406.29 327.00,407.64
             327.00,407.64 352.00,419.75 352.00,419.75
             352.00,419.75 379.00,432.78 379.00,432.78
             385.70,436.00 387.10,437.90 395.00,439.76
             406.26,442.41 410.21,440.08 417.00,440.51
             417.00,440.51 431.00,441.17 431.00,441.17
             437.62,441.81 440.61,443.16 448.00,442.99
             454.60,442.83 455.91,441.16 459.42,440.93
             459.42,440.93 478.00,441.83 478.00,441.83
             487.00,441.01 485.40,441.82 493.00,441.83
             495.72,442.05 499.41,442.17 501.77,440.69
             505.92,438.08 505.90,431.95 500.94,429.10
             496.56,426.98 487.41,428.99 482.00,429.10
             482.00,429.10 465.00,429.10 465.00,429.10
             465.00,429.10 458.00,429.10 458.00,429.10
             458.00,429.10 432.00,420.04 432.00,420.04
             422.54,417.23 415.63,417.74 409.00,409.00
             419.79,404.95 427.30,407.95 438.00,408.00
             466.29,408.13 470.80,405.67 497.00,400.28
             497.00,400.28 517.00,398.48 517.00,398.48
             517.00,398.48 530.00,393.89 530.00,393.89
             530.00,393.89 545.00,389.91 545.00,389.91
             545.00,389.91 554.00,385.44 554.00,385.44
             570.59,378.08 570.83,378.23 584.00,365.00
             589.11,359.86 593.66,355.88 592.89,348.00
             592.33,342.26 588.82,340.69 586.45,336.00
             584.07,331.31 585.02,326.13 578.98,323.74
             574.33,321.89 567.53,324.56 562.10,320.99
             557.35,317.87 557.12,312.57 550.99,309.57
             544.83,306.56 537.88,309.04 535.17,308.23
             532.42,307.42 530.88,304.42 527.00,302.45
             523.42,300.65 515.12,300.02 511.00,300.16
             511.00,300.16 493.00,300.16 493.00,300.16
             488.38,301.15 486.17,303.29 483.00,304.31
             479.93,305.29 475.31,304.97 472.00,305.00
             472.00,305.00 454.00,307.40 454.00,307.40
             454.00,307.40 437.00,306.04 437.00,306.04
             437.00,306.04 403.00,309.00 403.00,309.00
             392.66,309.12 386.33,309.32 376.00,307.59
             371.20,306.78 366.96,306.46 363.33,302.78
             353.34,292.66 361.30,276.36 366.64,266.00
             379.19,241.66 382.43,241.21 397.53,221.00
             405.77,209.96 419.93,190.31 429.01,181.00
             430.91,179.06 436.22,173.34 438.42,172.58
             440.66,171.48 444.58,172.41 447.00,172.58
             447.00,172.58 458.00,172.58 458.00,172.58
             462.26,172.62 467.41,174.96 470.57,172.58
             473.31,170.97 473.67,166.00 467.98,165.15
             467.98,165.15 454.83,166.06 454.83,166.06
             454.83,166.06 439.00,166.06 439.00,166.06
             435.35,159.17 427.80,160.99 421.00,161.00 Z" />
</svg>
