<?xml version="1.0" encoding="UTF-8" standalone="no"?>
<!DOCTYPE svg PUBLIC "-//W3C//DTD SVG 20010904//EN"
              "http://www.w3.org/TR/2001/REC-SVG-20010904/DTD/svg10.dtd">

<svg xmlns="http://www.w3.org/2000/svg"
     width="9.72222in" height="9.72222in"
     viewBox="0 0 700 700">
  <path id="Selection"
        fill="none" stroke="black" stroke-width="1"
        d="M 700.00,0.00
           C 700.00,0.00 700.00,700.00 700.00,700.00
             700.00,700.00 0.00,700.00 0.00,700.00
             0.00,700.00 0.00,0.00 0.00,0.00
             0.00,0.00 700.00,0.00 700.00,0.00 Z
           M 200.43,362.82
           C 203.57,366.53 207.71,367.73 212.00,369.45
             221.86,373.41 226.91,375.86 238.00,376.00
             241.27,376.04 253.35,375.50 250.83,381.93
             249.89,384.32 246.06,386.56 244.00,388.04
             236.79,393.22 237.17,395.16 228.00,397.63
             228.00,397.63 195.00,403.60 195.00,403.60
             195.00,403.60 174.00,408.83 174.00,408.83
             158.44,410.46 160.04,409.92 145.00,415.00
             141.81,416.07 136.94,417.12 134.65,419.57
             129.68,424.86 134.03,430.06 140.00,431.15
             146.46,432.78 150.85,431.42 157.00,431.15
             157.00,431.15 175.00,431.15 175.00,431.15
             188.37,430.84 192.83,425.93 201.00,424.31
             201.00,424.31 221.00,421.72 221.00,421.72
             221.00,421.72 253.00,415.71 253.00,415.71
             261.28,414.28 265.03,409.48 272.00,410.55
             305.75,415.73 336.59,444.92 362.00,466.14
             362.00,466.14 381.00,481.28 381.00,481.28
             390.30,489.03 392.15,493.45 405.00,493.98
             405.00,493.98 432.00,493.98 432.00,493.98
             432.00,493.98 445.00,494.92 445.00,494.92
             445.00,494.92 457.00,493.58 457.00,493.58
             457.00,493.58 466.00,494.96 466.00,494.96
             466.00,494.96 490.00,494.96 490.00,494.96
             495.54,494.99 504.36,494.21 502.53,486.04
             501.24,480.31 493.73,479.86 489.00,480.04
             489.00,480.04 476.00,480.92 476.00,480.92
             476.00,480.92 463.00,480.92 463.00,480.92
             460.64,481.02 457.20,481.27 455.00,480.92
             449.28,479.39 435.96,469.20 431.00,465.28
             431.00,465.28 386.00,429.23 386.00,429.23
             386.00,429.23 368.06,415.82 368.06,415.82
             366.53,414.34 364.05,411.78 365.17,409.43
             366.86,405.89 376.50,407.98 380.00,408.23
             380.00,408.23 397.00,408.23 397.00,408.23
             405.88,410.03 414.81,413.36 424.00,412.68
             424.00,412.68 441.00,410.90 441.00,410.90
             441.00,410.90 449.00,410.90 449.00,410.90
             449.00,410.90 473.00,408.00 473.00,408.00
             479.93,407.99 487.15,407.64 494.00,406.56
             494.00,406.56 514.00,401.12 514.00,401.12
             514.00,401.12 531.00,398.41 531.00,398.41
             531.00,398.41 544.00,392.95 544.00,392.95
             544.00,392.95 553.00,390.19 553.00,390.19
             556.26,388.94 558.96,386.98 562.00,385.31
             574.44,378.50 573.25,380.05 583.05,369.00
             586.28,365.36 589.70,361.53 591.64,357.00
             595.15,348.76 592.13,344.29 587.25,338.00
             587.25,338.00 583.32,332.04 583.32,332.04
             580.38,328.06 572.48,323.35 568.00,320.95
             568.00,320.95 529.00,303.44 529.00,303.44
             520.92,301.03 513.09,301.69 505.00,300.72
             505.00,300.72 463.00,296.00 463.00,296.00
             463.00,296.00 427.00,297.00 427.00,297.00
             427.00,297.00 406.00,299.00 406.00,299.00
             406.00,299.00 386.00,299.00 386.00,299.00
             378.46,298.91 365.40,296.43 360.85,289.96
             357.27,284.87 358.50,281.50 359.87,276.00
             362.52,265.38 362.42,267.95 366.77,259.00
             366.77,259.00 372.06,248.00 372.06,248.00
             372.06,248.00 378.25,237.00 378.25,237.00
             378.25,237.00 389.52,222.00 389.52,222.00
             389.52,222.00 399.15,208.00 399.15,208.00
             399.15,208.00 412.71,190.00 412.71,190.00
             418.74,181.49 430.76,161.92 440.00,157.93
             441.56,157.26 453.67,156.13 456.00,155.86
             462.12,155.80 471.58,158.54 476.94,155.86
             481.73,153.14 482.21,146.93 477.85,143.74
             475.29,141.87 472.01,142.02 469.00,142.00
             469.00,142.00 457.00,142.57 457.00,142.57
             457.00,142.57 450.00,142.57 450.00,142.57
             450.00,142.57 444.00,142.57 444.00,142.57
             444.00,142.57 433.00,141.09 433.00,141.09
             433.00,141.09 419.00,142.00 419.00,142.00
             419.00,142.00 400.00,141.09 400.00,141.09
             385.81,140.29 379.26,153.00 372.01,163.00
             372.01,163.00 339.28,207.00 339.28,207.00
             339.28,207.00 322.58,230.00 322.58,230.00
             322.58,230.00 309.17,245.00 309.17,245.00
             309.17,245.00 300.68,255.16 300.68,255.16
             293.35,262.99 275.62,278.64 267.00,285.11
             267.00,285.11 246.00,299.63 246.00,299.63
             246.00,299.63 238.00,306.35 238.00,306.35
             233.50,309.46 229.21,309.29 223.00,312.49
             223.00,312.49 205.00,321.69 205.00,321.69
             205.00,321.69 196.00,325.32 196.00,325.32
             196.00,325.32 187.00,329.91 187.00,329.91
             187.00,329.91 168.00,336.80 168.00,336.80
             159.21,340.23 150.55,339.01 144.04,344.39
             140.05,347.69 136.16,355.24 142.15,358.69
             144.74,360.18 149.06,360.00 152.00,360.00
             152.00,360.00 158.00,360.00 158.00,360.00
             158.00,360.00 174.00,359.00 174.00,359.00
             186.11,358.94 185.48,355.35 197.00,353.00
             197.51,356.59 197.99,359.93 200.43,362.82 Z" />
</svg>
