<?xml version="1.0" encoding="UTF-8" standalone="no"?>
<!DOCTYPE svg PUBLIC "-//W3C//DTD SVG 20010904//EN"
              "http://www.w3.org/TR/2001/REC-SVG-20010904/DTD/svg10.dtd">

<svg xmlns="http://www.w3.org/2000/svg"
     width="9.72222in" height="9.72222in"
     viewBox="0 0 700 700">
  <path id="Selection"
        fill="none" stroke="black" stroke-width="1"
        d="M 700.00,0.00
           C 700.00,0.00 700.00,700.00 700.00,700.00
             700.00,700.00 0.00,700.00 0.00,700.00
             0.00,700.00 0.00,0.00 0.00,0.00
             0.00,0.00 700.00,0.00 700.00,0.00 Z
           M 388.18,137.51
           C 388.18,137.51 368.53,163.00 368.53,163.00
             348.43,189.80 330.18,217.94 307.84,243.00
             294.65,257.79 274.00,275.32 257.00,285.55
             257.00,285.55 241.00,293.68 241.00,293.68
             241.00,293.68 231.00,299.52 231.00,299.52
             231.00,299.52 217.00,302.75 217.00,302.75
             217.00,302.75 204.00,308.11 204.00,308.11
             204.00,308.11 193.00,310.74 193.00,310.74
             193.00,310.74 181.00,314.91 181.00,314.91
             175.15,316.84 169.01,316.96 163.00,318.09
             163.00,318.09 147.00,322.14 147.00,322.14
             142.48,323.50 136.98,326.05 138.33,331.89
             139.53,337.03 146.87,336.98 151.00,337.00
             151.00,337.00 161.00,337.00 161.00,337.00
             161.00,337.00 186.00,334.99 186.00,334.99
             186.00,334.99 202.00,330.04 202.00,330.04
             202.00,330.04 231.00,323.08 231.00,323.08
             234.24,322.51 237.97,322.03 241.00,320.78
             243.41,319.79 246.48,317.54 249.00,317.42
             252.05,317.28 255.06,319.72 253.83,322.95
             252.18,327.29 242.25,330.34 238.00,331.19
             238.00,331.19 221.00,332.80 221.00,332.80
             215.57,334.44 212.69,338.00 209.00,339.85
             205.73,341.50 202.36,341.29 199.70,344.39
             194.74,350.17 197.30,358.96 203.02,363.10
             208.56,367.10 222.27,373.32 229.00,374.54
             229.00,374.54 240.00,375.58 240.00,375.58
             243.55,376.05 255.42,376.29 252.83,382.90
             251.61,386.02 246.78,387.56 244.00,388.89
             233.11,394.11 236.89,396.09 223.27,396.09
             223.27,396.09 213.00,396.09 213.00,396.09
             213.00,396.09 183.00,399.00 183.00,399.00
             183.00,399.00 157.00,400.58 157.00,400.58
             152.01,401.24 138.71,401.21 135.89,405.28
             134.94,406.64 134.65,408.35 134.91,409.98
             135.82,415.82 142.36,415.94 147.00,416.00
             147.00,416.00 185.00,416.00 185.00,416.00
             185.00,416.00 218.00,413.00 218.00,413.00
             226.75,412.89 229.87,410.33 237.00,410.04
             244.39,409.74 249.13,412.01 256.00,414.12
             273.76,419.57 290.19,428.30 305.00,439.47
             322.09,452.36 324.45,457.34 338.09,472.00
             338.09,472.00 358.09,494.00 358.09,494.00
             358.09,494.00 368.58,505.00 368.58,505.00
             368.58,505.00 381.69,519.17 381.69,519.17
             390.52,528.98 391.43,532.93 406.00,533.00
             406.00,533.00 427.00,533.00 427.00,533.00
             427.00,533.00 443.00,533.99 443.00,533.99
             450.44,533.81 451.09,531.85 459.00,531.98
             459.00,531.98 476.00,531.98 476.00,531.98
             476.00,531.98 486.00,532.91 486.00,532.91
             488.87,533.07 492.43,532.85 494.85,531.15
             499.15,528.12 498.46,522.72 493.94,520.09
             489.24,517.81 483.01,519.74 478.00,520.09
             478.00,520.09 467.00,520.09 467.00,520.09
             467.00,520.09 451.00,519.11 451.00,519.11
             443.40,516.45 431.04,501.18 424.99,495.00
             424.99,495.00 381.46,448.28 381.46,448.28
             381.46,448.28 364.09,427.00 364.09,427.00
             361.79,424.37 358.60,420.80 360.84,417.15
             363.57,412.71 371.39,414.27 376.00,413.83
             376.00,413.83 396.00,412.00 396.00,412.00
             396.00,412.00 420.00,413.00 420.00,413.00
             420.00,413.00 432.00,413.97 432.00,413.97
             432.00,413.97 450.00,412.00 450.00,412.00
             450.00,412.00 461.00,412.00 461.00,412.00
             461.00,412.00 495.00,408.00 495.00,408.00
             501.37,407.99 507.76,407.78 514.00,406.32
             514.00,406.32 526.00,401.90 526.00,401.90
             526.00,401.90 540.00,398.45 540.00,398.45
             540.00,398.45 552.00,392.94 552.00,392.94
             565.54,387.97 577.20,379.71 585.84,368.00
             589.25,363.39 592.69,358.91 592.95,353.00
             593.31,345.08 590.53,343.29 586.87,337.00
             577.85,321.47 570.08,314.20 553.00,307.68
             553.00,307.68 540.00,302.10 540.00,302.10
             540.00,302.10 520.00,297.76 520.00,297.76
             512.67,296.03 512.21,294.75 503.00,293.43
             503.00,293.43 480.00,292.00 480.00,292.00
             480.00,292.00 457.00,291.00 457.00,291.00
             457.00,291.00 442.00,290.00 442.00,290.00
             442.00,290.00 423.00,290.86 423.00,290.86
             405.72,291.20 397.31,293.13 379.00,290.86
             373.50,290.00 366.33,289.54 362.60,284.87
             358.45,279.54 359.90,269.76 362.60,264.00
             362.60,264.00 367.18,256.00 367.18,256.00
             367.18,256.00 374.67,242.00 374.67,242.00
             374.67,242.00 397.84,209.00 397.84,209.00
             397.84,209.00 408.47,193.00 408.47,193.00
             408.47,193.00 423.77,173.00 423.77,173.00
             428.43,166.07 436.88,151.87 445.00,149.26
             447.12,148.90 448.88,149.19 451.00,149.26
             451.00,149.26 462.00,149.26 462.00,149.26
             468.02,149.15 478.68,151.79 483.85,148.15
             489.57,144.12 487.42,134.23 474.00,135.18
             474.00,135.18 458.00,136.20 458.00,136.20
             458.00,136.20 448.00,136.20 448.00,136.20
             444.73,135.93 442.72,134.47 438.00,134.09
             438.00,134.09 421.00,134.98 421.00,134.98
             412.55,134.82 404.57,133.39 396.00,134.32
             393.11,134.98 390.56,135.58 388.18,137.51 Z" />
</svg>
