<?xml version="1.0" encoding="UTF-8" standalone="no"?>
<!DOCTYPE svg PUBLIC "-//W3C//DTD SVG 20010904//EN"
              "http://www.w3.org/TR/2001/REC-SVG-20010904/DTD/svg10.dtd">

<svg xmlns="http://www.w3.org/2000/svg"
     width="9.72222in" height="9.72222in"
     viewBox="0 0 700 700">
  <path id="Selection"
        fill="none" stroke="black" stroke-width="1"
        d="M 700.00,0.00
           C 700.00,0.00 700.00,700.00 700.00,700.00
             700.00,700.00 0.00,700.00 0.00,700.00
             0.00,700.00 0.00,0.00 0.00,0.00
             0.00,0.00 700.00,0.00 700.00,0.00 Z
           M 540.00,278.75
           C 540.00,278.75 529.00,274.91 529.00,274.91
             524.12,272.93 521.81,270.77 516.00,269.52
             516.00,269.52 502.00,267.50 502.00,267.50
             502.00,267.50 491.00,263.92 491.00,263.92
             485.35,262.37 470.06,261.07 464.00,261.00
             464.00,261.00 442.00,261.00 442.00,261.00
             438.83,261.00 436.09,260.90 433.00,261.79
             433.00,261.79 407.00,274.83 407.00,274.83
             407.00,274.83 381.00,281.77 381.00,281.77
             381.00,281.77 356.00,285.45 356.00,285.45
             356.00,285.45 336.00,290.54 336.00,290.54
             336.00,290.54 317.00,292.43 317.00,292.43
             317.00,292.43 289.00,297.87 289.00,297.87
             289.00,297.87 272.00,300.10 272.00,300.10
             272.00,300.10 262.00,300.10 262.00,300.10
             262.00,300.10 239.00,303.43 239.00,303.43
             229.04,305.11 219.16,307.17 209.00,307.40
             198.25,307.65 193.43,297.39 186.90,291.19
             180.57,285.18 177.42,288.26 171.00,285.23
             165.16,282.48 164.33,278.46 157.00,278.04
             153.85,277.86 136.48,280.30 134.11,281.57
             132.12,282.64 131.05,283.86 130.43,286.04
             128.03,294.47 135.08,298.76 139.86,304.09
             139.86,304.09 146.37,313.00 146.37,313.00
             148.15,315.27 151.24,318.01 151.46,321.00
             151.73,324.74 147.86,327.45 146.35,333.00
             146.35,333.00 144.22,344.00 144.22,344.00
             144.22,344.00 139.32,355.00 139.32,355.00
             139.32,355.00 136.62,364.00 136.62,364.00
             136.62,364.00 132.02,374.00 132.02,374.00
             132.02,374.00 128.87,383.00 128.87,383.00
             126.99,387.49 124.86,388.52 122.65,392.00
             120.49,395.69 119.39,403.11 122.65,406.57
             124.52,408.71 128.23,409.35 131.00,409.71
             131.00,409.71 154.00,410.99 154.00,410.99
             161.99,410.79 165.02,407.82 172.00,405.59
             177.62,403.80 181.75,404.61 186.70,400.39
             186.70,400.39 210.00,373.00 210.00,373.00
             213.13,369.55 215.95,365.93 218.46,362.00
             220.42,358.93 221.78,355.20 225.10,353.31
             227.78,351.79 231.02,352.01 234.00,352.00
             234.00,352.00 315.00,352.00 315.00,352.00
             315.00,352.00 329.00,352.00 329.00,352.00
             340.33,351.98 342.27,349.20 354.00,353.00
             343.52,360.98 338.51,357.03 331.19,363.53
             323.40,370.43 328.40,378.55 318.00,378.98
             309.56,379.33 297.40,375.69 290.04,380.72
             282.93,385.60 281.48,400.91 289.11,405.99
             292.12,408.00 307.70,409.04 311.83,408.96
             315.17,408.77 320.12,407.65 323.00,408.96
             327.66,411.29 329.15,416.81 337.00,420.60
             337.00,420.60 349.00,424.71 349.00,424.71
             349.00,424.71 358.00,428.62 358.00,428.62
             364.14,430.84 375.39,431.97 382.00,432.00
             382.00,432.00 399.00,432.00 399.00,432.00
             399.00,432.00 415.00,433.00 415.00,433.00
             415.00,433.00 436.00,432.49 436.00,432.49
             436.00,432.49 450.00,431.44 450.00,431.44
             454.12,430.37 456.36,427.98 460.00,426.24
             464.95,423.86 468.38,424.48 471.79,421.57
             475.29,418.58 476.82,413.86 479.05,410.00
             479.05,410.00 483.73,403.00 483.73,403.00
             483.73,403.00 488.89,394.00 488.89,394.00
             488.89,394.00 495.10,384.00 495.10,384.00
             500.17,376.41 502.42,377.22 504.00,366.79
             504.00,366.79 514.00,366.79 514.00,366.79
             514.00,366.79 524.00,363.35 524.00,363.35
             524.00,363.35 534.00,360.53 534.00,360.53
             547.01,355.54 561.89,345.19 569.00,333.00
             573.24,325.74 568.98,319.96 571.06,316.23
             572.73,313.22 576.31,313.34 578.96,311.84
             583.02,309.54 585.14,304.57 584.85,300.00
             584.24,290.12 565.03,284.62 560.00,293.00
             553.88,290.11 548.50,283.12 540.00,278.75 Z" />
</svg>
