<?xml version="1.0" encoding="UTF-8" standalone="no"?>
<!DOCTYPE svg PUBLIC "-//W3C//DTD SVG 20010904//EN"
              "http://www.w3.org/TR/2001/REC-SVG-20010904/DTD/svg10.dtd">

<svg xmlns="http://www.w3.org/2000/svg"
     width="9.72222in" height="9.72222in"
     viewBox="0 0 700 700">
  <path id="Selection"
        fill="none" stroke="black" stroke-width="1"
        d="M 700.00,0.00
           C 700.00,0.00 700.00,700.00 700.00,700.00
             700.00,700.00 0.00,700.00 0.00,700.00
             0.00,700.00 0.00,0.00 0.00,0.00
             0.00,0.00 700.00,0.00 700.00,0.00 Z
           M 320.90,378.34
           C 318.08,379.55 313.93,378.63 311.00,378.34
             304.93,377.57 293.14,377.39 288.31,381.65
             283.31,386.20 282.47,399.47 288.31,404.35
             292.36,407.86 297.88,407.99 303.00,408.00
             306.74,408.01 320.34,407.59 322.96,408.60
             326.78,410.07 328.45,414.16 332.29,417.04
             335.64,419.55 342.88,422.11 347.00,423.49
             361.97,428.48 375.02,431.98 391.00,432.00
             391.00,432.00 415.00,432.00 415.00,432.00
             415.00,432.00 431.00,431.04 431.00,431.04
             436.60,431.26 440.95,432.73 447.00,431.67
             451.41,430.90 454.93,428.56 459.00,426.92
             461.90,425.75 465.33,424.97 467.91,423.18
             472.39,420.07 475.64,413.54 478.54,409.00
             478.54,409.00 494.63,384.00 494.63,384.00
             494.63,384.00 499.59,378.00 499.59,378.00
             503.09,373.26 502.28,370.10 505.30,367.98
             507.72,366.29 515.29,365.93 519.00,364.82
             519.00,364.82 534.00,360.96 534.00,360.96
             542.94,358.26 553.22,351.06 560.00,344.70
             564.91,340.09 570.59,334.00 570.96,327.00
             571.12,323.83 569.82,317.83 571.78,315.58
             573.48,313.63 576.99,313.77 579.81,311.91
             584.19,309.03 586.15,301.82 584.26,297.02
             581.78,290.68 571.13,288.22 565.00,289.22
             561.36,289.82 559.67,291.72 557.00,290.85
             554.30,289.97 548.46,282.78 541.00,278.75
             537.09,276.64 533.84,276.37 530.00,274.88
             525.72,273.23 523.92,271.28 519.00,269.93
             519.00,269.93 504.00,267.69 504.00,267.69
             504.00,267.69 485.00,262.11 485.00,262.11
             485.00,262.11 476.00,262.11 476.00,262.11
             476.00,262.11 466.00,261.00 466.00,261.00
             466.00,261.00 442.00,261.00 442.00,261.00
             430.83,261.02 432.07,262.05 423.00,267.20
             423.00,267.20 416.00,270.49 416.00,270.49
             409.74,273.78 408.47,275.89 401.00,277.39
             401.00,277.39 388.00,280.06 388.00,280.06
             388.00,280.06 378.00,280.06 378.00,280.06
             378.00,280.06 363.00,283.91 363.00,283.91
             363.00,283.91 338.00,287.25 338.00,287.25
             338.00,287.25 318.00,291.71 318.00,291.71
             318.00,291.71 301.00,293.09 301.00,293.09
             301.00,293.09 283.00,295.28 283.00,295.28
             283.00,295.28 266.00,298.56 266.00,298.56
             266.00,298.56 252.00,299.91 252.00,299.91
             252.00,299.91 232.00,301.29 232.00,301.29
             227.69,301.87 223.39,303.37 219.00,302.79
             216.21,302.42 209.66,299.92 207.00,298.68
             189.29,290.38 185.47,276.96 171.00,276.21
             162.84,275.79 157.96,282.73 151.00,285.65
             151.00,285.65 133.06,290.43 133.06,290.43
             127.94,293.03 128.03,300.62 130.74,305.00
             132.62,308.04 138.09,312.87 140.79,316.00
             140.79,316.00 146.20,323.00 146.20,323.00
             148.22,325.39 152.00,328.59 151.69,332.00
             151.37,335.54 147.48,337.39 145.88,343.00
             144.63,348.71 146.94,351.37 145.88,355.17
             144.53,358.74 141.47,361.09 139.63,365.00
             139.63,365.00 135.83,375.00 135.83,375.00
             135.83,375.00 130.80,385.00 130.80,385.00
             130.80,385.00 128.86,392.00 128.86,392.00
             126.63,397.61 117.28,405.03 122.74,412.89
             126.13,417.79 131.81,416.99 137.00,417.00
             137.00,417.00 155.00,418.00 155.00,418.00
             168.46,417.84 171.21,411.54 178.91,402.00
             178.91,402.00 201.85,374.00 201.85,374.00
             205.05,370.36 208.97,365.37 213.00,362.70
             219.59,358.34 225.84,360.91 233.00,361.00
             233.00,361.00 301.00,361.00 301.00,361.00
             301.00,361.00 326.00,360.21 326.00,360.21
             328.11,360.49 330.02,361.26 332.00,362.00
             330.26,365.89 324.68,376.87 320.90,378.34 Z" />
</svg>
