<?xml version="1.0" encoding="UTF-8" standalone="no"?>
<!DOCTYPE svg PUBLIC "-//W3C//DTD SVG 20010904//EN"
              "http://www.w3.org/TR/2001/REC-SVG-20010904/DTD/svg10.dtd">

<svg xmlns="http://www.w3.org/2000/svg"
     width="9.72222in" height="9.72222in"
     viewBox="0 0 700 700">
  <path id="Selection"
        fill="none" stroke="black" stroke-width="1"
        d="M 700.00,0.00
           C 700.00,0.00 700.00,700.00 700.00,700.00
             700.00,700.00 0.00,700.00 0.00,700.00
             0.00,700.00 0.00,0.00 0.00,0.00
             0.00,0.00 700.00,0.00 700.00,0.00 Z
           M 129.42,293.00
           C 125.24,296.38 125.62,303.99 130.22,306.69
             133.36,308.53 141.17,307.96 145.00,308.00
             148.91,308.05 157.87,308.42 159.94,312.23
             161.90,315.84 158.21,318.80 158.13,327.00
             158.13,327.00 159.00,338.00 159.00,338.00
             159.00,338.00 159.00,364.00 159.00,364.00
             159.01,369.54 161.51,381.47 158.15,385.57
             153.60,391.12 144.25,383.73 143.08,394.00
             143.08,394.00 143.08,398.00 143.08,398.00
             143.39,404.02 145.61,405.48 151.00,407.28
             153.11,407.99 157.87,408.96 157.38,412.06
             157.02,414.32 153.91,416.19 152.00,417.00
             148.21,418.59 141.49,418.38 136.56,423.53
             131.98,428.30 131.51,436.49 139.00,438.95
             140.83,439.08 144.04,439.00 146.00,438.95
             146.00,438.95 154.00,438.95 154.00,438.95
             154.00,438.95 158.00,438.95 158.00,438.95
             169.11,440.97 162.89,449.09 163.60,455.00
             163.60,455.00 164.91,462.00 164.91,462.00
             165.71,472.03 163.30,485.03 172.10,492.61
             178.81,498.38 193.75,497.77 202.00,495.99
             205.52,495.22 209.10,494.27 211.79,491.73
             216.41,487.35 218.17,477.17 217.92,471.00
             217.92,471.00 217.92,447.00 217.92,447.00
             217.92,447.00 217.92,441.00 217.92,441.00
             217.44,429.15 224.43,431.02 233.00,432.00
             233.00,432.00 242.00,432.00 242.00,432.00
             242.00,432.00 269.00,434.17 269.00,434.17
             269.00,434.17 307.00,438.00 307.00,438.00
             307.00,438.00 320.00,438.00 320.00,438.00
             325.04,437.99 333.03,435.90 336.69,439.43
             340.54,443.16 338.42,450.21 338.59,455.00
             338.59,455.00 339.32,469.00 339.32,469.00
             339.32,469.00 341.53,479.00 341.53,479.00
             341.53,479.00 340.00,497.00 340.00,497.00
             340.00,497.00 340.00,528.00 340.00,528.00
             340.00,528.00 343.00,559.00 343.00,559.00
             343.20,574.89 355.71,584.98 371.00,585.02
             371.00,585.02 385.00,585.02 385.00,585.02
             389.37,585.05 393.69,586.20 398.00,585.02
             401.61,584.12 403.88,582.62 407.00,580.73
             414.67,576.09 420.66,569.25 421.95,560.00
             421.95,560.00 421.95,552.00 421.95,552.00
             421.95,552.00 423.04,542.00 423.04,542.00
             423.04,542.00 423.04,530.00 423.04,530.00
             423.04,530.00 424.00,518.00 424.00,518.00
             424.00,518.00 424.00,478.00 424.00,478.00
             424.00,478.00 425.86,449.28 425.86,449.28
             425.78,445.73 425.82,442.12 429.15,439.94
             431.94,438.10 435.43,438.59 438.58,438.87
             438.58,438.87 457.00,438.87 457.00,438.87
             470.48,438.84 475.99,435.60 488.00,432.89
             488.00,432.89 503.00,430.51 503.00,430.51
             508.01,429.14 509.71,427.45 514.00,425.76
             514.00,425.76 524.00,422.78 524.00,422.78
             528.97,420.70 545.78,409.63 550.00,405.83
             553.76,402.43 562.00,392.31 564.75,388.00
             564.75,388.00 570.41,378.15 570.41,378.15
             576.09,371.82 589.74,377.64 592.45,365.00
             595.04,352.96 577.83,352.44 573.73,346.86
             571.87,344.32 571.38,339.24 570.24,336.00
             569.00,332.48 566.68,329.16 564.69,326.00
             556.52,313.02 548.08,305.63 535.00,298.05
             535.00,298.05 527.00,293.35 527.00,293.35
             527.00,293.35 518.00,290.45 518.00,290.45
             518.00,290.45 507.00,285.33 507.00,285.33
             507.00,285.33 490.00,281.53 490.00,281.53
             478.47,278.64 473.63,276.02 461.00,276.00
             453.63,275.99 434.02,278.28 430.11,270.94
             428.87,268.04 429.99,260.74 430.11,257.00
             430.11,257.00 430.11,201.00 430.11,201.00
             430.11,201.00 429.14,189.00 429.14,189.00
             429.14,189.00 429.14,143.00 429.14,143.00
             428.98,129.85 422.48,110.86 409.00,105.97
             405.93,104.85 403.19,105.01 400.00,105.24
             400.00,105.24 381.00,105.24 381.00,105.24
             374.30,105.06 365.21,104.32 359.00,107.45
             339.69,117.20 343.03,145.19 343.00,163.00
             343.00,163.00 342.04,175.00 342.04,175.00
             342.04,175.00 342.04,188.00 342.04,188.00
             342.04,188.00 341.09,198.00 341.09,198.00
             341.09,198.00 340.00,225.00 340.00,225.00
             340.00,225.00 340.92,236.00 340.92,236.00
             340.92,236.00 339.93,244.00 339.93,244.00
             339.93,244.00 339.93,257.00 339.93,257.00
             340.11,265.41 343.79,269.57 339.93,273.35
             335.07,277.60 327.66,275.07 322.00,275.00
             322.00,275.00 294.00,275.00 294.00,275.00
             294.00,275.00 277.00,276.00 277.00,276.00
             277.00,276.00 242.00,276.00 242.00,276.00
             242.00,276.00 223.04,277.03 223.04,277.03
             219.61,277.12 216.07,277.75 213.59,274.70
             211.09,271.61 212.48,262.46 212.15,258.00
             212.15,258.00 210.09,232.00 210.09,232.00
             209.52,223.65 210.12,218.71 205.03,211.01
             197.32,199.35 185.55,202.90 180.00,202.63
             173.77,202.32 169.67,200.89 164.19,205.56
             158.23,210.63 156.04,221.52 156.00,229.00
             156.00,229.00 155.32,253.96 155.32,253.96
             155.02,256.94 155.61,261.22 153.99,263.78
             149.95,270.13 135.22,262.95 137.24,275.99
             138.07,281.35 143.37,283.65 148.00,285.00
             143.27,293.88 136.13,287.58 129.42,293.00 Z
           M 234.00,306.00
           C 234.00,306.00 250.00,306.00 250.00,306.00
             250.00,306.00 266.00,307.00 266.00,307.00
             278.82,307.02 291.32,307.84 304.00,309.92
             304.00,309.92 325.00,312.63 325.00,312.63
             328.16,313.34 330.58,314.22 329.95,318.02
             328.45,326.98 322.07,323.14 316.00,323.02
             311.22,322.91 310.32,323.37 306.00,323.84
             298.02,324.69 288.36,325.24 286.16,334.91
             284.44,342.48 289.01,348.93 296.00,351.60
             300.25,353.22 305.52,353.25 310.00,352.95
             313.46,352.31 318.58,351.20 321.72,352.95
             324.71,355.05 324.78,358.97 325.95,362.00
             327.48,365.95 329.93,369.04 333.02,371.90
             338.46,376.95 340.35,376.00 345.00,378.63
             345.00,378.63 352.00,383.10 352.00,383.10
             353.96,384.18 358.93,385.92 359.95,387.65
             362.26,391.54 355.74,395.28 353.00,396.56
             340.14,402.56 336.72,401.98 323.00,402.00
             323.00,402.00 281.00,402.00 281.00,402.00
             281.00,402.00 266.00,403.00 266.00,403.00
             266.00,403.00 255.00,403.00 255.00,403.00
             255.00,403.00 237.00,404.00 237.00,404.00
             231.81,404.06 221.22,406.74 217.60,402.57
             214.21,398.67 217.26,388.15 216.83,383.00
             216.83,383.00 214.00,326.00 214.00,326.00
             213.91,319.02 209.64,307.74 218.02,304.74
             218.02,304.74 234.00,306.00 234.00,306.00 Z" />
</svg>
