<?xml version="1.0" encoding="UTF-8" standalone="no"?>
<!DOCTYPE svg PUBLIC "-//W3C//DTD SVG 20010904//EN"
              "http://www.w3.org/TR/2001/REC-SVG-20010904/DTD/svg10.dtd">

<svg xmlns="http://www.w3.org/2000/svg"
     width="9.72222in" height="9.72222in"
     viewBox="0 0 700 700">
  <path id="Selection"
        fill="none" stroke="black" stroke-width="1"
        d="M 700.00,0.00
           C 700.00,0.00 700.00,700.00 700.00,700.00
             700.00,700.00 0.00,700.00 0.00,700.00
             0.00,700.00 0.00,0.00 0.00,0.00
             0.00,0.00 700.00,0.00 700.00,0.00 Z
           M 361.00,131.99
           C 354.39,135.82 343.39,150.39 342.21,158.00
             341.15,164.84 343.32,169.49 343.26,174.00
             343.26,174.00 340.92,195.00 340.92,195.00
             340.92,195.00 340.92,213.00 340.92,213.00
             340.92,213.00 339.08,232.00 339.08,232.00
             339.08,232.00 339.08,247.00 339.08,247.00
             339.08,247.00 340.67,256.00 340.67,256.00
             341.10,261.00 338.63,263.19 339.31,276.28
             339.45,278.89 339.71,281.47 337.56,283.40
             335.19,285.52 330.06,284.97 327.00,285.00
             327.00,285.00 314.00,286.00 314.00,286.00
             314.00,286.00 238.00,286.00 238.00,286.00
             231.85,286.08 219.12,289.22 214.09,285.43
             208.46,281.17 210.37,275.04 209.65,270.00
             209.65,270.00 206.29,254.00 206.29,254.00
             204.91,243.37 207.58,229.54 195.96,223.16
             189.17,219.43 183.43,222.27 177.00,221.92
             171.98,221.46 167.07,220.08 162.04,221.92
             155.68,224.49 150.18,238.50 149.72,245.00
             149.35,248.31 151.01,256.37 149.72,258.76
             146.76,264.83 130.91,256.05 132.37,269.00
             132.85,273.30 138.27,285.67 141.34,288.61
             144.84,291.97 153.94,293.21 151.50,299.99
             148.17,309.20 125.62,308.72 125.29,323.99
             125.18,329.43 129.41,330.83 134.00,330.98
             141.34,331.23 152.03,327.83 155.85,337.04
             157.43,340.83 156.81,345.02 157.09,349.00
             157.09,349.00 158.91,361.00 158.91,361.00
             159.06,363.36 159.14,366.66 157.40,368.48
             153.46,372.64 145.10,366.93 143.21,375.05
             143.21,375.05 143.21,378.00 143.21,378.00
             143.04,384.58 147.54,392.83 151.78,397.67
             155.48,401.90 160.81,402.66 160.90,410.00
             161.09,425.16 133.23,423.00 137.61,439.96
             140.54,451.30 159.34,441.69 165.72,446.74
             169.59,449.80 167.85,455.61 168.04,460.00
             168.68,474.60 179.21,481.75 193.00,481.26
             200.85,480.97 210.81,481.90 216.78,475.79
             220.74,471.73 220.97,466.32 220.92,461.00
             220.92,461.00 220.92,444.00 220.92,444.00
             220.44,439.89 219.04,435.82 222.43,432.21
             226.81,428.06 232.51,431.90 241.00,432.21
             241.00,432.21 289.00,436.15 289.00,436.15
             300.08,437.50 310.77,439.13 322.00,439.00
             326.27,438.95 333.31,436.97 336.57,439.74
             339.41,442.14 338.99,446.63 339.00,450.00
             339.00,450.00 339.99,469.00 339.99,469.00
             339.99,469.00 339.04,482.00 339.04,482.00
             339.04,482.00 339.96,490.00 339.96,490.00
             339.96,490.00 339.96,503.00 339.96,503.00
             339.96,503.00 342.85,531.00 342.85,531.00
             343.46,536.17 343.92,542.57 347.50,546.68
             357.77,558.50 377.80,556.17 392.00,556.00
             400.33,555.90 411.26,550.57 415.08,542.96
             418.64,535.88 418.38,527.64 419.28,520.00
             419.28,520.00 422.96,490.00 422.96,490.00
             422.96,490.00 422.96,480.00 422.96,480.00
             422.96,480.00 423.94,468.00 423.94,468.00
             423.94,468.00 423.94,450.00 423.94,450.00
             423.84,447.19 423.68,443.81 426.31,442.02
             428.93,440.23 435.77,440.97 439.00,441.00
             439.00,441.00 457.00,441.00 457.00,441.00
             457.00,441.00 476.00,439.09 476.00,439.09
             482.84,438.62 485.37,439.52 493.00,437.66
             498.31,436.37 500.76,434.30 505.00,432.83
             505.00,432.83 516.00,430.49 516.00,430.49
             527.69,427.52 547.45,412.67 555.99,404.00
             555.99,404.00 567.48,389.40 567.48,389.40
             570.62,387.85 588.47,388.78 592.11,379.91
             595.09,372.63 588.24,365.99 582.00,363.56
             578.84,362.33 575.18,362.35 573.58,358.86
             572.03,355.45 573.09,349.67 569.89,344.00
             559.01,324.70 546.79,315.13 527.00,305.97
             527.00,305.97 518.00,301.46 518.00,301.46
             518.00,301.46 507.00,298.19 507.00,298.19
             507.00,298.19 495.00,292.79 495.00,292.79
             495.00,292.79 481.00,291.56 481.00,291.56
             481.00,291.56 466.00,288.09 466.00,288.09
             466.00,288.09 446.00,286.09 446.00,286.09
             438.90,285.60 429.99,287.92 430.86,277.28
             430.86,277.28 430.86,267.00 430.86,267.00
             430.86,267.00 430.86,160.00 430.86,160.00
             431.00,156.92 431.10,153.99 430.20,151.00
             427.90,143.35 417.54,132.40 410.00,129.85
             407.11,128.88 404.01,129.00 401.00,129.23
             401.00,129.23 381.04,129.23 381.04,129.23
             381.04,129.23 370.00,129.23 370.00,129.23
             366.69,129.85 363.98,130.27 361.00,131.99 Z
           M 357.00,390.75
           C 350.91,393.77 340.76,397.67 334.00,397.96
             329.55,398.15 328.02,397.55 324.00,397.09
             324.00,397.09 313.00,397.09 313.00,397.09
             313.00,397.09 298.00,398.00 298.00,398.00
             298.00,398.00 249.00,398.00 249.00,398.00
             249.00,398.00 228.58,399.66 228.58,399.66
             217.07,400.56 218.53,389.57 218.01,382.00
             218.01,382.00 215.17,360.00 215.17,360.00
             215.17,360.00 214.00,329.00 214.00,329.00
             214.00,326.31 213.66,321.75 215.74,319.73
             218.13,317.45 222.24,318.96 225.00,319.73
             230.13,321.09 240.58,321.99 246.00,322.00
             246.00,322.00 273.00,322.58 273.00,322.58
             275.65,322.94 279.61,323.06 281.89,324.31
             286.26,326.70 285.66,331.19 288.01,334.99
             292.18,341.75 299.42,344.25 307.00,343.99
             310.88,343.81 319.37,341.83 322.57,343.99
             324.96,345.66 325.02,349.40 325.78,352.00
             326.96,356.05 329.59,361.64 332.52,364.66
             336.12,368.38 339.98,368.67 343.91,371.21
             347.35,373.44 348.78,376.11 353.00,378.44
             356.32,380.28 365.02,382.20 369.00,383.00
             366.46,387.10 361.21,388.66 357.00,390.75 Z" />
</svg>
