<?xml version="1.0" encoding="UTF-8" standalone="no"?>
<!DOCTYPE svg PUBLIC "-//W3C//DTD SVG 20010904//EN"
              "http://www.w3.org/TR/2001/REC-SVG-20010904/DTD/svg10.dtd">

<svg xmlns="http://www.w3.org/2000/svg"
     width="9.72222in" height="9.72222in"
     viewBox="0 0 700 700">
  <path id="Selection"
        fill="none" stroke="black" stroke-width="1"
        d="M 700.00,0.00
           C 700.00,0.00 700.00,700.00 700.00,700.00
             700.00,700.00 0.00,700.00 0.00,700.00
             0.00,700.00 0.00,0.00 0.00,0.00
             0.00,0.00 700.00,0.00 700.00,0.00 Z
           M 367.00,177.80
           C 361.77,179.37 355.26,184.71 351.01,188.20
             347.24,191.30 343.93,194.30 341.98,199.00
             339.81,205.14 342.25,208.30 341.98,214.00
             341.38,219.80 340.04,220.93 340.00,229.00
             340.00,229.00 339.00,272.00 339.00,272.00
             339.09,279.57 341.58,284.78 336.86,291.96
             331.97,299.39 322.06,299.99 314.00,300.00
             314.00,300.00 219.00,300.00 219.00,300.00
             215.38,299.99 211.22,300.36 208.43,297.57
             205.13,294.27 206.15,288.31 205.96,284.00
             205.62,276.05 204.90,267.82 200.45,261.00
             196.43,254.84 189.59,250.03 182.00,250.08
             176.22,250.12 177.62,252.15 166.00,252.01
             155.02,251.88 155.50,252.67 147.00,258.59
             140.20,263.32 135.07,258.46 130.31,262.58
             125.71,266.59 128.66,275.58 131.03,280.00
             131.03,280.00 137.49,291.83 137.49,291.83
             143.08,298.76 148.37,298.81 150.24,310.00
             150.23,311.58 150.65,314.49 150.24,316.00
             149.52,325.31 136.33,332.61 130.09,338.32
             126.41,341.70 123.34,347.74 125.60,352.77
             128.16,358.47 136.94,353.99 141.79,357.60
             147.04,361.51 146.34,368.60 148.90,373.91
             152.95,382.31 159.96,382.26 163.24,395.00
             165.65,404.34 161.95,412.42 154.96,418.70
             154.96,418.70 144.42,427.18 144.42,427.18
             141.40,430.71 139.22,438.55 143.43,441.99
             145.85,443.97 159.28,444.86 162.91,444.95
             165.19,444.92 168.94,444.39 171.01,444.95
             176.58,446.63 176.57,451.95 182.02,454.57
             188.45,457.66 195.93,454.78 202.00,455.18
             209.17,455.66 219.88,456.78 222.43,448.00
             223.05,445.86 223.04,442.27 222.99,440.00
             222.99,440.00 222.17,432.00 222.17,432.00
             221.42,422.20 228.10,423.89 235.00,424.72
             235.00,424.72 242.00,425.28 242.00,425.28
             242.00,425.28 267.00,429.71 267.00,429.71
             276.03,430.90 284.91,430.99 294.00,431.00
             294.00,431.00 309.00,432.00 309.00,432.00
             315.55,432.07 331.91,432.34 336.78,436.51
             341.11,440.23 340.04,445.94 340.00,451.00
             339.90,465.60 340.10,472.42 341.85,487.00
             342.50,492.47 343.54,501.39 346.82,505.87
             348.73,508.48 351.17,509.44 354.00,510.77
             367.67,517.18 366.40,514.30 379.00,514.01
             379.00,514.01 389.00,514.68 389.00,514.68
             397.50,515.31 410.63,509.92 414.43,502.00
             416.23,498.25 416.67,486.74 417.17,482.00
             417.17,482.00 420.75,462.00 420.75,462.00
             421.47,457.70 421.76,447.22 424.65,444.57
             428.12,441.46 434.74,445.08 441.00,444.57
             441.00,444.57 459.00,442.73 459.00,442.73
             459.00,442.73 480.00,439.28 480.00,439.28
             480.00,439.28 493.00,438.71 493.00,438.71
             503.14,437.39 505.14,434.43 511.00,432.62
             511.00,432.62 522.00,430.16 522.00,430.16
             526.19,428.66 545.10,416.98 549.00,413.88
             558.56,406.28 557.64,403.23 561.21,400.60
             564.12,398.45 568.53,399.07 572.00,398.99
             580.21,398.78 592.33,394.30 590.76,384.00
             589.97,378.80 584.53,375.67 580.00,373.96
             577.64,373.07 574.69,372.98 573.17,370.69
             570.88,367.22 573.09,360.31 571.00,355.00
             567.60,346.34 553.58,332.44 545.83,327.05
             545.83,327.05 525.00,316.55 525.00,316.55
             525.00,316.55 514.00,313.29 514.00,313.29
             508.96,311.41 507.72,309.73 502.00,308.16
             493.89,305.94 489.95,308.12 485.02,305.55
             479.61,302.73 479.94,298.35 476.53,294.09
             474.18,291.16 462.41,281.47 459.00,279.25
             454.54,276.34 449.24,275.27 444.00,276.39
             440.34,277.16 436.94,279.73 434.23,278.65
             428.86,276.52 431.99,261.91 432.11,257.00
             432.11,257.00 432.11,238.00 432.11,238.00
             432.02,224.31 435.78,210.50 432.11,197.00
             428.99,183.92 414.02,175.11 401.00,176.28
             401.00,176.28 367.00,177.80 367.00,177.80 Z
           M 335.00,388.04
           C 335.00,388.04 323.00,388.04 323.00,388.04
             323.00,388.04 308.00,389.68 308.00,389.68
             308.00,389.68 292.00,388.00 292.00,388.00
             292.00,388.00 243.00,388.00 243.00,388.00
             238.58,387.95 224.07,388.63 221.28,386.40
             218.35,384.08 217.96,379.46 217.42,376.00
             217.42,376.00 213.87,351.00 213.87,351.00
             213.32,347.90 212.21,342.04 213.87,339.31
             216.21,336.03 221.71,337.14 225.00,337.58
             225.00,337.58 255.00,341.92 255.00,341.92
             255.00,341.92 280.00,345.00 280.00,345.00
             287.35,345.08 292.65,345.22 300.00,346.44
             300.00,346.44 314.00,350.12 314.00,350.12
             314.00,350.12 330.00,353.31 330.00,353.31
             334.04,355.29 336.05,358.71 339.28,361.37
             339.28,361.37 346.00,365.79 346.00,365.79
             346.00,365.79 352.00,370.91 352.00,370.91
             359.78,377.72 363.36,375.12 367.00,382.00
             356.37,384.39 345.99,387.98 335.00,388.04 Z" />
</svg>
