<?xml version="1.0" encoding="UTF-8" standalone="no"?>
<!DOCTYPE svg PUBLIC "-//W3C//DTD SVG 20010904//EN"
              "http://www.w3.org/TR/2001/REC-SVG-20010904/DTD/svg10.dtd">

<svg xmlns="http://www.w3.org/2000/svg"
     width="9.72222in" height="9.72222in"
     viewBox="0 0 700 700">
  <path id="Selection"
        fill="none" stroke="black" stroke-width="1"
        d="M 700.00,0.00
           C 700.00,0.00 700.00,700.00 700.00,700.00
             700.00,700.00 0.00,700.00 0.00,700.00
             0.00,700.00 0.00,0.00 0.00,0.00
             0.00,0.00 700.00,0.00 700.00,0.00 Z
           M 495.39,316.00
           C 495.39,316.00 487.90,304.83 487.90,304.83
             483.58,297.75 473.15,279.05 466.99,274.85
             463.67,272.59 460.66,272.18 457.00,270.92
             452.58,269.41 448.78,267.63 444.00,267.18
             444.00,267.18 426.00,268.00 426.00,268.00
             426.00,268.00 411.00,267.01 411.00,267.01
             411.00,267.01 397.00,268.00 397.00,268.00
             387.12,268.02 376.77,267.91 367.00,269.44
             367.00,269.44 339.00,278.09 339.00,278.09
             335.65,279.30 333.13,280.57 330.67,283.21
             328.29,285.77 326.24,290.00 322.91,291.13
             320.50,292.11 316.70,291.13 314.00,291.13
             310.22,290.92 308.48,291.50 305.00,291.83
             299.55,292.35 293.86,291.17 289.11,294.70
             282.12,299.89 283.37,313.95 288.28,318.58
             291.49,321.62 295.83,321.95 300.00,322.01
             304.57,322.05 320.21,320.50 322.79,322.01
             325.23,323.46 331.91,334.44 330.11,336.97
             328.44,339.32 323.56,338.99 321.00,338.95
             321.00,338.95 234.00,338.95 234.00,338.95
             228.64,339.01 221.63,340.66 217.00,338.95
             211.77,336.82 204.25,328.41 200.61,324.00
             200.61,324.00 178.13,296.00 178.13,296.00
             174.61,291.83 171.65,287.00 167.00,283.97
             155.56,276.52 148.60,281.86 137.00,282.11
             137.00,282.11 129.00,282.11 129.00,282.11
             127.55,282.49 126.36,282.86 125.14,283.74
             123.32,285.05 122.29,286.85 121.76,289.00
             119.70,297.42 126.98,301.39 129.78,308.00
             129.78,308.00 131.96,316.00 131.96,316.00
             131.96,316.00 136.08,325.00 136.08,325.00
             136.08,325.00 139.45,334.91 139.45,334.91
             141.20,339.29 143.81,340.25 145.34,344.00
             146.63,347.17 145.86,350.68 146.05,354.00
             146.53,362.79 153.54,363.83 151.51,369.17
             149.26,375.12 135.43,387.65 131.42,393.00
             128.60,396.74 126.53,402.70 130.43,406.49
             132.80,408.79 141.92,410.45 146.00,412.15
             146.00,412.15 158.00,417.37 158.00,417.37
             162.58,419.95 165.27,422.96 171.00,422.87
             180.85,422.71 185.28,415.98 192.00,410.21
             197.74,405.28 208.67,398.64 216.00,396.63
             221.37,395.16 226.67,397.18 232.00,397.85
             232.00,397.85 260.00,400.00 260.00,400.00
             272.55,400.15 282.16,403.46 294.00,405.54
             294.00,405.54 325.00,408.30 325.00,408.30
             325.00,408.30 345.00,413.39 345.00,413.39
             345.00,413.39 364.00,415.42 364.00,415.42
             364.00,415.42 383.00,419.26 383.00,419.26
             389.61,420.05 389.98,418.66 398.00,420.50
             411.80,423.66 425.75,434.73 433.00,437.32
             440.58,440.02 449.16,438.04 457.00,438.00
             457.00,438.00 470.00,438.00 470.00,438.00
             480.55,437.87 487.30,434.68 497.00,432.51
             497.00,432.51 514.00,430.18 514.00,430.18
             521.11,428.67 522.40,426.76 528.00,424.65
             528.00,424.65 540.00,420.26 540.00,420.26
             551.68,414.11 553.09,409.27 560.00,406.00
             561.05,407.62 561.13,408.17 563.14,408.96
             567.07,410.51 579.51,408.68 582.57,405.57
             585.04,403.06 585.13,399.31 584.96,396.00
             584.75,392.00 583.73,388.57 579.90,386.65
             577.02,385.20 572.67,385.44 571.01,382.69
             570.11,380.92 570.80,377.99 571.01,376.00
             571.14,372.05 570.85,368.54 568.93,365.00
             564.28,356.46 548.96,344.07 540.00,340.21
             540.00,340.21 529.00,336.92 529.00,336.92
             519.94,333.83 519.10,332.02 509.00,332.00
             509.00,332.00 503.00,332.00 503.00,332.00
             502.55,322.29 500.88,323.04 495.39,316.00 Z" />
</svg>
