<?xml version="1.0" encoding="UTF-8" standalone="no"?>
<!DOCTYPE svg PUBLIC "-//W3C//DTD SVG 20010904//EN"
              "http://www.w3.org/TR/2001/REC-SVG-20010904/DTD/svg10.dtd">

<svg xmlns="http://www.w3.org/2000/svg"
     width="9.72222in" height="9.72222in"
     viewBox="0 0 700 700">
  <path id="Selection"
        fill="none" stroke="black" stroke-width="1"
        d="M 700.00,0.00
           C 700.00,0.00 700.00,700.00 700.00,700.00
             700.00,700.00 0.00,700.00 0.00,700.00
             0.00,700.00 0.00,0.00 0.00,0.00
             0.00,0.00 700.00,0.00 700.00,0.00 Z
           M 540.00,278.76
           C 540.00,278.76 529.00,274.91 529.00,274.91
             524.23,272.97 522.52,270.96 517.00,269.68
             517.00,269.68 502.00,267.34 502.00,267.34
             502.00,267.34 489.00,263.24 489.00,263.24
             484.73,262.20 468.71,261.01 464.00,261.00
             464.00,261.00 431.00,261.53 431.00,261.53
             424.62,263.00 421.71,267.02 413.00,268.69
             413.00,268.69 394.00,270.46 394.00,270.46
             387.26,271.68 380.91,274.97 374.00,275.20
             374.00,275.20 366.00,275.20 366.00,275.20
             351.42,274.71 346.56,280.28 335.00,282.71
             335.00,282.71 309.00,285.43 309.00,285.43
             294.90,287.45 278.02,291.93 264.00,292.00
             254.23,292.05 244.58,293.30 235.00,295.20
             230.24,296.15 221.46,298.62 217.00,297.35
             209.51,295.22 195.01,285.84 189.00,280.70
             184.53,276.88 180.85,271.67 175.00,269.94
             169.84,268.42 165.10,270.00 160.00,271.00
             157.69,271.45 152.98,272.08 151.13,273.17
             141.34,278.94 154.39,290.58 152.75,294.85
             151.70,297.60 148.45,297.81 146.00,298.15
             140.35,298.93 129.33,298.32 127.61,305.04
             126.33,310.02 129.54,314.34 132.40,318.00
             132.40,318.00 142.09,329.96 142.09,329.96
             144.89,332.85 148.75,335.41 150.54,339.01
             153.98,345.92 147.63,349.41 145.65,356.00
             144.45,359.95 145.47,364.71 144.57,368.00
             143.42,372.21 140.17,374.26 138.13,378.00
             138.13,378.00 131.46,393.00 131.46,393.00
             131.46,393.00 128.56,401.00 128.56,401.00
             125.59,406.79 119.75,411.58 122.74,418.96
             124.72,423.86 128.61,423.69 133.00,424.16
             133.00,424.16 156.00,425.00 156.00,425.00
             172.44,424.80 176.90,412.81 186.21,401.00
             186.21,401.00 207.00,377.00 207.00,377.00
             209.97,374.04 213.97,370.05 218.00,368.90
             221.37,367.58 229.55,368.99 234.00,368.90
             234.00,368.90 279.00,368.90 279.00,368.90
             279.00,368.90 294.00,368.00 294.00,368.00
             294.00,368.00 314.00,368.00 314.00,368.00
             316.92,368.00 322.30,367.91 324.80,369.43
             329.07,372.03 323.60,377.42 320.91,378.18
             320.91,378.18 302.00,378.18 302.00,378.18
             297.02,378.06 291.01,378.80 287.37,382.53
             283.55,386.34 283.94,397.76 287.37,401.79
             291.82,406.85 305.36,408.12 311.83,407.76
             314.51,407.80 319.81,406.91 322.00,407.76
             325.81,408.90 327.83,412.95 331.09,415.51
             333.81,417.63 344.48,422.42 348.00,423.41
             348.00,423.41 358.00,425.49 358.00,425.49
             366.13,427.67 371.09,429.97 380.00,430.96
             380.00,430.96 390.00,430.96 390.00,430.96
             390.00,430.96 412.00,432.00 412.00,432.00
             412.00,432.00 430.00,431.00 430.00,431.00
             443.54,431.16 443.41,434.41 458.00,427.77
             458.00,427.77 465.96,424.01 465.96,424.01
             472.06,419.98 482.91,402.03 486.98,395.17
             486.98,395.17 501.40,376.00 501.40,376.00
             502.12,374.05 501.99,371.10 502.00,368.78
             502.00,368.78 511.00,368.78 511.00,368.78
             520.08,368.32 521.80,366.55 530.00,363.69
             542.54,359.32 547.77,357.91 558.16,348.38
             564.94,342.17 570.88,336.63 571.00,327.00
             571.03,324.46 570.41,318.47 571.91,316.58
             573.44,314.65 577.42,314.55 579.98,313.35
             585.34,310.83 586.48,305.44 585.89,300.00
             585.65,297.78 585.22,296.25 583.57,294.64
             579.81,290.96 566.90,288.51 562.29,291.31
             560.80,292.22 560.81,292.70 560.00,294.00
             555.18,291.52 549.73,283.89 540.00,278.76 Z" />
</svg>
