<?xml version="1.0" encoding="UTF-8" standalone="no"?>
<!DOCTYPE svg PUBLIC "-//W3C//DTD SVG 20010904//EN"
              "http://www.w3.org/TR/2001/REC-SVG-20010904/DTD/svg10.dtd">

<svg xmlns="http://www.w3.org/2000/svg"
     width="9.72222in" height="9.72222in"
     viewBox="0 0 700 700">
  <path id="Selection"
        fill="none" stroke="black" stroke-width="1"
        d="M 700.00,0.00
           C 700.00,0.00 700.00,700.00 700.00,700.00
             700.00,700.00 0.00,700.00 0.00,700.00
             0.00,700.00 0.00,0.00 0.00,0.00
             0.00,0.00 700.00,0.00 700.00,0.00 Z
           M 348.42,226.11
           C 342.67,232.89 342.64,245.61 341.83,254.00
             341.83,254.00 339.96,269.00 339.96,269.00
             339.90,272.13 340.79,280.97 339.96,282.98
             338.15,286.87 333.38,288.37 330.32,291.34
             322.50,298.93 327.38,300.04 315.00,300.00
             315.00,300.00 307.00,300.00 307.00,300.00
             304.08,300.04 295.63,300.88 293.00,301.63
             290.21,302.43 287.96,304.07 285.00,304.32
             285.00,304.32 268.00,303.00 268.00,303.00
             268.00,303.00 255.00,304.00 255.00,304.00
             255.00,304.00 233.00,304.00 233.00,304.00
             229.44,303.95 224.29,303.66 223.19,299.38
             222.58,297.04 224.89,292.60 225.47,290.00
             226.60,284.99 225.65,273.20 221.58,269.72
             217.77,266.46 210.66,267.23 206.00,266.91
             202.05,266.64 199.19,265.64 195.00,266.21
             191.88,266.63 187.83,268.62 185.00,268.27
             181.29,267.81 179.02,264.56 176.00,262.73
             173.17,261.02 171.18,261.05 168.00,261.00
             168.00,261.00 146.00,261.00 146.00,261.00
             139.21,261.08 131.77,262.19 132.91,271.00
             133.25,273.63 134.38,276.57 135.97,278.70
             138.12,281.59 140.88,282.87 143.00,286.09
             145.22,289.47 144.83,292.00 149.34,298.00
             156.37,307.35 158.43,306.28 163.13,318.00
             164.75,322.03 168.38,326.74 167.31,331.00
             166.68,333.49 164.73,335.99 163.18,338.00
             161.43,340.27 158.27,344.47 155.83,345.83
             153.17,347.30 149.93,346.88 147.00,347.09
             147.00,347.09 129.00,348.00 129.00,348.00
             120.95,348.01 112.86,349.45 115.79,360.00
             117.94,367.70 122.62,368.15 126.51,373.09
             126.51,373.09 132.35,383.00 132.35,383.00
             142.11,396.24 146.53,397.71 153.19,414.00
             158.42,426.78 140.19,423.19 137.43,433.02
             136.44,436.53 136.62,441.61 140.15,443.57
             143.69,445.53 149.29,444.34 150.15,450.04
             150.44,451.98 149.42,457.09 150.65,461.00
             153.49,470.08 161.34,473.17 170.00,472.78
             170.00,472.78 177.00,472.78 177.00,472.78
             188.48,472.57 199.39,474.74 204.66,461.00
             204.66,461.00 207.76,437.00 207.76,437.00
             208.41,433.27 209.58,428.79 213.10,426.70
             216.30,424.81 221.39,427.73 225.00,428.57
             225.00,428.57 251.00,431.00 251.00,431.00
             272.88,431.25 294.32,432.60 316.00,435.73
             318.74,436.12 323.43,436.93 326.00,436.79
             329.45,436.61 333.60,435.02 336.57,437.60
             339.20,439.88 338.98,443.84 339.00,447.00
             339.00,447.00 339.00,466.00 339.00,466.00
             339.00,466.00 339.00,482.00 339.00,482.00
             339.00,482.00 339.96,494.00 339.96,494.00
             339.96,494.00 339.96,506.00 339.96,506.00
             340.02,517.08 342.26,517.35 342.29,523.00
             342.29,523.00 342.29,530.00 342.29,530.00
             341.48,544.92 354.72,555.93 369.00,556.00
             369.00,556.00 391.00,556.00 391.00,556.00
             405.41,556.17 414.44,560.95 425.81,548.00
             427.67,545.88 429.24,543.69 430.15,541.00
             431.12,538.12 431.00,535.00 431.00,532.00
             431.00,532.00 431.00,453.00 431.00,453.00
             431.04,450.18 431.03,445.66 433.51,443.71
             436.05,441.82 441.88,443.68 445.00,443.71
             445.00,443.71 463.00,440.87 463.00,440.87
             469.79,439.93 476.12,439.01 483.00,439.00
             496.06,438.97 495.18,436.84 506.00,433.10
             506.00,433.10 519.00,429.90 519.00,429.90
             519.00,429.90 535.00,421.08 535.00,421.08
             550.20,410.59 555.30,400.40 558.51,397.26
             563.84,392.07 577.74,398.34 579.83,387.00
             579.96,385.95 579.99,384.06 579.83,383.00
             579.01,373.99 572.13,376.77 569.17,371.86
             567.74,369.48 567.55,362.28 563.59,355.00
             557.77,344.29 542.81,331.40 532.00,325.74
             532.00,325.74 509.00,316.53 509.00,316.53
             504.07,315.39 499.22,316.91 495.32,314.15
             487.27,308.43 480.20,285.54 467.00,278.09
             462.75,275.68 443.36,272.92 438.00,273.02
             432.86,273.12 422.02,275.59 418.56,271.69
             416.22,269.04 416.01,255.99 416.00,252.00
             415.99,247.14 416.45,240.49 414.89,236.00
             409.89,221.61 395.29,219.05 382.00,220.28
             372.28,221.68 354.71,218.67 348.42,226.11 Z
           M 247.00,340.92
           C 247.00,340.92 293.00,346.00 293.00,346.00
             307.63,346.02 301.81,346.81 314.00,348.57
             317.75,349.11 321.65,348.65 325.00,350.74
             328.72,353.07 330.66,356.85 335.04,359.90
             335.04,359.90 343.00,364.63 343.00,364.63
             343.00,364.63 350.00,370.31 350.00,370.31
             352.67,372.09 356.56,373.14 358.68,375.39
             361.78,378.67 360.35,381.51 356.94,383.64
             353.32,385.90 349.02,386.07 345.00,387.16
             340.22,388.45 336.15,390.50 331.00,390.79
             331.00,390.79 322.00,390.02 322.00,390.02
             322.00,390.02 305.00,390.02 305.00,390.02
             305.00,390.02 290.00,391.00 290.00,391.00
             290.00,391.00 232.00,391.00 232.00,391.00
             227.76,391.01 217.54,392.57 215.03,388.69
             213.07,385.67 215.30,380.21 216.11,377.00
             217.84,370.06 220.14,360.02 220.41,353.00
             220.63,347.07 218.15,342.62 223.23,338.06
             227.52,336.82 240.84,340.42 247.00,340.92 Z" />
</svg>
