<?xml version="1.0" encoding="UTF-8" standalone="no"?>
<!DOCTYPE svg PUBLIC "-//W3C//DTD SVG 20010904//EN"
              "http://www.w3.org/TR/2001/REC-SVG-20010904/DTD/svg10.dtd">

<svg xmlns="http://www.w3.org/2000/svg"
     width="9.72222in" height="9.72222in"
     viewBox="0 0 700 700">
  <path id="Selection"
        fill="none" stroke="black" stroke-width="1"
        d="M 700.00,0.00
           C 700.00,0.00 700.00,700.00 700.00,700.00
             700.00,700.00 0.00,700.00 0.00,700.00
             0.00,700.00 0.00,0.00 0.00,0.00
             0.00,0.00 700.00,0.00 700.00,0.00 Z
           M 549.96,285.32
           C 541.71,278.10 538.61,278.45 530.00,274.65
             530.00,274.65 521.00,270.47 521.00,270.47
             521.00,270.47 505.00,267.51 505.00,267.51
             505.00,267.51 491.00,262.68 491.00,262.68
             491.00,262.68 467.00,260.91 467.00,260.91
             467.00,260.91 440.00,259.32 440.00,259.32
             440.00,259.32 420.00,262.78 420.00,262.78
             413.52,262.45 411.74,256.75 407.82,253.65
             403.75,250.42 395.13,248.80 390.00,249.09
             386.53,249.29 384.80,250.09 381.00,249.82
             381.00,249.82 369.00,248.45 369.00,248.45
             364.19,248.36 352.85,251.74 349.10,254.65
             339.97,261.73 347.16,272.80 336.00,276.35
             336.00,276.35 320.00,278.00 320.00,278.00
             320.00,278.00 285.00,284.00 285.00,284.00
             285.00,284.00 271.00,285.04 271.00,285.04
             271.00,285.04 262.00,285.04 262.00,285.04
             262.00,285.04 235.00,289.57 235.00,289.57
             223.88,291.15 224.09,286.37 217.96,284.10
             210.46,281.86 207.37,286.74 201.00,284.10
             195.28,281.28 186.49,271.07 180.00,267.12
             171.88,262.73 168.08,265.21 160.00,267.12
             160.00,267.12 151.06,268.42 151.06,268.42
             145.83,270.11 145.93,275.68 147.61,280.00
             151.08,288.88 158.83,294.31 164.89,301.01
             166.75,303.06 169.70,306.65 167.64,309.52
             165.51,312.51 161.28,308.74 156.00,307.53
             148.95,305.91 145.23,308.16 139.00,308.83
             135.98,309.15 131.76,308.63 129.15,310.17
             124.19,313.10 126.34,319.98 128.52,324.00
             131.80,330.08 136.84,337.25 142.00,341.82
             145.51,344.93 151.42,347.69 151.26,353.00
             151.26,353.00 145.33,373.00 145.33,373.00
             144.61,377.14 145.63,381.93 143.98,384.89
             142.03,388.39 138.45,388.60 135.42,392.13
             132.37,395.68 131.80,400.78 130.07,405.00
             127.26,411.87 118.20,419.77 124.72,427.61
             127.71,431.20 131.89,430.79 136.00,431.09
             136.00,431.09 155.00,432.00 155.00,432.00
             168.36,431.84 169.65,426.98 178.02,418.00
             180.73,415.10 188.14,406.97 190.01,404.00
             194.23,397.31 195.00,392.02 202.01,386.46
             204.81,384.24 214.82,377.78 218.00,376.90
             225.22,374.57 249.61,377.11 259.00,376.90
             259.00,376.90 274.00,376.00 274.00,376.00
             274.00,376.00 304.00,376.00 304.00,376.00
             313.27,375.89 316.21,372.77 325.00,378.00
             325.00,378.00 317.00,377.05 317.00,377.05
             317.00,377.05 300.00,377.05 300.00,377.05
             285.26,377.21 280.73,391.85 287.65,399.47
             293.36,405.76 305.13,406.07 313.00,406.15
             315.18,405.98 319.10,405.57 320.99,406.15
             324.50,407.68 326.14,411.55 330.04,413.69
             333.60,415.64 338.26,415.15 341.90,417.30
             345.17,419.23 345.65,421.69 350.04,424.96
             357.00,430.12 365.48,431.96 374.00,432.08
             374.00,432.08 390.00,432.08 390.00,432.08
             396.83,432.82 403.01,434.58 410.00,433.83
             419.74,432.79 427.06,427.88 430.00,427.83
             434.07,427.76 434.46,430.76 442.00,430.98
             449.27,431.20 451.53,430.41 458.00,427.24
             460.44,426.05 464.88,424.11 466.82,422.51
             473.55,416.92 482.31,401.47 487.63,394.00
             487.63,394.00 497.71,382.58 497.71,382.58
             502.98,376.68 501.24,373.41 507.02,370.85
             513.49,367.98 520.37,369.87 527.00,368.07
             527.00,368.07 536.00,364.45 536.00,364.45
             536.00,364.45 547.00,360.25 547.00,360.25
             552.95,356.97 565.05,344.81 568.75,339.00
             570.87,335.65 571.99,331.98 571.91,328.00
             571.65,325.08 570.28,320.96 571.91,318.31
             573.86,315.52 577.33,316.34 580.98,314.85
             586.54,312.60 587.27,308.45 586.96,303.00
             586.16,289.06 565.01,290.27 561.29,292.93
             559.80,294.00 559.79,294.58 559.00,296.00
             556.00,292.46 553.46,288.39 549.96,285.32 Z
           M 240.00,334.17
           C 240.00,334.17 231.00,336.11 231.00,336.11
             228.44,336.69 218.63,338.57 218.63,334.00
             218.63,330.44 228.23,328.73 231.00,328.29
             240.09,326.88 245.02,327.01 254.00,327.00
             260.73,326.99 268.22,324.57 274.00,329.00
             262.36,334.10 252.01,332.89 240.00,334.17 Z" />
</svg>
