<?xml version="1.0" encoding="UTF-8" standalone="no"?>
<!DOCTYPE svg PUBLIC "-//W3C//DTD SVG 20010904//EN"
              "http://www.w3.org/TR/2001/REC-SVG-20010904/DTD/svg10.dtd">

<svg xmlns="http://www.w3.org/2000/svg"
     width="9.72222in" height="9.72222in"
     viewBox="0 0 700 700">
  <path id="Selection"
        fill="none" stroke="black" stroke-width="1"
        d="M 700.00,0.00
           C 700.00,0.00 700.00,700.00 700.00,700.00
             700.00,700.00 0.00,700.00 0.00,700.00
             0.00,700.00 0.00,0.00 0.00,0.00
             0.00,0.00 700.00,0.00 700.00,0.00 Z
           M 539.00,277.99
           C 539.00,277.99 531.00,274.63 531.00,274.63
             526.55,272.44 525.22,271.00 520.00,269.44
             520.00,269.44 510.00,267.48 510.00,267.48
             510.00,267.48 494.00,262.01 494.00,262.01
             494.00,262.01 460.00,259.91 460.00,259.91
             460.00,259.91 438.01,257.03 438.01,257.03
             428.79,256.96 427.41,259.87 423.00,259.98
             419.54,260.06 417.36,258.27 416.43,254.98
             415.24,250.81 417.59,242.53 411.61,235.02
             406.84,229.03 397.49,226.35 390.00,226.34
             390.00,226.34 381.00,227.00 381.00,227.00
             370.42,227.12 351.48,224.58 345.72,236.02
             343.82,239.79 341.34,250.76 341.34,255.00
             341.33,259.09 343.58,265.02 337.87,269.11
             334.79,271.32 317.49,274.55 313.00,275.05
             313.00,275.05 286.00,277.17 286.00,277.17
             286.00,277.17 264.00,280.58 264.00,280.58
             264.00,280.58 236.01,284.01 236.01,284.01
             233.24,284.09 228.73,284.69 226.41,283.00
             221.76,279.61 225.18,270.74 216.98,268.58
             214.55,267.74 208.39,267.82 206.04,268.58
             201.53,270.50 201.68,274.03 196.00,272.21
             185.94,268.99 182.18,263.27 177.00,261.78
             171.59,259.96 164.52,261.53 159.00,261.78
             154.93,262.19 149.64,261.40 146.43,264.51
             142.23,268.58 145.42,276.15 148.39,280.00
             148.39,280.00 161.17,294.00 161.17,294.00
             163.12,296.18 166.51,299.21 167.31,302.00
             167.96,304.28 167.03,306.83 166.33,309.00
             162.21,321.70 159.04,316.58 149.00,318.33
             149.00,318.33 139.00,320.90 139.00,320.90
             134.46,321.32 127.71,319.62 125.60,325.06
             123.98,329.25 126.86,334.76 129.39,338.00
             133.99,343.88 147.59,355.16 149.21,362.00
             149.78,364.10 149.34,365.92 149.21,368.00
             148.14,380.22 148.56,375.91 144.82,387.00
             143.78,390.09 143.62,393.02 141.35,395.61
             138.19,399.22 132.70,399.48 130.74,404.10
             130.74,404.10 129.20,413.00 129.20,413.00
             127.33,419.07 119.92,426.41 127.23,432.44
             131.19,435.71 139.07,434.95 144.00,435.00
             144.00,435.00 154.00,435.82 154.00,435.82
             159.41,435.81 169.53,432.61 173.70,429.20
             178.13,425.58 180.00,420.20 183.21,417.43
             187.24,413.94 191.72,415.20 196.15,408.96
             200.74,402.48 202.00,391.31 209.04,386.85
             212.64,384.58 220.71,384.02 225.00,384.00
             225.00,384.00 276.00,384.00 276.00,384.00
             278.39,384.00 282.59,383.67 284.31,385.60
             285.80,387.27 285.12,389.76 285.41,392.00
             285.90,395.72 287.58,398.69 291.04,400.35
             293.82,401.68 304.68,402.66 308.00,402.66
             311.22,402.66 314.50,401.62 318.00,402.15
             322.96,402.89 325.12,406.64 329.00,409.35
             331.89,411.38 335.25,412.16 337.43,414.41
             340.45,417.52 340.15,421.05 340.60,425.01
             341.38,431.88 341.36,442.95 344.19,449.00
             346.76,454.49 350.96,456.35 356.00,459.14
             366.07,464.71 371.34,464.01 382.00,465.28
             390.21,466.26 393.41,467.01 402.00,467.00
             414.59,466.98 430.05,461.10 434.16,448.00
             435.53,443.63 434.81,433.30 435.00,428.00
             439.08,428.19 444.68,429.82 448.00,429.12
             450.09,428.68 464.39,422.78 465.91,421.57
             471.38,417.23 477.11,407.69 481.35,402.00
             481.35,402.00 491.45,390.58 491.45,390.58
             495.26,386.09 495.07,381.71 499.13,378.72
             502.96,375.91 511.03,375.87 516.00,374.27
             516.00,374.27 525.00,371.04 525.00,371.04
             525.00,371.04 536.00,368.25 536.00,368.25
             545.61,365.07 556.06,356.49 562.71,348.99
             566.19,345.06 570.98,339.28 571.92,334.00
             572.65,328.44 570.46,324.03 571.92,321.30
             573.52,318.81 577.47,318.40 580.00,317.44
             585.68,315.29 589.61,311.50 588.77,305.00
             587.43,294.50 571.45,291.21 563.00,293.42
             560.73,294.01 559.87,294.76 558.00,296.00
             553.60,288.18 547.04,282.08 539.00,277.99 Z
           M 301.00,333.16
           C 301.00,333.16 268.00,337.29 268.00,337.29
             258.89,338.49 252.45,339.89 243.00,340.00
             239.72,340.04 229.97,341.03 227.00,341.90
             223.92,342.81 219.40,344.98 216.31,342.97
             213.18,340.94 214.05,335.95 215.13,333.00
             218.16,324.73 221.86,323.02 230.00,323.00
             230.00,323.00 250.00,323.00 250.00,323.00
             250.00,323.00 278.00,321.00 278.00,321.00
             278.00,321.00 311.00,321.00 311.00,321.00
             320.05,321.00 338.41,319.48 346.00,323.00
             346.00,323.00 346.00,325.00 346.00,325.00
             336.82,329.45 312.03,331.98 301.00,333.16 Z" />
</svg>
