<?xml version="1.0" encoding="UTF-8" standalone="no"?>
<!DOCTYPE svg PUBLIC "-//W3C//DTD SVG 20010904//EN"
              "http://www.w3.org/TR/2001/REC-SVG-20010904/DTD/svg10.dtd">

<svg xmlns="http://www.w3.org/2000/svg"
     width="9.72222in" height="9.72222in"
     viewBox="0 0 700 700">
  <path id="Selection"
        fill="none" stroke="black" stroke-width="1"
        d="M 700.00,0.00
           C 700.00,0.00 700.00,700.00 700.00,700.00
             700.00,700.00 0.00,700.00 0.00,700.00
             0.00,700.00 0.00,0.00 0.00,0.00
             0.00,0.00 700.00,0.00 700.00,0.00 Z
           M 534.00,275.37
           C 534.00,275.37 525.00,270.35 525.00,270.35
             525.00,270.35 513.00,266.90 513.00,266.90
             508.35,265.31 505.11,263.20 500.00,262.12
             500.00,262.12 473.00,259.57 473.00,259.57
             462.66,258.09 452.53,255.12 442.00,255.09
             442.00,255.09 435.00,255.09 435.00,255.09
             431.54,255.54 426.11,257.74 423.11,256.50
             418.56,254.63 419.15,249.01 418.57,245.00
             418.57,245.00 416.17,231.00 416.17,231.00
             415.52,224.49 416.59,219.00 411.61,213.59
             408.78,210.52 405.03,207.95 401.00,206.79
             396.27,205.42 369.72,205.92 363.00,206.00
             358.96,206.05 354.49,206.37 351.04,208.72
             342.66,214.44 342.54,227.95 341.91,237.00
             341.91,237.00 340.44,252.00 340.44,252.00
             340.35,257.39 342.50,260.36 340.44,263.89
             336.48,269.70 321.39,268.93 315.00,269.00
             315.00,269.00 261.00,276.00 261.00,276.00
             261.00,276.00 237.00,277.18 237.00,277.18
             233.94,277.55 228.86,279.54 226.14,278.82
             222.72,277.93 222.88,274.84 223.05,272.00
             223.33,267.50 223.79,261.86 220.57,258.22
             215.53,252.52 208.67,255.09 204.00,254.79
             204.00,254.79 197.00,253.46 197.00,253.46
             185.87,251.53 185.33,257.95 180.00,259.22
             176.65,260.02 173.19,257.37 170.00,256.72
             165.91,255.89 161.97,258.03 158.00,258.68
             158.00,258.68 148.05,259.43 148.05,259.43
             145.96,260.05 144.74,261.07 143.89,263.11
             141.52,268.82 145.27,274.09 149.02,278.00
             154.60,283.82 164.47,291.47 164.96,300.00
             165.36,307.08 163.96,309.92 160.89,316.00
             157.40,322.94 156.24,326.84 148.00,329.87
             139.17,333.11 122.76,326.76 124.52,339.00
             126.43,352.28 147.50,359.30 149.52,372.00
             149.89,374.32 148.81,387.97 147.84,390.00
             144.64,396.72 139.10,398.64 136.07,402.38
             130.89,408.75 127.36,418.81 127.04,427.00
             126.91,430.27 126.87,433.93 129.43,436.35
             132.90,439.63 139.51,439.05 144.00,439.00
             153.74,438.88 162.41,433.09 172.00,432.13
             177.97,431.53 187.78,435.31 194.67,428.66
             198.95,424.53 203.33,413.90 204.47,408.01
             205.33,403.60 203.82,397.98 207.43,394.51
             210.36,391.70 215.23,392.01 219.00,392.00
             219.00,392.00 280.00,392.00 280.00,392.00
             282.99,392.00 287.10,391.80 289.74,393.31
             292.56,394.93 292.78,397.36 297.02,398.97
             302.76,401.15 317.86,401.49 324.00,400.00
             324.75,402.47 325.27,405.25 327.43,406.91
             331.06,409.71 337.35,407.97 339.31,415.02
             339.31,415.02 340.00,431.00 340.00,431.00
             340.00,431.00 340.00,446.00 340.00,446.00
             340.00,446.00 341.83,462.00 341.83,462.00
             342.24,466.29 341.46,470.98 342.99,475.00
             345.09,480.49 348.69,482.60 353.00,486.09
             356.07,488.59 359.32,491.48 363.00,493.01
             370.07,495.96 378.55,494.70 386.00,494.88
             386.00,494.88 404.00,496.00 404.00,496.00
             408.91,495.94 410.36,495.58 415.00,494.00
             418.56,492.78 420.96,491.81 424.00,489.47
             430.50,484.45 435.21,475.33 434.79,467.00
             434.79,467.00 433.08,455.00 433.08,455.00
             433.08,455.00 433.08,444.00 433.08,444.00
             432.94,439.34 430.51,428.80 433.60,425.33
             436.96,421.60 441.57,425.81 448.00,425.33
             463.75,424.12 466.89,417.04 476.72,406.01
             476.72,406.01 486.32,395.99 486.32,395.99
             489.87,391.42 489.79,388.83 492.30,386.70
             495.33,384.13 501.14,383.89 505.00,382.96
             505.00,382.96 518.00,378.52 518.00,378.52
             518.00,378.52 528.00,376.07 528.00,376.07
             531.86,374.92 534.46,373.04 538.00,371.27
             550.68,364.94 556.16,362.06 564.85,350.00
             567.25,346.66 570.21,342.99 571.36,339.00
             572.35,335.61 572.00,326.04 572.00,322.00
             575.01,321.99 578.15,322.16 581.00,320.99
             587.13,318.48 592.57,309.53 588.83,303.21
             585.98,298.40 570.11,295.68 565.00,296.36
             562.58,296.69 561.03,297.80 559.00,299.00
             554.38,286.42 545.25,281.35 534.00,275.37 Z
           M 376.34,320.87
           C 375.57,323.23 373.14,324.21 371.00,324.95
             371.00,324.95 364.00,327.06 364.00,327.06
             360.04,328.75 358.83,330.11 354.00,331.56
             354.00,331.56 342.00,334.23 342.00,334.23
             342.00,334.23 327.00,337.91 327.00,337.91
             327.00,337.91 303.00,341.13 303.00,341.13
             303.00,341.13 283.00,345.71 283.00,345.71
             283.00,345.71 254.00,348.17 254.00,348.17
             254.00,348.17 230.28,350.47 230.28,350.47
             226.26,351.09 220.85,353.37 217.11,352.85
             210.41,351.92 213.88,341.23 214.88,337.00
             216.20,331.46 217.19,319.07 222.13,316.31
             224.81,314.82 228.99,315.00 232.00,315.00
             232.00,315.00 336.00,315.00 336.00,315.00
             346.37,315.13 352.29,320.20 359.00,319.86
             363.49,319.63 367.01,316.68 371.00,314.98
             374.50,314.92 377.67,316.79 376.34,320.87 Z" />
</svg>
