<?xml version="1.0" encoding="UTF-8" standalone="no"?>
<!DOCTYPE svg PUBLIC "-//W3C//DTD SVG 20010904//EN"
              "http://www.w3.org/TR/2001/REC-SVG-20010904/DTD/svg10.dtd">

<svg xmlns="http://www.w3.org/2000/svg"
     width="9.72222in" height="9.72222in"
     viewBox="0 0 700 700">
  <path id="Selection"
        fill="none" stroke="black" stroke-width="1"
        d="M 700.00,0.00
           C 700.00,0.00 700.00,700.00 700.00,700.00
             700.00,700.00 0.00,700.00 0.00,700.00
             0.00,700.00 0.00,0.00 0.00,0.00
             0.00,0.00 700.00,0.00 700.00,0.00 Z
           M 448.00,422.95
           C 456.86,422.77 468.89,412.97 474.87,406.83
             480.30,401.26 479.10,396.94 484.05,394.17
             484.05,394.17 502.00,390.90 502.00,390.90
             502.00,390.90 513.00,385.83 513.00,385.83
             513.00,385.83 522.00,383.53 522.00,383.53
             522.00,383.53 543.00,373.73 543.00,373.73
             552.64,367.87 561.56,358.14 568.08,349.00
             575.00,339.28 570.26,334.65 572.74,329.15
             574.21,325.87 578.02,325.85 581.00,324.75
             587.41,322.39 592.07,318.42 590.77,311.00
             588.32,296.99 566.54,302.34 561.21,298.40
             558.97,296.75 556.95,292.66 554.67,290.17
             552.02,287.26 544.43,281.27 541.00,279.09
             541.00,279.09 523.00,269.22 523.00,269.22
             523.00,269.22 514.00,266.90 514.00,266.90
             508.58,265.03 506.61,263.08 500.00,261.67
             500.00,261.67 480.00,259.57 480.00,259.57
             466.58,257.58 467.79,255.18 452.00,255.00
             452.00,255.00 437.00,254.13 437.00,254.13
             433.48,254.50 428.32,256.02 425.13,254.13
             420.28,251.17 421.48,243.05 420.71,238.00
             420.71,238.00 416.28,209.00 416.28,209.00
             415.60,203.26 416.64,199.09 412.58,194.09
             406.41,186.47 396.43,183.64 387.00,184.04
             387.00,184.04 379.00,184.82 379.00,184.82
             379.00,184.82 370.00,184.01 370.00,184.01
             362.38,183.84 352.71,186.06 347.70,192.32
             344.24,196.65 343.50,205.57 342.85,211.00
             341.17,225.00 339.83,229.25 340.00,244.00
             340.06,249.04 342.20,255.66 339.26,259.89
             336.16,264.36 329.01,264.75 324.00,265.88
             315.30,267.84 310.76,267.99 302.00,268.00
             302.00,268.00 290.00,268.96 290.00,268.96
             290.00,268.96 275.00,268.96 275.00,268.96
             266.18,269.11 248.15,272.12 239.00,273.75
             235.12,274.44 227.60,277.07 224.24,274.98
             219.88,272.26 222.64,264.21 222.91,260.00
             223.80,245.99 217.78,243.02 205.00,243.00
             199.50,242.99 187.68,242.30 183.04,244.29
             177.34,246.73 178.34,250.34 174.73,253.11
             171.50,255.58 167.73,254.88 164.00,254.87
             164.00,254.87 155.00,254.87 155.00,254.87
             152.11,255.03 146.54,254.61 144.39,256.02
             138.63,259.29 141.61,267.95 144.39,271.91
             148.30,276.71 156.28,280.79 160.28,287.00
             162.48,290.43 162.72,294.10 163.27,298.00
             163.86,302.19 164.41,304.09 162.15,308.00
             158.40,314.46 154.24,315.06 149.90,322.01
             143.39,332.46 149.53,342.37 134.96,342.05
             124.97,341.83 121.67,346.72 126.21,355.96
             131.02,365.75 148.66,369.25 149.91,384.00
             150.94,396.18 146.09,395.38 139.53,403.17
             138.03,404.94 129.28,421.77 128.64,424.00
             128.04,426.08 127.92,428.83 128.04,431.00
             128.73,443.01 139.52,437.22 146.00,439.60
             150.21,441.15 151.95,445.11 157.00,447.05
             162.94,449.16 166.90,446.94 172.00,447.05
             176.47,447.29 179.03,449.28 184.00,448.80
             201.96,447.09 205.91,426.66 205.63,412.00
             205.56,408.83 205.48,404.89 207.59,402.28
             210.51,398.68 215.84,399.01 220.00,399.00
             220.00,399.00 250.00,399.00 250.00,399.00
             250.00,399.00 267.00,400.00 267.00,400.00
             267.00,400.00 291.00,400.00 291.00,400.00
             291.00,400.00 306.00,399.42 306.00,399.42
             313.67,399.44 329.94,397.70 335.37,404.14
             342.50,412.62 338.99,423.07 339.00,433.00
             339.00,433.00 340.00,448.00 340.00,448.00
             340.00,448.00 340.00,465.00 340.00,465.00
             340.00,465.00 342.26,484.00 342.26,484.00
             342.26,484.00 342.26,495.00 342.26,495.00
             342.47,503.16 349.38,511.72 356.00,516.04
             365.43,522.18 371.47,520.98 382.00,521.00
             382.00,521.00 405.00,522.96 405.00,522.96
             415.96,522.59 428.59,514.88 431.70,504.00
             432.93,499.71 432.99,496.38 433.00,492.00
             433.00,492.00 432.00,469.00 432.00,469.00
             432.00,469.00 432.00,439.00 432.00,439.00
             431.92,429.92 430.69,429.96 432.00,420.00
             439.56,420.64 442.34,423.06 448.00,422.95 Z
           M 363.27,325.09
           C 368.29,324.55 366.40,315.66 363.27,316.00
             368.61,304.95 218.72,308.30 217.64,310.55
             217.64,310.55 212.55,359.45 212.55,359.45
             212.08,364.17 243.39,357.58 243.45,356.91
             248.14,358.40 328.52,348.50 328.55,346.91
             332.96,348.74 339.54,338.46 338.00,337.82
             338.07,337.80 347.06,335.40 346.91,335.45
             345.52,331.05 361.85,320.05 363.09,324.00" />
</svg>
