<?xml version="1.0" encoding="UTF-8" standalone="no"?>
<!DOCTYPE svg PUBLIC "-//W3C//DTD SVG 20010904//EN"
              "http://www.w3.org/TR/2001/REC-SVG-20010904/DTD/svg10.dtd">

<svg xmlns="http://www.w3.org/2000/svg"
     width="9.72222in" height="9.72222in"
     viewBox="0 0 700 700">
  <path id="Selection"
        fill="none" stroke="black" stroke-width="1"
        d="M 700.00,0.00
           C 700.00,0.00 700.00,700.00 700.00,700.00
             700.00,700.00 0.00,700.00 0.00,700.00
             0.00,700.00 0.00,0.00 0.00,0.00
             0.00,0.00 700.00,0.00 700.00,0.00 Z
           M 356.00,146.21
           C 342.49,152.03 344.19,161.70 342.42,174.00
             341.07,183.37 341.04,182.50 341.00,192.00
             341.00,192.00 339.84,203.00 339.84,203.00
             339.84,203.00 339.84,213.00 339.84,213.00
             339.84,213.00 339.84,220.00 339.84,220.00
             339.84,220.00 340.66,232.00 340.66,232.00
             340.66,232.00 339.00,247.00 339.00,247.00
             338.97,249.93 339.45,256.39 337.98,258.72
             334.96,263.51 325.08,261.01 320.00,261.00
             320.00,261.00 277.00,263.44 277.00,263.44
             264.24,265.45 254.24,267.98 241.00,268.00
             241.00,268.00 226.02,269.00 226.02,269.00
             217.28,267.72 220.93,256.87 221.00,251.00
             221.08,243.73 221.99,231.14 218.00,225.09
             212.91,217.40 204.94,217.76 197.00,217.67
             188.76,217.57 182.66,215.93 175.52,222.61
             171.35,226.50 168.20,234.31 168.18,240.00
             168.16,243.76 170.13,248.44 167.40,251.69
             164.38,255.28 155.35,254.03 151.00,254.00
             148.16,253.98 143.59,253.73 140.90,255.17
             136.42,257.97 137.64,265.92 140.90,269.56
             146.63,276.80 159.90,276.80 161.02,288.72
             161.59,294.82 155.01,297.26 151.33,301.18
             147.18,305.60 143.75,312.94 143.18,319.00
             143.06,320.25 143.03,321.75 143.18,323.00
             144.54,333.52 154.15,325.75 158.15,331.31
             160.20,334.37 158.05,343.82 158.15,348.00
             158.15,348.00 158.15,362.87 158.15,362.87
             156.58,367.43 148.20,367.95 144.00,368.00
             144.00,368.00 137.00,368.00 137.00,368.00
             134.37,368.00 130.50,367.78 128.39,369.17
             123.18,372.25 125.21,380.04 128.39,383.61
             132.38,387.70 141.19,390.46 146.00,393.35
             148.38,394.78 151.45,397.14 152.12,400.00
             153.48,405.84 145.02,406.91 141.21,410.39
             137.69,413.61 132.30,426.18 132.11,431.00
             131.61,443.71 145.19,436.05 149.69,439.02
             153.70,441.67 151.32,450.02 151.09,454.00
             150.67,461.38 154.55,474.34 162.01,477.30
             166.91,479.18 173.91,477.34 179.00,477.30
             186.06,477.34 191.39,479.82 197.96,474.58
             207.27,467.16 205.15,455.21 206.17,445.00
             206.17,445.00 208.85,430.00 208.85,430.00
             209.60,423.95 209.04,415.60 215.04,412.10
             219.59,409.82 229.34,411.99 235.00,412.10
             235.00,412.10 266.00,412.10 266.00,412.10
             266.00,412.10 283.00,413.00 283.00,413.00
             283.00,413.00 316.00,413.00 316.00,413.00
             316.00,413.00 326.00,413.82 326.00,413.82
             329.99,413.82 335.23,411.57 338.26,415.31
             341.12,418.85 338.25,424.24 339.34,433.00
             342.36,451.09 338.47,447.95 339.34,459.00
             339.34,459.00 339.96,466.00 339.96,466.00
             339.96,466.00 339.96,480.00 339.96,480.00
             339.96,480.00 341.00,497.00 341.00,497.00
             341.00,497.00 342.04,507.00 342.04,507.00
             342.04,507.00 342.04,517.00 342.04,517.00
             342.04,517.00 343.62,526.00 343.62,526.00
             343.90,530.88 341.47,534.37 342.21,540.00
             343.52,549.92 353.89,564.34 363.00,568.44
             366.15,569.87 368.63,569.96 372.00,570.00
             372.00,570.00 385.00,570.00 385.00,570.00
             385.00,570.00 401.00,571.00 401.00,571.00
             413.12,570.85 425.92,560.43 429.89,549.00
             431.12,545.47 430.99,542.65 431.00,539.00
             431.00,539.00 431.00,431.00 431.00,431.00
             430.96,427.02 429.39,418.22 431.74,415.31
             434.29,412.17 443.69,412.99 448.00,412.42
             448.00,412.42 459.00,411.57 459.00,411.57
             459.00,411.57 477.00,408.29 477.00,408.29
             482.91,407.52 487.38,408.42 494.00,406.38
             494.00,406.38 504.00,401.95 504.00,401.95
             504.00,401.95 513.00,399.30 513.00,399.30
             513.00,399.30 532.00,391.09 532.00,391.09
             547.67,382.81 559.04,371.68 568.78,357.00
             573.87,349.32 571.93,342.51 574.02,339.30
             575.50,337.02 578.63,336.51 581.00,335.53
             585.49,333.66 591.33,330.04 592.55,325.00
             596.23,309.87 569.71,312.02 565.49,307.69
             565.49,307.69 560.62,300.00 560.62,300.00
             556.89,295.05 550.02,288.50 545.00,284.87
             541.02,282.00 525.97,272.24 522.00,270.61
             522.00,270.61 508.00,266.90 508.00,266.90
             503.22,265.28 499.67,262.73 494.00,261.52
             494.00,261.52 480.00,260.72 480.00,260.72
             480.00,260.72 452.00,256.92 452.00,256.92
             452.00,256.92 438.00,256.92 438.00,256.92
             435.13,256.91 431.78,258.13 429.02,257.82
             421.77,256.99 423.98,248.06 424.00,243.00
             424.00,243.00 424.00,234.00 424.00,234.00
             424.00,234.00 423.00,220.00 423.00,220.00
             423.00,220.00 419.28,180.00 419.28,180.00
             418.34,172.03 418.88,163.39 415.00,156.04
             410.27,147.08 401.45,144.01 392.00,144.15
             392.00,144.15 363.00,144.15 363.00,144.15
             360.60,144.75 358.26,145.23 356.00,146.21 Z
           M 344.00,327.53
           C 339.53,330.28 336.01,330.84 332.34,335.05
             329.29,338.55 328.01,342.60 326.89,347.00
             326.25,349.55 325.88,353.40 323.57,354.98
             321.79,356.19 318.12,356.03 316.00,355.99
             306.84,355.78 298.56,353.86 291.05,361.11
             284.13,367.79 288.01,371.19 281.94,374.20
             273.58,378.35 255.51,377.89 246.00,378.00
             246.00,378.00 225.91,379.34 225.91,379.34
             222.33,379.96 217.28,380.89 214.60,377.69
             212.46,375.13 213.37,371.96 213.86,369.00
             213.86,369.00 213.86,355.00 213.86,355.00
             213.86,355.00 218.13,317.00 218.13,317.00
             218.43,312.22 217.19,305.22 220.70,301.51
             224.19,297.81 233.96,299.99 239.00,300.00
             239.00,300.00 255.00,300.00 255.00,300.00
             255.00,300.00 271.00,301.00 271.00,301.00
             271.00,301.00 306.00,301.00 306.00,301.00
             306.00,301.00 317.00,301.68 317.00,301.68
             317.00,301.68 335.00,300.27 335.00,300.27
             343.17,300.70 363.65,309.88 369.00,316.00
             350.87,319.65 356.21,320.01 344.00,327.53 Z" />
</svg>
