<?xml version="1.0" encoding="UTF-8" standalone="no"?>
<!DOCTYPE svg PUBLIC "-//W3C//DTD SVG 20010904//EN"
              "http://www.w3.org/TR/2001/REC-SVG-20010904/DTD/svg10.dtd">

<svg xmlns="http://www.w3.org/2000/svg"
     width="9.72222in" height="9.72222in"
     viewBox="0 0 700 700">
  <path id="Selection"
        fill="none" stroke="black" stroke-width="1"
        d="M 700.00,0.00
           C 700.00,0.00 700.00,700.00 700.00,700.00
             700.00,700.00 0.00,700.00 0.00,700.00
             0.00,700.00 0.00,0.00 0.00,0.00
             0.00,0.00 700.00,0.00 700.00,0.00 Z
           M 137.45,426.98
           C 140.38,438.61 157.37,425.98 156.38,440.00
             155.84,447.71 155.30,473.42 156.90,480.00
             158.03,484.67 160.17,490.36 164.10,493.35
             168.93,497.02 174.41,495.71 180.00,496.09
             183.65,496.34 186.18,497.23 190.00,496.81
             212.05,494.40 209.95,470.51 211.09,454.00
             211.09,454.00 212.26,440.00 212.26,440.00
             212.46,434.48 210.11,426.25 216.06,423.01
             219.28,421.28 223.52,422.67 227.00,423.01
             227.00,423.01 236.00,423.01 236.00,423.01
             236.00,423.01 248.00,424.00 248.00,424.00
             248.00,424.00 324.00,424.00 324.00,424.00
             329.23,423.99 339.14,421.69 341.36,428.06
             341.36,428.06 340.00,443.00 340.00,443.00
             340.00,443.00 340.00,478.00 340.00,478.00
             340.00,478.00 342.00,511.00 342.00,511.00
             342.00,511.00 343.00,534.00 343.00,534.00
             343.00,534.00 343.00,560.00 343.00,560.00
             343.03,576.86 352.73,595.71 372.00,594.25
             372.00,594.25 382.00,594.25 382.00,594.25
             382.00,594.25 399.00,595.00 399.00,595.00
             419.59,594.76 428.97,574.12 429.00,556.00
             429.00,556.00 429.00,525.00 429.00,525.00
             429.00,525.00 430.00,505.00 430.00,505.00
             430.00,505.00 430.00,466.00 430.00,466.00
             430.00,466.00 430.00,442.00 430.00,442.00
             429.99,437.81 428.47,430.31 430.74,427.15
             433.28,423.61 437.16,424.01 441.00,424.00
             450.43,423.98 459.67,424.26 469.00,422.54
             469.00,422.54 487.00,417.66 487.00,417.66
             498.77,415.20 499.11,417.73 511.00,411.42
             518.98,407.19 519.54,408.96 525.00,406.64
             532.55,403.43 548.33,393.04 553.83,387.00
             558.66,381.69 566.64,370.44 569.67,364.00
             572.65,357.68 571.39,354.60 574.43,351.27
             578.94,346.33 590.36,347.00 592.57,338.98
             594.39,332.39 590.20,326.80 584.00,324.94
             579.91,323.71 576.79,324.41 574.02,322.98
             571.47,321.66 569.80,319.38 568.35,317.00
             561.25,305.37 552.54,293.90 541.00,286.25
             541.00,286.25 534.28,282.51 534.28,282.51
             534.28,282.51 526.00,277.40 526.00,277.40
             526.00,277.40 519.00,274.80 519.00,274.80
             519.00,274.80 510.00,270.70 510.00,270.70
             503.02,268.21 499.65,268.70 494.00,267.24
             480.26,263.70 478.03,261.02 462.00,261.00
             462.00,261.00 438.00,261.00 438.00,261.00
             434.54,260.99 430.12,261.38 427.58,258.57
             424.70,255.37 425.71,250.83 425.67,247.00
             425.67,247.00 424.00,222.00 424.00,222.00
             424.00,222.00 424.00,184.00 424.00,184.00
             424.00,184.00 423.00,161.00 423.00,161.00
             423.00,161.00 422.09,150.00 422.09,150.00
             421.39,139.72 422.56,134.32 415.39,125.04
             413.39,122.45 411.61,121.17 409.00,119.30
             398.73,111.91 393.11,114.00 381.00,114.00
             369.75,114.00 363.43,112.07 354.00,119.24
             351.86,120.86 349.25,122.95 347.65,125.09
             343.42,130.71 343.27,137.36 343.14,144.00
             343.14,144.00 341.13,164.00 341.13,164.00
             341.13,164.00 341.13,213.00 341.13,213.00
             341.13,213.00 341.13,222.00 341.13,222.00
             341.13,222.00 339.98,230.00 339.98,230.00
             338.57,240.90 339.02,241.44 339.98,252.00
             340.74,263.92 331.53,261.60 324.00,261.04
             324.00,261.04 315.00,261.04 315.00,261.04
             315.00,261.04 299.00,262.00 299.00,262.00
             299.00,262.00 284.00,262.91 284.00,262.91
             284.00,262.91 264.00,264.17 264.00,264.17
             264.00,264.17 239.00,267.00 239.00,267.00
             233.80,267.06 222.18,269.95 218.60,265.69
             216.12,262.73 217.51,258.42 217.83,255.00
             218.72,245.62 216.80,239.23 217.09,234.00
             217.09,234.00 217.90,227.00 217.90,227.00
             218.10,222.31 216.08,212.86 213.30,209.10
             207.89,201.78 188.32,199.29 180.00,201.80
             176.47,202.86 172.89,205.14 170.65,208.09
             167.45,212.29 167.36,216.10 166.72,221.00
             166.72,221.00 164.10,244.00 164.10,244.00
             163.86,249.71 166.30,252.67 164.74,255.93
             161.67,262.37 152.48,260.40 147.00,260.09
             144.62,259.96 142.33,260.15 140.00,260.63
             131.99,262.29 129.34,268.72 135.23,274.79
             139.57,279.27 145.52,279.90 151.00,281.79
             153.02,282.48 155.98,283.81 156.66,286.05
             157.90,290.09 151.00,290.78 148.04,292.44
             143.47,295.00 142.52,299.07 143.19,304.00
             144.67,314.96 154.98,308.08 159.09,313.31
             162.14,316.83 159.03,328.68 159.09,334.00
             159.09,334.00 159.09,359.00 159.09,359.00
             159.09,359.00 158.11,373.00 158.11,373.00
             158.38,381.45 162.71,384.24 160.87,387.57
             159.04,390.90 148.50,390.99 145.00,391.00
             137.06,391.01 125.85,389.12 127.20,401.00
             128.48,412.29 138.94,405.08 149.00,413.00
             143.82,415.89 135.59,419.65 137.45,426.98 Z
           M 303.00,389.00
           C 303.00,389.00 287.00,391.83 287.00,391.83
             287.00,391.83 263.00,393.00 263.00,393.00
             263.00,393.00 248.00,394.00 248.00,394.00
             248.00,394.00 233.00,394.00 233.00,394.00
             228.17,394.01 216.77,396.60 213.97,392.69
             211.65,389.64 213.99,376.69 213.97,372.00
             213.97,372.00 213.97,358.00 213.97,358.00
             213.97,358.00 215.00,343.00 215.00,343.00
             215.00,343.00 216.16,328.00 216.16,328.00
             216.16,328.00 216.16,316.00 216.16,316.00
             217.31,307.63 212.83,298.92 218.28,295.09
             221.31,292.96 224.60,293.72 228.00,293.92
             228.00,293.92 245.00,294.98 245.00,294.98
             245.00,294.98 315.00,297.00 315.00,297.00
             327.09,297.02 339.71,296.04 351.00,301.04
             354.26,302.48 362.11,306.07 359.87,310.78
             358.71,313.22 354.34,314.63 352.00,315.90
             352.00,315.90 333.17,326.79 333.17,326.79
             330.22,329.16 327.08,333.41 325.85,337.00
             324.72,340.31 325.26,344.06 322.57,346.40
             320.37,348.31 316.74,347.99 314.00,348.00
             303.55,348.02 285.83,346.96 285.48,362.00
             285.15,376.58 305.66,377.62 316.00,376.76
             318.92,376.71 323.22,375.53 325.89,376.76
             329.39,378.00 330.22,381.73 331.00,385.00
             324.64,387.95 310.71,387.93 303.00,389.00 Z" />
</svg>
