<?xml version="1.0" encoding="UTF-8" standalone="no"?>
<!DOCTYPE svg PUBLIC "-//W3C//DTD SVG 20010904//EN"
              "http://www.w3.org/TR/2001/REC-SVG-20010904/DTD/svg10.dtd">

<svg xmlns="http://www.w3.org/2000/svg"
     width="9.72222in" height="9.72222in"
     viewBox="0 0 700 700">
  <path id="Selection"
        fill="none" stroke="black" stroke-width="1"
        d="M 700.00,0.00
           C 700.00,0.00 700.00,700.00 700.00,700.00
             700.00,700.00 0.00,700.00 0.00,700.00
             0.00,700.00 0.00,0.00 0.00,0.00
             0.00,0.00 700.00,0.00 700.00,0.00 Z
           M 352.09,107.53
           C 346.84,111.95 343.37,121.20 343.34,128.00
             343.34,128.00 343.91,134.00 343.91,134.00
             343.91,134.00 342.00,152.00 342.00,152.00
             342.00,152.00 342.00,177.00 342.00,177.00
             342.00,177.00 341.00,194.00 341.00,194.00
             341.00,194.00 341.81,223.00 341.81,223.00
             341.81,223.00 340.09,232.00 340.09,232.00
             340.09,232.00 340.09,248.00 340.09,248.00
             340.01,253.90 342.53,261.32 336.89,265.41
             332.54,268.56 324.27,267.01 319.00,267.04
             319.00,267.04 306.00,267.04 306.00,267.04
             306.00,267.04 294.00,268.04 294.00,268.04
             294.00,268.04 278.00,268.04 278.00,268.04
             278.00,268.04 267.00,269.00 267.00,269.00
             267.00,269.00 246.00,269.00 246.00,269.00
             246.00,269.00 236.00,270.04 236.00,270.04
             236.00,270.04 226.00,270.04 226.00,270.04
             221.07,270.63 216.16,271.95 213.82,265.96
             212.08,261.87 214.20,256.09 213.82,251.00
             213.82,251.00 213.00,232.00 213.00,232.00
             213.02,222.05 215.73,213.08 209.20,204.02
             204.40,197.35 198.52,197.10 191.00,197.49
             181.07,198.01 171.27,193.41 164.76,204.02
             159.27,212.97 161.12,232.10 161.00,243.00
             161.00,243.00 160.18,253.00 160.18,253.00
             160.18,253.00 161.53,262.17 161.53,262.17
             161.90,266.76 160.35,269.35 156.00,271.12
             148.76,274.08 139.60,269.69 133.19,274.23
             128.79,277.38 128.87,286.03 133.19,289.28
             136.12,291.54 141.37,292.07 145.00,291.91
             151.12,291.64 158.94,291.42 161.16,299.00
             162.29,302.87 158.81,306.49 159.02,317.00
             159.02,317.00 160.00,331.00 160.00,331.00
             160.00,331.00 160.00,370.00 160.00,370.00
             159.99,376.03 158.51,382.02 159.29,388.00
             159.76,391.65 162.12,397.86 160.73,400.96
             155.70,412.22 127.55,401.63 130.24,418.98
             131.46,426.85 140.12,425.93 146.00,426.00
             152.33,426.08 160.82,427.24 161.84,435.00
             161.84,435.00 161.00,447.00 161.00,447.00
             161.00,447.00 161.00,465.00 161.00,465.00
             161.10,476.04 158.93,497.09 172.00,501.98
             177.15,503.89 188.71,502.07 195.00,501.98
             197.74,501.96 200.47,501.94 202.99,500.69
             210.42,496.97 214.38,484.87 213.82,477.00
             213.82,477.00 213.00,458.00 213.00,458.00
             213.00,458.00 213.92,447.00 213.92,447.00
             213.92,442.03 211.56,436.66 214.74,432.11
             218.54,426.65 222.78,428.96 228.00,429.70
             228.00,429.70 249.00,431.00 249.00,431.00
             249.00,431.00 272.00,431.00 272.00,431.00
             272.00,431.00 289.00,432.00 289.00,432.00
             289.00,432.00 328.00,432.00 328.00,432.00
             332.35,432.01 337.41,431.60 339.81,436.11
             341.13,438.58 339.30,450.28 339.08,454.00
             338.50,464.20 340.78,468.12 341.66,477.00
             341.66,477.00 341.00,490.00 341.00,490.00
             341.00,490.00 341.00,521.00 341.00,521.00
             341.00,521.00 341.90,533.00 341.90,533.00
             341.90,533.00 341.34,541.00 341.34,541.00
             341.34,541.00 342.09,553.00 342.09,553.00
             342.09,553.00 343.66,562.00 343.66,562.00
             344.37,569.15 340.43,570.94 346.02,584.00
             347.50,587.47 349.06,590.24 352.04,592.70
             360.12,599.35 375.13,597.90 385.00,598.13
             385.00,598.13 394.00,598.13 394.00,598.13
             404.43,597.82 412.23,595.77 418.41,587.00
             423.42,579.89 423.99,577.51 424.00,569.00
             424.00,569.00 424.00,542.00 424.00,542.00
             424.00,542.00 426.00,509.00 426.00,509.00
             426.00,509.00 428.88,451.00 428.88,451.00
             428.99,447.65 427.91,439.29 428.88,437.02
             431.43,429.85 443.74,432.07 450.00,432.00
             450.00,432.00 460.00,431.09 460.00,431.09
             469.85,430.42 469.86,431.82 481.00,428.85
             481.00,428.85 494.00,424.76 494.00,424.76
             494.00,424.76 501.00,423.68 501.00,423.68
             505.40,422.85 508.96,420.64 513.00,418.86
             513.00,418.86 525.00,414.64 525.00,414.64
             525.00,414.64 534.00,409.46 534.00,409.46
             543.71,403.83 547.11,402.22 554.85,393.41
             558.30,389.47 565.83,379.45 568.25,375.00
             569.90,371.98 571.20,366.70 573.50,364.56
             577.62,360.71 589.84,362.23 592.84,353.00
             597.97,337.19 576.60,340.23 571.71,330.98
             571.71,330.98 568.48,324.00 568.48,324.00
             563.44,315.10 551.10,300.73 543.00,294.71
             536.31,289.74 516.11,280.19 508.00,277.59
             508.00,277.59 499.00,275.49 499.00,275.49
             499.00,275.49 485.00,270.31 485.00,270.31
             472.76,267.88 454.69,268.06 442.00,268.00
             437.51,267.98 432.73,267.90 429.85,263.79
             427.25,260.07 428.94,254.40 429.00,250.00
             429.00,250.00 429.00,238.00 429.00,238.00
             429.00,238.00 428.09,228.00 428.09,228.00
             428.09,228.00 426.00,195.00 426.00,195.00
             426.00,195.00 425.00,180.00 425.00,180.00
             425.00,180.00 424.00,133.00 424.00,133.00
             423.98,119.39 419.70,108.98 407.00,102.76
             400.21,99.43 396.54,98.59 389.00,99.28
             373.98,101.44 365.29,96.40 352.09,107.53 Z
           M 340.00,397.20
           C 329.96,400.15 331.79,398.33 323.00,399.17
             323.00,399.17 301.00,400.00 301.00,400.00
             301.00,400.00 284.00,401.00 284.00,401.00
             284.00,401.00 254.00,401.00 254.00,401.00
             254.00,401.00 232.00,402.00 232.00,402.00
             227.65,402.05 218.69,404.31 215.51,401.40
             211.85,398.04 214.79,388.73 214.49,384.00
             214.49,384.00 215.00,365.00 215.00,365.00
             215.00,365.00 215.00,335.00 215.00,335.00
             215.00,335.00 214.29,320.00 214.29,320.00
             214.29,320.00 214.29,313.00 214.29,313.00
             214.21,308.66 211.92,300.93 215.51,297.74
             218.50,295.08 223.23,296.36 226.72,297.01
             234.07,298.39 238.73,297.92 246.00,298.00
             246.00,298.00 261.00,299.00 261.00,299.00
             261.00,299.00 299.00,299.00 299.00,299.00
             299.00,299.00 314.00,300.00 314.00,300.00
             314.00,300.00 332.00,300.00 332.00,300.00
             337.47,300.07 344.05,301.66 348.98,304.06
             351.24,305.15 353.88,306.89 353.56,309.80
             352.99,314.99 339.95,316.40 335.04,319.36
             328.48,323.31 328.04,329.74 325.00,336.00
             314.12,333.95 304.44,332.18 294.00,337.67
             284.90,342.45 281.54,352.23 290.10,359.47
             300.04,367.87 309.42,363.82 320.00,364.76
             320.00,364.76 325.00,364.76 325.00,364.76
             327.32,379.80 334.29,379.48 346.00,383.36
             350.08,384.71 352.28,386.05 356.00,388.00
             353.67,395.67 346.80,395.20 340.00,397.20 Z" />
</svg>
