<?xml version="1.0" encoding="UTF-8" standalone="no"?>
<!DOCTYPE svg PUBLIC "-//W3C//DTD SVG 20010904//EN"
              "http://www.w3.org/TR/2001/REC-SVG-20010904/DTD/svg10.dtd">

<svg xmlns="http://www.w3.org/2000/svg"
     width="9.72222in" height="9.72222in"
     viewBox="0 0 700 700">
  <path id="Selection"
        fill="none" stroke="black" stroke-width="1"
        d="M 330.00,352.00
           C 330.00,352.00 315.00,352.00 315.00,352.00
             315.00,352.00 234.00,352.00 234.00,352.00
             231.02,352.01 227.78,351.79 225.10,353.31
             221.78,355.20 220.42,358.93 218.46,362.00
             215.95,365.93 213.13,369.55 210.00,373.00
             210.00,373.00 186.70,400.39 186.70,400.39
             181.75,404.61 177.62,403.80 172.00,405.59
             165.02,407.82 161.99,410.79 154.00,410.99
             154.00,410.99 131.00,409.71 131.00,409.71
             128.23,409.35 124.52,408.71 122.65,406.57
             119.39,403.11 120.49,395.69 122.65,392.00
             124.86,388.52 126.99,387.49 128.87,383.00
             128.87,383.00 132.02,374.00 132.02,374.00
             132.02,374.00 136.62,364.00 136.62,364.00
             136.62,364.00 139.32,355.00 139.32,355.00
             139.32,355.00 144.22,344.00 144.22,344.00
             144.22,344.00 146.35,333.00 146.35,333.00
             147.86,327.45 151.73,324.74 151.46,321.00
             151.24,318.01 148.15,315.27 146.37,313.00
             146.37,313.00 139.86,304.09 139.86,304.09
             135.08,298.76 128.03,294.47 130.43,286.04
             131.05,283.86 132.12,282.64 134.11,281.57
             136.48,280.30 153.85,277.86 157.00,278.04
             164.33,278.46 165.16,282.48 171.00,285.23
             177.42,288.26 180.57,285.18 186.90,291.19
             193.43,297.39 198.25,307.65 209.00,307.40
             219.16,307.17 229.04,305.11 239.00,303.43
             239.00,303.43 262.00,300.10 262.00,300.10
             262.00,300.10 272.00,300.10 272.00,300.10
             272.00,300.10 289.00,297.87 289.00,297.87
             289.00,297.87 317.00,292.43 317.00,292.43
             317.00,292.43 336.00,290.54 336.00,290.54
             336.00,290.54 356.00,285.45 356.00,285.45
             356.00,285.45 381.00,281.77 381.00,281.77
             381.00,281.77 407.00,274.83 407.00,274.83
             407.00,274.83 422.00,267.37 422.00,267.37
             430.52,262.87 430.64,261.05 441.00,261.00
             441.00,261.00 464.00,261.00 464.00,261.00
             470.06,261.07 485.35,262.37 491.00,263.92
             491.00,263.92 502.00,267.50 502.00,267.50
             502.00,267.50 516.00,269.52 516.00,269.52
             521.81,270.77 524.12,272.93 529.00,274.91
             529.00,274.91 540.00,278.75 540.00,278.75
             548.50,283.12 553.88,290.11 560.00,293.00
             565.03,284.62 584.24,290.12 584.85,300.00
             585.14,304.57 583.02,309.54 578.96,311.84
             576.31,313.34 572.73,313.22 571.06,316.23
             568.98,319.96 573.24,325.74 569.00,333.00
             561.89,345.19 547.01,355.54 534.00,360.53
             534.00,360.53 524.00,363.35 524.00,363.35
             524.00,363.35 514.00,366.79 514.00,366.79
             514.00,366.79 504.00,366.79 504.00,366.79
             502.42,377.22 500.17,376.41 495.10,384.00
             495.10,384.00 488.89,394.00 488.89,394.00
             488.89,394.00 483.73,403.00 483.73,403.00
             483.73,403.00 479.05,410.00 479.05,410.00
             476.82,413.86 475.29,418.58 471.79,421.57
             468.38,424.48 464.95,423.86 460.00,426.24
             456.36,427.98 454.12,430.37 450.00,431.44
             450.00,431.44 436.00,432.49 436.00,432.49
             436.00,432.49 413.00,433.00 413.00,433.00
             413.00,433.00 400.00,432.00 400.00,432.00
             400.00,432.00 383.00,432.00 383.00,432.00
             376.09,431.99 364.41,430.94 358.00,428.62
             358.00,428.62 349.00,424.71 349.00,424.71
             349.00,424.71 337.00,420.60 337.00,420.60
             329.15,416.81 327.67,411.30 323.00,408.97
             320.06,407.62 315.28,408.79 311.91,408.97
             307.78,409.05 292.12,408.00 289.11,405.99
             281.48,400.91 282.93,385.60 290.04,380.72
             296.83,376.07 307.36,378.82 315.00,378.99
             317.20,379.03 320.73,379.19 322.61,377.98
             327.00,375.13 324.91,368.37 332.09,362.79
             339.37,357.13 343.78,360.78 354.00,353.00
             342.18,349.17 341.10,351.95 330.00,352.00 Z" />
</svg>
