<?xml version="1.0" encoding="UTF-8" standalone="no"?>
<!DOCTYPE svg PUBLIC "-//W3C//DTD SVG 20010904//EN"
              "http://www.w3.org/TR/2001/REC-SVG-20010904/DTD/svg10.dtd">

<svg xmlns="http://www.w3.org/2000/svg"
     width="9.72222in" height="9.72222in"
     viewBox="0 0 700 700">
  <path id="Selection"
        fill="none" stroke="black" stroke-width="1"
        d="M 432.00,441.00
           C 432.00,441.00 432.00,469.00 432.00,469.00
             432.00,469.00 432.95,481.00 432.95,481.00
             432.95,481.00 432.95,494.00 432.95,494.00
             432.85,506.49 429.20,513.24 418.00,519.16
             414.31,521.11 411.20,522.38 407.00,522.83
             407.00,522.83 382.00,521.00 382.00,521.00
             377.98,520.99 369.51,521.28 366.00,520.47
             353.38,517.58 341.55,505.31 342.04,492.00
             342.04,492.00 342.54,485.00 342.54,485.00
             342.54,485.00 340.00,464.00 340.00,464.00
             340.00,464.00 340.00,449.00 340.00,449.00
             340.00,449.00 339.00,435.00 339.00,435.00
             339.00,435.00 339.00,429.00 339.00,429.00
             339.10,420.43 342.01,416.50 337.72,408.00
             336.73,406.04 335.55,403.95 333.79,402.58
             331.26,400.62 326.19,400.09 323.00,399.86
             323.00,399.86 291.00,399.86 291.00,399.86
             291.00,399.86 267.00,399.86 267.00,399.86
             267.00,399.86 250.00,399.00 250.00,399.00
             250.00,399.00 219.00,399.00 219.00,399.00
             208.54,399.05 205.41,401.13 205.63,412.00
             205.92,426.96 200.80,450.66 181.00,448.80
             177.36,448.46 175.27,447.04 171.00,447.05
             166.06,447.23 162.53,449.01 157.00,447.05
             151.95,445.11 150.21,441.15 146.00,439.60
             140.20,437.47 129.95,442.23 128.13,432.98
             128.13,432.98 128.13,428.00 128.13,428.00
             128.29,423.29 136.42,406.86 139.53,403.17
             144.17,397.66 149.67,396.22 149.98,388.00
             150.33,378.87 147.05,374.15 140.00,368.51
             133.28,363.14 124.47,358.98 124.42,349.00
             124.37,337.85 137.48,344.83 142.67,340.43
             147.06,336.71 145.31,331.46 148.26,325.00
             152.76,315.13 162.35,312.29 163.48,304.00
             164.00,302.06 163.54,299.93 163.48,298.00
             162.17,290.19 162.02,287.88 155.98,282.09
             150.76,277.08 144.57,274.20 141.97,267.00
             138.85,258.37 142.74,255.06 151.00,254.87
             151.00,254.87 164.00,254.87 164.00,254.87
             167.33,254.86 170.82,255.47 173.87,253.69
             177.18,251.75 177.44,248.75 179.64,246.49
             182.61,243.47 187.01,243.06 191.00,243.00
             199.01,242.90 217.25,240.90 221.35,249.10
             224.12,254.65 222.63,261.20 222.02,267.00
             221.66,270.36 221.34,273.87 225.11,275.40
             228.10,276.61 232.03,275.16 235.00,274.50
             235.00,274.50 253.00,271.42 253.00,271.42
             265.67,269.54 272.21,269.02 285.00,269.00
             285.00,269.00 297.00,268.04 297.00,268.04
             297.00,268.04 308.00,268.04 308.00,268.04
             314.81,267.92 321.37,266.38 328.00,265.00
             331.33,264.31 335.14,263.92 337.77,261.57
             342.67,257.19 340.28,251.54 340.02,246.00
             340.02,246.00 340.02,235.00 340.02,235.00
             340.02,235.00 343.59,205.00 343.59,205.00
             344.22,201.06 345.17,195.49 347.70,192.32
             352.71,186.06 362.38,183.84 370.00,184.01
             370.00,184.01 379.00,184.82 379.00,184.82
             379.00,184.82 387.00,184.04 387.00,184.04
             396.43,183.64 406.41,186.47 412.58,194.09
             416.64,199.09 415.60,203.26 416.28,209.00
             416.28,209.00 420.71,238.00 420.71,238.00
             421.48,243.05 420.28,251.17 425.13,254.13
             428.32,256.02 433.48,254.50 437.00,254.13
             437.00,254.13 452.00,255.00 452.00,255.00
             467.79,255.18 466.58,257.58 480.00,259.57
             480.00,259.57 500.00,261.67 500.00,261.67
             506.61,263.08 508.58,265.03 514.00,266.90
             514.00,266.90 523.00,269.22 523.00,269.22
             523.00,269.22 541.00,279.09 541.00,279.09
             544.43,281.27 552.02,287.26 554.67,290.17
             556.95,292.66 558.97,296.75 561.21,298.40
             566.54,302.34 588.32,296.99 590.77,311.00
             592.07,318.42 587.41,322.39 581.00,324.75
             578.02,325.85 574.21,325.87 572.74,329.15
             570.26,334.65 575.00,339.28 568.08,349.00
             561.56,358.14 552.64,367.87 543.00,373.73
             543.00,373.73 522.00,383.53 522.00,383.53
             522.00,383.53 513.00,385.83 513.00,385.83
             513.00,385.83 502.00,390.90 502.00,390.90
             502.00,390.90 484.06,394.17 484.06,394.17
             479.13,396.90 480.29,401.27 474.87,406.83
             468.89,412.97 456.86,422.77 448.00,422.95
             442.34,423.06 439.56,420.64 432.00,420.00
             430.80,429.17 431.99,432.17 432.00,441.00 Z
           M 232.00,310.00
           C 228.10,310.01 223.62,309.72 220.57,312.65
             217.98,315.14 218.04,318.69 217.58,322.00
             217.58,322.00 214.00,345.00 214.00,345.00
             213.54,350.26 209.73,361.97 218.02,362.35
             218.02,362.35 244.00,358.17 244.00,358.17
             244.00,358.17 273.00,355.17 273.00,355.17
             273.00,355.17 295.00,353.54 295.00,353.54
             295.00,353.54 307.00,350.37 307.00,350.37
             307.00,350.37 317.00,348.29 317.00,348.29
             321.41,347.71 325.82,348.50 329.96,346.43
             333.21,344.81 334.58,342.49 337.09,340.10
             340.94,336.42 342.83,336.22 345.91,333.61
             353.47,327.23 349.70,326.80 361.00,322.98
             362.86,322.34 368.58,320.56 366.83,317.54
             365.64,315.49 354.82,314.28 352.00,313.65
             352.00,313.65 337.00,310.15 337.00,310.15
             337.00,310.15 323.00,310.15 323.00,310.15
             314.31,309.96 313.00,308.35 303.00,309.28
             303.00,309.28 232.00,310.00 232.00,310.00 Z" />
</svg>
