<?xml version="1.0" encoding="UTF-8" standalone="no"?>
<!DOCTYPE svg PUBLIC "-//W3C//DTD SVG 20010904//EN"
              "http://www.w3.org/TR/2001/REC-SVG-20010904/DTD/svg10.dtd">

<svg xmlns="http://www.w3.org/2000/svg"
     width="9.72222in" height="9.72222in"
     viewBox="0 0 700 700">
  <path id="Selection"
        fill="none" stroke="black" stroke-width="1"
        d="M 400.00,99.93
           C 403.16,100.78 406.10,102.27 409.00,103.76
             427.29,113.17 423.80,134.94 424.00,152.00
             424.00,152.00 425.00,167.00 425.00,167.00
             425.00,167.00 427.09,216.00 427.09,216.00
             427.09,216.00 429.00,250.00 429.00,250.00
             428.91,257.37 425.80,265.25 436.00,267.87
             437.59,267.97 439.38,267.97 441.00,267.87
             441.00,267.87 460.00,267.87 460.00,267.87
             464.63,268.06 482.94,269.64 487.00,270.78
             487.00,270.78 498.00,275.18 498.00,275.18
             498.00,275.18 508.00,277.59 508.00,277.59
             508.00,277.59 520.00,282.81 520.00,282.81
             520.00,282.81 527.00,285.35 527.00,285.35
             527.00,285.35 535.00,290.05 535.00,290.05
             545.98,296.42 550.11,300.11 558.41,310.00
             561.44,313.61 566.19,319.95 568.48,324.00
             570.31,327.24 571.54,332.13 574.27,334.44
             578.59,338.09 591.16,337.72 593.19,347.00
             596.62,362.71 576.10,359.04 571.71,367.06
             571.71,367.06 568.25,375.00 568.25,375.00
             565.39,380.27 556.82,391.50 552.55,395.92
             545.03,403.71 542.84,404.33 534.00,409.46
             534.00,409.46 525.00,414.64 525.00,414.64
             525.00,414.64 516.00,417.62 516.00,417.62
             516.00,417.62 503.00,423.21 503.00,423.21
             503.00,423.21 494.00,424.76 494.00,424.76
             483.04,427.55 478.54,430.94 466.00,431.00
             466.00,431.00 452.00,431.98 452.00,431.98
             452.00,431.98 438.00,431.98 438.00,431.98
             434.64,432.07 431.92,432.14 429.74,435.15
             427.20,438.65 428.98,445.54 429.00,450.00
             429.00,450.00 429.00,463.00 429.00,463.00
             429.00,463.00 426.00,503.00 426.00,503.00
             426.00,503.00 424.91,530.00 424.91,530.00
             424.91,530.00 424.00,542.00 424.00,542.00
             424.00,542.00 424.00,569.00 424.00,569.00
             423.99,572.66 424.12,575.45 422.89,579.00
             421.82,582.11 420.28,584.34 418.41,587.00
             409.41,599.77 396.80,598.02 383.00,598.00
             383.00,598.00 370.00,598.00 370.00,598.00
             362.93,597.91 354.00,595.67 349.39,589.98
             347.58,587.74 346.68,585.62 345.60,583.00
             340.63,570.81 344.36,569.02 343.66,562.00
             343.66,562.00 342.09,553.00 342.09,553.00
             342.09,553.00 341.34,541.00 341.34,541.00
             341.34,541.00 341.90,533.00 341.90,533.00
             341.90,533.00 341.00,522.00 341.00,522.00
             341.00,522.00 341.00,488.00 341.00,488.00
             341.00,488.00 341.66,477.00 341.66,477.00
             340.78,468.12 338.50,464.20 339.08,454.00
             339.30,450.28 341.13,438.58 339.81,436.11
             337.41,431.60 332.35,432.01 328.00,432.00
             328.00,432.00 289.00,432.00 289.00,432.00
             289.00,432.00 273.00,431.00 273.00,431.00
             273.00,431.00 249.00,431.00 249.00,431.00
             249.00,431.00 228.00,429.70 228.00,429.70
             223.66,429.08 220.09,427.06 216.23,430.43
             210.96,435.03 213.92,441.32 213.92,447.00
             213.92,447.00 213.00,460.00 213.00,460.00
             212.98,471.48 215.95,483.65 209.53,494.00
             207.85,496.72 205.92,499.22 202.99,500.69
             199.79,502.28 195.51,501.98 192.00,502.00
             183.52,502.04 172.81,505.87 166.63,497.94
             159.90,489.30 161.21,481.57 161.18,471.58
             161.18,471.58 161.83,438.00 161.83,438.00
             162.73,426.24 151.54,426.05 143.00,426.00
             136.41,425.96 128.91,424.71 130.24,416.00
             132.45,401.57 157.68,412.55 161.08,399.98
             162.01,396.55 158.79,391.05 159.04,383.00
             159.04,383.00 160.00,370.00 160.00,370.00
             160.00,370.00 160.00,330.00 160.00,330.00
             160.00,330.00 159.17,312.00 159.17,312.00
             159.53,308.39 161.94,301.68 161.16,299.00
             158.94,291.42 151.12,291.64 145.00,291.91
             140.75,292.10 134.38,291.40 131.60,287.78
             130.26,286.03 130.06,284.12 130.03,282.00
             129.95,274.66 134.20,272.35 141.00,272.04
             147.39,271.75 159.84,274.22 161.54,265.03
             161.54,265.03 160.18,253.00 160.18,253.00
             160.18,253.00 161.00,242.00 161.00,242.00
             161.00,242.00 161.00,219.00 161.00,219.00
             161.04,215.90 161.13,214.05 161.90,211.00
             162.45,208.80 163.09,207.00 164.19,205.00
             170.72,193.13 180.41,198.04 191.00,197.49
             195.95,197.24 201.80,197.17 205.91,200.43
             216.11,208.53 213.02,221.13 213.04,232.00
             213.04,232.00 213.04,244.00 213.04,244.00
             213.35,247.87 214.15,249.71 213.91,254.00
             213.59,259.59 210.90,267.53 218.04,270.08
             220.76,271.28 224.14,270.28 227.00,270.08
             227.00,270.08 236.00,270.08 236.00,270.08
             236.00,270.08 248.00,269.00 248.00,269.00
             248.00,269.00 266.00,269.00 266.00,269.00
             266.00,269.00 278.00,268.04 278.00,268.04
             278.00,268.04 294.00,268.04 294.00,268.04
             294.00,268.04 311.00,267.00 311.00,267.00
             316.42,266.99 332.13,268.12 335.96,265.99
             342.70,262.24 340.01,254.26 340.09,248.00
             340.09,248.00 340.09,232.00 340.09,232.00
             340.66,227.46 342.17,224.92 341.82,220.00
             341.82,220.00 341.00,194.00 341.00,194.00
             341.00,194.00 342.00,177.00 342.00,177.00
             342.00,177.00 342.00,151.00 342.00,151.00
             342.00,151.00 343.91,134.00 343.91,134.00
             343.91,134.00 343.34,128.00 343.34,128.00
             343.39,117.72 348.32,109.42 357.00,104.21
             362.51,100.90 364.59,100.08 371.00,100.00
             371.00,100.00 388.00,99.42 388.00,99.42
             392.34,98.90 395.71,98.77 400.00,99.93 Z
           M 333.18,320.64
           C 337.74,316.93 343.85,316.71 348.98,314.20
             351.13,313.16 353.89,311.78 353.55,308.94
             353.10,305.18 348.05,303.55 345.00,302.52
             334.25,298.88 326.12,300.05 315.00,300.00
             315.00,300.00 299.00,299.00 299.00,299.00
             299.00,299.00 261.00,299.00 261.00,299.00
             261.00,299.00 249.00,298.17 249.00,298.17
             249.00,298.17 237.00,298.17 237.00,298.17
             230.17,297.92 218.43,293.98 214.86,298.17
             212.25,301.68 214.23,308.97 214.29,313.00
             214.29,313.00 214.29,323.00 214.29,323.00
             214.29,323.00 215.00,335.00 215.00,335.00
             215.00,335.00 215.00,365.00 215.00,365.00
             215.00,365.00 214.29,380.00 214.29,380.00
             214.29,380.00 214.29,387.00 214.29,387.00
             214.22,391.08 212.18,398.34 215.51,401.40
             218.56,404.19 229.45,402.01 234.00,402.00
             234.00,402.00 254.00,401.00 254.00,401.00
             254.00,401.00 284.00,401.00 284.00,401.00
             284.00,401.00 299.00,400.00 299.00,400.00
             299.00,400.00 314.00,400.00 314.00,400.00
             314.00,400.00 335.00,398.63 335.00,398.63
             335.00,398.63 344.00,396.13 344.00,396.13
             350.03,394.59 353.99,394.64 356.00,388.00
             352.28,386.05 350.08,384.71 346.00,383.36
             334.29,379.48 327.32,379.80 325.00,364.76
             325.00,364.76 317.00,364.76 317.00,364.76
             307.51,365.11 298.02,366.17 290.10,359.47
             281.54,352.23 284.90,342.45 294.00,337.67
             304.44,332.18 314.12,333.95 325.00,336.00
             327.55,330.75 328.41,324.52 333.18,320.64 Z" />
</svg>
