<?xml version="1.0" encoding="UTF-8" standalone="no"?>
<!DOCTYPE svg PUBLIC "-//W3C//DTD SVG 20010904//EN"
              "http://www.w3.org/TR/2001/REC-SVG-20010904/DTD/svg10.dtd">

<svg xmlns="http://www.w3.org/2000/svg"
     width="9.72222in" height="9.72222in"
     viewBox="0 0 700 700">
  <path id="Selection"
        fill="none" stroke="black" stroke-width="1"
        d="M 700.00,0.00
           C 700.00,0.00 700.00,700.00 700.00,700.00
             700.00,700.00 0.00,700.00 0.00,700.00
             0.00,700.00 0.00,0.00 0.00,0.00
             0.00,0.00 700.00,0.00 700.00,0.00 Z
           M 349.00,303.95
           C 352.92,303.94 357.16,301.98 360.73,303.95
             365.90,307.17 361.95,314.59 360.73,319.00
             359.89,321.37 359.00,324.56 355.94,324.59
             351.70,324.62 345.99,316.96 339.00,315.13
             339.00,315.13 299.00,315.13 299.00,315.13
             299.00,315.13 269.00,315.13 269.00,315.13
             269.00,315.13 246.00,315.66 246.00,315.66
             240.67,315.33 234.89,317.60 230.02,314.40
             225.14,311.21 223.39,306.04 221.26,301.00
             221.26,301.00 214.62,289.00 214.62,289.00
             209.89,278.42 209.18,269.18 195.00,269.00
             189.18,268.93 175.50,267.75 171.09,270.74
             167.38,273.25 162.21,282.63 161.05,287.00
             161.05,287.00 159.54,296.00 159.54,296.00
             159.54,296.00 154.64,312.00 154.64,312.00
             154.64,312.00 151.24,329.00 151.24,329.00
             149.39,335.93 145.36,340.72 145.04,348.00
             144.56,359.07 153.45,364.81 162.07,370.10
             162.07,370.10 184.00,382.37 184.00,382.37
             184.00,382.37 193.00,385.90 193.00,385.90
             193.00,385.90 201.00,389.91 201.00,389.91
             201.00,389.91 215.00,394.35 215.00,394.35
             215.00,394.35 224.00,398.54 224.00,398.54
             224.00,398.54 235.00,401.07 235.00,401.07
             235.00,401.07 247.00,407.01 247.00,407.01
             247.00,407.01 261.00,409.77 261.00,409.77
             261.00,409.77 273.00,414.95 273.00,414.95
             281.72,417.24 285.19,414.19 303.00,418.88
             303.00,418.88 320.00,424.29 320.00,424.29
             324.05,426.26 325.98,429.07 331.00,430.45
             338.07,432.38 350.43,432.08 358.00,432.00
             358.00,432.00 376.00,431.00 376.00,431.00
             376.00,431.00 392.00,432.00 392.00,432.00
             392.00,432.00 407.00,431.00 407.00,431.00
             407.00,431.00 443.00,431.00 443.00,431.00
             443.00,431.00 458.00,430.00 458.00,430.00
             476.46,429.79 478.51,428.25 496.00,424.66
             510.37,421.71 506.32,424.44 521.00,417.48
             521.00,417.48 527.99,414.03 527.99,414.03
             534.33,409.84 535.00,404.32 540.04,400.31
             545.29,396.14 559.99,399.91 560.72,386.00
             560.98,381.10 557.71,373.65 552.96,371.74
             549.80,370.46 546.62,371.67 543.10,369.26
             539.50,366.80 538.88,362.99 534.90,359.13
             533.05,357.34 518.83,349.03 516.00,347.67
             516.00,347.67 507.00,344.54 507.00,344.54
             507.00,344.54 498.00,340.70 498.00,340.70
             490.78,338.15 485.04,338.51 478.00,336.99
             471.18,335.51 466.48,333.03 459.00,333.03
             452.68,333.03 449.37,335.05 444.00,335.69
             440.64,336.09 437.35,335.20 434.00,335.04
             430.51,334.87 427.07,335.24 424.31,332.57
             419.57,327.96 424.51,319.17 426.26,314.00
             427.33,310.85 427.85,308.16 431.11,306.60
             435.80,304.09 446.09,307.88 454.00,306.60
             457.78,306.14 461.59,305.08 462.82,300.96
             463.03,299.67 463.04,296.39 462.82,295.00
             462.77,291.87 462.22,289.66 459.77,287.50
             454.75,283.05 446.76,284.45 439.00,281.37
             432.17,278.66 432.51,277.15 424.00,275.81
             416.32,274.23 408.71,275.99 401.00,275.81
             392.16,276.02 370.85,278.51 362.00,280.34
             355.93,281.59 342.34,282.33 339.02,288.13
             337.89,290.11 338.01,292.71 338.03,294.91
             338.03,294.91 338.03,300.00 338.03,300.00
             341.33,301.57 345.27,303.53 349.00,303.95 Z" />
</svg>
