<?xml version="1.0" encoding="UTF-8" standalone="no"?>
<!DOCTYPE svg PUBLIC "-//W3C//DTD SVG 20010904//EN"
              "http://www.w3.org/TR/2001/REC-SVG-20010904/DTD/svg10.dtd">

<svg xmlns="http://www.w3.org/2000/svg"
     width="9.72222in" height="9.72222in"
     viewBox="0 0 700 700">
  <path id="Selection"
        fill="none" stroke="black" stroke-width="1"
        d="M 700.00,0.00
           C 700.00,0.00 700.00,700.00 700.00,700.00
             700.00,700.00 0.00,700.00 0.00,700.00
             0.00,700.00 0.00,0.00 0.00,0.00
             0.00,0.00 700.00,0.00 700.00,0.00 Z
           M 499.00,391.54
           C 499.00,391.54 519.00,386.12 519.00,386.12
             524.89,384.79 532.31,385.26 536.77,380.78
             542.82,374.70 537.81,366.41 541.60,362.60
             543.63,360.55 550.01,360.56 553.00,359.61
             559.51,357.54 563.47,350.67 562.80,344.00
             562.21,338.10 558.75,333.77 553.00,332.19
             549.95,331.35 544.58,331.33 542.31,329.40
             537.60,325.40 542.48,317.19 537.35,311.39
             533.39,306.92 527.28,307.39 522.00,306.56
             508.68,304.46 502.04,300.07 487.00,300.08
             487.00,300.08 471.00,300.08 471.00,300.08
             471.00,300.08 462.00,301.60 462.00,301.60
             460.08,301.64 455.09,300.44 456.91,297.52
             457.96,295.83 462.15,295.17 464.00,294.80
             470.35,293.54 475.90,292.96 476.75,285.00
             476.92,283.39 476.69,281.52 476.11,280.02
             472.35,270.34 457.38,274.01 450.56,264.90
             448.15,261.68 448.21,257.79 447.72,254.00
             447.72,254.00 445.54,228.00 445.54,228.00
             445.54,228.00 439.43,203.00 439.43,203.00
             439.43,203.00 438.00,182.00 438.00,182.00
             438.00,182.00 432.18,162.00 432.18,162.00
             430.40,148.64 432.91,140.39 426.02,128.00
             426.02,128.00 423.20,123.30 423.20,123.30
             418.98,118.41 411.40,121.20 406.04,118.57
             400.42,115.81 401.02,110.31 395.90,107.09
             390.89,103.93 373.55,104.93 367.00,105.00
             367.00,105.00 345.00,106.79 345.00,106.79
             341.21,107.88 328.93,114.40 326.34,117.19
             324.00,119.69 323.15,122.08 321.64,125.00
             316.73,134.50 313.80,140.91 314.02,152.00
             314.02,152.00 316.06,167.00 316.06,167.00
             316.06,167.00 316.06,179.00 316.06,179.00
             316.06,179.00 321.73,212.00 321.73,212.00
             321.73,212.00 325.29,248.00 325.29,248.00
             325.29,248.00 328.74,263.00 328.74,263.00
             329.08,268.99 324.16,269.65 321.23,272.41
             318.76,274.73 317.83,277.70 317.61,281.00
             317.35,284.97 318.49,291.70 321.42,294.57
             325.20,298.29 332.42,296.78 332.63,303.00
             332.67,304.28 332.31,305.48 331.49,306.46
             329.67,308.65 326.49,308.10 323.99,308.05
             323.99,308.05 307.00,308.05 307.00,308.05
             307.00,308.05 267.00,314.56 267.00,314.56
             258.08,315.95 257.79,313.51 245.00,317.86
             239.89,319.60 224.90,325.47 220.60,321.26
             217.90,318.62 219.73,313.06 218.49,307.00
             218.49,307.00 214.17,288.00 214.17,288.00
             212.45,273.48 216.95,253.25 196.00,253.00
             196.00,253.00 180.00,254.00 180.00,254.00
             180.00,254.00 176.00,254.00 176.00,254.00
             169.29,254.09 167.15,255.28 162.09,259.76
             153.99,266.93 149.60,277.07 150.10,288.00
             150.10,288.00 153.00,311.00 153.00,311.00
             153.00,311.00 153.00,317.00 153.00,317.00
             153.01,320.79 152.80,323.42 154.41,327.00
             155.42,329.23 158.09,332.74 158.18,334.98
             158.35,339.53 153.08,339.84 150.02,341.14
             145.56,343.04 143.86,346.23 144.67,351.00
             145.45,355.57 147.65,357.33 152.00,358.47
             154.07,359.02 157.78,359.02 158.75,361.31
             160.02,364.30 155.97,367.53 154.13,371.00
             151.97,375.08 152.01,379.53 151.76,384.00
             151.76,384.00 151.76,395.00 151.76,395.00
             149.69,410.52 146.55,408.67 151.76,426.00
             153.56,432.82 155.03,435.69 161.00,439.96
             163.38,441.66 166.26,443.43 169.00,444.44
             173.25,446.01 176.58,445.99 181.00,446.00
             187.42,446.01 196.17,447.42 202.00,445.11
             212.94,440.79 212.89,427.66 213.00,418.00
             213.13,407.12 216.74,396.67 218.41,386.00
             219.03,382.05 218.56,376.27 222.23,373.83
             225.57,371.60 236.39,375.48 241.00,376.13
             241.00,376.13 262.00,378.42 262.00,378.42
             280.94,381.02 270.39,381.74 293.00,382.00
             293.00,382.00 321.00,384.96 321.00,384.96
             325.49,384.85 327.37,383.74 330.00,388.00
             318.37,388.83 314.74,401.32 318.17,407.98
             320.95,413.37 325.94,413.09 326.85,419.02
             327.53,423.43 325.86,428.63 325.29,433.00
             325.29,433.00 323.83,451.00 323.83,451.00
             323.83,451.00 321.58,471.00 321.58,471.00
             321.58,471.00 318.29,490.00 318.29,490.00
             318.29,490.00 316.84,506.00 316.84,506.00
             315.84,515.24 313.20,527.92 314.17,537.00
             314.74,542.31 322.06,560.48 324.84,564.99
             329.50,572.56 337.44,575.89 341.79,580.30
             346.32,584.89 345.22,588.16 350.11,592.67
             357.49,599.49 366.27,601.98 376.00,602.00
             376.00,602.00 391.00,603.00 391.00,603.00
             400.50,603.11 416.07,606.51 423.56,599.61
             432.90,591.01 430.74,577.45 432.29,566.00
             433.81,554.73 438.84,545.12 439.00,532.00
             439.09,523.58 438.74,520.59 440.66,512.00
             440.66,512.00 445.70,493.00 445.70,493.00
             445.70,493.00 448.45,463.00 448.45,463.00
             450.75,451.72 455.23,440.76 454.49,429.00
             454.25,425.22 453.12,420.50 456.43,417.60
             459.54,414.88 467.11,415.81 470.98,414.26
             476.80,411.95 478.26,404.48 476.42,399.00
             475.73,396.95 474.16,394.83 473.00,393.00
             473.00,393.00 499.00,391.54 499.00,391.54 Z" />
</svg>
