<?xml version="1.0" encoding="UTF-8" standalone="no"?>
<!DOCTYPE svg PUBLIC "-//W3C//DTD SVG 20010904//EN"
              "http://www.w3.org/TR/2001/REC-SVG-20010904/DTD/svg10.dtd">

<svg xmlns="http://www.w3.org/2000/svg"
     width="9.72222in" height="9.72222in"
     viewBox="0 0 700 700">
  <path id="Selection"
        fill="none" stroke="black" stroke-width="1"
        d="M 700.00,0.00
           C 700.00,0.00 700.00,700.00 700.00,700.00
             700.00,700.00 0.00,700.00 0.00,700.00
             0.00,700.00 0.00,0.00 0.00,0.00
             0.00,0.00 700.00,0.00 700.00,0.00 Z
           M 467.90,263.17
           C 465.12,261.60 461.61,262.10 458.00,260.07
             454.31,257.99 452.36,254.62 448.00,253.43
             443.57,252.22 434.66,254.84 432.18,246.98
             431.56,245.01 431.91,236.44 428.30,226.00
             427.29,223.06 424.75,216.47 423.19,214.00
             420.91,210.40 418.11,208.33 416.05,204.00
             416.05,204.00 411.54,189.00 411.54,189.00
             407.43,177.85 409.09,174.71 407.56,165.00
             406.45,157.94 404.76,155.27 402.75,149.00
             401.80,146.07 401.00,141.61 399.56,139.09
             396.41,133.57 388.89,131.59 383.00,130.89
             373.03,129.70 349.98,132.17 340.00,134.63
             333.63,136.19 329.28,136.38 324.99,142.09
             323.01,144.73 315.79,157.05 315.04,160.00
             312.83,168.77 315.23,174.50 316.56,183.00
             316.56,183.00 317.32,196.00 317.32,196.00
             317.32,196.00 322.00,214.00 322.00,214.00
             322.00,214.00 324.68,239.00 324.68,239.00
             326.00,244.55 329.06,247.43 329.55,251.00
             330.38,256.97 324.47,258.79 321.23,262.21
             318.16,265.44 317.80,268.74 318.04,273.00
             318.54,281.73 325.54,284.98 333.00,287.00
             331.29,288.35 330.11,289.46 328.00,290.26
             328.00,290.26 305.00,292.17 305.00,292.17
             305.00,292.17 274.00,297.75 274.00,297.75
             266.25,299.10 258.33,299.22 251.00,302.28
             251.00,302.28 230.00,309.33 230.00,309.33
             227.45,310.17 223.73,311.78 221.13,310.64
             217.28,308.96 217.38,304.45 216.81,301.00
             216.81,301.00 212.35,279.01 212.35,279.01
             207.43,268.35 192.69,269.89 183.00,270.00
             171.70,270.14 157.68,278.48 152.97,289.00
             151.12,293.11 150.91,297.57 151.01,302.00
             151.01,302.00 152.55,323.28 152.55,323.28
             153.59,327.93 156.70,331.08 156.13,333.78
             155.51,336.67 151.31,337.15 149.00,337.93
             145.20,339.20 142.95,340.83 142.23,345.00
             141.56,348.93 142.81,353.78 145.41,356.79
             147.78,359.53 151.29,360.65 152.02,364.59
             153.19,370.93 145.07,380.26 144.18,392.00
             143.57,400.17 146.84,403.35 151.83,409.00
             160.00,418.24 161.23,420.79 174.00,422.16
             174.00,422.16 183.00,423.00 183.00,423.00
             187.96,423.05 198.90,423.81 202.82,421.15
             211.10,415.51 210.13,401.13 213.80,393.00
             216.04,388.04 228.67,377.13 234.00,376.23
             234.00,376.23 247.00,377.00 247.00,377.00
             247.00,377.00 301.00,380.00 301.00,380.00
             301.00,380.00 323.00,382.00 323.00,382.00
             322.99,399.11 318.48,401.77 316.45,416.00
             315.13,424.99 317.30,430.60 316.45,435.00
             315.33,441.05 310.80,447.67 310.20,454.00
             309.32,463.17 316.51,471.26 321.63,478.00
             324.13,481.30 325.07,484.28 328.21,487.18
             333.16,491.75 337.73,491.79 339.97,496.05
             341.94,499.79 339.65,504.10 338.97,508.00
             338.97,508.00 338.97,515.00 338.97,515.00
             339.05,519.01 339.86,522.08 338.97,526.00
             336.77,532.81 331.50,541.01 332.20,548.00
             332.79,553.89 338.60,562.36 342.21,567.00
             342.21,567.00 351.21,578.56 351.21,578.56
             358.64,585.81 368.05,586.95 378.00,587.00
             378.00,587.00 412.00,589.68 412.00,589.68
             414.75,589.88 417.34,589.42 420.00,588.76
             431.49,585.91 430.94,578.56 433.01,569.00
             433.01,569.00 435.71,559.00 435.71,559.00
             435.71,559.00 440.42,526.00 440.42,526.00
             442.36,515.26 446.87,503.70 447.00,493.00
             447.21,474.86 449.16,479.27 452.58,464.00
             452.58,464.00 454.72,448.00 454.72,448.00
             454.72,448.00 455.46,437.00 455.46,437.00
             455.46,437.00 459.96,422.00 459.96,422.00
             461.98,413.96 463.09,401.33 463.23,393.00
             462.95,388.73 460.45,380.48 463.23,377.74
             467.49,374.09 481.44,376.06 487.00,376.00
             495.22,375.90 518.34,368.90 526.00,365.25
             528.95,363.85 535.46,361.43 537.49,359.36
             541.43,355.35 538.63,349.30 542.51,345.56
             545.18,342.99 549.75,343.41 553.00,342.11
             558.36,339.98 563.00,332.81 562.61,327.00
             562.17,320.50 558.17,316.39 552.00,314.85
             548.89,314.07 544.69,314.29 542.22,312.40
             536.82,308.28 538.77,298.75 530.91,294.14
             527.89,292.36 521.73,291.83 518.00,290.84
             507.17,287.99 508.42,286.26 495.00,284.42
             484.99,283.06 483.00,285.56 472.00,282.00
             473.47,275.96 474.27,266.79 467.90,263.17 Z" />
</svg>
