<?xml version="1.0" encoding="UTF-8" standalone="no"?>
<!DOCTYPE svg PUBLIC "-//W3C//DTD SVG 20010904//EN"
              "http://www.w3.org/TR/2001/REC-SVG-20010904/DTD/svg10.dtd">

<svg xmlns="http://www.w3.org/2000/svg"
     width="9.72222in" height="9.72222in"
     viewBox="0 0 700 700">
  <path id="Selection"
        fill="none" stroke="black" stroke-width="1"
        d="M 700.00,0.00
           C 700.00,0.00 700.00,700.00 700.00,700.00
             700.00,700.00 0.00,700.00 0.00,700.00
             0.00,700.00 0.00,0.00 0.00,0.00
             0.00,0.00 700.00,0.00 700.00,0.00 Z
           M 291.00,291.33
           C 286.32,292.29 281.74,291.94 277.00,292.00
             267.97,292.12 267.75,294.90 260.00,297.48
             253.84,299.53 251.94,298.49 247.00,299.76
             241.12,301.27 239.67,302.95 235.00,304.94
             235.00,304.94 225.00,307.75 225.00,307.75
             222.92,308.43 219.10,310.36 217.09,310.01
             214.23,309.53 212.79,306.39 211.80,304.00
             209.71,298.96 208.08,294.07 203.90,290.22
             197.43,284.28 183.49,285.90 175.00,286.00
             165.51,286.12 150.56,293.24 146.17,302.00
             144.97,304.40 144.92,307.36 145.04,310.00
             145.47,319.64 152.96,323.52 152.25,329.96
             151.78,334.13 147.86,334.50 145.39,336.69
             143.21,338.63 142.33,341.15 142.12,344.00
             141.92,346.66 146.06,363.08 147.13,366.00
             147.13,366.00 150.87,374.00 150.87,374.00
             150.87,374.00 153.64,389.00 153.64,389.00
             153.64,389.00 159.95,404.00 159.95,404.00
             163.30,412.33 164.46,418.75 175.00,419.82
             178.91,420.22 181.30,419.34 185.00,419.09
             192.02,418.61 199.83,419.96 205.47,414.53
             205.47,414.53 220.19,393.00 220.19,393.00
             222.76,388.95 223.38,386.05 228.02,383.88
             233.22,380.79 248.50,383.92 255.00,383.88
             255.00,383.88 267.00,383.88 267.00,383.88
             267.00,383.88 278.00,385.00 278.00,385.00
             278.00,385.00 297.00,385.00 297.00,385.00
             301.56,384.99 315.38,383.33 318.30,386.74
             320.82,389.69 316.31,393.32 316.24,398.00
             316.18,402.19 322.26,409.95 325.18,412.87
             329.02,416.71 331.96,416.99 336.00,419.67
             336.00,419.67 345.00,426.88 345.00,426.88
             347.58,428.94 350.92,430.79 352.07,434.04
             353.94,439.36 348.88,444.86 346.90,453.00
             346.90,453.00 345.33,463.00 345.33,463.00
             345.33,463.00 341.17,475.00 341.17,475.00
             341.17,475.00 339.32,486.00 339.32,486.00
             339.32,486.00 334.34,500.00 334.34,500.00
             332.96,509.22 342.63,520.51 350.00,524.79
             353.94,527.08 362.48,530.02 367.00,531.10
             367.00,531.10 391.00,533.00 391.00,533.00
             391.00,533.00 408.00,533.00 408.00,533.00
             411.21,533.00 415.04,533.18 417.96,531.69
             422.36,529.43 428.63,516.82 430.07,512.00
             430.07,512.00 432.75,501.00 432.75,501.00
             432.75,501.00 437.19,491.00 437.19,491.00
             437.19,491.00 439.95,479.00 439.95,479.00
             439.95,479.00 445.52,467.00 445.52,467.00
             445.52,467.00 447.75,456.00 447.75,456.00
             447.75,456.00 453.19,444.00 453.19,444.00
             453.19,444.00 455.63,433.00 455.63,433.00
             455.63,433.00 460.54,422.00 460.54,422.00
             460.54,422.00 466.33,401.00 466.33,401.00
             467.48,395.58 467.25,389.25 465.46,384.00
             464.37,380.81 461.43,375.43 463.11,372.15
             465.06,368.35 469.64,369.86 473.00,369.96
             473.00,369.96 498.00,367.32 498.00,367.32
             505.74,365.51 517.09,360.21 524.00,356.23
             526.87,354.58 530.88,352.99 533.24,350.89
             538.11,346.58 538.24,340.83 542.33,337.74
             546.47,334.61 552.09,337.28 556.01,331.86
             560.14,326.14 560.20,315.13 553.81,310.93
             550.33,308.65 545.62,309.56 542.21,307.15
             538.70,304.67 538.01,299.74 534.24,295.10
             531.22,291.39 524.49,288.17 520.00,286.47
             520.00,286.47 493.00,281.17 493.00,281.17
             489.96,280.81 482.64,280.48 480.22,278.98
             476.48,276.66 477.40,272.18 473.61,268.56
             469.75,264.87 465.30,265.51 461.00,263.43
             453.34,259.74 452.89,252.31 441.00,253.10
             434.43,253.53 432.58,255.51 426.10,251.01
             420.20,246.91 420.88,242.78 419.39,237.00
             419.39,237.00 416.46,227.00 416.46,227.00
             416.46,227.00 415.82,219.00 415.82,219.00
             415.82,219.00 414.17,211.00 414.17,211.00
             414.17,211.00 412.68,198.00 412.68,198.00
             411.61,191.76 409.25,189.86 407.87,180.00
             406.68,171.50 406.15,156.81 396.99,153.01
             394.19,151.84 390.98,152.00 388.00,152.00
             388.00,152.00 346.00,152.00 346.00,152.00
             334.45,152.02 333.52,153.02 325.70,161.17
             318.25,168.92 314.16,171.53 312.65,183.00
             311.94,188.45 314.80,192.67 315.71,198.00
             315.71,198.00 317.79,211.00 317.79,211.00
             317.79,211.00 322.50,224.00 322.50,224.00
             322.50,224.00 325.49,241.00 325.49,241.00
             326.84,245.78 329.75,249.15 330.13,253.00
             330.76,259.28 325.25,260.94 322.11,265.18
             318.14,270.53 317.22,277.72 319.00,284.00
             319.00,284.00 291.00,291.33 291.00,291.33 Z" />
</svg>
