<?xml version="1.0" encoding="UTF-8" standalone="no"?>
<!DOCTYPE svg PUBLIC "-//W3C//DTD SVG 20010904//EN"
              "http://www.w3.org/TR/2001/REC-SVG-20010904/DTD/svg10.dtd">

<svg xmlns="http://www.w3.org/2000/svg"
     width="9.72222in" height="9.72222in"
     viewBox="0 0 700 700">
  <path id="Selection"
        fill="none" stroke="black" stroke-width="1"
        d="M 700.00,0.00
           C 700.00,0.00 700.00,700.00 700.00,700.00
             700.00,700.00 0.00,700.00 0.00,700.00
             0.00,700.00 0.00,0.00 0.00,0.00
             0.00,0.00 700.00,0.00 700.00,0.00 Z
           M 477.42,278.91
           C 479.35,273.50 475.91,267.70 471.96,264.22
             466.16,259.11 453.99,258.71 447.11,252.70
             442.15,248.37 441.61,241.99 440.34,236.00
             437.35,221.92 440.06,206.91 432.66,194.00
             430.08,189.49 427.15,186.13 422.00,184.64
             418.21,183.53 414.24,184.60 411.54,182.35
             409.03,180.27 410.07,175.96 409.96,173.00
             409.72,166.66 407.02,161.16 407.00,149.00
             406.99,144.99 407.25,140.92 406.24,137.00
             405.53,134.22 404.04,130.56 402.73,128.00
             396.37,115.64 385.56,117.73 374.00,118.92
             374.00,118.92 364.00,118.92 364.00,118.92
             364.00,118.92 353.00,119.91 353.00,119.91
             344.55,120.49 335.68,119.53 329.11,126.11
             325.43,129.78 324.08,134.50 321.74,139.00
             316.52,149.02 312.09,151.37 313.09,164.00
             313.90,174.11 317.80,175.03 318.00,192.00
             318.00,192.00 320.72,210.00 320.72,210.00
             320.72,210.00 321.29,218.00 321.29,218.00
             321.29,218.00 323.71,231.00 323.71,231.00
             323.71,231.00 324.82,240.00 324.82,240.00
             326.63,248.28 331.15,248.83 331.53,252.41
             331.98,256.76 325.58,257.70 322.22,263.04
             317.87,269.96 317.61,279.82 324.30,285.35
             326.70,287.34 331.02,288.69 334.00,290.00
             327.68,292.63 324.61,291.99 318.00,292.00
             302.55,292.02 301.34,294.69 290.00,296.68
             273.98,299.49 267.98,297.53 251.00,303.69
             251.00,303.69 242.00,307.09 242.00,307.09
             242.00,307.09 229.00,310.53 229.00,310.53
             224.94,312.28 222.28,315.17 219.11,313.85
             216.24,312.65 215.01,308.78 214.47,306.00
             213.19,299.42 215.04,295.32 211.78,285.00
             211.01,282.57 209.92,280.23 208.69,278.00
             201.42,264.85 192.10,269.98 180.00,270.00
             175.73,270.01 166.65,269.49 163.04,271.01
             158.12,273.07 147.66,287.21 145.89,292.00
             145.03,294.32 144.91,297.54 145.04,300.00
             145.39,306.61 148.29,308.38 150.52,314.00
             150.52,314.00 153.10,324.00 153.10,324.00
             153.74,325.91 155.37,329.07 155.30,330.96
             155.04,337.57 144.81,335.16 143.23,344.00
             141.00,356.43 152.90,369.18 153.81,382.00
             154.32,389.22 148.10,394.36 153.09,402.99
             154.60,405.61 156.52,407.10 158.49,409.28
             160.10,411.06 161.28,412.84 163.18,414.37
             169.85,419.73 181.73,420.33 190.00,421.42
             197.10,422.36 208.54,420.54 212.56,413.82
             214.63,410.36 215.11,404.97 214.86,401.00
             214.85,398.11 213.91,394.71 214.86,392.00
             215.52,389.58 217.49,387.31 219.13,385.42
             221.65,382.53 225.31,378.14 229.00,376.98
             231.74,376.12 237.99,377.17 241.00,377.58
             241.00,377.58 260.00,379.04 260.00,379.04
             260.00,379.04 273.00,379.04 273.00,379.04
             273.00,379.04 284.00,380.00 284.00,380.00
             284.00,380.00 304.00,380.00 304.00,380.00
             308.50,380.06 323.66,381.27 325.56,385.68
             325.56,385.68 322.58,401.00 322.58,401.00
             322.58,401.00 319.29,417.00 319.29,417.00
             319.29,417.00 318.62,428.00 318.62,428.00
             317.15,435.39 312.82,441.13 315.80,451.00
             317.13,455.42 327.46,471.83 331.04,474.57
             335.98,478.35 344.78,476.15 345.48,483.02
             345.48,483.02 339.67,501.00 339.67,501.00
             339.67,501.00 337.96,520.00 337.96,520.00
             336.32,526.64 332.29,530.55 333.19,538.00
             333.96,544.34 342.68,557.19 347.32,561.63
             349.39,563.61 354.40,566.85 357.00,568.18
             362.33,570.90 369.05,571.93 375.00,572.00
             375.00,572.00 390.00,572.00 390.00,572.00
             390.00,572.00 404.00,573.00 404.00,573.00
             410.96,573.08 419.65,573.27 424.04,566.96
             433.37,553.53 429.24,547.78 432.78,535.00
             432.78,535.00 437.98,520.00 437.98,520.00
             437.98,520.00 440.16,503.00 440.16,503.00
             440.16,503.00 446.33,485.00 446.33,485.00
             446.33,485.00 447.67,471.00 447.67,471.00
             449.98,460.19 452.85,462.54 454.72,447.00
             455.22,442.78 454.74,440.40 455.93,436.00
             455.93,436.00 461.24,422.00 461.24,422.00
             461.24,422.00 463.46,406.00 463.46,406.00
             465.59,393.91 466.97,396.45 466.31,383.00
             465.76,371.75 473.00,376.47 480.00,376.19
             494.25,375.62 510.35,371.24 523.00,364.71
             525.69,363.32 530.89,361.23 532.90,359.57
             538.34,355.08 537.41,349.41 541.53,345.31
             544.67,342.19 548.95,343.05 552.90,340.72
             558.34,337.52 559.10,328.50 557.35,323.00
             554.42,313.81 545.96,317.97 541.70,313.49
             538.49,310.12 538.88,302.18 530.00,295.42
             524.56,291.27 517.42,292.07 511.00,290.71
             511.00,290.71 495.00,285.67 495.00,285.67
             495.00,285.67 474.00,284.00 474.00,284.00
             475.20,282.45 476.75,280.76 477.42,278.91 Z" />
</svg>
