<?xml version="1.0" encoding="UTF-8" standalone="no"?>
<!DOCTYPE svg PUBLIC "-//W3C//DTD SVG 20010904//EN"
              "http://www.w3.org/TR/2001/REC-SVG-20010904/DTD/svg10.dtd">

<svg xmlns="http://www.w3.org/2000/svg"
     width="9.72222in" height="9.72222in"
     viewBox="0 0 700 700">
  <path id="Selection"
        fill="none" stroke="black" stroke-width="1"
        d="M 700.00,0.00
           C 700.00,0.00 700.00,700.00 700.00,700.00
             700.00,700.00 0.00,700.00 0.00,700.00
             0.00,700.00 0.00,0.00 0.00,0.00
             0.00,0.00 700.00,0.00 700.00,0.00 Z
           M 474.82,287.00
           C 475.06,284.97 475.04,281.94 474.26,280.04
             471.36,272.90 460.93,275.32 457.72,273.61
             453.50,271.36 454.05,261.16 454.00,257.00
             453.84,243.89 448.88,234.25 447.29,222.00
             447.29,222.00 445.56,198.00 445.56,198.00
             445.56,198.00 439.12,170.00 439.12,170.00
             439.12,170.00 439.12,160.00 439.12,160.00
             438.64,152.62 437.53,145.12 435.58,138.00
             435.58,138.00 433.08,127.00 433.08,127.00
             431.89,119.94 432.05,110.57 424.91,106.69
             421.49,104.82 417.76,105.01 414.00,105.00
             414.00,105.00 369.00,105.81 369.00,105.81
             359.44,107.72 358.37,110.72 353.00,112.36
             343.41,115.28 339.02,110.92 328.10,121.30
             323.35,125.82 323.70,128.50 321.54,134.00
             315.99,148.13 314.80,142.96 315.00,160.00
             315.00,160.00 317.86,179.00 317.86,179.00
             317.86,179.00 317.86,190.00 317.86,190.00
             317.86,190.00 322.72,216.00 322.72,216.00
             322.72,216.00 326.30,253.00 326.30,253.00
             327.20,258.95 329.81,262.37 329.90,264.98
             330.05,269.47 325.58,269.83 323.08,273.34
             320.53,276.93 319.62,283.68 320.19,288.00
             320.78,292.53 322.63,295.86 327.04,297.52
             329.75,298.54 335.80,298.85 335.80,302.10
             335.80,306.93 327.45,307.95 324.00,308.00
             324.00,308.00 318.00,308.00 318.00,308.00
             307.03,308.13 298.92,311.42 289.00,312.71
             289.00,312.71 254.00,316.36 254.00,316.36
             246.33,318.07 246.23,319.95 232.00,322.61
             229.42,323.09 225.60,324.17 223.11,323.22
             217.27,321.01 219.80,313.50 218.49,307.00
             218.49,307.00 214.17,288.00 214.17,288.00
             213.25,279.37 214.58,267.68 209.78,260.04
             204.23,251.23 194.50,253.35 186.00,253.79
             180.11,254.10 177.45,251.80 170.00,254.34
             166.68,255.47 164.63,257.41 162.09,259.73
             152.38,268.60 150.86,274.21 151.00,287.00
             151.00,287.00 153.00,308.00 153.00,308.00
             153.04,311.80 152.76,319.95 153.55,323.28
             154.89,328.94 159.82,332.50 159.70,335.94
             159.58,339.57 155.59,339.70 153.00,340.17
             148.92,340.91 145.83,342.44 145.31,347.00
             144.82,351.36 146.69,355.53 150.06,358.22
             152.60,360.25 157.57,362.38 157.98,366.02
             158.34,369.28 155.00,370.88 154.03,377.00
             154.03,377.00 152.00,407.00 152.00,407.00
             151.93,413.64 151.53,420.75 154.13,427.00
             155.50,430.31 157.48,432.49 160.02,434.96
             169.45,444.15 174.09,444.03 186.00,445.17
             186.00,445.17 194.00,445.99 194.00,445.99
             196.44,446.04 199.65,446.04 202.00,445.47
             216.04,442.06 212.92,426.54 214.29,416.00
             214.29,416.00 219.56,390.00 219.56,390.00
             220.37,384.81 218.82,376.01 223.28,372.79
             226.28,370.32 229.83,372.04 233.00,372.79
             233.00,372.79 252.00,377.54 252.00,377.54
             252.00,377.54 270.00,379.15 270.00,379.15
             270.00,379.15 285.00,381.83 285.00,381.83
             285.00,381.83 309.00,383.00 309.00,383.00
             309.00,383.00 329.00,385.00 329.00,385.00
             326.98,386.96 324.41,388.62 322.75,391.05
             320.34,395.33 320.37,405.51 322.75,409.96
             324.32,413.52 328.33,415.76 328.59,420.00
             328.74,422.42 326.87,427.31 326.24,430.00
             325.29,434.02 324.05,444.85 324.00,449.00
             323.80,466.51 321.43,469.21 318.61,485.00
             318.61,485.00 315.01,519.00 315.01,519.00
             314.77,529.66 316.95,533.48 320.47,543.00
             321.56,545.95 322.75,550.36 324.70,552.78
             327.46,556.21 331.22,556.23 334.07,561.02
             335.59,563.58 336.99,570.73 337.89,574.00
             339.15,578.60 344.18,590.01 346.96,593.71
             351.49,599.74 357.18,601.43 364.00,603.42
             377.76,607.45 385.06,607.11 399.00,608.09
             399.00,608.09 408.00,608.99 408.00,608.99
             410.53,609.04 413.57,609.07 416.00,608.36
             418.05,607.77 420.21,606.61 422.00,605.45
             435.85,596.51 430.15,586.79 432.67,575.00
             432.67,575.00 437.70,558.00 437.70,558.00
             437.70,558.00 440.61,529.00 440.61,529.00
             440.61,529.00 445.56,510.00 445.56,510.00
             445.56,510.00 448.74,480.00 448.74,480.00
             450.49,473.03 453.11,466.20 453.83,459.00
             455.03,447.05 454.93,437.95 458.15,426.00
             458.76,423.73 460.22,417.86 461.30,416.14
             464.42,411.18 469.73,413.39 473.27,408.78
             477.36,403.42 475.74,397.75 472.00,393.00
             494.90,389.98 489.24,391.67 513.00,385.90
             519.11,384.41 525.66,384.48 530.83,380.36
             538.96,373.88 537.49,365.35 541.57,361.56
             544.50,358.83 549.38,359.37 552.79,357.43
             558.42,354.22 558.80,344.45 556.74,339.02
             553.24,329.82 545.69,335.71 540.73,328.87
             538.30,325.51 538.02,315.09 529.96,309.84
             525.31,306.81 517.59,306.90 512.00,305.92
             512.00,305.92 501.00,303.28 501.00,303.28
             501.00,303.28 480.00,300.17 480.00,300.17
             480.00,300.17 464.29,300.68 464.29,300.68
             462.77,300.00 462.71,299.19 462.00,298.00
             469.48,297.58 473.85,294.94 474.82,287.00 Z" />
</svg>
