<?xml version="1.0" encoding="UTF-8" standalone="no"?>
<!DOCTYPE svg PUBLIC "-//W3C//DTD SVG 20010904//EN"
              "http://www.w3.org/TR/2001/REC-SVG-20010904/DTD/svg10.dtd">

<svg xmlns="http://www.w3.org/2000/svg"
     width="9.72222in" height="9.72222in"
     viewBox="0 0 700 700">
  <path id="Selection"
        fill="none" stroke="black" stroke-width="1"
        d="M 700.00,0.00
           C 700.00,0.00 700.00,700.00 700.00,700.00
             700.00,700.00 0.00,700.00 0.00,700.00
             0.00,700.00 0.00,0.00 0.00,0.00
             0.00,0.00 700.00,0.00 700.00,0.00 Z
           M 456.30,314.00
           C 461.38,308.03 466.16,304.74 464.67,296.00
             463.32,288.05 453.16,280.03 447.60,273.84
             447.60,273.84 434.15,259.00 434.15,259.00
             425.44,249.11 420.24,241.59 406.00,240.52
             406.00,240.52 381.00,243.04 381.00,243.04
             381.00,243.04 367.00,244.72 367.00,244.72
             355.76,246.05 335.84,244.22 337.10,261.00
             337.60,267.80 341.58,270.19 345.70,275.00
             350.07,280.10 352.45,284.17 358.00,288.66
             362.93,292.65 368.80,293.27 368.80,297.00
             368.80,299.17 366.64,300.36 364.98,301.22
             360.20,303.70 359.23,303.42 355.37,308.02
             353.48,310.27 350.34,315.68 347.42,316.35
             344.77,316.96 344.33,314.12 336.00,314.00
             336.00,314.00 316.00,315.00 316.00,315.00
             316.00,315.00 272.00,315.00 272.00,315.00
             272.00,315.00 260.00,315.82 260.00,315.82
             260.00,315.82 247.00,315.82 247.00,315.82
             242.08,316.01 235.08,317.61 231.01,315.82
             225.21,312.60 223.01,306.49 220.49,301.00
             220.49,301.00 214.23,290.00 214.23,290.00
             210.91,283.20 209.80,277.34 203.00,272.51
             199.26,269.86 187.00,269.23 182.00,269.04
             173.22,268.70 166.85,271.77 162.92,280.00
             159.67,286.79 160.20,294.64 158.09,302.00
             158.09,302.00 155.02,312.00 155.02,312.00
             155.02,312.00 151.10,331.00 151.10,331.00
             149.13,337.34 144.44,345.52 144.11,352.00
             143.82,357.65 146.08,359.28 146.79,364.00
             147.44,368.32 146.01,374.24 148.60,377.89
             151.76,382.34 158.04,382.69 163.00,383.02
             163.00,383.02 174.00,384.00 174.00,384.00
             174.00,384.00 192.00,384.00 192.00,384.00
             203.56,384.16 201.64,389.77 210.00,392.66
             210.00,392.66 218.00,394.81 218.00,394.81
             218.00,394.81 228.00,398.70 228.00,398.70
             228.00,398.70 237.00,400.96 237.00,400.96
             237.00,400.96 251.00,407.07 251.00,407.07
             251.00,407.07 263.00,409.16 263.00,409.16
             269.34,410.87 272.82,413.67 280.00,414.70
             280.00,414.70 290.00,415.28 290.00,415.28
             290.00,415.28 311.00,418.91 311.00,418.91
             316.90,420.02 324.20,421.28 328.76,425.63
             332.88,429.55 328.75,432.78 326.20,436.00
             322.65,440.49 323.01,442.12 320.36,446.00
             317.70,449.89 315.56,451.02 314.19,456.00
             311.96,464.11 315.80,467.84 322.00,472.11
             331.08,478.37 344.12,479.98 355.00,480.00
             355.00,480.00 387.00,479.09 387.00,479.09
             391.96,478.73 397.77,478.96 401.82,475.57
             405.83,472.21 406.47,468.17 408.75,464.00
             408.75,464.00 413.91,456.00 413.91,456.00
             413.91,456.00 420.58,444.00 420.58,444.00
             422.49,440.90 424.92,435.93 428.10,434.17
             431.25,432.44 439.17,433.04 443.00,433.00
             446.68,432.95 449.63,432.83 453.00,431.11
             456.05,429.55 458.42,427.02 462.00,426.48
             466.08,425.88 468.28,428.44 476.00,427.91
             476.00,427.91 488.00,425.61 488.00,425.61
             503.98,422.60 501.77,424.44 518.00,417.86
             521.17,416.58 525.19,415.74 527.99,414.00
             534.05,410.22 535.03,404.30 540.04,400.31
             545.52,395.95 552.47,399.41 557.74,391.90
             562.22,385.51 559.30,374.20 553.79,371.74
             550.17,370.12 545.85,372.43 541.39,367.77
             538.55,364.81 537.89,360.77 533.90,357.41
             531.57,355.46 527.80,354.12 525.00,352.56
             525.00,352.56 517.00,347.98 517.00,347.98
             517.00,347.98 494.00,339.50 494.00,339.50
             494.00,339.50 480.00,337.54 480.00,337.54
             473.62,336.38 467.62,333.34 461.00,333.34
             452.37,333.34 447.78,337.57 439.00,338.00
             441.55,332.40 451.97,319.08 456.30,314.00 Z" />
</svg>
