<?xml version="1.0" encoding="UTF-8" standalone="no"?>
<!DOCTYPE svg PUBLIC "-//W3C//DTD SVG 20010904//EN"
              "http://www.w3.org/TR/2001/REC-SVG-20010904/DTD/svg10.dtd">

<svg xmlns="http://www.w3.org/2000/svg"
     width="9.72222in" height="9.72222in"
     viewBox="0 0 700 700">
  <path id="Selection"
        fill="none" stroke="black" stroke-width="1"
        d="M 700.00,0.00
           C 700.00,0.00 700.00,700.00 700.00,700.00
             700.00,700.00 0.00,700.00 0.00,700.00
             0.00,700.00 0.00,0.00 0.00,0.00
             0.00,0.00 700.00,0.00 700.00,0.00 Z
           M 500.00,415.71
           C 507.78,414.70 512.87,412.03 520.00,409.75
             523.13,408.74 529.54,407.55 531.91,406.07
             538.88,401.70 536.48,393.86 542.19,389.59
             545.48,387.13 561.48,387.01 562.61,374.00
             563.14,367.86 558.55,361.07 553.00,358.70
             549.93,357.39 545.92,357.60 543.28,355.42
             537.86,350.94 542.50,343.73 534.95,339.44
             534.95,339.44 527.00,336.54 527.00,336.54
             527.00,336.54 518.00,332.35 518.00,332.35
             518.00,332.35 502.00,328.35 502.00,328.35
             492.91,326.18 494.27,325.01 484.00,325.00
             479.23,324.99 467.03,325.80 463.52,322.40
             460.73,319.71 463.09,309.39 462.99,305.00
             462.99,305.00 462.17,297.00 462.17,297.00
             462.17,297.00 461.56,288.00 461.56,288.00
             461.56,288.00 455.46,264.00 455.46,264.00
             455.46,264.00 454.83,255.00 454.83,255.00
             454.83,255.00 452.54,237.00 452.54,237.00
             452.54,237.00 447.52,219.00 447.52,219.00
             447.52,219.00 445.72,200.00 445.72,200.00
             445.72,200.00 441.45,181.00 441.45,181.00
             441.45,181.00 437.42,156.00 437.42,156.00
             437.42,156.00 436.54,148.00 436.54,148.00
             436.54,148.00 432.27,129.00 432.27,129.00
             431.50,124.00 431.11,118.09 426.79,114.70
             422.25,111.14 412.67,111.94 407.00,112.00
             407.00,112.00 394.00,113.00 394.00,113.00
             394.00,113.00 374.00,113.83 374.00,113.83
             363.61,114.83 358.37,114.96 350.18,123.18
             347.03,126.34 341.52,135.79 339.23,140.00
             336.81,144.45 333.58,148.83 333.10,154.00
             332.00,165.87 339.83,169.27 340.19,182.00
             340.04,185.13 339.81,190.12 340.19,193.00
             341.10,196.67 343.24,199.59 341.73,202.91
             339.79,207.17 333.41,208.68 328.21,213.62
             323.49,218.09 312.69,236.40 311.38,243.00
             309.17,254.12 316.93,259.41 317.00,273.00
             317.00,273.00 317.00,278.00 317.00,278.00
             317.00,278.00 323.00,320.00 323.00,320.00
             309.72,318.26 314.42,320.96 306.00,321.22
             306.00,321.22 295.00,321.22 295.00,321.22
             295.00,321.22 282.00,321.91 282.00,321.91
             282.00,321.91 246.00,324.00 246.00,324.00
             242.28,324.05 235.96,325.34 233.00,324.57
             228.78,323.47 215.66,312.10 213.80,308.00
             210.30,300.27 211.30,280.09 196.00,277.33
             190.00,276.25 185.69,277.51 180.00,278.54
             164.41,281.35 161.81,278.96 151.12,293.00
             146.84,298.61 143.68,302.48 144.33,310.00
             145.32,321.45 153.17,328.67 152.03,335.42
             151.34,339.50 147.87,340.75 145.64,343.37
             143.07,346.40 141.40,352.08 142.43,356.00
             143.71,360.80 146.97,361.70 151.00,363.38
             153.13,364.27 156.45,365.57 156.58,368.30
             156.69,370.50 154.07,373.24 152.82,379.00
             152.82,379.00 151.04,402.00 151.04,402.00
             151.15,405.25 151.97,410.12 153.45,413.00
             156.39,418.75 167.67,428.23 174.00,430.20
             180.21,431.86 182.18,430.34 187.00,430.20
             187.00,430.20 196.00,430.91 196.00,430.91
             198.50,430.77 203.75,429.95 205.96,428.92
             213.99,425.18 213.22,417.25 214.30,410.00
             214.30,410.00 216.26,402.00 216.26,402.00
             217.08,398.73 217.40,392.98 220.42,391.16
             222.87,389.43 226.43,390.59 229.00,391.16
             236.53,393.37 238.94,394.43 246.00,397.43
             253.03,400.42 257.88,400.05 265.00,401.32
             265.00,401.32 284.00,405.92 284.00,405.92
             284.00,405.92 310.00,409.20 310.00,409.20
             310.00,409.20 327.86,411.60 327.86,411.60
             329.90,412.47 330.03,413.28 331.00,415.00
             320.69,415.60 316.12,423.20 318.39,433.00
             320.35,441.43 329.72,441.13 329.91,449.00
             330.03,453.52 326.18,455.77 324.62,464.00
             324.62,464.00 321.39,491.00 321.39,491.00
             321.39,491.00 317.10,507.00 317.10,507.00
             317.10,507.00 317.10,519.09 317.10,519.09
             315.34,528.72 312.43,531.11 315.54,542.00
             316.40,544.99 323.41,556.40 325.53,558.91
             328.73,562.71 331.56,563.71 336.00,565.42
             351.08,571.24 353.62,569.84 369.00,570.17
             369.00,570.17 381.00,570.17 381.00,570.17
             388.21,569.71 396.57,568.48 399.86,560.91
             399.86,560.91 407.24,537.00 407.24,537.00
             409.30,525.20 407.04,524.84 411.77,511.00
             411.77,511.00 416.14,496.00 416.14,496.00
             419.41,489.98 423.18,489.93 427.70,477.00
             430.98,467.63 430.62,458.42 431.86,454.02
             434.19,445.75 442.40,447.91 448.00,446.61
             453.10,445.43 454.40,442.42 458.09,440.45
             461.70,438.51 466.18,438.70 468.79,437.02
             474.32,433.45 473.33,424.46 472.00,419.00
             489.15,414.03 487.00,417.41 500.00,415.71 Z" />
</svg>
