<?xml version="1.0" encoding="UTF-8" standalone="no"?>
<!DOCTYPE svg PUBLIC "-//W3C//DTD SVG 20010904//EN"
              "http://www.w3.org/TR/2001/REC-SVG-20010904/DTD/svg10.dtd">

<svg xmlns="http://www.w3.org/2000/svg"
     width="9.72222in" height="9.72222in"
     viewBox="0 0 700 700">
  <path id="Selection"
        fill="none" stroke="black" stroke-width="1"
        d="M 700.00,0.00
           C 700.00,0.00 700.00,700.00 700.00,700.00
             700.00,700.00 0.00,700.00 0.00,700.00
             0.00,700.00 0.00,0.00 0.00,0.00
             0.00,0.00 700.00,0.00 700.00,0.00 Z
           M 622.00,306.94
           C 614.16,307.54 610.67,305.06 605.00,305.08
             599.62,305.10 597.07,307.33 594.00,307.23
             589.96,307.11 587.46,303.76 584.85,301.15
             579.83,296.16 575.62,291.29 569.00,288.35
             561.37,284.96 551.14,286.14 543.00,287.30
             537.90,288.03 533.69,290.54 529.11,286.69
             524.09,282.46 524.42,272.31 523.92,266.00
             523.92,266.00 517.62,237.00 517.62,237.00
             516.80,232.54 517.21,226.77 513.70,223.43
             510.09,219.98 503.67,220.01 499.00,220.00
             499.00,220.00 472.00,220.53 472.00,220.53
             463.57,222.48 463.12,227.61 455.00,226.99
             451.63,226.73 449.65,225.92 446.00,226.18
             446.00,226.18 426.00,228.91 426.00,228.91
             426.00,228.91 408.00,228.91 408.00,228.91
             408.00,228.91 391.00,226.80 391.00,226.80
             391.00,226.80 375.00,226.80 375.00,226.80
             371.71,225.72 369.25,223.38 366.00,221.96
             361.89,220.18 358.37,220.02 354.00,220.00
             354.00,220.00 337.00,220.00 337.00,220.00
             332.06,220.01 325.18,220.19 321.21,223.51
             315.80,228.03 316.07,239.44 316.00,246.00
             316.00,246.00 312.15,277.00 312.15,277.00
             311.73,280.44 311.31,285.78 307.73,287.20
             304.95,288.87 299.09,287.46 296.00,287.20
             296.00,287.20 288.00,287.20 288.00,287.20
             279.95,286.36 273.35,284.79 266.10,290.22
             259.24,295.36 245.54,325.08 241.78,328.77
             240.40,330.13 238.91,331.09 237.00,331.24
             237.00,331.24 214.00,331.24 214.00,331.24
             210.98,331.00 207.78,330.79 205.00,332.17
             201.68,333.83 199.30,337.30 196.00,338.10
             196.00,338.10 183.00,338.10 183.00,338.10
             183.00,338.10 158.72,338.10 158.72,338.10
             154.28,336.93 152.74,333.53 148.91,332.43
             145.75,331.52 141.28,332.67 138.27,330.83
             135.83,329.33 135.41,326.74 132.78,324.72
             132.78,324.72 123.00,320.07 123.00,320.07
             116.23,316.06 103.35,306.51 95.02,308.61
             86.49,310.75 91.32,320.16 86.32,328.00
             81.23,335.96 75.50,337.72 70.22,344.00
             64.99,350.23 63.00,365.79 67.09,373.00
             71.99,381.66 81.03,384.14 82.81,392.00
             83.20,393.72 84.16,398.89 83.57,400.41
             82.27,403.74 76.78,406.16 74.00,408.39
             68.20,413.03 66.10,416.69 66.00,424.00
             65.82,438.07 68.42,434.52 73.46,445.00
             73.46,445.00 76.41,452.00 76.41,452.00
             76.41,452.00 86.49,466.00 86.49,466.00
             86.49,466.00 91.91,475.00 91.91,475.00
             91.91,475.00 109.00,501.00 109.00,501.00
             109.00,501.00 94.02,502.89 94.02,502.89
             86.10,506.03 86.20,519.13 92.13,524.07
             97.51,528.55 100.65,527.22 103.79,529.00
             106.54,530.57 108.29,534.48 112.17,536.71
             118.36,540.27 124.47,538.08 131.00,538.00
             135.61,537.95 141.75,538.47 146.00,536.86
             152.24,534.49 160.91,523.96 167.00,518.92
             172.76,514.16 180.99,508.90 178.69,500.04
             176.82,492.89 170.07,497.25 165.43,491.85
             161.01,486.72 164.56,481.15 163.91,472.00
             163.68,468.79 162.52,465.10 163.03,462.00
             163.51,459.16 164.79,457.38 167.06,455.65
             167.06,455.65 188.00,444.82 188.00,444.82
             195.44,441.02 206.80,433.30 215.28,433.88
             215.28,433.88 238.00,435.96 238.00,435.96
             245.79,435.62 250.33,430.97 257.00,432.28
             265.07,433.87 263.80,442.03 271.02,445.83
             278.38,449.71 291.10,447.17 299.00,447.00
             297.64,456.74 289.54,458.99 292.61,465.96
             294.86,471.06 300.35,472.12 304.83,474.19
             304.83,474.19 311.04,477.22 311.04,477.22
             314.85,478.50 316.59,478.19 321.00,480.17
             333.23,485.65 332.69,482.68 343.00,485.96
             343.00,485.96 361.00,492.48 361.00,492.48
             361.00,492.48 375.00,493.90 375.00,493.90
             384.37,496.18 381.60,497.98 393.00,498.00
             393.00,498.00 427.00,498.00 427.00,498.00
             427.00,498.00 458.00,498.00 458.00,498.00
             462.17,498.00 469.27,498.55 472.83,496.55
             477.86,493.70 478.13,489.16 477.98,484.00
             477.58,469.98 460.35,468.13 461.04,451.00
             461.51,439.32 466.57,441.44 473.00,440.72
             475.59,440.58 478.45,439.73 480.99,440.72
             485.83,442.29 486.39,447.63 496.00,447.87
             503.53,448.06 507.28,443.27 512.00,441.70
             516.01,440.36 521.96,441.50 526.00,440.66
             535.17,438.75 530.94,431.08 535.31,428.17
             537.70,426.59 542.17,427.17 545.00,426.90
             548.40,426.58 554.22,424.60 556.90,422.49
             560.65,419.54 561.66,415.77 564.18,412.21
             561.78,415.60 576.14,398.63 573.49,401.39
             574.37,400.48 574.98,400.06 576.05,399.41
             576.05,399.41 592.00,392.10 592.00,392.10
             592.00,392.10 601.00,386.82 601.00,386.82
             601.00,386.82 616.00,379.78 616.00,379.78
             620.85,377.29 626.86,376.26 630.35,371.82
             634.91,366.01 633.22,355.00 633.87,351.04
             634.46,347.50 636.69,345.87 635.61,343.09
             634.66,340.67 631.88,339.77 630.31,336.87
             628.40,333.35 627.02,316.70 629.02,313.11
             630.26,310.88 631.91,310.16 634.00,309.00
             631.58,301.94 627.92,306.49 622.00,306.94 Z" />
</svg>
