<?xml version="1.0" encoding="UTF-8" standalone="no"?>
<!DOCTYPE svg PUBLIC "-//W3C//DTD SVG 20010904//EN"
              "http://www.w3.org/TR/2001/REC-SVG-20010904/DTD/svg10.dtd">

<svg xmlns="http://www.w3.org/2000/svg"
     width="9.72222in" height="9.72222in"
     viewBox="0 0 700 700">
  <path id="Selection"
        fill="none" stroke="black" stroke-width="1"
        d="M 700.00,0.00
           C 700.00,0.00 700.00,700.00 700.00,700.00
             700.00,700.00 0.00,700.00 0.00,700.00
             0.00,700.00 0.00,0.00 0.00,0.00
             0.00,0.00 700.00,0.00 700.00,0.00 Z
           M 129.10,398.00
           C 129.10,398.00 134.59,409.00 134.59,409.00
             134.59,409.00 136.96,417.00 136.96,417.00
             138.27,420.50 139.83,422.07 141.37,425.00
             143.82,429.67 142.92,435.28 147.22,437.99
             151.79,440.88 165.92,439.01 172.00,439.00
             174.27,439.00 177.83,439.14 179.90,438.26
             189.05,434.38 185.01,415.71 185.00,408.00
             185.00,408.00 185.50,391.00 185.50,391.00
             185.25,386.79 183.13,379.52 185.50,376.15
             191.14,368.59 202.56,376.88 212.00,377.00
             215.20,377.03 224.34,376.46 226.69,378.02
             229.05,379.60 228.95,382.48 229.00,385.00
             229.00,385.00 229.00,406.00 229.00,406.00
             229.04,413.74 230.64,423.52 232.71,431.00
             233.48,433.81 234.19,438.37 236.43,440.26
             240.55,443.75 254.42,441.03 260.00,440.88
             260.00,440.88 295.00,440.88 295.00,440.88
             295.00,440.88 306.00,440.88 306.00,440.88
             315.03,441.76 314.24,449.52 315.78,455.00
             315.78,455.00 320.63,467.00 320.63,467.00
             320.63,467.00 323.52,483.00 323.52,483.00
             323.52,483.00 329.21,496.00 329.21,496.00
             330.70,501.23 329.24,504.51 331.00,509.00
             331.00,509.00 336.92,519.00 336.92,519.00
             336.92,519.00 339.61,530.00 339.61,530.00
             339.61,530.00 344.87,540.00 344.87,540.00
             344.87,540.00 346.94,552.00 346.94,552.00
             346.94,552.00 352.75,564.00 352.75,564.00
             356.13,573.38 351.61,569.25 358.81,582.00
             358.81,582.00 367.46,606.00 367.46,606.00
             368.86,609.91 369.38,613.68 373.11,616.26
             376.01,618.27 379.64,617.99 383.00,618.00
             383.00,618.00 420.00,618.00 420.00,618.00
             420.00,618.00 431.00,618.68 431.00,618.68
             434.70,618.40 442.93,618.31 445.26,615.57
             446.94,613.60 447.62,606.73 447.82,604.00
             447.82,604.00 447.01,593.00 447.01,593.00
             447.01,593.00 448.00,576.00 448.00,576.00
             448.00,576.00 448.00,532.00 448.00,532.00
             447.90,523.67 446.09,519.64 447.42,510.00
             447.72,507.84 448.02,504.16 449.60,502.60
             451.94,500.27 457.00,501.15 460.00,501.34
             467.21,501.79 476.25,501.34 478.42,492.99
             478.64,490.97 478.86,489.07 478.42,487.00
             477.79,477.48 468.33,474.76 460.00,474.09
             453.12,473.54 447.59,475.50 447.04,466.00
             447.04,466.00 447.82,453.00 447.82,453.00
             447.59,449.71 446.32,446.31 448.74,443.43
             451.68,439.92 457.02,440.89 461.00,440.89
             461.00,440.89 474.00,440.00 474.00,440.00
             474.00,440.00 512.00,440.00 512.00,440.00
             512.00,440.00 533.00,440.78 533.00,440.78
             545.91,441.02 547.12,443.60 562.00,440.78
             569.82,438.95 583.18,430.83 591.00,426.78
             594.90,424.77 601.03,423.08 603.83,420.71
             607.77,417.39 609.26,413.48 611.41,411.21
             615.01,407.41 622.43,406.15 624.98,401.79
             626.23,399.65 626.03,394.87 626.34,392.17
             628.17,376.41 626.00,380.81 624.30,369.00
             624.30,369.00 623.04,354.00 623.04,354.00
             623.04,354.00 624.06,337.04 624.06,337.04
             625.33,334.34 628.40,332.83 629.10,329.91
             629.10,329.91 627.37,315.00 627.37,315.00
             626.75,305.10 626.87,293.82 621.52,285.00
             617.09,277.69 612.75,277.02 606.00,272.94
             606.00,272.94 582.00,259.97 582.00,259.97
             570.61,253.59 572.19,251.02 557.00,250.86
             557.00,250.86 470.00,250.86 470.00,250.86
             470.00,250.86 462.00,250.86 462.00,250.86
             457.94,250.57 453.76,251.95 450.43,248.57
             447.08,245.16 449.22,240.99 449.75,237.00
             450.93,230.22 449.94,224.70 449.75,218.00
             449.37,215.71 449.55,214.25 449.75,212.00
             452.16,196.35 470.44,205.99 478.57,197.58
             483.15,192.85 481.63,180.47 475.95,177.14
             471.51,174.53 464.97,175.09 460.00,175.00
             457.69,174.95 455.30,175.01 453.43,173.40
             448.22,168.90 451.92,152.58 452.00,146.00
             452.00,146.00 452.00,72.00 452.00,72.00
             452.00,72.00 453.00,57.00 453.00,57.00
             453.00,54.11 453.26,48.54 452.26,46.02
             449.58,39.20 442.15,39.01 436.00,39.00
             436.00,39.00 385.00,39.00 385.00,39.00
             380.36,39.06 375.74,39.50 372.43,43.22
             368.72,47.39 369.73,53.12 367.37,59.00
             367.37,59.00 362.86,68.00 362.86,68.00
             361.67,71.17 361.54,74.57 359.46,79.00
             357.90,82.32 355.94,84.32 354.80,88.00
             354.80,88.00 353.54,96.00 353.54,96.00
             351.94,104.53 348.68,105.47 346.79,112.00
             346.79,112.00 344.53,124.00 344.53,124.00
             342.93,128.93 340.43,131.54 338.76,138.00
             338.76,138.00 336.97,148.00 336.97,148.00
             336.97,148.00 331.97,157.00 331.97,157.00
             331.97,157.00 328.48,171.00 328.48,171.00
             326.97,176.03 324.84,177.49 323.24,184.00
             323.24,184.00 320.36,200.00 320.36,200.00
             320.36,200.00 316.83,208.00 316.83,208.00
             316.83,208.00 314.23,219.00 314.23,219.00
             314.23,219.00 309.08,232.00 309.08,232.00
             307.48,236.68 307.07,244.74 304.49,247.78
             299.80,253.29 288.72,251.01 282.00,251.00
             282.00,251.00 253.00,251.00 253.00,251.00
             247.79,250.99 236.18,248.57 232.43,251.74
             228.52,255.04 227.94,270.82 228.00,276.00
             228.00,276.00 228.68,284.00 228.68,284.00
             228.68,284.00 228.00,298.00 228.00,298.00
             228.00,298.00 230.00,318.15 230.00,318.15
             230.00,318.15 210.00,318.15 210.00,318.15
             202.48,319.38 202.51,321.26 193.00,320.98
             189.77,320.89 186.73,320.56 184.60,317.77
             182.24,314.70 183.99,306.30 184.00,302.00
             184.00,302.00 184.00,283.00 184.00,283.00
             184.00,283.00 183.00,267.00 183.00,267.00
             183.00,267.00 183.00,231.00 183.00,231.00
             182.93,217.27 177.73,215.02 165.00,215.00
             158.17,214.99 148.64,214.02 143.04,218.43
             135.89,224.06 138.18,231.29 136.01,237.00
             136.01,237.00 130.12,248.00 130.12,248.00
             127.72,254.16 128.42,257.95 127.20,262.00
             124.91,269.61 122.30,268.46 119.00,287.00
             111.18,284.59 112.28,278.57 106.91,276.91
             94.01,272.91 85.80,294.73 90.76,307.00
             93.10,312.78 97.65,316.35 96.48,318.97
             94.80,322.71 87.92,318.84 83.00,320.94
             78.49,322.87 70.90,332.46 69.14,337.00
             68.09,339.73 68.04,342.14 68.20,345.00
             67.97,347.79 67.85,354.59 68.20,357.00
             69.80,363.29 77.80,374.04 84.00,376.13
             89.15,377.90 93.03,376.51 98.00,376.13
             100.15,375.93 102.50,375.96 103.52,378.26
             104.98,381.56 101.43,386.24 99.87,389.00
             96.19,395.50 90.50,404.49 91.06,412.00
             91.82,422.21 104.03,419.27 108.79,415.35
             110.91,413.61 112.07,411.33 113.42,409.00
             122.86,392.72 117.60,393.70 124.00,382.00
             124.00,382.00 129.10,398.00 129.10,398.00 Z" />
</svg>
