<?xml version="1.0" encoding="UTF-8" standalone="no"?>
<!DOCTYPE svg PUBLIC "-//W3C//DTD SVG 20010904//EN"
              "http://www.w3.org/TR/2001/REC-SVG-20010904/DTD/svg10.dtd">

<svg xmlns="http://www.w3.org/2000/svg"
     width="9.72222in" height="9.72222in"
     viewBox="0 0 700 700">
  <path id="Selection"
        fill="none" stroke="black" stroke-width="1"
        d="M 700.00,0.00
           C 700.00,0.00 700.00,700.00 700.00,700.00
             700.00,700.00 0.00,700.00 0.00,700.00
             0.00,700.00 0.00,0.00 0.00,0.00
             0.00,0.00 700.00,0.00 700.00,0.00 Z
           M 628.69,345.00
           C 630.03,342.93 632.75,340.32 633.26,338.00
             634.23,333.61 629.15,331.27 628.19,324.00
             627.01,315.18 629.11,312.54 629.81,306.00
             630.43,300.28 628.23,289.53 623.78,285.63
             619.99,282.32 600.02,271.87 595.00,269.95
             595.00,269.95 587.00,267.52 587.00,267.52
             577.43,263.61 580.35,260.02 565.00,260.00
             565.00,260.00 492.00,260.00 492.00,260.00
             482.51,259.89 477.45,256.78 469.00,255.51
             464.57,254.81 461.23,255.94 459.00,255.51
             450.20,253.98 454.26,242.53 453.96,235.00
             453.96,235.00 453.09,224.00 453.09,224.00
             453.09,224.00 454.85,215.00 454.85,215.00
             454.85,215.00 454.85,205.00 454.85,205.00
             455.23,192.69 462.75,197.08 470.00,196.11
             472.02,195.84 475.00,194.69 477.00,194.00
             486.34,190.75 488.26,189.08 487.98,179.00
             487.72,169.35 483.62,167.93 475.00,166.95
             472.17,166.63 469.86,166.11 467.00,166.32
             463.81,166.56 461.11,167.61 458.23,165.40
             454.48,162.53 454.96,157.21 455.00,153.00
             455.00,153.00 458.00,125.00 458.00,125.00
             458.00,125.00 460.96,87.00 460.96,87.00
             460.96,87.00 460.96,77.00 460.96,77.00
             460.96,77.00 462.00,57.00 462.00,57.00
             462.00,57.00 463.00,40.00 463.00,40.00
             463.03,23.66 465.07,18.68 452.00,16.39
             449.70,16.22 448.36,16.02 446.00,16.39
             446.00,16.39 417.00,17.00 417.00,17.00
             417.00,17.00 405.00,16.05 405.00,16.05
             405.00,16.05 391.00,16.05 391.00,16.05
             381.65,16.11 373.70,17.92 370.79,28.00
             370.79,28.00 369.43,39.00 369.43,39.00
             368.03,43.88 364.89,44.95 363.14,49.09
             361.66,52.60 362.12,56.90 358.96,63.00
             352.89,74.71 355.79,72.23 352.47,80.00
             352.47,80.00 347.41,90.00 347.41,90.00
             347.41,90.00 344.39,101.00 344.39,101.00
             344.39,101.00 339.70,111.00 339.70,111.00
             339.70,111.00 336.64,122.00 336.64,122.00
             336.64,122.00 332.40,130.00 332.40,130.00
             332.40,130.00 328.69,141.00 328.69,141.00
             328.69,141.00 323.95,151.00 323.95,151.00
             323.95,151.00 314.48,183.00 314.48,183.00
             314.48,183.00 309.59,194.00 309.59,194.00
             309.59,194.00 303.42,210.00 303.42,210.00
             303.42,210.00 292.55,232.00 292.55,232.00
             290.85,238.61 293.10,248.67 286.79,253.40
             283.68,255.74 275.01,255.04 271.00,255.00
             271.00,255.00 261.00,254.09 261.00,254.09
             253.13,253.55 245.57,255.48 238.00,257.37
             234.34,258.29 228.99,259.11 226.60,262.22
             224.64,264.78 225.10,267.99 224.96,271.00
             224.55,280.12 224.72,286.68 215.00,289.48
             207.58,291.62 206.07,288.09 199.00,285.75
             193.26,283.85 185.64,284.14 182.57,277.96
             180.87,274.51 181.63,271.69 181.82,268.09
             181.82,268.09 181.82,249.00 181.82,249.00
             181.82,249.00 175.91,197.00 175.91,197.00
             175.91,197.00 175.00,187.00 175.00,187.00
             174.91,178.88 176.80,160.15 170.61,154.65
             167.82,152.17 164.52,152.05 161.00,152.00
             161.00,152.00 144.00,152.00 144.00,152.00
             140.17,152.01 134.62,151.78 131.70,154.70
             128.11,158.28 130.14,164.00 125.46,172.00
             118.26,184.30 123.02,181.86 119.29,192.00
             119.29,192.00 114.76,202.00 114.76,202.00
             112.77,207.80 113.37,210.67 112.10,216.00
             112.10,216.00 104.37,246.00 104.37,246.00
             103.90,249.19 103.31,252.86 104.37,256.00
             105.29,259.15 107.99,262.30 106.47,265.78
             104.64,269.95 98.81,269.09 95.39,271.89
             91.60,274.98 92.38,279.90 88.61,283.58
             83.55,288.52 75.68,285.75 74.13,295.00
             74.13,295.00 74.13,300.00 74.13,300.00
             74.22,303.04 74.64,305.03 77.23,306.93
             79.88,308.87 86.32,310.20 84.60,314.91
             83.10,319.01 77.22,319.29 73.33,323.22
             67.96,328.64 67.30,336.78 67.05,344.04
             66.97,346.71 66.99,349.44 67.85,352.00
             69.43,356.70 76.69,366.49 81.00,368.86
             83.73,370.36 86.94,370.80 90.00,371.09
             90.00,371.09 99.00,371.09 99.00,371.09
             99.00,371.09 105.00,370.35 105.00,370.35
             106.89,370.26 108.88,370.48 109.92,372.31
             111.63,375.30 108.29,379.45 106.87,382.00
             106.87,382.00 97.65,402.00 97.65,402.00
             97.13,403.71 97.06,405.24 97.02,407.00
             96.91,411.87 97.24,416.01 103.00,416.85
             122.35,419.66 119.44,394.76 126.97,383.00
             128.93,379.93 135.36,372.54 138.75,371.28
             138.75,371.28 151.00,369.42 151.00,369.42
             158.55,366.75 155.35,363.02 169.00,363.00
             173.58,362.99 193.04,362.52 196.00,363.60
             198.97,364.67 201.18,367.33 204.00,368.99
             207.27,370.92 213.22,371.96 217.00,371.93
             220.45,371.42 225.57,370.10 228.69,371.93
             231.85,374.28 230.66,378.66 231.22,382.00
             231.84,385.67 233.35,386.78 233.94,389.42
             234.52,392.03 233.43,398.26 236.44,404.00
             238.49,407.92 243.78,413.27 248.09,414.62
             250.91,415.51 255.43,415.55 257.87,417.01
             261.66,419.28 262.01,424.16 265.39,427.86
             269.37,432.22 274.58,431.99 280.00,431.97
             280.00,431.97 294.91,431.97 294.91,431.97
             294.91,431.97 305.00,431.04 305.00,431.04
             307.65,430.94 312.42,430.62 314.40,432.60
             316.80,434.99 315.96,443.57 316.00,447.00
             316.14,457.21 320.79,461.86 331.00,462.00
             335.85,462.06 348.73,460.30 351.86,462.60
             354.43,464.48 355.53,468.25 357.24,471.00
             359.93,475.31 369.84,491.94 373.05,493.91
             376.66,496.12 380.94,495.99 385.00,496.00
             385.00,496.00 426.00,496.00 426.00,496.00
             429.51,495.95 434.80,495.68 437.57,493.28
             441.93,489.49 440.73,480.23 441.09,475.00
             441.30,471.87 441.93,470.29 441.68,467.00
             441.43,463.69 439.74,458.35 442.52,455.74
             444.70,453.69 449.18,454.00 452.00,454.00
             455.57,453.99 461.82,453.68 465.00,454.89
             468.84,456.35 470.80,459.25 474.00,460.83
             476.80,462.21 479.97,462.00 483.00,462.00
             483.00,462.00 506.00,462.00 506.00,462.00
             509.07,461.98 512.05,462.09 514.83,460.55
             526.41,454.11 524.00,435.19 524.00,424.00
             528.26,425.97 531.57,429.43 536.00,431.03
             541.30,432.95 562.14,432.67 567.00,429.91
             572.85,426.59 579.98,416.88 586.57,415.20
             586.57,415.20 605.00,416.96 605.00,416.96
             608.56,416.82 615.80,416.53 617.40,412.85
             618.61,410.08 617.22,405.84 619.17,402.01
             621.31,397.83 626.11,396.32 625.73,391.00
             625.37,385.82 613.81,371.58 621.30,364.80
             623.09,363.18 625.86,362.19 628.00,361.00
             624.66,356.47 625.75,349.58 628.69,345.00 Z" />
</svg>
