<?xml version="1.0" encoding="UTF-8" standalone="no"?>
<!DOCTYPE svg PUBLIC "-//W3C//DTD SVG 20010904//EN"
              "http://www.w3.org/TR/2001/REC-SVG-20010904/DTD/svg10.dtd">

<svg xmlns="http://www.w3.org/2000/svg"
     width="9.72222in" height="9.72222in"
     viewBox="0 0 700 700">
  <path id="Selection"
        fill="none" stroke="black" stroke-width="1"
        d="M 700.00,0.00
           C 700.00,0.00 700.00,700.00 700.00,700.00
             700.00,700.00 0.00,700.00 0.00,700.00
             0.00,700.00 0.00,0.00 0.00,0.00
             0.00,0.00 700.00,0.00 700.00,0.00 Z
           M 476.67,200.01
           C 483.04,195.20 482.26,182.44 475.81,178.01
             472.08,175.44 467.29,176.07 463.00,176.00
             460.48,175.95 457.60,176.05 456.02,173.69
             454.79,171.84 455.00,168.19 455.00,166.00
             455.00,166.00 455.00,148.00 455.00,148.00
             455.00,148.00 454.00,134.00 454.00,134.00
             454.00,134.00 454.00,121.00 454.00,121.00
             454.00,121.00 451.02,84.00 451.02,84.00
             450.65,78.46 450.02,64.25 447.15,60.13
             444.25,55.98 437.70,55.12 433.00,55.01
             433.00,55.01 417.00,56.00 417.00,56.00
             417.00,56.00 404.00,56.00 404.00,56.00
             404.00,56.00 387.00,55.00 387.00,55.00
             382.64,55.05 377.90,55.56 374.21,58.14
             371.44,60.08 369.52,64.12 367.66,67.00
             367.66,67.00 355.21,89.00 355.21,89.00
             355.21,89.00 352.44,96.00 352.44,96.00
             352.44,96.00 347.71,104.00 347.71,104.00
             347.71,104.00 344.74,112.00 344.74,112.00
             344.74,112.00 340.18,120.00 340.18,120.00
             340.18,120.00 337.01,128.00 337.01,128.00
             337.01,128.00 332.40,136.00 332.40,136.00
             332.40,136.00 329.57,143.00 329.57,143.00
             329.57,143.00 323.76,152.00 323.76,152.00
             323.76,152.00 320.53,162.96 320.53,162.96
             320.53,162.96 313.48,179.00 313.48,179.00
             313.48,179.00 309.52,186.00 309.52,186.00
             309.52,186.00 305.63,194.91 305.63,194.91
             305.63,194.91 301.89,201.09 301.89,201.09
             301.89,201.09 298.48,209.00 298.48,209.00
             295.26,215.46 291.61,217.30 291.09,226.00
             289.81,247.38 319.52,224.40 317.83,245.00
             317.59,247.93 316.78,253.37 313.77,254.68
             311.56,255.64 302.99,253.46 300.00,253.08
             300.00,253.08 288.00,253.08 288.00,253.08
             288.00,253.08 278.00,252.34 278.00,252.34
             278.00,252.34 268.00,253.00 268.00,253.00
             260.30,253.04 246.50,250.92 241.74,258.05
             237.17,264.88 244.23,273.22 233.98,277.67
             222.21,282.79 205.64,286.65 193.00,283.49
             186.23,281.79 183.51,278.70 174.00,276.50
             167.12,274.91 153.38,272.58 150.78,265.00
             149.73,261.94 151.88,254.26 151.99,250.00
             152.27,238.34 153.50,226.52 155.43,215.00
             156.77,207.03 158.90,199.13 159.00,191.00
             159.00,191.00 159.00,175.00 159.00,175.00
             159.02,162.66 168.28,143.26 153.00,139.53
             150.73,138.98 148.32,139.01 146.00,139.00
             146.00,139.00 131.00,138.18 131.00,138.18
             116.87,137.18 116.53,146.58 109.00,155.00
             103.40,161.26 100.67,166.79 96.36,173.72
             96.36,173.72 91.35,181.00 91.35,181.00
             91.35,181.00 87.93,188.00 87.93,188.00
             87.93,188.00 81.41,197.00 81.41,197.00
             81.41,197.00 76.68,208.00 76.68,208.00
             72.37,216.09 66.99,219.98 64.09,229.00
             61.34,237.54 65.13,243.11 67.66,251.00
             67.66,251.00 70.67,263.00 70.67,263.00
             71.48,265.45 73.42,268.50 73.52,271.00
             73.73,276.82 67.89,276.38 64.49,280.22
             61.29,283.85 54.61,298.13 55.22,303.00
             56.28,311.38 61.01,312.63 67.00,316.21
             69.71,317.83 73.03,320.41 71.84,324.00
             71.08,326.26 68.04,328.62 66.65,332.00
             64.71,337.27 64.50,349.62 66.65,355.00
             69.86,363.63 78.11,365.71 80.98,371.04
             82.79,374.38 81.92,378.41 82.11,382.01
             82.30,385.43 83.35,388.69 84.11,392.00
             86.26,401.32 88.91,414.43 100.00,416.32
             102.52,417.01 105.55,417.08 107.96,416.32
             112.41,414.31 113.95,409.05 115.84,405.00
             119.68,396.73 122.84,386.02 128.59,379.21
             136.23,370.16 140.58,372.31 148.00,370.28
             152.84,368.96 154.33,366.45 159.99,365.16
             159.99,365.16 190.00,365.16 190.00,365.16
             199.94,365.14 198.99,368.90 207.00,371.21
             219.00,374.68 225.78,368.32 233.00,360.00
             231.96,372.43 226.82,384.95 223.90,397.00
             222.69,401.99 221.16,409.39 224.58,413.79
             229.06,419.56 246.00,422.64 253.00,424.90
             261.63,427.68 261.50,430.87 272.00,431.00
             272.00,431.00 293.00,431.00 293.00,431.00
             296.28,430.99 298.96,431.21 302.00,429.69
             305.49,427.95 308.57,424.01 311.85,425.25
             315.26,426.54 314.88,431.11 315.04,434.00
             315.30,438.67 316.43,442.08 319.49,445.70
             321.57,448.16 323.79,450.05 327.04,450.58
             331.77,451.35 334.45,449.02 338.32,453.16
             344.56,459.82 344.50,466.25 347.36,473.00
             347.36,473.00 352.10,482.00 352.10,482.00
             352.10,482.00 355.60,492.00 355.60,492.00
             355.60,492.00 360.20,501.00 360.20,501.00
             360.20,501.00 364.34,513.91 364.34,513.91
             364.34,513.91 367.61,520.09 367.61,520.09
             367.61,520.09 375.02,536.00 375.02,536.00
             376.88,539.98 377.36,545.43 380.42,548.03
             384.00,551.08 388.59,550.99 393.00,550.96
             393.00,550.96 406.00,550.96 406.00,550.96
             406.00,550.96 415.00,550.03 415.00,550.03
             415.00,550.03 429.00,551.00 429.00,551.00
             429.00,551.00 462.00,551.00 462.00,551.00
             464.42,551.00 467.75,551.13 470.00,550.26
             478.01,547.15 477.56,537.08 476.72,530.00
             476.72,530.00 473.96,505.00 473.96,505.00
             473.96,505.00 473.96,497.00 473.96,497.00
             473.96,497.00 471.91,474.00 471.91,474.00
             471.91,474.00 471.00,464.00 471.00,464.00
             471.00,464.00 471.00,454.00 471.00,454.00
             471.15,446.21 473.88,445.61 481.00,447.59
             488.32,449.63 495.33,455.35 502.96,450.27
             507.55,447.20 510.88,438.21 512.64,433.00
             513.65,430.04 514.30,425.86 517.22,424.19
             522.43,421.22 526.88,427.70 531.00,429.84
             536.14,432.51 545.21,432.01 551.00,432.00
             570.90,431.97 576.67,420.54 596.00,413.00
             596.00,413.00 597.60,416.98 597.60,416.98
             597.60,416.98 604.00,417.98 604.00,417.98
             604.00,417.98 622.00,416.00 622.00,416.00
             622.21,413.43 623.15,400.74 624.02,399.39
             626.92,394.93 633.47,397.54 634.27,391.94
             634.65,389.28 632.76,386.16 633.04,379.00
             633.41,369.52 637.01,364.46 633.62,353.00
             631.37,345.37 625.15,345.66 625.29,339.00
             625.40,334.18 629.34,330.78 629.62,326.00
             629.89,321.43 626.78,310.10 624.59,306.00
             624.59,306.00 619.73,298.00 619.73,298.00
             618.44,294.60 619.24,289.81 615.70,286.43
             613.62,284.44 610.57,283.81 608.00,282.65
             608.00,282.65 598.00,277.63 598.00,277.63
             598.00,277.63 589.00,275.04 589.00,275.04
             589.00,275.04 581.00,271.34 581.00,271.34
             581.00,271.34 558.00,264.20 558.00,264.20
             551.52,263.60 551.30,266.98 539.00,266.84
             539.00,266.84 520.00,266.84 520.00,266.84
             515.72,265.92 512.90,263.92 509.00,262.55
             509.00,262.55 496.00,258.95 496.00,258.95
             489.74,256.76 477.36,252.95 471.00,252.66
             471.00,252.66 463.02,252.66 463.02,252.66
             459.94,252.45 458.58,251.03 458.16,247.98
             458.16,247.98 458.92,234.00 458.92,234.00
             458.92,234.00 458.92,225.00 458.92,225.00
             458.41,220.61 456.00,210.53 456.46,207.00
             456.69,205.25 457.39,203.64 458.00,202.00
             463.65,203.60 471.75,203.73 476.67,200.01 Z
           M 234.00,356.00
           C 234.00,356.00 235.00,346.00 235.00,346.00
             237.47,350.01 236.61,352.33 234.00,356.00 Z" />
</svg>
