<?xml version="1.0" encoding="UTF-8" standalone="no"?>
<!DOCTYPE svg PUBLIC "-//W3C//DTD SVG 20010904//EN"
              "http://www.w3.org/TR/2001/REC-SVG-20010904/DTD/svg10.dtd">

<svg xmlns="http://www.w3.org/2000/svg"
     width="9.72222in" height="9.72222in"
     viewBox="0 0 700 700">
  <path id="Selection"
        fill="none" stroke="black" stroke-width="1"
        d="M 700.00,0.00
           C 700.00,0.00 700.00,700.00 700.00,700.00
             700.00,700.00 0.00,700.00 0.00,700.00
             0.00,700.00 0.00,0.00 0.00,0.00
             0.00,0.00 700.00,0.00 700.00,0.00 Z
           M 492.97,195.00
           C 492.96,182.46 480.12,180.19 470.09,180.05
             461.32,179.93 463.99,170.13 464.00,164.00
             464.00,164.00 464.00,145.00 464.00,145.00
             464.00,145.00 465.00,126.00 465.00,126.00
             465.00,126.00 464.08,114.00 464.08,114.00
             464.08,114.00 465.00,103.00 465.00,103.00
             465.00,103.00 465.00,83.00 465.00,83.00
             465.00,83.00 464.17,65.00 464.17,65.00
             464.98,56.49 468.96,35.68 460.79,30.28
             457.22,27.92 452.11,28.01 448.00,28.00
             448.00,28.00 392.00,28.00 392.00,28.00
             380.84,28.02 373.93,31.40 370.63,43.00
             369.43,47.24 370.59,51.17 369.30,55.00
             367.94,59.05 364.31,62.33 362.85,66.00
             362.85,66.00 360.30,77.00 360.30,77.00
             360.30,77.00 354.63,90.00 354.63,90.00
             353.45,94.01 354.11,97.33 350.69,105.00
             344.11,119.74 347.87,114.56 344.48,125.00
             344.48,125.00 339.60,137.00 339.60,137.00
             339.60,137.00 336.67,150.00 336.67,150.00
             336.67,150.00 331.78,161.00 331.78,161.00
             331.78,161.00 329.43,172.00 329.43,172.00
             329.43,172.00 323.99,185.00 323.99,185.00
             322.73,189.03 323.32,191.45 321.52,196.00
             320.00,199.85 317.27,203.10 316.39,207.00
             315.54,210.78 316.57,214.10 315.22,219.00
             315.22,219.00 308.23,239.00 308.23,239.00
             307.15,243.56 306.42,250.35 301.89,252.94
             299.02,254.39 290.91,253.01 287.00,252.94
             287.00,252.94 239.00,252.94 239.00,252.94
             232.87,253.01 226.25,253.30 225.15,261.00
             224.25,267.26 229.07,275.53 230.85,282.00
             230.85,282.00 236.82,302.00 236.82,302.00
             236.82,302.00 236.17,317.00 236.17,317.00
             236.76,323.87 239.47,327.28 238.00,334.00
             230.30,327.98 232.24,325.35 226.96,323.05
             219.85,320.19 203.08,322.96 195.00,323.05
             195.00,323.05 168.00,323.05 168.00,323.05
             162.16,323.02 153.84,325.02 149.43,320.59
             145.04,316.19 147.99,307.09 147.92,301.00
             147.92,301.00 147.92,289.00 147.92,289.00
             147.92,289.00 146.05,275.00 146.05,275.00
             146.05,275.00 147.00,258.00 147.00,258.00
             146.98,244.58 144.69,238.18 130.00,238.00
             122.96,237.92 105.67,237.38 100.02,240.85
             92.66,245.37 93.98,251.97 91.96,259.00
             91.96,259.00 83.75,279.00 83.75,279.00
             83.75,279.00 80.30,295.00 80.30,295.00
             80.30,295.00 74.79,308.00 74.79,308.00
             73.54,312.37 74.45,315.18 72.67,320.00
             72.67,320.00 66.80,332.00 66.80,332.00
             65.43,336.57 66.46,340.68 65.57,344.00
             64.45,348.20 61.22,350.41 59.74,354.00
             58.65,357.24 59.86,359.73 59.74,363.00
             59.26,367.73 56.69,372.14 57.09,379.00
             57.81,391.28 63.98,397.32 66.15,404.00
             67.69,408.72 66.37,412.61 67.64,417.00
             68.68,420.63 71.05,423.61 72.59,427.00
             72.59,427.00 75.61,437.00 75.61,437.00
             75.61,437.00 79.98,446.00 79.98,446.00
             82.26,451.55 81.63,452.34 83.04,457.00
             83.04,457.00 87.87,468.00 87.87,468.00
             87.87,468.00 90.56,478.00 90.56,478.00
             92.84,483.90 96.21,484.39 97.49,488.18
             99.07,492.84 95.85,499.92 102.33,505.15
             107.34,509.19 117.66,507.93 124.00,508.00
             132.13,508.10 146.98,511.43 150.35,500.98
             151.10,498.65 151.00,495.47 150.95,493.00
             150.95,493.00 150.95,404.00 150.95,404.00
             150.93,398.29 147.76,384.51 150.95,380.23
             154.82,374.73 161.58,378.60 168.00,378.90
             168.00,378.90 182.00,378.01 182.00,378.01
             182.00,378.01 196.00,379.00 196.00,379.00
             196.00,379.00 214.00,377.27 214.00,377.27
             217.65,377.47 221.61,379.62 225.00,380.99
             229.01,382.61 235.77,383.96 237.74,388.10
             238.66,390.04 236.96,401.18 236.83,405.00
             237.07,410.65 238.81,415.47 236.83,421.00
             234.05,427.69 228.98,429.42 229.03,439.00
             229.04,440.86 229.15,443.10 230.17,444.72
             232.21,447.96 236.61,447.99 240.00,447.99
             240.00,447.99 250.00,447.19 250.00,447.19
             250.00,447.19 269.00,447.19 269.00,447.19
             269.00,447.19 279.00,447.19 279.00,447.19
             282.57,447.26 287.62,446.21 290.90,448.02
             297.17,451.50 300.61,469.90 303.45,477.00
             303.45,477.00 306.96,486.00 306.96,486.00
             306.96,486.00 310.02,497.00 310.02,497.00
             310.02,497.00 314.96,509.00 314.96,509.00
             314.96,509.00 317.47,522.00 317.47,522.00
             317.47,522.00 321.64,532.00 321.64,532.00
             321.64,532.00 323.90,542.00 323.90,542.00
             323.90,542.00 329.29,554.00 329.29,554.00
             331.27,559.39 330.68,561.21 331.79,565.00
             331.79,565.00 336.39,575.00 336.39,575.00
             336.39,575.00 339.21,586.00 339.21,586.00
             339.21,586.00 344.48,599.00 344.48,599.00
             344.48,599.00 346.63,610.00 346.63,610.00
             346.63,610.00 352.34,622.00 352.34,622.00
             352.34,622.00 354.63,633.00 354.63,633.00
             354.63,633.00 359.80,644.00 359.80,644.00
             359.80,644.00 363.07,655.00 363.07,655.00
             363.07,655.00 367.09,662.00 367.09,662.00
             370.07,667.82 368.36,672.51 370.70,678.00
             374.50,686.91 383.54,687.99 392.00,688.00
             392.00,688.00 442.00,688.00 442.00,688.00
             450.11,687.90 457.53,686.48 461.14,678.00
             463.31,671.73 461.24,665.29 461.14,659.00
             461.14,659.00 461.14,652.00 461.14,652.00
             461.14,652.00 461.14,643.00 461.14,643.00
             461.14,643.00 462.00,631.00 462.00,631.00
             462.00,631.00 461.00,615.00 461.00,615.00
             461.00,615.00 461.93,600.00 461.93,600.00
             461.93,600.00 461.93,543.28 461.93,543.28
             461.45,528.14 473.64,536.21 482.89,530.72
             487.61,527.93 488.24,521.99 487.96,517.00
             487.45,508.18 479.54,505.33 472.00,503.81
             469.59,503.32 465.31,503.10 463.57,501.40
             461.62,499.49 461.87,496.49 461.92,494.00
             461.92,494.00 463.00,447.00 463.00,447.00
             463.00,447.00 483.00,448.00 483.00,448.00
             483.00,448.00 558.00,448.00 558.00,448.00
             571.43,447.98 570.38,447.13 581.00,440.68
             581.00,440.68 588.00,437.31 588.00,437.31
             588.00,437.31 595.00,433.23 595.00,433.23
             595.00,433.23 602.00,430.33 602.00,430.33
             606.36,428.19 620.77,419.59 623.15,415.91
             627.52,409.15 624.15,401.88 625.89,397.00
             626.93,394.09 629.17,391.75 630.57,389.00
             632.82,384.56 633.10,379.88 632.99,375.00
             632.62,359.86 624.35,366.70 625.04,351.00
             625.55,339.27 631.03,342.39 633.32,333.00
             634.48,328.21 634.40,317.53 632.35,313.04
             630.75,309.52 628.40,308.48 627.43,304.96
             625.69,298.65 630.13,295.22 625.47,287.10
             623.24,283.22 617.81,280.37 614.00,278.15
             614.00,278.15 591.00,265.52 591.00,265.52
             591.00,265.52 580.28,259.54 580.28,259.54
             572.21,253.96 573.46,253.02 563.00,253.00
             563.00,253.00 520.00,253.00 520.00,253.00
             520.00,253.00 504.00,252.00 504.00,252.00
             504.00,252.00 491.00,252.91 491.00,252.91
             481.54,253.56 474.26,253.14 465.00,257.00
             462.10,249.27 463.00,242.14 463.00,234.00
             463.00,225.79 462.08,217.79 465.00,210.00
             475.78,213.06 492.99,208.41 492.97,195.00 Z" />
</svg>
