<?xml version="1.0" encoding="UTF-8" standalone="no"?>
<!DOCTYPE svg PUBLIC "-//W3C//DTD SVG 20010904//EN"
              "http://www.w3.org/TR/2001/REC-SVG-20010904/DTD/svg10.dtd">

<svg xmlns="http://www.w3.org/2000/svg"
     width="9.72222in" height="9.72222in"
     viewBox="0 0 700 700">
  <path id="Selection"
        fill="none" stroke="black" stroke-width="1"
        d="M 700.00,0.00
           C 700.00,0.00 700.00,700.00 700.00,700.00
             700.00,700.00 0.00,700.00 0.00,700.00
             0.00,700.00 0.00,0.00 0.00,0.00
             0.00,0.00 700.00,0.00 700.00,0.00 Z
           M 623.20,289.39
           C 619.02,284.70 607.03,283.84 601.00,284.02
             593.79,284.22 593.85,287.06 589.96,285.57
             580.37,281.90 574.56,268.19 559.00,268.00
             553.09,267.93 539.89,267.15 535.04,269.69
             530.24,272.19 526.67,279.27 522.31,276.29
             519.98,274.70 518.33,266.87 517.65,264.00
             514.26,249.62 516.09,255.88 511.09,242.00
             509.43,237.39 508.84,232.84 503.96,230.31
             500.32,228.44 492.30,229.05 488.00,228.92
             480.36,228.91 475.07,226.83 467.00,228.92
             459.22,230.79 458.94,235.90 453.00,237.82
             450.05,238.90 441.91,237.60 438.00,237.82
             421.63,238.34 402.19,238.71 386.00,236.97
             386.00,236.97 375.00,236.97 375.00,236.97
             368.99,235.68 367.46,230.92 362.00,229.21
             362.00,229.21 334.00,229.21 334.00,229.21
             329.72,229.01 325.77,228.77 322.21,231.65
             317.00,235.87 316.50,243.82 315.93,250.00
             315.93,250.00 312.49,269.00 312.49,269.00
             312.04,274.46 313.50,272.17 311.00,279.00
             306.42,276.14 300.80,270.63 297.00,269.15
             291.66,267.06 271.97,267.28 267.00,270.09
             267.00,270.09 245.00,288.83 245.00,288.83
             239.21,293.49 227.65,299.91 223.73,306.04
             221.14,310.11 221.50,316.46 222.40,321.00
             222.92,323.40 224.37,327.35 222.40,329.51
             219.46,332.28 212.41,328.10 207.00,329.51
             202.07,331.09 199.65,335.53 195.00,336.84
             195.00,336.84 165.00,336.84 165.00,336.84
             155.72,336.87 156.92,334.67 151.00,331.98
             147.27,330.28 142.13,331.00 139.10,329.03
             135.79,326.89 135.85,323.93 133.49,321.41
             133.49,321.41 126.04,315.87 126.04,315.87
             122.48,312.55 121.54,309.90 119.06,306.00
             119.06,306.00 114.82,299.00 114.82,299.00
             111.84,292.89 111.21,285.06 102.00,285.26
             99.94,285.31 96.86,286.09 95.09,287.14
             90.78,289.70 90.00,293.69 88.46,298.00
             86.82,302.58 84.77,307.11 84.18,312.00
             83.45,318.11 85.00,322.81 82.20,329.00
             78.98,336.12 71.50,338.41 67.72,344.04
             64.84,348.33 64.98,354.04 65.00,359.00
             65.04,368.16 65.80,370.09 71.85,377.00
             73.51,378.91 80.59,386.27 80.58,388.32
             80.55,391.37 73.34,393.61 71.00,394.90
             63.85,398.87 58.49,403.32 58.26,412.00
             58.06,419.18 62.06,423.25 65.09,429.00
             68.20,434.90 68.48,439.41 73.90,445.66
             77.36,449.65 82.10,449.78 83.22,454.04
             84.51,458.96 78.99,465.19 76.66,469.00
             73.32,474.45 74.62,477.25 73.28,481.00
             71.68,485.48 67.40,488.52 68.23,495.00
             69.28,503.26 79.23,508.43 84.67,515.00
             84.67,515.00 91.39,524.83 91.39,524.83
             91.39,524.83 101.83,534.42 101.83,534.42
             101.83,534.42 109.92,543.15 109.92,543.15
             116.32,549.94 120.89,556.12 130.00,559.44
             135.52,561.46 142.16,561.06 148.00,561.00
             153.26,560.93 162.90,560.39 166.07,555.79
             169.64,550.84 167.11,538.75 166.07,533.00
             166.07,533.00 163.96,523.00 163.96,523.00
             162.33,517.50 161.22,516.44 160.08,510.00
             160.08,510.00 158.32,491.00 158.32,491.00
             158.32,491.00 153.24,476.00 153.24,476.00
             152.51,473.01 150.90,456.47 151.36,454.00
             151.67,452.26 152.29,450.73 153.51,449.41
             156.53,446.15 172.23,439.68 177.00,437.91
             184.13,435.27 198.77,427.88 206.00,427.39
             206.00,427.39 224.00,430.83 224.00,430.83
             228.15,431.25 234.39,430.49 238.00,431.89
             246.38,435.14 243.38,443.41 252.02,446.20
             258.76,448.37 266.19,445.67 273.00,445.18
             273.00,445.18 286.00,445.96 286.00,445.96
             293.91,445.64 312.96,436.48 317.32,447.09
             318.35,449.79 317.52,452.29 317.32,455.00
             317.13,459.51 318.76,465.10 313.86,468.09
             308.09,471.61 293.86,463.25 292.13,474.02
             291.98,475.08 291.99,477.91 292.13,479.00
             292.67,484.14 295.47,486.15 298.49,490.00
             298.49,490.00 313.66,510.00 313.66,510.00
             321.07,519.79 322.76,526.35 324.56,529.00
             324.56,529.00 334.18,540.00 334.18,540.00
             334.18,540.00 342.01,552.00 342.01,552.00
             342.01,552.00 353.22,567.00 353.22,567.00
             358.47,575.03 368.03,590.34 377.00,593.85
             380.24,595.12 383.59,594.99 387.00,595.00
             387.00,595.00 429.00,595.00 429.00,595.00
             434.73,594.93 441.29,594.19 444.64,588.90
             447.94,583.66 446.99,575.13 447.00,569.00
             447.00,569.00 454.00,515.00 454.00,515.00
             454.03,511.71 453.39,505.00 455.74,502.60
             457.88,500.41 462.92,501.18 466.00,500.70
             475.69,499.18 478.25,494.02 477.98,485.00
             477.78,477.89 474.03,474.29 467.00,473.21
             463.96,472.75 459.86,473.58 457.52,471.40
             454.85,468.90 455.96,463.41 455.94,460.00
             455.94,460.00 455.94,453.00 455.94,453.00
             455.54,442.94 464.23,443.28 472.00,441.60
             477.16,440.48 482.24,442.51 487.42,442.51
             494.32,442.51 517.52,440.40 524.00,438.87
             529.10,437.66 531.52,434.93 536.00,433.64
             540.19,432.42 546.25,433.33 550.99,430.27
             554.09,428.26 555.62,425.55 558.17,423.27
             560.13,421.52 566.48,417.95 569.00,416.71
             569.00,416.71 583.00,410.01 583.00,410.01
             583.00,410.01 593.00,408.13 593.00,408.13
             593.00,408.13 600.00,405.01 600.00,405.01
             604.24,403.61 608.06,404.68 611.89,401.97
             615.46,399.45 615.70,396.73 617.69,394.21
             621.79,389.04 626.90,389.08 627.66,377.00
             627.96,372.24 625.02,368.58 625.89,365.04
             626.98,360.59 631.35,361.22 633.89,354.00
             636.48,346.64 634.20,338.40 633.29,331.00
             632.45,324.21 633.70,324.40 631.00,317.00
             632.46,316.47 633.30,316.38 634.58,315.28
             636.82,313.37 639.72,306.36 637.98,303.63
             637.98,303.63 634.00,301.00 634.00,301.00
             634.00,301.00 629.00,304.00 629.00,304.00
             628.04,300.43 625.50,291.97 623.20,289.39 Z" />
</svg>
