<?xml version="1.0" encoding="UTF-8" standalone="no"?>
<!DOCTYPE svg PUBLIC "-//W3C//DTD SVG 20010904//EN"
              "http://www.w3.org/TR/2001/REC-SVG-20010904/DTD/svg10.dtd">

<svg xmlns="http://www.w3.org/2000/svg"
     width="9.72222in" height="9.72222in"
     viewBox="0 0 700 700">
  <path id="Selection"
        fill="none" stroke="black" stroke-width="1"
        d="M 700.00,0.00
           C 700.00,0.00 700.00,700.00 700.00,700.00
             700.00,700.00 0.00,700.00 0.00,700.00
             0.00,700.00 0.00,0.00 0.00,0.00
             0.00,0.00 700.00,0.00 700.00,0.00 Z
           M 217.00,326.18
           C 201.74,325.10 204.16,334.97 189.00,335.00
             189.00,335.00 161.00,334.44 161.00,334.44
             157.29,333.28 153.93,329.87 150.00,328.54
             146.03,327.20 140.09,327.81 137.05,326.04
             135.32,325.03 133.35,322.89 131.92,321.42
             120.71,309.85 123.07,300.64 118.65,291.00
             116.13,285.51 109.47,279.99 103.00,281.47
             97.49,282.73 96.91,287.22 97.02,292.00
             97.19,299.74 99.95,300.68 102.82,307.00
             102.82,307.00 106.52,316.00 106.52,316.00
             107.90,318.57 111.40,322.72 109.87,325.74
             108.91,327.62 106.90,327.98 105.00,327.88
             99.64,327.58 102.39,325.89 89.00,327.09
             78.98,327.99 68.69,341.69 67.30,351.00
             66.24,358.07 67.02,368.17 71.56,373.96
             75.78,379.36 84.95,381.54 82.83,386.87
             81.71,389.70 77.63,390.49 75.74,392.64
             73.88,394.76 73.89,398.33 74.04,401.00
             74.66,411.91 83.25,409.81 88.59,416.11
             91.62,419.68 92.08,424.47 96.67,427.75
             99.98,430.12 104.84,429.68 106.72,434.06
             108.15,437.38 105.66,440.05 104.41,443.00
             103.37,446.23 103.69,448.69 104.41,452.00
             104.41,452.00 109.96,474.00 109.96,474.00
             109.96,474.00 114.75,496.00 114.75,496.00
             114.75,496.00 119.19,506.00 119.19,506.00
             121.30,511.74 120.60,514.95 121.79,519.00
             123.00,523.15 124.31,523.92 126.10,527.17
             129.80,533.91 125.93,544.38 137.00,546.88
             138.74,547.02 141.20,546.99 143.00,546.88
             143.00,546.88 160.00,546.88 160.00,546.88
             171.85,546.85 174.87,541.04 175.00,530.00
             175.00,530.00 175.00,511.00 175.00,511.00
             175.00,511.00 181.96,446.00 181.96,446.00
             181.96,446.00 181.33,437.00 181.33,437.00
             181.33,437.00 181.33,429.00 181.33,429.00
             181.40,427.20 181.08,425.85 181.33,424.00
             183.11,415.08 191.50,416.32 198.00,413.36
             203.22,410.98 207.80,406.73 213.96,408.57
             220.11,410.41 219.60,417.81 220.09,423.00
             220.48,427.16 223.54,434.66 226.49,437.57
             229.11,440.16 234.42,440.37 238.00,440.87
             253.85,443.08 247.73,442.71 264.00,443.00
             274.79,443.20 277.54,452.86 284.30,459.71
             287.18,462.63 290.93,464.88 293.32,468.09
             295.98,471.68 300.31,481.60 302.30,486.00
             302.30,486.00 306.34,495.00 306.34,495.00
             306.34,495.00 309.34,504.00 309.34,504.00
             309.34,504.00 314.45,515.00 314.45,515.00
             314.45,515.00 318.88,532.00 318.88,532.00
             318.88,532.00 328.83,558.00 328.83,558.00
             328.83,558.00 332.10,568.00 332.10,568.00
             332.10,568.00 336.87,577.00 336.87,577.00
             336.87,577.00 339.60,587.00 339.60,587.00
             339.60,587.00 344.53,598.00 344.53,598.00
             344.53,598.00 347.61,609.00 347.61,609.00
             347.61,609.00 353.04,620.00 353.04,620.00
             353.04,620.00 355.90,630.00 355.90,630.00
             357.78,634.22 359.71,636.07 361.07,641.00
             361.88,643.94 361.88,647.42 363.17,650.00
             364.83,653.32 367.82,655.32 369.27,659.00
             369.27,659.00 372.01,674.98 372.01,674.98
             375.06,682.30 385.22,681.99 392.00,681.96
             392.00,681.96 405.00,681.96 405.00,681.96
             405.00,681.96 416.00,681.00 416.00,681.00
             416.00,681.00 436.00,681.00 436.00,681.00
             443.25,681.09 458.72,684.87 462.26,675.98
             463.13,673.80 463.00,670.37 463.00,668.00
             463.00,668.00 463.00,658.00 463.00,658.00
             463.00,658.00 462.00,643.00 462.00,643.00
             462.00,643.00 459.83,605.00 459.83,605.00
             459.83,605.00 457.91,583.00 457.91,583.00
             457.91,583.00 457.91,568.00 457.91,568.00
             457.91,568.00 456.07,558.00 456.07,558.00
             455.26,549.67 450.78,532.22 464.00,533.17
             475.80,534.03 488.79,533.40 488.66,518.00
             488.64,515.91 487.96,512.97 487.03,511.10
             484.29,505.59 473.72,503.16 468.00,503.01
             465.22,502.94 460.50,503.37 458.15,501.98
             454.80,500.00 455.02,496.39 455.00,493.00
             454.91,480.01 453.32,480.07 453.04,473.00
             453.04,473.00 454.00,459.00 454.00,459.00
             454.05,454.50 452.16,445.63 456.28,443.02
             458.67,441.51 464.95,442.12 468.00,441.91
             468.00,441.91 494.00,439.17 494.00,439.17
             494.00,439.17 534.00,439.17 534.00,439.17
             534.00,439.17 544.00,439.17 544.00,439.17
             544.00,439.17 573.00,438.66 573.00,438.66
             578.62,437.52 579.53,434.28 587.00,431.75
             597.17,428.30 594.31,428.42 602.00,425.04
             616.62,418.63 630.94,413.95 629.96,395.00
             629.64,388.80 626.12,381.58 628.57,373.00
             630.15,367.46 635.35,364.87 634.97,361.04
             634.65,357.79 630.32,356.09 627.93,351.99
             625.22,347.33 626.60,342.21 625.43,339.28
             624.18,336.14 620.67,334.56 619.85,329.00
             618.23,317.97 625.54,314.22 625.81,308.00
             626.05,302.64 621.81,301.48 619.57,296.96
             617.45,292.70 618.45,288.52 617.40,286.28
             615.35,281.87 605.21,282.99 601.00,282.96
             596.67,283.01 589.47,284.36 586.00,282.96
             579.84,280.33 571.18,270.66 566.00,268.66
             560.47,266.53 551.05,266.93 545.00,267.00
             534.25,267.13 532.11,271.74 527.15,267.57
             523.01,264.09 524.31,258.75 523.56,254.00
             521.50,240.93 517.03,237.15 504.00,237.00
             504.00,237.00 476.01,237.53 476.01,237.53
             468.85,239.31 468.05,245.94 459.00,245.48
             455.00,245.28 444.12,245.61 441.66,242.57
             439.61,239.64 441.80,233.91 441.66,229.00
             441.12,223.23 441.61,211.49 438.91,207.04
             433.71,198.45 422.07,201.90 414.00,202.00
             414.00,202.00 399.00,202.00 399.00,202.00
             399.00,202.00 383.00,201.04 383.00,201.04
             379.24,201.21 376.04,202.00 373.05,204.42
             370.48,206.50 358.88,224.32 356.91,228.00
             355.56,230.53 354.59,234.68 352.57,236.40
             349.06,239.40 338.06,236.90 333.00,237.01
             321.95,237.27 316.15,240.13 316.00,252.00
             315.97,254.77 316.35,259.50 314.98,261.86
             313.28,264.78 309.97,265.31 307.00,266.20
             296.32,269.41 296.59,267.02 286.00,267.00
             280.16,266.99 270.86,266.45 266.21,270.43
             262.40,273.69 261.37,279.12 258.59,280.98
             256.36,282.48 249.82,282.27 245.00,285.56
             237.33,290.78 231.46,301.71 234.82,311.00
             236.21,314.86 239.91,319.03 242.00,323.00
             229.20,327.26 230.27,327.12 217.00,326.18 Z" />
</svg>
