<?xml version="1.0" encoding="UTF-8" standalone="no"?>
<!DOCTYPE svg PUBLIC "-//W3C//DTD SVG 20010904//EN"
              "http://www.w3.org/TR/2001/REC-SVG-20010904/DTD/svg10.dtd">

<svg xmlns="http://www.w3.org/2000/svg"
     width="9.72222in" height="9.72222in"
     viewBox="0 0 700 700">
  <path id="Selection #2"
        fill="none" stroke="black" stroke-width="1"
        d="M 700.00,0.00
           C 700.00,0.00 700.00,700.00 700.00,700.00
             700.00,700.00 0.00,700.00 0.00,700.00
             0.00,700.00 0.00,0.00 0.00,0.00
             0.00,0.00 700.00,0.00 700.00,0.00 Z
           M 342.78,406.31
           C 346.35,408.43 345.64,411.53 351.02,414.03
             356.31,416.50 362.34,415.94 368.00,416.00
             368.00,416.00 386.00,417.96 386.00,417.96
             386.00,417.96 398.00,417.96 398.00,417.96
             398.00,417.96 408.00,419.00 408.00,419.00
             416.60,419.10 424.07,418.11 432.00,414.48
             437.00,412.20 438.10,409.96 444.00,408.44
             446.11,407.90 453.11,406.33 455.00,406.35
             458.91,406.40 460.39,408.26 468.00,407.96
             468.00,407.96 483.00,406.17 483.00,406.17
             490.54,405.59 491.03,409.18 496.17,413.10
             501.68,417.31 512.94,423.66 520.00,422.70
             528.11,421.59 542.71,409.33 547.37,402.99
             550.34,398.93 550.86,395.20 555.10,391.21
             560.56,386.09 574.08,381.77 581.00,377.65
             584.78,375.40 589.50,370.76 593.00,367.72
             603.54,358.55 604.29,358.65 612.22,347.00
             613.99,344.39 616.13,341.96 617.32,339.00
             619.26,334.15 619.06,327.20 619.00,322.00
             618.96,318.75 618.09,309.83 617.01,307.00
             612.67,295.62 596.40,279.06 587.00,271.19
             581.90,266.92 575.58,264.16 571.39,258.98
             563.26,248.96 558.66,229.04 541.00,230.04
             532.51,230.53 531.08,237.08 524.96,241.58
             521.49,244.14 519.09,243.98 515.00,244.00
             515.00,244.00 498.00,243.01 498.00,243.01
             491.07,243.01 489.09,244.43 484.00,244.82
             484.00,244.82 470.00,244.00 470.00,244.00
             470.00,244.00 376.00,244.00 376.00,244.00
             376.00,244.00 362.00,244.90 362.00,244.90
             362.00,244.90 350.00,243.08 350.00,243.08
             350.00,243.08 335.00,243.08 335.00,243.08
             330.57,243.01 323.99,243.28 320.01,245.31
             315.74,247.49 311.40,254.16 308.34,258.00
             308.34,258.00 300.72,267.00 300.72,267.00
             300.72,267.00 295.73,279.00 295.73,279.00
             295.73,279.00 283.42,301.00 283.42,301.00
             280.50,306.17 276.80,317.25 271.91,319.89
             269.61,321.12 266.94,320.98 266.64,317.88
             266.33,314.74 269.34,311.67 268.96,303.00
             268.35,289.03 257.15,280.98 246.00,274.58
             240.42,271.38 233.62,268.36 227.00,269.19
             221.21,269.92 219.52,273.23 215.00,276.01
             215.00,276.01 207.02,279.84 207.02,279.84
             201.12,283.67 195.81,299.03 195.91,306.00
             196.36,310.58 200.15,316.32 195.91,320.01
             191.51,323.46 187.47,321.29 181.00,327.11
             181.00,327.11 173.72,334.91 173.72,334.91
             173.72,334.91 158.83,349.94 158.83,349.94
             158.83,349.94 150.17,357.10 150.17,357.10
             145.86,361.50 144.20,365.94 141.61,368.68
             141.61,368.68 130.17,377.51 130.17,377.51
             130.17,377.51 120.58,386.78 120.58,386.78
             110.86,394.38 99.43,384.59 91.70,395.10
             89.19,398.52 89.24,402.04 88.72,406.00
             88.24,409.62 86.88,416.74 87.20,420.00
             87.20,420.00 91.82,438.00 91.82,438.00
             91.82,438.00 91.82,457.00 91.82,457.00
             91.66,463.86 87.49,468.81 89.50,476.00
             91.55,483.37 97.19,484.92 104.00,485.00
             104.00,485.00 120.00,484.01 120.00,484.01
             120.00,484.01 130.00,484.95 130.00,484.95
             130.00,484.95 142.00,484.95 142.00,484.95
             148.53,484.91 153.50,483.05 156.86,477.00
             158.47,474.11 158.76,469.77 161.42,467.63
             164.86,465.30 170.10,468.41 175.00,467.63
             185.58,465.32 186.99,452.79 186.86,444.00
             186.86,444.00 186.86,433.00 186.86,433.00
             186.86,433.00 186.86,408.00 186.86,408.00
             186.86,408.00 290.00,408.00 290.00,408.00
             290.00,408.00 311.00,408.00 311.00,408.00
             311.00,408.00 318.94,406.83 318.94,406.83
             318.94,406.83 323.00,401.00 323.00,401.00
             325.28,401.24 341.20,405.38 342.78,406.31 Z" />
</svg>
