<?xml version="1.0" encoding="UTF-8" standalone="no"?>
<!DOCTYPE svg PUBLIC "-//W3C//DTD SVG 20010904//EN"
              "http://www.w3.org/TR/2001/REC-SVG-20010904/DTD/svg10.dtd">

<svg xmlns="http://www.w3.org/2000/svg"
     width="9.72222in" height="9.72222in"
     viewBox="0 0 700 700">
  <path id="Selection"
        fill="none" stroke="black" stroke-width="1"
        d="M 700.00,0.00
           C 700.00,0.00 700.00,700.00 700.00,700.00
             700.00,700.00 0.00,700.00 0.00,700.00
             0.00,700.00 0.00,0.00 0.00,0.00
             0.00,0.00 700.00,0.00 700.00,0.00 Z
           M 192.04,414.81
           C 200.71,417.76 229.52,419.37 240.00,420.09
             240.00,420.09 269.00,423.07 269.00,423.07
             275.45,422.84 281.41,420.79 287.96,423.07
             294.81,425.61 292.03,429.85 303.00,430.00
             307.40,430.06 315.20,429.17 318.40,432.65
             320.85,435.31 319.73,443.82 320.46,448.00
             322.59,460.11 325.33,461.59 326.83,477.00
             327.86,487.54 325.71,487.42 326.04,495.00
             326.42,503.74 330.94,508.89 331.00,521.00
             331.08,538.69 335.48,551.07 337.71,568.00
             337.71,568.00 339.46,583.00 339.46,583.00
             339.46,583.00 341.59,592.00 341.59,592.00
             342.01,596.42 339.78,599.20 342.48,606.00
             345.37,613.28 353.44,622.50 361.00,624.94
             364.59,626.10 367.31,625.99 371.00,626.00
             371.00,626.00 395.00,626.00 395.00,626.00
             409.47,625.83 419.65,615.76 422.96,602.00
             424.30,596.44 423.69,594.95 424.17,590.00
             424.17,590.00 430.71,558.00 430.71,558.00
             432.09,547.40 431.68,530.73 435.14,521.00
             438.23,512.35 443.68,517.39 453.00,511.44
             456.10,509.46 458.43,507.45 459.86,503.99
             461.41,500.23 461.23,495.44 464.42,492.44
             467.98,489.09 471.91,491.37 476.00,490.67
             483.16,489.45 485.32,483.43 484.96,477.00
             484.12,462.27 469.00,470.14 463.39,464.69
             459.86,461.25 460.03,455.67 457.81,451.02
             454.00,443.01 445.99,444.44 445.54,438.00
             445.02,430.62 454.97,430.02 460.00,430.00
             460.00,430.00 478.00,431.00 478.00,431.00
             478.00,431.00 496.00,431.00 496.00,431.00
             496.00,431.00 539.00,427.70 539.00,427.70
             539.00,427.70 550.00,425.26 550.00,425.26
             550.00,425.26 564.00,423.36 564.00,423.36
             568.38,422.10 571.21,419.27 575.00,417.55
             579.97,415.31 581.98,416.57 588.00,412.77
             596.83,407.19 610.88,395.76 616.34,387.00
             616.34,387.00 624.87,368.00 624.87,368.00
             625.07,365.88 625.00,363.19 624.87,361.00
             624.87,361.00 624.87,352.00 624.87,352.00
             624.91,344.98 623.77,343.17 620.76,337.00
             613.74,322.64 611.59,321.72 599.00,311.99
             595.96,309.64 589.07,304.17 586.00,302.56
             586.00,302.56 571.00,298.30 571.00,298.30
             571.00,298.30 559.00,293.44 559.00,293.44
             559.00,293.44 514.00,289.91 514.00,289.91
             514.00,289.91 493.00,288.00 493.00,288.00
             493.00,288.00 461.00,288.00 461.00,288.00
             448.50,287.83 450.89,281.72 449.54,274.00
             448.98,270.84 447.43,267.16 449.04,264.10
             451.25,259.89 456.95,259.48 460.59,252.99
             463.07,248.55 463.40,242.08 467.39,238.51
             471.77,234.59 478.50,237.14 483.89,233.86
             487.68,231.56 489.43,226.27 488.76,222.00
             486.92,210.21 473.18,214.19 468.05,211.07
             461.10,206.83 464.59,199.60 460.30,194.22
             455.45,188.14 442.34,189.65 439.21,184.15
             438.51,182.34 439.04,178.20 439.21,176.00
             439.21,176.00 433.28,141.00 433.28,141.00
             433.28,141.00 430.83,110.00 430.83,110.00
             430.83,110.00 427.51,93.00 427.51,93.00
             427.51,93.00 426.82,84.00 426.82,84.00
             425.73,75.05 420.30,65.32 412.91,60.11
             401.68,52.18 392.16,54.67 380.00,55.92
             380.00,55.92 370.00,55.92 370.00,55.92
             356.66,56.16 346.57,62.44 343.40,76.00
             342.28,81.55 344.16,84.25 343.40,89.00
             343.40,89.00 339.30,102.00 339.30,102.00
             339.30,102.00 336.85,128.00 336.85,128.00
             336.85,128.00 333.04,151.00 333.04,151.00
             333.04,151.00 333.04,160.00 333.04,160.00
             333.04,160.00 330.83,185.00 330.83,185.00
             330.83,185.00 326.41,202.83 326.41,202.83
             326.41,202.83 326.95,212.00 326.95,212.00
             326.95,212.00 325.86,229.00 325.86,229.00
             325.18,233.81 322.44,235.37 321.39,240.00
             321.39,240.00 320.71,251.00 320.71,251.00
             320.71,251.00 318.00,270.00 318.00,270.00
             317.92,276.90 320.51,284.94 312.98,288.68
             306.07,292.40 294.71,286.73 287.00,288.68
             282.84,289.50 280.45,291.87 277.00,292.13
             277.00,292.13 258.00,292.13 258.00,292.13
             258.00,292.13 246.00,292.13 246.00,292.13
             246.00,292.13 234.00,293.00 234.00,293.00
             234.00,293.00 197.00,296.51 197.00,296.51
             188.81,298.20 186.97,301.46 180.00,302.00
             180.00,302.00 177.83,265.00 177.83,265.00
             177.83,265.00 175.80,251.00 175.80,251.00
             175.92,244.02 183.81,240.56 181.43,232.00
             179.43,224.83 173.06,225.01 167.00,225.00
             155.24,224.98 141.61,226.01 130.00,227.92
             125.98,228.58 119.31,229.22 116.15,231.70
             112.69,234.40 112.92,238.02 113.01,242.00
             113.01,242.00 115.00,257.00 115.00,257.00
             115.00,257.00 114.00,275.00 114.00,275.00
             114.00,275.00 113.00,318.00 113.00,318.00
             113.00,318.00 111.04,338.00 111.04,338.00
             111.04,338.00 111.04,356.00 111.04,356.00
             111.04,356.00 115.00,386.00 115.00,386.00
             115.00,386.00 116.00,412.00 116.00,412.00
             116.00,412.00 115.04,426.00 115.04,426.00
             115.40,434.12 119.24,436.98 119.85,440.58
             120.46,444.11 117.52,446.72 117.11,452.00
             116.14,464.26 127.70,462.91 136.00,463.00
             148.05,463.14 153.61,465.47 167.00,463.95
             173.82,463.18 179.05,462.00 182.00,455.00
             182.00,455.00 185.56,442.00 185.56,442.00
             185.47,438.22 182.46,436.00 181.42,432.00
             181.42,432.00 181.42,415.00 181.42,415.00
             181.69,413.26 182.39,411.64 183.00,410.00
             186.10,411.78 188.62,413.65 192.04,414.81 Z" />
</svg>
