<?xml version="1.0" encoding="UTF-8" standalone="no"?>
<!DOCTYPE svg PUBLIC "-//W3C//DTD SVG 20010904//EN"
              "http://www.w3.org/TR/2001/REC-SVG-20010904/DTD/svg10.dtd">

<svg xmlns="http://www.w3.org/2000/svg"
     width="9.72222in" height="9.72222in"
     viewBox="0 0 700 700">
  <path id="Selection"
        fill="none" stroke="black" stroke-width="1"
        d="M 700.00,0.00
           C 700.00,0.00 700.00,700.00 700.00,700.00
             700.00,700.00 0.00,700.00 0.00,700.00
             0.00,700.00 0.00,0.00 0.00,0.00
             0.00,0.00 700.00,0.00 700.00,0.00 Z
           M 476.04,283.74
           C 481.67,280.03 495.60,285.28 496.89,272.00
             497.65,264.17 492.66,258.38 485.00,257.21
             481.21,256.63 476.60,257.64 473.28,255.15
             468.12,251.28 471.31,242.74 464.79,236.21
             458.52,229.94 451.09,232.69 448.02,227.77
             446.18,224.82 446.26,209.01 445.58,204.00
             445.58,204.00 441.15,180.00 441.15,180.00
             441.15,180.00 438.94,165.00 438.94,165.00
             438.94,165.00 438.94,156.00 438.94,156.00
             438.94,156.00 436.46,145.00 436.46,145.00
             435.54,139.76 436.53,138.61 434.56,132.00
             431.06,120.24 423.34,114.00 412.00,110.36
             407.79,109.01 405.37,108.92 401.00,109.01
             401.00,109.01 379.00,111.91 379.00,111.91
             373.16,112.32 364.16,111.77 359.17,115.15
             355.97,117.31 353.61,121.10 350.83,123.82
             347.03,127.54 343.57,128.42 341.80,134.00
             340.30,138.73 341.70,143.49 340.32,148.00
             339.33,151.20 337.41,153.20 335.66,161.00
             335.66,161.00 331.28,186.00 331.28,186.00
             331.28,186.00 330.54,196.00 330.54,196.00
             328.25,209.03 323.32,221.62 323.01,235.00
             322.95,237.83 322.85,242.20 324.29,244.67
             326.33,248.17 328.98,247.28 334.00,255.00
             331.53,254.10 329.65,253.46 327.00,253.17
             315.02,251.88 314.92,259.49 315.00,269.00
             315.11,281.16 315.41,279.83 312.49,292.00
             311.56,295.88 310.93,299.77 306.91,301.98
             304.27,303.11 298.33,302.05 295.00,301.98
             295.00,301.98 277.00,303.00 277.00,303.00
             277.00,303.00 261.00,302.04 261.00,302.04
             261.00,302.04 252.00,303.70 252.00,303.70
             252.00,303.70 242.00,302.35 242.00,302.35
             242.00,302.35 233.00,303.87 233.00,303.87
             233.00,303.87 224.00,303.04 224.00,303.04
             224.00,303.04 210.00,304.00 210.00,304.00
             210.00,304.00 195.00,304.55 195.00,304.55
             191.23,304.93 184.41,306.32 181.04,304.55
             173.53,300.99 174.93,288.37 173.33,281.00
             171.40,272.09 165.54,259.03 166.18,250.00
             166.18,250.00 167.09,233.00 167.09,233.00
             167.09,233.00 168.08,223.00 168.08,223.00
             168.08,223.00 168.08,214.00 168.08,214.00
             168.92,206.23 172.64,196.85 166.61,190.21
             156.56,179.16 137.66,186.34 130.00,185.91
             130.00,185.91 118.00,185.02 118.00,185.02
             98.29,185.56 98.17,208.61 98.00,223.00
             97.89,231.71 94.93,236.50 95.13,242.00
             95.35,248.02 98.64,251.26 99.83,255.83
             99.83,255.83 100.47,267.00 100.47,267.00
             100.47,267.00 104.39,283.00 104.39,283.00
             106.17,293.00 106.15,299.98 105.51,310.00
             104.87,320.23 109.23,322.23 112.03,330.00
             112.03,330.00 114.77,343.00 114.77,343.00
             116.27,347.80 118.25,349.87 120.10,354.00
             121.33,356.74 123.46,364.05 123.82,367.00
             124.94,376.33 121.86,384.22 133.00,389.01
             134.86,389.81 137.97,390.44 140.00,390.86
             140.00,390.86 151.00,390.86 151.00,390.86
             151.00,390.86 165.00,391.55 165.00,391.55
             169.07,390.99 173.14,388.63 176.82,390.69
             176.82,390.69 184.09,397.49 184.09,397.49
             187.31,400.11 191.83,401.89 194.16,405.18
             196.32,408.23 197.14,413.98 198.93,416.99
             202.21,422.50 215.58,432.32 222.00,433.53
             230.70,435.18 244.96,433.12 252.00,427.61
             258.79,422.30 264.38,411.30 274.00,413.80
             287.55,417.33 294.40,439.56 300.38,445.63
             305.88,451.22 313.99,456.61 322.00,456.96
             322.00,456.96 335.00,456.19 335.00,456.19
             340.04,456.61 344.86,458.70 348.15,462.62
             350.44,465.34 350.81,467.81 354.11,469.91
             359.66,473.46 368.65,472.99 375.00,473.00
             386.13,473.02 397.34,475.94 407.98,470.32
             415.16,466.53 413.10,461.38 418.19,457.74
             421.02,455.71 424.69,456.01 428.00,456.00
             428.00,456.00 449.00,456.00 449.00,456.00
             449.00,456.00 465.00,456.99 465.00,456.99
             465.00,456.99 474.00,456.05 474.00,456.05
             474.00,456.05 487.00,456.05 487.00,456.05
             487.00,456.05 503.00,456.91 503.00,456.91
             503.00,456.91 527.99,455.23 527.99,455.23
             533.05,456.05 534.76,459.80 539.00,461.84
             542.77,463.65 550.97,463.61 555.00,462.46
             565.83,459.37 567.91,445.65 577.01,440.41
             577.01,440.41 583.00,437.31 583.00,437.31
             587.70,434.18 596.08,425.04 600.83,420.59
             605.52,416.20 613.25,407.45 616.37,402.00
             617.96,399.22 618.68,396.03 619.67,393.00
             623.59,380.98 624.69,376.32 620.31,364.00
             619.31,361.19 617.94,357.46 616.31,355.00
             613.85,351.29 606.55,343.24 603.00,340.55
             603.00,340.55 596.00,335.75 596.00,335.75
             591.18,331.91 586.61,327.57 581.00,324.83
             576.63,322.70 575.10,323.36 571.00,322.24
             565.93,320.85 564.35,318.88 560.00,317.24
             560.00,317.24 548.00,313.69 548.00,313.69
             541.13,310.03 542.84,305.72 535.98,301.80
             527.32,296.85 518.26,292.24 508.00,294.34
             502.17,295.53 500.74,299.38 496.00,301.57
             488.82,304.88 475.32,303.75 468.00,301.00
             470.83,294.33 470.43,287.44 476.04,283.74 Z" />
</svg>
