<?xml version="1.0" encoding="UTF-8" standalone="no"?>
<!DOCTYPE svg PUBLIC "-//W3C//DTD SVG 20010904//EN"
              "http://www.w3.org/TR/2001/REC-SVG-20010904/DTD/svg10.dtd">

<svg xmlns="http://www.w3.org/2000/svg"
     width="9.72222in" height="9.72222in"
     viewBox="0 0 700 700">
  <path id="Selection"
        fill="none" stroke="black" stroke-width="1"
        d="M 700.00,0.00
           C 700.00,0.00 700.00,700.00 700.00,700.00
             700.00,700.00 0.00,700.00 0.00,700.00
             0.00,700.00 0.00,0.00 0.00,0.00
             0.00,0.00 700.00,0.00 700.00,0.00 Z
           M 311.26,299.40
           C 308.64,302.06 298.17,300.01 294.00,300.00
             294.00,300.00 212.00,300.00 212.00,300.00
             207.73,300.01 197.02,301.94 194.23,300.54
             188.96,297.91 192.05,288.72 185.87,285.43
             180.99,282.83 174.05,285.36 170.27,282.40
             168.38,280.92 167.25,278.09 166.12,276.00
             159.99,264.65 162.58,268.21 163.83,257.00
             163.83,257.00 165.00,234.00 165.00,234.00
             165.02,219.03 172.91,198.80 153.00,192.80
             149.90,191.86 146.23,191.97 143.00,192.00
             143.00,192.00 125.00,193.82 125.00,193.82
             116.79,193.19 108.85,189.32 101.21,195.65
             97.31,198.88 96.68,204.22 95.85,208.91
             93.06,224.80 94.67,241.09 94.44,243.00
             93.70,249.15 90.85,246.70 91.00,260.00
             91.15,272.43 95.90,272.22 98.78,281.00
             98.78,281.00 100.97,290.00 100.97,290.00
             100.97,290.00 104.50,300.00 104.50,300.00
             104.50,300.00 106.78,310.96 106.78,310.96
             108.12,314.88 110.19,316.44 112.01,320.01
             112.01,320.01 115.52,329.00 115.52,329.00
             115.52,329.00 120.10,337.00 120.10,337.00
             123.35,342.99 126.26,354.57 131.18,358.30
             135.18,361.33 144.23,361.62 149.00,360.61
             151.50,360.09 154.51,358.29 156.91,358.79
             159.97,359.43 163.65,364.57 165.80,366.83
             165.80,366.83 174.54,374.21 174.54,374.21
             177.14,376.92 178.92,380.20 182.04,382.57
             187.03,386.37 190.68,383.88 193.40,386.60
             195.51,388.71 194.84,393.17 195.18,396.00
             195.18,396.00 197.10,404.00 197.10,404.00
             197.10,404.00 198.46,412.00 198.46,412.00
             201.12,426.12 204.10,425.41 215.00,432.23
             218.90,434.66 222.37,437.77 227.00,438.66
             242.30,441.61 256.37,429.52 264.73,418.00
             269.38,411.58 266.40,399.00 276.00,401.22
             278.94,401.90 280.68,404.05 283.00,405.71
             286.66,408.33 288.53,407.84 290.28,409.59
             293.98,413.30 297.98,428.39 300.26,433.00
             300.26,433.00 310.55,448.28 310.55,448.28
             317.65,458.99 316.04,462.98 331.00,462.92
             331.00,462.92 352.00,462.92 352.00,462.92
             352.00,462.92 365.00,460.35 365.00,460.35
             365.00,460.35 376.00,460.87 376.00,460.87
             376.00,460.87 473.00,460.87 473.00,460.87
             473.00,460.87 483.00,460.87 483.00,460.87
             483.00,460.87 494.00,462.91 494.00,462.91
             494.00,462.91 510.00,462.91 510.00,462.91
             510.00,462.91 523.96,462.15 523.96,462.15
             527.31,463.08 528.77,466.45 531.21,468.61
             534.48,471.51 538.70,472.77 543.00,472.96
             554.84,473.48 558.28,468.60 564.60,460.00
             564.60,460.00 569.31,454.00 569.31,454.00
             571.30,451.00 571.92,447.94 574.39,445.13
             577.57,441.51 581.43,440.80 585.91,436.81
             585.91,436.81 597.17,425.28 597.17,425.28
             608.55,414.25 614.99,408.86 619.15,393.00
             620.30,388.62 620.87,387.74 620.99,383.00
             621.13,377.21 619.71,367.19 617.24,362.00
             615.54,358.44 609.81,351.97 606.96,349.00
             600.15,341.89 586.69,330.42 578.00,325.91
             572.90,323.27 561.68,321.76 554.10,316.09
             550.25,313.20 548.86,308.58 545.79,305.00
             541.11,299.55 527.96,290.77 521.00,288.94
             516.92,287.63 512.02,287.77 508.00,288.94
             503.98,290.43 500.43,293.04 496.00,292.38
             492.64,291.88 489.01,289.44 486.00,288.65
             481.17,287.38 476.48,289.79 472.74,284.78
             469.62,280.61 472.53,273.82 465.79,267.68
             458.69,261.21 452.01,263.40 449.58,257.89
             449.58,257.89 445.84,231.00 445.84,231.00
             445.84,231.00 439.16,206.00 439.16,206.00
             437.78,200.75 438.59,195.31 435.49,191.02
             431.74,185.81 425.35,183.63 420.00,180.50
             414.00,176.98 410.03,175.77 403.00,176.04
             393.50,176.41 389.40,178.63 381.00,180.66
             381.00,180.66 362.00,184.97 362.00,184.97
             357.75,186.21 350.54,187.08 347.21,189.70
             342.18,193.65 342.87,200.42 339.98,205.58
             332.68,218.65 333.93,223.92 330.25,237.00
             327.82,245.68 321.30,259.83 321.61,269.00
             321.69,271.16 322.52,273.83 323.00,276.00
             309.78,279.36 316.50,294.10 311.26,299.40 Z" />
</svg>
