<?xml version="1.0" encoding="UTF-8" standalone="no"?>
<!DOCTYPE svg PUBLIC "-//W3C//DTD SVG 20010904//EN"
              "http://www.w3.org/TR/2001/REC-SVG-20010904/DTD/svg10.dtd">

<svg xmlns="http://www.w3.org/2000/svg"
     width="9.72222in" height="9.72222in"
     viewBox="0 0 700 700">
  <path id="Selection"
        fill="none" stroke="black" stroke-width="1"
        d="M 700.00,0.00
           C 700.00,0.00 700.00,700.00 700.00,700.00
             700.00,700.00 0.00,700.00 0.00,700.00
             0.00,700.00 0.00,0.00 0.00,0.00
             0.00,0.00 700.00,0.00 700.00,0.00 Z
           M 308.00,299.00
           C 308.00,299.00 298.00,299.95 298.00,299.95
             298.00,299.95 280.00,299.95 280.00,299.95
             280.00,299.95 265.00,299.00 265.00,299.00
             265.00,299.00 200.00,299.00 200.00,299.00
             197.11,299.01 190.63,300.07 188.60,298.22
             186.82,296.61 186.97,293.21 187.22,291.00
             187.22,291.00 187.22,284.00 187.22,284.00
             187.22,284.00 186.51,271.00 186.51,271.00
             187.17,260.63 189.01,244.89 177.00,240.01
             171.31,237.69 165.50,240.42 162.21,238.74
             157.38,236.27 158.49,228.85 152.89,224.70
             146.19,219.73 132.10,222.99 124.00,223.00
             124.00,223.00 117.00,223.00 117.00,223.00
             108.21,222.96 93.30,218.64 90.22,231.01
             90.00,232.67 89.97,235.28 90.22,237.00
             90.30,243.52 92.24,244.90 91.67,253.00
             91.67,253.00 91.67,259.58 91.67,259.58
             91.37,263.29 92.44,265.77 91.67,270.00
             91.67,270.00 87.21,284.00 87.21,284.00
             86.39,289.72 88.28,295.36 88.83,301.00
             89.15,304.28 88.73,307.94 90.31,310.95
             95.08,320.01 108.56,314.49 116.00,316.43
             118.34,317.03 120.10,318.25 122.00,319.68
             122.00,319.68 140.32,336.17 140.32,336.17
             140.32,336.17 146.55,345.58 146.55,345.58
             146.55,345.58 164.83,362.42 164.83,362.42
             164.83,362.42 177.16,375.71 177.16,375.71
             179.76,378.26 183.71,382.11 187.04,383.44
             189.69,384.50 194.58,384.90 196.40,386.73
             199.92,390.27 195.59,395.69 195.50,400.00
             195.36,406.91 200.74,422.17 206.09,426.59
             208.73,428.76 212.06,429.69 215.00,431.36
             219.16,433.72 221.98,436.95 227.00,437.63
             237.10,439.01 247.51,431.17 255.00,425.60
             260.58,421.45 264.64,418.95 267.29,412.00
             271.77,400.24 266.91,395.05 266.00,385.00
             277.26,386.30 278.60,397.32 283.31,406.00
             283.31,406.00 290.35,418.00 290.35,418.00
             290.35,418.00 300.87,439.00 300.87,439.00
             300.87,439.00 307.24,447.00 307.24,447.00
             315.18,457.67 315.86,462.98 330.00,463.00
             330.00,463.00 350.00,463.00 350.00,463.00
             350.00,463.00 363.00,462.03 363.00,462.03
             363.00,462.03 377.00,463.00 377.00,463.00
             377.00,463.00 472.00,463.00 472.00,463.00
             472.00,463.00 483.00,462.08 483.00,462.08
             483.00,462.08 494.00,463.00 494.00,463.00
             494.00,463.00 517.00,463.00 517.00,463.00
             529.46,463.23 533.25,478.58 545.00,476.43
             560.91,473.53 568.01,451.40 572.53,446.18
             575.79,442.42 582.68,438.77 587.00,435.04
             596.09,427.17 613.35,410.34 617.15,399.00
             618.63,394.58 619.05,383.90 619.00,379.00
             618.87,368.14 617.30,367.48 611.78,359.00
             604.26,347.44 602.30,346.45 592.00,337.58
             587.09,333.34 583.77,330.23 578.00,326.95
             570.79,322.85 560.30,319.99 554.18,313.87
             550.61,310.29 549.45,306.52 546.62,303.04
             544.51,300.46 540.54,297.24 537.93,294.91
             530.33,288.12 527.11,283.46 516.00,284.04
             510.18,284.35 500.72,290.09 496.09,293.63
             490.80,297.67 490.32,301.34 482.00,300.85
             482.00,300.85 465.00,299.13 465.00,299.13
             459.06,299.35 457.94,302.00 451.00,300.12
             451.00,300.12 441.00,297.05 441.00,297.05
             429.17,292.16 424.07,286.70 410.00,287.01
             410.00,287.01 401.00,288.00 401.00,288.00
             401.00,288.00 389.00,288.00 389.00,288.00
             389.00,288.00 375.00,289.84 375.00,289.84
             375.00,289.84 352.00,293.17 352.00,293.17
             345.00,295.29 346.15,298.34 341.87,300.57
             341.87,300.57 331.00,303.36 331.00,303.36
             331.00,303.36 322.00,307.00 322.00,307.00
             320.96,298.27 315.25,298.92 308.00,299.00 Z" />
</svg>
