<?xml version="1.0" encoding="UTF-8" standalone="no"?>
<!DOCTYPE svg PUBLIC "-//W3C//DTD SVG 20010904//EN"
              "http://www.w3.org/TR/2001/REC-SVG-20010904/DTD/svg10.dtd">

<svg xmlns="http://www.w3.org/2000/svg"
     width="9.72222in" height="9.72222in"
     viewBox="0 0 700 700">
  <path id="Selection"
        fill="none" stroke="black" stroke-width="1"
        d="M 700.00,0.00
           C 700.00,0.00 700.00,700.00 700.00,700.00
             700.00,700.00 0.00,700.00 0.00,700.00
             0.00,700.00 0.00,0.00 0.00,0.00
             0.00,0.00 700.00,0.00 700.00,0.00 Z
           M 551.00,439.26
           C 560.68,437.32 559.26,435.64 566.00,432.80
             566.00,432.80 576.00,429.56 576.00,429.56
             580.67,427.11 584.90,421.74 589.00,418.21
             602.72,406.39 606.05,405.67 612.43,388.00
             614.43,382.47 615.84,380.12 615.99,374.00
             616.16,366.72 612.98,356.16 609.16,350.00
             609.16,350.00 599.91,339.00 599.91,339.00
             596.45,335.33 583.33,324.46 579.00,322.53
             579.00,322.53 570.00,319.54 570.00,319.54
             570.00,319.54 563.00,316.62 563.00,316.62
             563.00,316.62 550.00,313.73 550.00,313.73
             540.39,309.47 532.46,300.39 521.00,301.09
             514.33,301.50 511.44,304.17 507.00,304.79
             507.00,304.79 493.00,304.04 493.00,304.04
             493.00,304.04 485.00,304.91 485.00,304.91
             485.00,304.91 475.00,304.37 475.00,304.37
             472.02,304.54 466.97,306.12 464.32,305.06
             457.14,302.16 454.31,286.92 454.90,280.00
             455.21,276.49 456.39,275.21 458.77,272.76
             460.30,271.19 462.00,269.48 464.04,268.62
             468.50,266.73 479.82,269.55 480.83,258.00
             480.99,256.89 480.96,255.10 480.83,254.00
             478.87,242.46 469.73,248.38 463.10,243.99
             456.35,239.53 458.50,230.69 453.36,225.65
             448.88,221.24 443.26,223.61 440.45,218.85
             440.45,218.85 437.28,203.00 437.28,203.00
             437.28,203.00 432.52,189.00 432.52,189.00
             432.52,189.00 430.10,172.00 430.10,172.00
             430.10,172.00 424.46,154.00 424.46,154.00
             422.23,141.72 421.76,128.53 409.00,121.99
             398.74,116.74 392.31,118.98 382.00,119.00
             382.00,119.00 368.00,119.00 368.00,119.00
             363.93,119.05 359.84,119.59 356.00,121.00
             345.71,124.79 344.71,131.85 342.41,141.00
             342.41,141.00 339.46,152.00 339.46,152.00
             339.46,152.00 337.49,166.00 337.49,166.00
             337.49,166.00 332.46,183.00 332.46,183.00
             332.46,183.00 329.50,205.00 329.50,205.00
             326.65,217.42 323.50,218.44 323.31,234.00
             323.17,244.88 318.36,252.37 316.46,263.00
             314.16,275.90 315.78,276.73 311.42,292.00
             310.45,295.42 309.14,301.06 306.44,303.45
             303.10,306.43 291.13,303.95 286.00,304.00
             286.00,304.00 257.00,306.00 257.00,306.00
             257.00,306.00 242.00,306.00 242.00,306.00
             242.00,306.00 226.00,307.32 226.00,307.32
             226.00,307.32 189.00,307.32 189.00,307.32
             185.94,307.71 177.88,309.40 175.74,307.32
             172.69,304.46 174.99,292.49 175.00,288.00
             175.00,288.00 175.00,257.00 175.00,257.00
             175.00,257.00 176.99,234.00 176.99,234.00
             176.99,234.00 174.00,205.00 174.00,205.00
             173.85,192.61 165.40,184.32 153.00,184.01
             142.09,183.75 140.56,186.36 135.00,186.78
             129.80,187.17 112.74,181.17 106.16,193.04
             103.67,197.54 104.74,205.08 105.61,210.00
             105.61,210.00 110.33,229.00 110.33,229.00
             110.33,229.00 111.46,237.00 111.46,237.00
             111.46,237.00 113.29,246.00 113.29,246.00
             113.92,252.62 109.04,257.87 107.30,264.00
             107.30,264.00 103.53,292.00 103.53,292.00
             102.34,298.19 99.84,299.59 98.46,307.00
             98.46,307.00 96.08,330.00 96.08,330.00
             96.08,330.00 96.91,338.00 96.91,338.00
             97.09,341.32 94.57,354.68 93.47,358.00
             89.85,368.95 78.71,365.81 78.14,377.00
             77.91,381.61 81.13,387.80 82.19,393.00
             83.66,400.15 85.58,416.77 90.39,421.73
             95.16,426.63 107.41,427.99 114.00,428.00
             121.62,428.01 140.66,428.64 147.00,427.10
             154.56,425.26 158.84,423.37 159.00,415.00
             159.00,415.00 157.67,399.01 157.67,399.01
             157.52,397.36 157.41,395.13 159.33,394.41
             162.08,393.39 166.10,397.26 168.00,398.87
             171.46,401.80 185.97,413.95 189.00,415.43
             193.54,417.65 203.89,419.16 209.00,418.96
             209.00,418.96 221.00,417.70 221.00,417.70
             224.80,418.19 228.10,420.77 232.00,421.61
             232.00,421.61 253.00,423.00 253.00,423.00
             257.80,423.01 270.22,422.28 274.00,424.17
             277.19,425.77 281.17,430.30 284.00,432.83
             288.13,436.51 302.76,445.83 308.00,446.53
             312.21,447.10 318.19,443.95 321.44,447.35
             324.38,450.43 324.42,465.42 325.74,471.00
             325.74,471.00 330.70,492.00 330.70,492.00
             330.70,492.00 333.36,515.00 333.36,515.00
             336.12,527.79 339.92,532.14 340.00,548.00
             340.01,551.30 339.71,557.05 340.70,560.00
             341.70,562.97 346.07,568.78 347.99,572.00
             355.77,585.05 359.31,591.97 376.00,592.00
             376.00,592.00 406.00,592.71 406.00,592.71
             419.27,591.03 430.57,581.60 434.79,569.00
             438.51,557.94 436.14,559.04 436.80,551.00
             436.80,551.00 438.90,540.00 438.90,540.00
             438.90,540.00 438.90,531.00 438.90,531.00
             438.90,531.00 440.72,518.00 440.72,518.00
             441.39,512.52 441.58,504.89 444.28,500.02
             448.88,491.70 456.34,497.51 463.33,490.61
             471.04,483.01 468.36,473.76 473.39,469.74
             477.26,466.65 481.70,469.36 486.00,468.41
             496.07,466.18 495.08,454.39 492.00,447.00
             523.07,446.48 522.16,445.02 551.00,439.26 Z" />
</svg>
