<?xml version="1.0" encoding="UTF-8" standalone="no"?>
<!DOCTYPE svg PUBLIC "-//W3C//DTD SVG 20010904//EN"
              "http://www.w3.org/TR/2001/REC-SVG-20010904/DTD/svg10.dtd">

<svg xmlns="http://www.w3.org/2000/svg"
     width="9.72222in" height="9.72222in"
     viewBox="0 0 700 700">
  <path id="Selection"
        fill="none" stroke="black" stroke-width="1"
        d="M 700.00,0.00
           C 700.00,0.00 700.00,700.00 700.00,700.00
             700.00,700.00 0.00,700.00 0.00,700.00
             0.00,700.00 0.00,0.00 0.00,0.00
             0.00,0.00 700.00,0.00 700.00,0.00 Z
           M 371.00,51.00
           C 367.85,51.00 365.07,50.90 362.00,51.79
             350.84,55.01 343.14,66.74 343.00,78.00
             342.78,96.58 341.63,87.79 339.44,101.00
             339.44,101.00 336.72,127.00 336.72,127.00
             335.33,137.28 333.02,145.20 333.00,156.00
             332.99,163.35 331.66,176.75 330.39,184.00
             330.39,184.00 327.29,199.00 327.29,199.00
             327.29,199.00 321.15,238.00 321.15,238.00
             318.94,246.60 318.35,259.03 317.96,268.00
             317.81,271.42 317.18,279.13 314.57,281.40
             311.39,284.16 305.77,282.56 302.00,282.37
             302.00,282.37 279.00,285.08 279.00,285.08
             267.09,287.03 266.89,286.98 255.00,287.00
             255.00,287.00 230.00,289.00 230.00,289.00
             230.00,289.00 211.00,290.29 211.00,290.29
             211.00,290.29 202.00,292.08 202.00,292.08
             202.00,292.08 194.00,292.08 194.00,292.08
             185.25,293.80 177.10,301.44 173.02,302.16
             166.70,303.28 167.01,295.00 167.00,291.00
             167.00,291.00 167.00,278.00 167.00,278.00
             167.00,278.00 165.09,252.00 165.09,252.00
             165.33,247.41 166.44,243.36 163.28,239.21
             159.93,234.82 153.12,234.06 148.00,234.00
             130.67,233.80 121.29,233.60 104.00,237.00
             95.55,238.66 88.19,239.19 89.06,250.00
             89.74,258.47 96.78,256.00 99.52,263.97
             101.39,269.38 99.03,285.54 98.92,292.00
             98.92,292.00 98.92,305.00 98.92,305.00
             98.09,312.81 96.90,315.23 97.00,324.00
             97.00,324.00 98.00,339.00 98.00,339.00
             98.00,339.00 97.00,357.00 97.00,357.00
             97.00,357.00 99.00,388.00 99.00,388.00
             99.00,388.00 99.00,397.00 99.00,397.00
             99.00,397.00 101.20,418.00 101.20,418.00
             101.20,418.00 101.20,435.00 101.20,435.00
             101.20,435.00 100.09,445.00 100.09,445.00
             99.45,456.36 106.76,458.79 105.01,465.00
             103.35,470.85 89.71,479.25 92.66,488.96
             94.36,494.51 101.89,496.29 107.00,496.83
             107.00,496.83 122.00,496.18 122.00,496.18
             133.57,497.28 147.52,502.57 157.82,494.21
             162.07,490.76 168.51,479.54 168.90,474.00
             168.90,474.00 168.01,459.00 168.01,459.00
             168.01,459.00 169.00,445.00 169.00,445.00
             169.00,445.00 169.00,415.00 169.00,415.00
             169.01,410.50 168.74,404.41 174.04,402.64
             178.31,401.22 184.76,405.89 191.00,407.32
             191.00,407.32 225.00,409.00 225.00,409.00
             225.00,409.00 250.00,412.00 250.00,412.00
             250.00,412.00 259.00,412.00 259.00,412.00
             259.00,412.00 289.00,414.82 289.00,414.82
             289.00,414.82 299.00,414.00 299.00,414.00
             302.94,413.98 307.60,413.52 310.70,416.43
             313.59,419.14 313.75,423.34 314.27,427.00
             315.65,436.68 315.89,446.24 316.00,456.00
             316.16,469.17 320.84,471.25 323.40,479.00
             325.61,485.66 324.92,493.06 325.00,500.00
             325.00,500.00 326.92,515.00 326.92,515.00
             326.92,515.00 326.92,529.00 326.92,529.00
             327.15,541.11 330.98,539.34 331.00,553.00
             331.03,572.14 334.11,575.33 336.92,592.00
             336.92,592.00 340.50,615.00 340.50,615.00
             340.90,618.80 339.29,623.08 340.50,628.00
             341.13,631.31 343.16,634.17 344.95,637.00
             352.09,648.28 358.41,651.93 372.00,652.00
             372.00,652.00 391.00,652.00 391.00,652.00
             397.86,651.99 408.08,650.96 413.83,647.01
             423.69,640.23 426.33,625.78 429.15,615.00
             431.20,607.19 431.96,599.08 432.00,591.00
             432.00,591.00 438.83,552.00 438.83,552.00
             439.76,542.37 438.87,532.38 441.93,523.00
             445.34,512.54 453.12,517.22 458.97,508.91
             462.92,503.30 460.60,497.16 465.23,493.60
             470.37,489.63 478.75,495.47 483.91,486.96
             484.62,485.79 485.15,484.33 485.63,483.00
             485.84,481.42 485.98,479.61 485.63,478.00
             484.31,464.72 470.88,471.94 465.43,466.57
             462.31,463.51 462.48,458.26 461.36,455.00
             459.24,448.78 454.91,448.68 454.16,443.00
             453.82,440.43 454.72,436.73 454.91,434.00
             455.36,427.39 453.87,416.36 463.00,415.16
             463.00,415.16 477.00,416.00 477.00,416.00
             502.18,416.04 527.50,415.01 552.00,408.89
             558.36,407.31 573.71,402.98 579.00,399.92
             582.05,398.15 585.09,394.99 588.00,392.74
             594.68,387.60 606.52,377.66 609.92,370.00
             610.93,367.72 611.50,363.64 612.13,361.00
             613.03,357.24 613.79,354.97 613.96,351.00
             614.20,345.53 611.73,331.83 609.43,327.00
             607.66,323.29 600.16,313.97 597.00,311.19
             597.00,311.19 589.00,305.53 589.00,305.53
             583.46,301.34 579.71,296.86 573.00,293.67
             568.62,291.59 566.56,292.43 562.00,290.90
             556.85,289.17 554.17,286.74 548.00,285.24
             533.23,281.64 518.05,282.17 503.00,282.00
             503.00,282.00 483.00,281.25 483.00,281.25
             476.57,281.08 465.70,284.05 460.02,281.25
             454.04,278.79 452.76,268.69 454.43,263.06
             456.01,257.73 460.11,260.07 463.03,253.96
             465.32,249.17 464.39,243.82 467.51,240.39
             473.58,233.72 487.74,241.34 489.41,227.00
             489.86,225.28 489.70,223.66 489.41,222.00
             485.34,209.27 472.95,218.07 466.70,209.87
             463.38,205.52 463.91,198.44 460.49,194.11
             455.71,188.05 449.92,190.59 445.39,185.77
             441.91,182.07 442.28,178.58 441.72,174.00
             441.72,174.00 439.00,148.00 439.00,148.00
             438.98,132.49 435.25,117.26 432.75,102.00
             431.25,92.82 431.11,91.23 431.00,82.00
             430.96,78.94 430.91,76.96 429.89,74.00
             427.45,66.88 417.85,54.76 411.00,51.85
             405.46,49.50 395.03,49.72 389.00,50.28
             382.47,51.22 377.50,50.99 371.00,51.00 Z" />
</svg>
