<?xml version="1.0" encoding="UTF-8" standalone="no"?>
<!DOCTYPE svg PUBLIC "-//W3C//DTD SVG 20010904//EN"
              "http://www.w3.org/TR/2001/REC-SVG-20010904/DTD/svg10.dtd">

<svg xmlns="http://www.w3.org/2000/svg"
     width="9.72222in" height="9.72222in"
     viewBox="0 0 700 700">
  <path id="Selection"
        fill="none" stroke="black" stroke-width="1"
        d="M 700.00,0.00
           C 700.00,0.00 700.00,700.00 700.00,700.00
             700.00,700.00 0.00,700.00 0.00,700.00
             0.00,700.00 0.00,0.00 0.00,0.00
             0.00,0.00 700.00,0.00 700.00,0.00 Z
           M 509.00,417.86
           C 515.59,420.48 520.08,422.36 527.00,419.08
             531.46,416.97 533.35,414.28 537.00,411.38
             540.54,408.56 543.39,407.62 546.39,403.91
             549.35,400.26 553.01,392.47 556.37,389.51
             556.37,389.51 580.00,378.20 580.00,378.20
             584.56,375.66 588.07,371.97 592.00,368.58
             596.74,364.49 606.29,356.01 609.47,350.91
             609.47,350.91 612.51,345.00 612.51,345.00
             616.38,338.00 617.89,337.54 618.00,329.00
             618.05,324.84 618.23,318.94 617.32,315.00
             616.28,310.48 614.92,308.90 612.97,305.00
             606.03,291.13 603.79,290.28 593.00,279.96
             593.00,279.96 583.00,270.53 583.00,270.53
             583.00,270.53 565.04,258.61 565.04,258.61
             558.07,252.87 552.27,240.99 543.00,238.56
             530.99,235.40 527.83,243.52 521.00,245.22
             521.00,245.22 500.00,245.22 500.00,245.22
             487.01,245.06 486.33,249.07 480.00,249.75
             475.72,250.21 472.38,248.03 466.00,248.03
             466.00,248.03 454.00,248.91 454.00,248.91
             445.09,248.40 445.26,246.85 432.00,247.00
             432.00,247.00 417.00,247.99 417.00,247.99
             417.00,247.99 405.00,247.09 405.00,247.09
             405.00,247.09 386.00,248.99 386.00,248.99
             386.00,248.99 373.09,248.10 373.09,248.10
             373.09,248.10 364.99,248.67 364.99,248.67
             364.99,248.67 352.00,245.28 352.00,245.28
             352.00,245.28 329.00,245.28 329.00,245.28
             326.33,245.00 323.62,244.92 321.00,245.28
             316.52,246.56 305.34,252.87 302.27,256.18
             302.27,256.18 296.48,265.00 296.48,265.00
             296.48,265.00 285.69,280.00 285.69,280.00
             285.69,280.00 279.90,290.00 279.90,290.00
             279.90,290.00 277.45,295.98 277.45,295.98
             276.40,297.98 274.55,300.63 272.03,300.66
             266.43,300.75 268.07,291.95 263.58,286.00
             261.20,282.84 257.97,280.30 255.00,277.72
             247.78,271.44 245.10,268.25 235.00,268.01
             222.44,267.72 224.61,270.78 217.00,274.20
             210.76,277.00 206.01,276.36 201.69,285.00
             198.62,291.13 201.38,295.38 198.26,299.89
             194.89,304.77 188.86,304.22 182.58,310.20
             182.58,310.20 158.00,335.00 158.00,335.00
             154.87,338.17 149.93,344.73 146.00,346.03
             143.67,346.87 136.21,346.01 133.00,346.03
             133.00,346.03 104.00,346.03 104.00,346.03
             99.58,346.06 93.85,346.59 90.39,349.65
             82.72,356.42 86.30,367.38 85.96,376.00
             85.96,376.00 85.01,389.00 85.01,389.00
             85.01,389.00 85.83,417.00 85.83,417.00
             85.27,422.48 83.65,429.14 87.51,433.86
             96.65,445.05 117.35,427.61 120.13,444.00
             120.13,444.00 120.13,455.00 120.13,455.00
             120.28,461.09 121.41,463.81 120.91,471.00
             120.27,480.15 114.30,497.45 128.00,500.80
             129.87,501.04 133.03,501.03 135.00,500.80
             135.00,500.80 149.00,500.04 149.00,500.04
             160.12,500.51 174.77,505.09 180.47,492.00
             182.82,486.60 181.93,476.16 182.00,470.00
             182.00,470.00 184.00,438.00 184.00,438.00
             183.95,434.06 183.37,428.70 182.04,425.00
             178.92,416.34 175.28,416.16 177.00,406.00
             177.00,406.00 216.00,407.00 216.00,407.00
             216.00,407.00 229.00,407.00 229.00,407.00
             229.00,407.00 238.00,406.34 238.00,406.34
             238.00,406.34 249.00,407.10 249.00,407.10
             249.00,407.10 290.00,407.10 290.00,407.10
             295.00,406.99 308.38,405.23 311.86,407.10
             316.04,409.82 314.77,413.77 319.06,421.00
             319.06,421.00 332.18,447.00 332.18,447.00
             332.18,447.00 337.87,457.00 337.87,457.00
             340.58,462.54 344.38,471.43 349.21,475.35
             356.53,481.30 373.80,479.90 383.00,480.00
             383.00,480.00 394.00,480.68 394.00,480.68
             420.52,478.57 425.69,450.57 439.63,433.06
             440.67,431.75 441.55,430.83 443.04,430.02
             445.40,428.73 448.14,429.09 450.82,427.55
             455.42,424.90 457.48,418.70 453.00,415.00
             453.61,413.08 454.23,409.99 455.59,408.56
             458.85,405.16 469.39,406.02 474.00,406.00
             482.54,405.96 484.18,404.76 492.00,403.00
             495.21,414.77 499.27,414.00 509.00,417.86 Z" />
</svg>
