<?xml version="1.0" encoding="UTF-8" standalone="no"?>
<!DOCTYPE svg PUBLIC "-//W3C//DTD SVG 20010904//EN"
              "http://www.w3.org/TR/2001/REC-SVG-20010904/DTD/svg10.dtd">

<svg xmlns="http://www.w3.org/2000/svg"
     width="9.72222in" height="9.72222in"
     viewBox="0 0 700 700">
  <path id="Selection"
        fill="none" stroke="black" stroke-width="1"
        d="M 700.00,0.00
           C 700.00,0.00 700.00,700.00 700.00,700.00
             700.00,700.00 0.00,700.00 0.00,700.00
             0.00,700.00 0.00,0.00 0.00,0.00
             0.00,0.00 700.00,0.00 700.00,0.00 Z
           M 348.27,182.10
           C 345.03,185.77 344.73,189.55 343.51,194.00
             343.51,194.00 340.62,204.00 340.62,204.00
             340.62,204.00 337.55,224.00 337.55,224.00
             335.81,232.49 333.52,234.20 332.49,238.00
             331.47,241.82 333.15,250.11 331.31,252.35
             328.47,255.81 320.14,254.95 316.00,255.00
             297.69,255.25 290.38,279.69 276.00,284.20
             271.78,285.52 267.32,284.67 263.00,285.18
             259.03,285.66 257.12,287.19 253.00,286.01
             247.44,284.41 239.54,278.19 230.58,278.43
             223.99,278.62 216.53,280.64 211.01,284.25
             211.01,284.25 202.91,290.56 202.91,290.56
             202.91,290.56 198.04,292.63 198.04,292.63
             193.26,295.07 192.39,299.60 189.64,299.58
             186.93,299.55 185.49,294.58 181.82,291.65
             178.06,288.65 171.71,287.68 167.00,287.32
             167.00,287.32 151.00,288.68 151.00,288.68
             147.55,288.94 146.18,288.27 143.00,288.09
             137.59,287.79 127.30,289.44 124.09,294.21
             120.58,299.42 122.92,304.50 122.92,310.00
             122.92,310.00 120.25,329.00 120.25,329.00
             120.25,329.00 115.67,346.00 115.67,346.00
             115.67,346.00 111.26,368.00 111.26,368.00
             109.21,375.38 105.99,380.92 106.51,389.00
             106.51,389.00 108.64,405.00 108.64,405.00
             108.64,405.00 106.09,419.00 106.09,419.00
             106.09,419.00 106.09,446.00 106.09,446.00
             106.05,449.93 108.14,457.64 107.36,459.83
             105.86,464.08 99.84,465.57 99.11,473.00
             98.25,481.71 103.11,484.04 104.58,490.00
             106.10,496.16 102.33,514.09 120.00,516.85
             120.00,516.85 129.00,516.85 129.00,516.85
             129.00,516.85 142.00,516.17 142.00,516.17
             150.78,516.92 169.72,522.13 174.11,510.98
             175.08,508.51 175.05,504.67 174.99,502.00
             174.89,497.87 173.55,484.84 172.51,481.00
             171.25,476.32 168.18,470.75 168.18,466.00
             168.19,462.25 170.09,458.62 171.08,455.00
             171.08,455.00 175.04,434.00 175.04,434.00
             175.04,434.00 175.04,425.00 175.04,425.00
             175.04,425.00 176.91,413.00 176.91,413.00
             177.27,407.89 176.47,403.07 182.04,400.11
             185.01,398.87 192.21,399.99 196.00,400.11
             196.00,400.11 225.00,400.11 225.00,400.11
             225.00,400.11 237.00,400.96 237.00,400.96
             237.00,400.96 249.00,400.96 249.00,400.96
             249.00,400.96 272.00,402.98 272.00,402.98
             272.00,402.98 283.00,402.04 283.00,402.04
             283.00,402.04 296.00,402.04 296.00,402.04
             303.69,401.92 314.13,400.46 313.28,412.00
             313.28,412.00 313.28,417.00 313.28,417.00
             313.28,417.00 315.58,431.00 315.58,431.00
             315.58,431.00 317.72,449.00 317.72,449.00
             318.29,453.81 317.28,459.78 319.45,463.98
             321.02,467.03 323.49,469.30 327.00,469.61
             329.33,469.81 336.45,467.86 336.97,472.22
             337.55,477.12 329.17,478.74 326.43,481.05
             323.49,483.53 323.61,489.42 323.74,493.00
             324.30,508.00 326.89,514.28 329.72,528.00
             329.72,528.00 333.43,556.00 333.43,556.00
             333.43,556.00 337.49,573.00 337.49,573.00
             337.49,573.00 339.72,589.00 339.72,589.00
             340.50,595.62 339.40,599.48 341.35,607.00
             341.35,607.00 345.90,618.00 345.90,618.00
             347.93,624.05 345.98,627.09 353.09,633.38
             356.61,636.49 360.45,638.84 365.00,640.07
             370.78,641.64 395.49,641.09 403.00,641.00
             413.63,640.87 425.42,632.93 429.52,623.00
             432.00,617.00 431.93,611.29 432.00,605.00
             432.00,605.00 437.71,577.00 437.71,577.00
             437.71,577.00 439.09,552.00 439.09,552.00
             439.09,552.00 442.00,530.00 442.00,530.00
             442.00,530.00 444.91,514.00 444.91,514.00
             445.14,510.67 444.43,505.27 446.31,502.56
             449.54,497.91 457.34,499.88 463.78,492.90
             469.19,487.03 468.02,479.05 472.39,475.89
             475.46,473.67 479.54,475.19 483.00,474.72
             490.49,473.71 494.18,467.02 493.98,460.00
             493.94,458.69 493.87,457.25 493.40,456.02
             489.66,446.18 477.62,452.54 472.42,448.26
             468.09,444.70 469.51,435.95 464.87,429.04
             460.90,423.14 455.91,423.74 454.44,417.98
             453.89,415.80 454.33,413.07 455.15,411.00
             458.68,402.00 468.96,403.09 477.00,403.00
             477.00,403.00 495.00,403.00 495.00,403.00
             495.00,403.00 529.00,400.00 529.00,400.00
             538.34,399.89 538.99,397.81 547.00,396.01
             547.00,396.01 567.00,391.78 567.00,391.78
             567.00,391.78 576.00,387.66 576.00,387.66
             576.00,387.66 587.00,384.43 587.00,384.43
             590.45,382.75 594.38,378.73 597.99,376.23
             610.97,367.23 625.88,351.02 624.91,334.00
             624.19,321.32 616.02,305.28 607.67,295.91
             604.01,291.80 601.83,290.32 598.00,286.83
             598.00,286.83 587.91,277.00 587.91,277.00
             587.91,277.00 575.00,272.01 575.00,272.01
             568.89,268.97 563.65,263.88 557.00,261.82
             552.40,260.80 551.49,261.98 548.00,261.82
             548.00,261.82 537.00,258.17 537.00,258.17
             537.00,258.17 500.00,255.00 500.00,255.00
             491.58,255.04 489.76,257.30 485.00,256.80
             477.40,256.01 476.32,250.96 471.90,249.01
             468.47,247.49 465.64,248.59 462.02,246.26
             456.17,242.50 456.48,237.21 453.92,233.04
             450.95,228.22 442.52,224.72 437.00,224.16
             432.21,223.74 430.36,225.68 427.77,224.16
             423.33,221.46 423.47,212.72 422.84,208.00
             421.85,200.49 419.73,199.12 417.55,193.00
             415.99,188.66 416.18,185.83 412.78,182.10
             405.00,173.60 392.37,175.00 382.00,175.14
             382.00,175.14 363.00,175.14 363.00,175.14
             357.34,176.24 352.27,177.59 348.27,182.10 Z" />
</svg>
