<?xml version="1.0" encoding="UTF-8" standalone="no"?>
<!DOCTYPE svg PUBLIC "-//W3C//DTD SVG 20010904//EN"
              "http://www.w3.org/TR/2001/REC-SVG-20010904/DTD/svg10.dtd">

<svg xmlns="http://www.w3.org/2000/svg"
     width="9.72222in" height="9.72222in"
     viewBox="0 0 700 700">
  <path id="Selection"
        fill="none" stroke="black" stroke-width="1"
        d="M 700.00,0.00
           C 700.00,0.00 700.00,700.00 700.00,700.00
             700.00,700.00 0.00,700.00 0.00,700.00
             0.00,700.00 0.00,0.00 0.00,0.00
             0.00,0.00 700.00,0.00 700.00,0.00 Z
           M 429.49,191.00
           C 428.11,184.87 426.23,183.48 424.44,172.00
             424.44,172.00 423.07,156.00 423.07,156.00
             423.07,156.00 420.51,147.00 420.51,147.00
             417.71,135.82 416.52,131.52 406.00,125.07
             401.31,122.19 397.57,120.78 392.00,121.09
             392.00,121.09 385.00,121.83 385.00,121.83
             385.00,121.83 371.00,121.83 371.00,121.83
             359.05,121.31 349.77,126.90 344.88,138.00
             340.58,147.75 339.53,170.01 337.68,181.00
             337.68,181.00 332.89,199.00 332.89,199.00
             332.89,199.00 330.92,215.00 330.92,215.00
             330.92,215.00 327.33,230.00 327.33,230.00
             326.60,234.80 327.96,236.72 328.12,240.57
             328.12,240.57 327.15,254.00 327.15,254.00
             326.92,257.17 327.47,260.78 324.69,262.99
             321.40,265.60 315.04,264.95 311.00,265.00
             299.67,265.14 300.21,268.42 292.00,274.01
             292.00,274.01 285.00,277.73 285.00,277.73
             276.53,282.28 276.98,282.98 267.00,283.00
             267.00,283.00 232.00,285.00 232.00,285.00
             224.70,285.01 203.65,284.11 198.00,286.34
             193.12,288.27 189.31,292.92 185.00,296.00
             185.00,288.51 185.40,271.71 179.77,266.39
             171.96,259.00 160.44,261.95 151.00,262.21
             151.00,262.21 136.00,262.21 136.00,262.21
             131.61,263.06 126.52,263.69 123.43,267.22
             118.80,272.50 122.28,279.87 121.82,286.00
             121.82,286.00 120.27,295.00 120.27,295.00
             118.07,309.26 116.02,317.21 116.00,332.00
             115.98,344.41 108.47,360.53 109.04,375.00
             109.04,375.00 111.89,391.00 111.89,391.00
             111.89,391.00 110.00,409.00 110.00,409.00
             110.00,409.00 111.11,451.00 111.11,451.00
             111.04,453.76 111.80,458.79 111.11,461.00
             110.12,465.16 102.56,473.09 107.45,483.00
             108.88,485.88 116.56,497.43 119.04,499.12
             126.07,503.91 135.17,502.15 143.00,502.78
             150.00,503.35 151.58,505.20 161.00,504.99
             163.78,504.92 166.30,504.64 169.00,503.96
             170.84,503.49 172.35,503.00 173.98,501.99
             186.53,494.23 174.78,483.48 173.34,469.00
             173.34,469.00 175.00,451.00 175.00,451.00
             175.00,451.00 177.85,420.00 177.85,420.00
             178.41,415.32 178.58,405.69 182.39,402.86
             185.67,400.22 192.10,402.45 196.00,402.86
             196.00,402.86 204.00,402.86 204.00,402.86
             211.45,403.09 211.46,404.24 217.00,405.00
             217.00,405.00 229.00,405.00 229.00,405.00
             229.00,405.00 241.00,407.00 241.00,407.00
             241.00,407.00 250.00,407.00 250.00,407.00
             250.00,407.00 265.00,408.00 265.00,408.00
             265.00,408.00 280.00,408.99 280.00,408.99
             280.00,408.99 290.00,408.04 290.00,408.04
             290.00,408.04 304.00,408.04 304.00,408.04
             308.56,408.01 313.25,407.62 316.01,412.07
             318.17,415.55 316.19,420.26 316.73,426.00
             316.73,426.00 320.00,456.00 320.00,456.00
             320.00,456.00 320.00,465.00 320.00,465.00
             320.12,474.77 322.71,473.68 323.78,480.00
             325.21,488.44 324.82,496.55 325.01,505.00
             325.01,505.00 330.72,531.00 330.72,531.00
             330.72,531.00 335.16,568.00 335.16,568.00
             336.75,580.11 337.98,577.07 338.00,592.00
             338.02,606.04 341.33,611.82 343.09,623.96
             343.09,623.96 343.09,634.00 343.09,634.00
             344.66,643.99 352.22,653.38 362.00,656.21
             365.07,657.10 367.85,657.00 371.00,657.04
             371.00,657.04 388.00,657.04 388.00,657.04
             388.00,657.04 397.00,657.99 397.00,657.99
             401.31,658.08 407.05,657.77 410.99,655.93
             417.52,652.88 427.35,641.02 429.36,634.00
             430.11,631.42 430.00,628.66 430.00,626.00
             430.02,614.80 430.82,617.09 431.83,608.00
             431.83,608.00 435.43,579.00 435.43,579.00
             437.68,563.80 438.81,562.34 439.00,546.00
             439.00,546.00 440.96,529.00 440.96,529.00
             441.14,525.04 440.37,520.54 443.43,517.43
             447.03,513.76 455.48,514.29 460.73,508.79
             465.35,503.95 465.30,495.68 470.21,491.31
             475.57,486.55 488.18,492.40 491.76,480.00
             491.94,478.64 492.02,476.42 491.76,475.00
             491.22,459.85 474.87,470.52 468.99,462.77
             466.12,458.99 464.95,449.90 461.35,445.04
             457.81,440.24 452.93,439.46 452.06,434.98
             451.61,432.64 453.47,427.87 453.82,425.00
             454.53,419.09 452.25,411.12 459.04,409.10
             460.43,408.94 463.47,409.00 465.00,409.10
             465.00,409.10 493.00,409.10 493.00,409.10
             493.00,409.10 510.00,408.00 510.00,408.00
             520.22,407.98 526.70,408.43 537.00,406.72
             537.00,406.72 558.00,401.46 558.00,401.46
             562.03,400.69 567.24,400.48 571.00,398.93
             571.00,398.93 578.00,395.61 578.00,395.61
             581.73,394.32 585.42,394.31 589.00,392.15
             589.00,392.15 596.00,386.61 596.00,386.61
             603.23,381.24 611.36,376.23 616.47,368.58
             616.47,368.58 620.26,361.00 620.26,361.00
             621.79,357.83 623.68,354.45 624.47,351.00
             627.81,336.46 621.72,319.39 612.79,308.00
             608.34,302.33 595.78,290.76 590.00,286.57
             586.62,284.12 584.41,283.94 581.00,282.04
             572.36,277.23 561.76,270.89 552.00,268.82
             552.00,268.82 521.00,266.92 521.00,266.92
             521.00,266.92 509.00,266.92 509.00,266.92
             509.00,266.92 492.00,265.26 492.00,265.26
             492.00,265.26 478.00,267.96 478.00,267.96
             478.00,267.96 469.01,267.09 469.01,267.09
             469.01,267.09 457.00,267.09 457.00,267.09
             457.24,261.82 457.93,255.90 463.04,253.17
             468.14,250.46 481.02,254.90 483.69,243.00
             483.88,241.73 483.94,240.28 483.69,239.00
             482.07,225.76 468.28,232.39 463.39,228.40
             459.97,225.61 459.20,218.71 456.47,214.00
             451.82,205.97 440.50,203.59 432.00,206.00
             432.00,206.00 429.49,191.00 429.49,191.00 Z" />
</svg>
